<svg width="44" height="44" viewBox="0 0 44 44" fill="none" xmlns="http://www.w3.org/2000/svg">
<path d="M22.0029 4.55713C21.2677 4.55714 20.3176 5.12557 19.501 6.76709L16.2734 13.2222V13.2212C15.9858 13.8059 15.4897 14.3314 14.9521 14.728C14.4803 15.0762 13.9243 15.3634 13.3633 15.5015L13.1221 15.5513L7.27441 16.5229C5.53384 16.813 4.71627 17.5434 4.48926 18.2495C4.26285 18.9539 4.50051 20.0191 5.75391 21.2642L10.3027 25.813C10.8001 26.3104 11.1516 26.9977 11.3486 27.686C11.5458 28.3747 11.6102 29.1425 11.457 29.8257L11.4561 29.8306L10.1553 35.4575V35.4585C9.65653 37.6227 10.0755 38.7394 10.6426 39.1528C11.1754 39.5413 12.2601 39.6171 13.9717 38.6929L14.3223 38.4946L19.8037 35.2495C20.4426 34.8711 21.2391 34.7046 21.9941 34.7046C22.7497 34.7046 23.5474 34.8715 24.1924 35.2466L24.1973 35.2495L29.6797 38.4946C31.5822 39.6237 32.7797 39.5632 33.3516 39.146C33.9227 38.7292 34.3443 37.6102 33.8467 35.4595L32.5449 29.8306L32.5439 29.8257C32.3908 29.1425 32.4562 28.3747 32.6533 27.686C32.8503 26.9978 33.201 26.3103 33.6982 25.813L38.2451 21.2661C39.4902 20.021 39.7302 18.9548 39.5049 18.2485C39.2937 17.5871 38.5666 16.9042 37.043 16.5825L36.7275 16.5229L30.8799 15.5513H30.877C30.244 15.4438 29.5993 15.1243 29.0635 14.7271C28.5292 14.3309 28.0346 13.8055 27.7471 13.2212L27.7461 13.2222L24.5205 6.76807C23.6949 5.12638 22.7393 4.55713 22.0029 4.55713Z" fill="#E8E8E8" stroke="#E8E8E8" stroke-width="1.5" stroke-linecap="round" stroke-linejoin="round"/>
<path d="M26.7685 21.1174C26.0808 21.1174 25.5233 20.5599 25.5233 19.8722C25.5233 19.1844 26.0808 18.627 26.7685 18.627C27.4562 18.627 28.0137 19.1844 28.0137 19.8722C28.0137 20.5599 27.4562 21.1174 26.7685 21.1174Z" fill="#C6C6C6"/>
<path d="M17.3036 21.1174C16.6159 21.1174 16.0584 20.5599 16.0584 19.8722C16.0584 19.1844 16.6159 18.627 17.3036 18.627C17.9913 18.627 18.5488 19.1844 18.5488 19.8722C18.5488 20.5599 17.9913 21.1174 17.3036 21.1174Z" fill="#C6C6C6"/>
<path d="M27.2549 27.9177C27.0339 27.8608 26.8132 27.817 26.5923 27.7747C26.3713 27.7324 26.1506 27.698 25.9296 27.6647C25.488 27.5993 25.0463 27.5505 24.6047 27.5087C23.7211 27.4284 22.8377 27.3912 21.9542 27.3849C21.0706 27.3786 20.1873 27.4068 19.3039 27.4767C19.083 27.4941 18.8623 27.514 18.6413 27.5384C18.4204 27.5628 18.1997 27.5887 17.9787 27.6182C17.7577 27.6476 17.537 27.6821 17.3161 27.7216C17.0951 27.7611 16.8744 27.8034 16.6535 27.8585C16.4994 27.897 16.3626 27.986 16.2648 28.1112C16.1671 28.2363 16.114 28.3906 16.114 28.5494C16.114 28.7083 16.1671 28.8625 16.2648 28.9877C16.3626 29.1129 16.4994 29.2019 16.6535 29.2404C16.8744 29.2955 17.0954 29.3385 17.3161 29.3773C17.5368 29.416 17.7577 29.4495 17.9787 29.4807C18.1997 29.5119 18.4204 29.5376 18.6413 29.5605C18.8623 29.5834 19.083 29.6048 19.3039 29.6224C20.1873 29.6921 21.0708 29.7195 21.9542 29.714C22.8375 29.7085 23.7211 29.6707 24.6047 29.5904C25.0463 29.5487 25.488 29.4996 25.9296 29.4344C26.1506 29.4009 26.3716 29.366 26.5923 29.3242C26.813 29.2824 27.0339 29.2384 27.2549 29.1812C27.3949 29.145 27.519 29.0633 27.6075 28.949C27.6961 28.8346 27.7441 28.6941 27.7441 28.5494C27.7441 28.4048 27.6961 28.2643 27.6075 28.1499C27.519 28.0355 27.3949 27.9538 27.2549 27.9177Z" fill="#C6C6C6"/>
</svg>
