<svg width="44" height="44" viewBox="0 0 44 44" fill="none" xmlns="http://www.w3.org/2000/svg">
<path d="M18.829 6.43338L15.6023 12.8867C15.1623 13.785 13.989 14.6467 12.999 14.8117L7.15065 15.7834C3.41066 16.4067 2.53065 19.12 5.22565 21.7967L9.77232 26.3434C10.5423 27.1134 10.964 28.5984 10.7257 29.6617L9.42399 35.29C8.39732 39.745 10.7623 41.4684 14.704 39.14L20.1857 35.895C21.1757 35.3084 22.8073 35.3084 23.8157 35.895L29.2973 39.14C33.2207 41.4684 35.604 39.7267 34.5773 35.29L33.2757 29.6617C33.0373 28.5984 33.459 27.1134 34.229 26.3434L38.7757 21.7967C41.4523 19.12 40.5907 16.4067 36.8507 15.7834L31.0023 14.8117C30.0307 14.6467 28.8573 13.785 28.4173 12.8867L25.1907 6.43338C23.4307 2.93171 20.5707 2.93171 18.829 6.43338Z" fill="#1E3A8A"/>
<path d="M26.1806 21.1174C25.4929 21.1174 24.9354 20.5599 24.9354 19.8722C24.9354 19.1844 25.4929 18.627 26.1806 18.627C26.8683 18.627 27.4258 19.1844 27.4258 19.8722C27.4258 20.5599 26.8683 21.1174 26.1806 21.1174Z" fill="white"/>
<path d="M17.7255 21.1174C17.0378 21.1174 16.4803 20.5599 16.4803 19.8722C16.4803 19.1844 17.0378 18.627 17.7255 18.627C18.4132 18.627 18.9707 19.1844 18.9707 19.8722C18.9707 20.5599 18.4132 21.1174 17.7255 21.1174Z" fill="white"/>
<path d="M17.1347 26.3555C17.1401 26.378 17.1414 26.3865 17.1437 26.398L17.1495 26.4292L17.1603 26.4857C17.168 26.5223 17.1761 26.556 17.1841 26.5906C17.2003 26.6581 17.2199 26.7237 17.2395 26.7887C17.2805 26.916 17.3288 27.0408 17.384 27.1626C17.4947 27.4054 17.6303 27.636 17.7887 27.8506C18.112 28.2821 18.5134 28.649 18.9722 28.9323C19.1995 29.0711 19.4373 29.1922 19.6834 29.2942C19.9254 29.3929 20.1744 29.4737 20.4282 29.5359C20.9191 29.6554 21.4224 29.7157 21.9276 29.7158C22.4264 29.721 22.9242 29.6697 23.4115 29.5629L23.5979 29.5193C23.6599 29.5051 23.722 29.4847 23.7836 29.4676C23.8452 29.4505 23.9072 29.4334 23.9686 29.4109L24.1525 29.3466C24.3992 29.2557 24.6383 29.1457 24.8677 29.0175C25.1003 28.8877 25.3213 28.7383 25.5283 28.5707C25.7355 28.4009 25.9263 28.2121 26.0984 28.0069C26.1414 27.9556 26.1816 27.9016 26.2225 27.8495C26.2635 27.7973 26.3017 27.7416 26.3388 27.686C26.4131 27.5747 26.4813 27.4594 26.5432 27.3407C26.6059 27.2212 26.6611 27.098 26.7086 26.9717C26.7311 26.9077 26.7547 26.8425 26.7747 26.7748C26.7846 26.7397 26.7943 26.7073 26.8037 26.6693L26.8174 26.6125L26.8249 26.581C26.8278 26.5686 26.8291 26.5614 26.8361 26.5371C26.8962 26.3674 26.8864 26.1807 26.8088 26.0182C26.7312 25.8557 26.5923 25.7306 26.4225 25.6705C26.2528 25.6105 26.0661 25.6203 25.9036 25.6978C25.7411 25.7754 25.616 25.9143 25.5559 26.0841C25.5582 26.0724 25.5546 26.0774 25.5528 26.0776C25.551 26.0778 25.5478 26.0807 25.5451 26.083C25.5424 26.0852 25.5337 26.0927 25.5269 26.0992L25.4882 26.1378C25.4606 26.1653 25.4329 26.1938 25.4035 26.2217C25.3462 26.2786 25.2839 26.3341 25.2218 26.3876C25.0978 26.4939 24.9665 26.5916 24.829 26.6799C24.6937 26.7674 24.5529 26.8463 24.4077 26.9162C24.2618 26.9847 24.1123 27.0453 23.9599 27.0976C23.8049 27.1508 23.6473 27.1958 23.4877 27.2325C23.4061 27.2499 23.3258 27.269 23.242 27.2822C23.2004 27.2894 23.1601 27.2984 23.1176 27.3047L22.9911 27.3231C22.6419 27.37 22.2898 27.392 21.9375 27.389C21.5912 27.3897 21.2454 27.3633 20.9033 27.3099C20.7408 27.2844 20.5797 27.2508 20.4206 27.2092C20.2643 27.1676 20.113 27.117 19.964 27.0612C19.667 26.9447 19.3862 26.7907 19.1285 26.6028C18.9962 26.5051 18.8704 26.399 18.7519 26.2851C18.693 26.2269 18.6336 26.1675 18.5783 26.1066L18.537 26.0616L18.4974 26.0167L18.4601 25.9744C18.4533 25.9672 18.4479 25.9618 18.4425 25.9564C18.4404 25.9538 18.4378 25.9516 18.4349 25.9499C18.4326 25.9499 18.4295 25.9447 18.4311 25.9548C18.4047 25.8696 18.3619 25.7904 18.305 25.7218C18.2481 25.6531 18.1782 25.5963 18.0994 25.5547C18.0205 25.513 17.9342 25.4873 17.8454 25.479C17.7566 25.4707 17.6671 25.48 17.5819 25.5063C17.4967 25.5326 17.4175 25.5754 17.3488 25.6323C17.2802 25.6893 17.2234 25.7591 17.1817 25.838C17.1401 25.9168 17.1144 26.0031 17.1061 26.0919C17.0978 26.1807 17.107 26.2703 17.1333 26.3555H17.1347Z" fill="white"/>
</svg>
