<svg width="44" height="44" viewBox="0 0 44 44" fill="none" xmlns="http://www.w3.org/2000/svg">
<path d="M22.0029 4.55713C21.2677 4.55714 20.3176 5.12557 19.501 6.76709L16.2734 13.2222V13.2212C15.9858 13.8059 15.4897 14.3314 14.9521 14.728C14.4803 15.0762 13.9243 15.3634 13.3633 15.5015L13.1221 15.5513L7.27441 16.5229C5.53384 16.813 4.71627 17.5434 4.48926 18.2495C4.26285 18.9539 4.50051 20.0191 5.75391 21.2642L10.3027 25.813C10.8001 26.3104 11.1516 26.9977 11.3486 27.686C11.5458 28.3747 11.6102 29.1425 11.457 29.8257L11.4561 29.8306L10.1553 35.4575V35.4585C9.65653 37.6227 10.0755 38.7394 10.6426 39.1528C11.1754 39.5413 12.2601 39.6171 13.9717 38.6929L14.3223 38.4946L19.8037 35.2495C20.4426 34.8711 21.2391 34.7046 21.9941 34.7046C22.7497 34.7046 23.5474 34.8715 24.1924 35.2466L24.1973 35.2495L29.6797 38.4946C31.5822 39.6237 32.7797 39.5632 33.3516 39.146C33.9227 38.7292 34.3443 37.6102 33.8467 35.4595L32.5449 29.8306L32.5439 29.8257C32.3908 29.1425 32.4562 28.3747 32.6533 27.686C32.8503 26.9978 33.201 26.3103 33.6982 25.813L38.2451 21.2661C39.4902 20.021 39.7302 18.9548 39.5049 18.2485C39.2937 17.5871 38.5666 16.9042 37.043 16.5825L36.7275 16.5229L30.8799 15.5513H30.877C30.244 15.4438 29.5993 15.1243 29.0635 14.7271C28.5292 14.3309 28.0346 13.8055 27.7471 13.2212L27.7461 13.2222L24.5205 6.76807C23.6949 5.12638 22.7393 4.55713 22.0029 4.55713Z" fill="#E8E8E8" stroke="#E8E8E8" stroke-width="1.5" stroke-linecap="round" stroke-linejoin="round"/>
<path d="M25.8876 21.1174C25.1999 21.1174 24.6424 20.5599 24.6424 19.8722C24.6424 19.1844 25.1999 18.627 25.8876 18.627C26.5753 18.627 27.1328 19.1844 27.1328 19.8722C27.1328 20.5599 26.5753 21.1174 25.8876 21.1174Z" fill="#C6C6C6"/>
<path d="M17.9735 21.1174C17.2858 21.1174 16.7284 20.5599 16.7284 19.8722C16.7284 19.1844 17.2858 18.627 17.9735 18.627C18.6612 18.627 19.2188 19.1844 19.2188 19.8722C19.2188 20.5599 18.6612 21.1174 17.9735 21.1174Z" fill="#C6C6C6"/>
<path d="M26.5031 25.6116C26.8335 25.6204 27.0273 25.938 27.0273 26.7935C27.0273 29.6346 22.8604 29.723 22.0505 29.7133C21.2748 29.7241 17.0602 29.6502 17.0602 26.7937C17.0602 25.9645 17.2423 25.6406 17.5544 25.6135" fill="#C6C6C6"/>
</svg>
