<svg width="44" height="44" viewBox="0 0 44 44" fill="none" xmlns="http://www.w3.org/2000/svg">
<path d="M18.829 6.43338L15.6023 12.8867C15.1623 13.785 13.989 14.6467 12.999 14.8117L7.15065 15.7834C3.41066 16.4067 2.53065 19.12 5.22565 21.7967L9.77232 26.3434C10.5423 27.1134 10.964 28.5984 10.7257 29.6617L9.42399 35.29C8.39732 39.745 10.7623 41.4684 14.704 39.14L20.1857 35.895C21.1757 35.3084 22.8073 35.3084 23.8157 35.895L29.2973 39.14C33.2207 41.4684 35.604 39.7267 34.5773 35.29L33.2757 29.6617C33.0373 28.5984 33.459 27.1134 34.229 26.3434L38.7757 21.7967C41.4523 19.12 40.5907 16.4067 36.8507 15.7834L31.0023 14.8117C30.0307 14.6467 28.8573 13.785 28.4173 12.8867L25.1907 6.43338C23.4307 2.93171 20.5707 2.93171 18.829 6.43338Z" fill="#1E3A8A"/>
<path d="M26.7685 21.1174C26.0808 21.1174 25.5233 20.5599 25.5233 19.8722C25.5233 19.1844 26.0808 18.627 26.7685 18.627C27.4562 18.627 28.0137 19.1844 28.0137 19.8722C28.0137 20.5599 27.4562 21.1174 26.7685 21.1174Z" fill="white"/>
<path d="M17.3036 21.1174C16.6159 21.1174 16.0584 20.5599 16.0584 19.8722C16.0584 19.1844 16.6159 18.627 17.3036 18.627C17.9913 18.627 18.5488 19.1844 18.5488 19.8722C18.5488 20.5599 17.9913 21.1174 17.3036 21.1174Z" fill="white"/>
<path d="M27.2549 27.9174C27.0339 27.8605 26.8132 27.8167 26.5923 27.7745C26.3713 27.7322 26.1506 27.6977 25.9296 27.6645C25.488 27.5991 25.0463 27.5502 24.6047 27.5085C23.7211 27.4282 22.8377 27.3909 21.9542 27.3846C21.0706 27.3784 20.1873 27.4065 19.3039 27.4765C19.083 27.4939 18.8623 27.5137 18.6413 27.5382C18.4204 27.5626 18.1997 27.5885 17.9787 27.6179C17.7577 27.6474 17.537 27.6819 17.3161 27.7214C17.0951 27.7609 16.8744 27.8032 16.6535 27.8583C16.4994 27.8968 16.3626 27.9857 16.2648 28.1109C16.1671 28.2361 16.114 28.3904 16.114 28.5492C16.114 28.708 16.1671 28.8623 16.2648 28.9875C16.3626 29.1127 16.4994 29.2016 16.6535 29.2401C16.8744 29.2952 17.0954 29.3383 17.3161 29.377C17.5368 29.4158 17.7577 29.4493 17.9787 29.4805C18.1997 29.5117 18.4204 29.5373 18.6413 29.5602C18.8623 29.5831 19.083 29.6045 19.3039 29.6222C20.1873 29.6919 21.0708 29.7193 21.9542 29.7138C22.8375 29.7082 23.7211 29.6705 24.6047 29.5902C25.0463 29.5484 25.488 29.4993 25.9296 29.4342C26.1506 29.4007 26.3716 29.3657 26.5923 29.3239C26.813 29.2822 27.0339 29.2381 27.2549 29.181C27.3949 29.1448 27.519 29.0631 27.6075 28.9487C27.6961 28.8344 27.7441 28.6938 27.7441 28.5492C27.7441 28.4046 27.6961 28.264 27.6075 28.1497C27.519 28.0353 27.3949 27.9536 27.2549 27.9174Z" fill="white"/>
</svg>
