<svg width="44" height="44" viewBox="0 0 44 44" fill="none" xmlns="http://www.w3.org/2000/svg">
<path d="M18.829 6.43338L15.6023 12.8867C15.1623 13.785 13.989 14.6467 12.999 14.8117L7.15065 15.7834C3.41065 16.4067 2.53066 19.12 5.22566 21.7967L9.77232 26.3434C10.5423 27.1134 10.964 28.5984 10.7257 29.6617L9.42399 35.29C8.39732 39.745 10.7623 41.4684 14.704 39.14L20.1857 35.895C21.1757 35.3084 22.8073 35.3084 23.8157 35.895L29.2973 39.14C33.2207 41.4684 35.604 39.7267 34.5773 35.29L33.2757 29.6617C33.0373 28.5984 33.459 27.1134 34.229 26.3434L38.7757 21.7967C41.4523 19.12 40.5907 16.4067 36.8507 15.7834L31.0023 14.8117C30.0307 14.6467 28.8573 13.785 28.4173 12.8867L25.1907 6.43338C23.4307 2.93171 20.5707 2.93171 18.829 6.43338Z" fill="#1E3A8A"/>
<path d="M25.8876 21.1174C25.1999 21.1174 24.6424 20.5599 24.6424 19.8722C24.6424 19.1844 25.1999 18.627 25.8876 18.627C26.5753 18.627 27.1328 19.1844 27.1328 19.8722C27.1328 20.5599 26.5753 21.1174 25.8876 21.1174Z" fill="white"/>
<path d="M17.9735 21.1174C17.2858 21.1174 16.7284 20.5599 16.7284 19.8722C16.7284 19.1844 17.2858 18.627 17.9735 18.627C18.6612 18.627 19.2188 19.1844 19.2188 19.8722C19.2188 20.5599 18.6612 21.1174 17.9735 21.1174Z" fill="white"/>
<path d="M26.5031 25.6113C26.8335 25.6202 27.0273 25.9377 27.0273 26.7932C27.0273 29.6344 22.8604 29.7228 22.0505 29.7131C21.2748 29.7238 17.0602 29.6499 17.0602 26.7934C17.0602 25.9643 17.2423 25.6404 17.5544 25.6132" fill="white"/>
</svg>
