<svg width="44" height="44" viewBox="0 0 44 44" fill="none" xmlns="http://www.w3.org/2000/svg">
<path d="M18.829 6.43338L15.6023 12.8867C15.1623 13.785 13.989 14.6467 12.999 14.8117L7.15065 15.7834C3.41066 16.4067 2.53065 19.12 5.22565 21.7967L9.77232 26.3434C10.5423 27.1134 10.964 28.5984 10.7257 29.6617L9.42399 35.29C8.39732 39.745 10.7623 41.4684 14.704 39.14L20.1857 35.895C21.1757 35.3084 22.8073 35.3084 23.8157 35.895L29.2973 39.14C33.2207 41.4684 35.604 39.7267 34.5773 35.29L33.2757 29.6617C33.0373 28.5984 33.459 27.1134 34.229 26.3434L38.7757 21.7967C41.4523 19.12 40.5907 16.4067 36.8507 15.7834L31.0023 14.8117C30.0307 14.6467 28.8573 13.785 28.4173 12.8867L25.1907 6.43338C23.4307 2.93171 20.5707 2.93171 18.829 6.43338Z" fill="#1E3A8A"/>
<path d="M26.0022 20.8886C25.3778 20.8886 24.8716 20.3823 24.8716 19.7578C24.8716 19.1332 25.3778 18.627 26.0022 18.627C26.6266 18.627 27.1328 19.1332 27.1328 19.7578C27.1328 20.3823 26.6266 20.8886 26.0022 20.8886Z" fill="white"/>
<path d="M18.0862 20.8886C17.4618 20.8886 16.9556 20.3823 16.9556 19.7578C16.9556 19.1332 17.4618 18.627 18.0862 18.627C18.7106 18.627 19.2168 19.1332 19.2168 19.7578C19.2168 20.3823 18.7106 20.8886 18.0862 20.8886Z" fill="white"/>
<path d="M26.5031 29.7148C26.8335 29.706 27.0273 29.3884 27.0273 28.5329C27.0273 25.6918 22.8604 25.6034 22.0505 25.6131C21.2748 25.6024 17.0602 25.6762 17.0602 28.5327C17.0602 29.3619 17.2423 29.6858 17.5544 29.713" fill="white"/>
</svg>
