<svg width="44" height="44" viewBox="0 0 44 44" fill="none" xmlns="http://www.w3.org/2000/svg">
<path d="M18.829 6.43338L15.6023 12.8867C15.1623 13.785 13.989 14.6467 12.999 14.8117L7.15065 15.7834C3.41066 16.4067 2.53065 19.12 5.22565 21.7967L9.77232 26.3434C10.5423 27.1134 10.964 28.5984 10.7257 29.6617L9.42399 35.29C8.39732 39.745 10.7623 41.4684 14.704 39.14L20.1857 35.895C21.1757 35.3084 22.8073 35.3084 23.8157 35.895L29.2973 39.14C33.2207 41.4684 35.604 39.7267 34.5773 35.29L33.2757 29.6617C33.0373 28.5984 33.459 27.1134 34.229 26.3434L38.7757 21.7967C41.4523 19.12 40.5907 16.4067 36.8507 15.7834L31.0023 14.8117C30.0307 14.6467 28.8573 13.785 28.4173 12.8867L25.1907 6.43338C23.4307 2.93171 20.5707 2.93171 18.829 6.43338Z" fill="#1E3A8A"/>
<path d="M26.329 21.1174C25.6414 21.1174 25.0839 20.5599 25.0839 19.8722C25.0839 19.1844 25.6414 18.627 26.329 18.627C27.0167 18.627 27.5742 19.1844 27.5742 19.8722C27.5742 20.5599 27.0167 21.1174 26.329 21.1174Z" fill="white"/>
<path d="M17.6122 21.1174C16.9246 21.1174 16.3671 20.5599 16.3671 19.8722C16.3671 19.1844 16.9246 18.627 17.6122 18.627C18.2999 18.627 18.8574 19.1844 18.8574 19.8722C18.8574 20.5599 18.2999 21.1174 17.6122 21.1174Z" fill="white"/>
<path d="M26.9777 28.8105C26.9724 28.7873 26.971 28.7785 26.9689 28.7669L26.9629 28.7349L26.952 28.6767C26.9446 28.6389 26.9364 28.6039 26.9288 28.5682C26.9123 28.4987 26.8926 28.4308 26.8727 28.3638C26.8313 28.2321 26.7826 28.1029 26.7267 27.9767C26.6141 27.7252 26.4759 27.4859 26.3141 27.2628C25.9839 26.8129 25.5717 26.4294 25.0991 26.1326C24.8646 25.9863 24.6189 25.8588 24.3643 25.7515C24.1137 25.6476 23.8558 25.5623 23.5927 25.4966C23.0837 25.3704 22.5613 25.3062 22.0369 25.3056C21.5194 25.2999 21.003 25.3539 20.4978 25.4664L20.3045 25.5128C20.2403 25.5281 20.1761 25.5492 20.1119 25.5673C19.9837 25.6025 19.8569 25.6491 19.7299 25.6945C19.4745 25.79 19.2272 25.9056 18.9902 26.0403C18.7502 26.1766 18.5223 26.3333 18.3093 26.5088C18.096 26.686 17.9001 26.883 17.7242 27.0973C17.5488 27.3113 17.3968 27.5434 17.2706 27.7897C17.2069 27.9135 17.1507 28.0412 17.1026 28.1719C17.0794 28.2382 17.0562 28.3056 17.0358 28.3756C17.0258 28.4116 17.0161 28.4452 17.0066 28.4843L16.9929 28.543L16.9855 28.5754C16.9825 28.5879 16.9811 28.5956 16.9741 28.6202C16.9407 28.7076 16.9251 28.8009 16.9284 28.8945C16.9316 28.9881 16.9536 29.0801 16.9931 29.1651C17.0325 29.25 17.0886 29.3262 17.1581 29.3891C17.2275 29.4519 17.3088 29.5002 17.3972 29.5311C17.4857 29.562 17.5794 29.5748 17.6728 29.5688C17.7663 29.5628 17.8576 29.5381 17.9414 29.4961C18.0251 29.4542 18.0996 29.3959 18.1604 29.3247C18.2212 29.2534 18.2671 29.1707 18.2953 29.0814C18.2933 29.093 18.2967 29.0879 18.2988 29.0877C18.3009 29.0875 18.3039 29.0842 18.3069 29.0819C18.3099 29.0796 18.3185 29.0715 18.3255 29.0645L18.3656 29.0237C18.3941 28.9947 18.4226 28.9648 18.453 28.9354C18.5118 28.8758 18.5763 28.8176 18.64 28.7611C18.7677 28.6491 18.9029 28.5461 19.0447 28.4526C19.1839 28.3602 19.3289 28.2771 19.4789 28.2036C19.6289 28.1314 19.7828 28.0674 19.9399 28.012L20.0586 27.9714L20.18 27.9355C20.2194 27.922 20.2614 27.9123 20.3026 27.9016C20.3439 27.891 20.3838 27.8784 20.4262 27.8703C20.5103 27.8525 20.5928 27.8319 20.6793 27.8179C20.7222 27.8103 20.7639 27.801 20.8075 27.7948L20.938 27.7755C21.2983 27.7259 21.6618 27.7027 22.0255 27.706C22.7647 27.7095 23.4513 27.8098 24.0588 28.0537C24.3653 28.1769 24.6545 28.3394 24.9192 28.537C25.0556 28.6398 25.1853 28.7515 25.3072 28.8712C25.3677 28.9322 25.4289 28.9945 25.4857 29.0585L25.5283 29.1062L25.5691 29.1526L25.6078 29.1971C25.6146 29.2045 25.6203 29.2103 25.6259 29.2161C25.6282 29.2188 25.6308 29.2211 25.6338 29.223C25.6361 29.223 25.6394 29.2286 25.638 29.2186C25.692 29.3963 25.8144 29.5452 25.9783 29.6325C26.1421 29.7199 26.3339 29.7386 26.5116 29.6845C26.6892 29.6305 26.8381 29.5081 26.9255 29.3442C27.0128 29.1804 27.0315 28.9886 26.9775 28.8109L26.9777 28.8105Z" fill="white"/>
</svg>
