<svg width="44" height="44" viewBox="0 0 44 44" fill="none" xmlns="http://www.w3.org/2000/svg">
<path d="M22.0029 4.55713C21.2677 4.55714 20.3176 5.12557 19.501 6.76709L16.2734 13.2222V13.2212C15.9858 13.8059 15.4897 14.3314 14.9521 14.728C14.4803 15.0762 13.9243 15.3634 13.3633 15.5015L13.1221 15.5513L7.27441 16.5229C5.53384 16.813 4.71627 17.5434 4.48926 18.2495C4.26285 18.9539 4.50051 20.0191 5.75391 21.2642L10.3027 25.813C10.8001 26.3104 11.1516 26.9977 11.3486 27.686C11.5458 28.3747 11.6102 29.1425 11.457 29.8257L11.4561 29.8306L10.1553 35.4575V35.4585C9.65653 37.6227 10.0755 38.7394 10.6426 39.1528C11.1754 39.5413 12.2601 39.6171 13.9717 38.6929L14.3223 38.4946L19.8037 35.2495C20.4426 34.8711 21.2391 34.7046 21.9941 34.7046C22.7497 34.7046 23.5474 34.8715 24.1924 35.2466L24.1973 35.2495L29.6797 38.4946C31.5822 39.6237 32.7797 39.5632 33.3516 39.146C33.9227 38.7292 34.3443 37.6102 33.8467 35.4595L32.5449 29.8306L32.5439 29.8257C32.3908 29.1425 32.4562 28.3747 32.6533 27.686C32.8503 26.9978 33.201 26.3103 33.6982 25.813L38.2451 21.2661C39.4902 20.021 39.7302 18.9548 39.5049 18.2485C39.2937 17.5871 38.5666 16.9042 37.043 16.5825L36.7275 16.5229L30.8799 15.5513H30.877C30.244 15.4438 29.5993 15.1243 29.0635 14.7271C28.5292 14.3309 28.0346 13.8055 27.7471 13.2212L27.7461 13.2222L24.5205 6.76807C23.6949 5.12638 22.7393 4.55713 22.0029 4.55713Z" fill="#E8E8E8" stroke="#E8E8E8" stroke-width="1.5" stroke-linecap="round" stroke-linejoin="round"/>
<path d="M26.329 21.1174C25.6414 21.1174 25.0839 20.5599 25.0839 19.8722C25.0839 19.1844 25.6414 18.627 26.329 18.627C27.0167 18.627 27.5742 19.1844 27.5742 19.8722C27.5742 20.5599 27.0167 21.1174 26.329 21.1174Z" fill="#C6C6C6"/>
<path d="M17.6122 21.1174C16.9246 21.1174 16.3671 20.5599 16.3671 19.8722C16.3671 19.1844 16.9246 18.627 17.6122 18.627C18.2999 18.627 18.8574 19.1844 18.8574 19.8722C18.8574 20.5599 18.2999 21.1174 17.6122 21.1174Z" fill="#C6C6C6"/>
<path d="M26.9777 28.8107C26.9724 28.7875 26.971 28.7787 26.9689 28.7671L26.9629 28.7351L26.952 28.677C26.9446 28.6392 26.9364 28.6042 26.9288 28.5685C26.9123 28.499 26.8926 28.431 26.8727 28.364C26.8313 28.2324 26.7826 28.1031 26.7267 27.977C26.6141 27.7254 26.4759 27.4862 26.3141 27.263C25.9839 26.8131 25.5717 26.4296 25.0991 26.1328C24.8646 25.9865 24.6189 25.8591 24.3643 25.7518C24.1137 25.6478 23.8558 25.5626 23.5927 25.4968C23.0837 25.3706 22.5613 25.3065 22.0369 25.3058C21.5194 25.3002 21.003 25.3541 20.4978 25.4667L20.3045 25.513C20.2403 25.5283 20.1761 25.5494 20.1119 25.5675C19.9837 25.6027 19.8569 25.6493 19.7299 25.6948C19.4745 25.7902 19.2272 25.9059 18.9902 26.0406C18.7502 26.1768 18.5223 26.3335 18.3093 26.509C18.096 26.6862 17.9001 26.8833 17.7242 27.0976C17.5488 27.3116 17.3968 27.5437 17.2706 27.7899C17.2069 27.9138 17.1507 28.0414 17.1026 28.1721C17.0794 28.2384 17.0562 28.3059 17.0358 28.3759C17.0258 28.4118 17.0161 28.4454 17.0066 28.4846L16.9929 28.5432L16.9855 28.5757C16.9825 28.5882 16.9811 28.5958 16.9741 28.6204C16.9407 28.7079 16.9251 28.8012 16.9284 28.8948C16.9316 28.9884 16.9536 29.0804 16.9931 29.1653C17.0325 29.2503 17.0886 29.3264 17.1581 29.3893C17.2275 29.4522 17.3088 29.5005 17.3972 29.5313C17.4857 29.5622 17.5794 29.575 17.6728 29.569C17.7663 29.563 17.8576 29.5383 17.9414 29.4964C18.0251 29.4545 18.0996 29.3961 18.1604 29.3249C18.2212 29.2537 18.2671 29.171 18.2953 29.0817C18.2933 29.0933 18.2967 29.0882 18.2988 29.0879C18.3009 29.0877 18.3039 29.0845 18.3069 29.0821C18.3099 29.0798 18.3185 29.0717 18.3255 29.0647L18.3656 29.024C18.3941 28.995 18.4226 28.9651 18.453 28.9356C18.5118 28.8761 18.5763 28.8179 18.64 28.7613C18.7677 28.6494 18.9029 28.5463 19.0447 28.4528C19.1839 28.3605 19.3289 28.2773 19.4789 28.2039C19.6289 28.1316 19.7828 28.0676 19.9399 28.0122L20.0586 27.9716L20.18 27.9357C20.2194 27.9223 20.2614 27.9125 20.3026 27.9019C20.3439 27.8912 20.3838 27.8787 20.4262 27.8706C20.5103 27.8527 20.5928 27.8321 20.6793 27.8182C20.7222 27.8105 20.7639 27.8013 20.8075 27.795L20.938 27.7758C21.2983 27.7262 21.6618 27.7029 22.0255 27.7062C22.7647 27.7097 23.4513 27.8101 24.0588 28.0539C24.3653 28.1772 24.6545 28.3396 24.9192 28.5372C25.0556 28.6401 25.1853 28.7517 25.3072 28.8714C25.3677 28.9324 25.4289 28.9947 25.4857 29.0587L25.5283 29.1065L25.5691 29.1528L25.6078 29.1973C25.6146 29.2048 25.6203 29.2105 25.6259 29.2163C25.6282 29.219 25.6308 29.2214 25.6338 29.2233C25.6361 29.2233 25.6394 29.2289 25.638 29.2189C25.692 29.3965 25.8144 29.5454 25.9783 29.6328C26.1421 29.7201 26.3339 29.7389 26.5116 29.6848C26.6892 29.6307 26.8381 29.5083 26.9255 29.3445C27.0128 29.1806 27.0315 28.9888 26.9775 28.8112L26.9777 28.8107Z" fill="#C6C6C6"/>
</svg>
