<svg width="343" height="240" viewBox="0 0 343 240" fill="none" xmlns="http://www.w3.org/2000/svg">
<g clip-path="url(#clip0_4877_23204)">
<path d="M0 15C0 6.71573 6.71573 0 15 0H327.439C335.723 0 342.439 6.71573 342.439 15V240H0V15Z" fill="#171717"/>
<g filter="url(#filter0_f_4877_23204)">
<ellipse cx="59.6402" cy="52.9224" rx="71.1545" ry="116.435" transform="rotate(-44.7053 59.6402 52.9224)" fill="#4C1D95"/>
</g>
<g filter="url(#filter1_f_4877_23204)">
<circle cx="271" cy="53" r="114" fill="#4F02BA"/>
</g>
<g filter="url(#filter2_f_4877_23204)">
<circle cx="75" cy="187" r="97" fill="#28006C"/>
</g>
<g filter="url(#filter3_f_4877_23204)">
<circle cx="255" cy="187" r="115" fill="#B2008B"/>
</g>
</g>
<defs>
<filter id="filter0_f_4877_23204" x="-336.635" y="-343.807" width="792.55" height="793.458" filterUnits="userSpaceOnUse" color-interpolation-filters="sRGB">
<feFlood flood-opacity="0" result="BackgroundImageFix"/>
<feBlend mode="normal" in="SourceGraphic" in2="BackgroundImageFix" result="shape"/>
<feGaussianBlur stdDeviation="150" result="effect1_foregroundBlur_4877_23204"/>
</filter>
<filter id="filter1_f_4877_23204" x="-143" y="-361" width="828" height="828" filterUnits="userSpaceOnUse" color-interpolation-filters="sRGB">
<feFlood flood-opacity="0" result="BackgroundImageFix"/>
<feBlend mode="normal" in="SourceGraphic" in2="BackgroundImageFix" result="shape"/>
<feGaussianBlur stdDeviation="150" result="effect1_foregroundBlur_4877_23204"/>
</filter>
<filter id="filter2_f_4877_23204" x="-322" y="-210" width="794" height="794" filterUnits="userSpaceOnUse" color-interpolation-filters="sRGB">
<feFlood flood-opacity="0" result="BackgroundImageFix"/>
<feBlend mode="normal" in="SourceGraphic" in2="BackgroundImageFix" result="shape"/>
<feGaussianBlur stdDeviation="150" result="effect1_foregroundBlur_4877_23204"/>
</filter>
<filter id="filter3_f_4877_23204" x="-160" y="-228" width="830" height="830" filterUnits="userSpaceOnUse" color-interpolation-filters="sRGB">
<feFlood flood-opacity="0" result="BackgroundImageFix"/>
<feBlend mode="normal" in="SourceGraphic" in2="BackgroundImageFix" result="shape"/>
<feGaussianBlur stdDeviation="150" result="effect1_foregroundBlur_4877_23204"/>
</filter>
<clipPath id="clip0_4877_23204">
<path d="M0 15C0 6.71573 6.71573 0 15 0H327.439C335.723 0 342.439 6.71573 342.439 15V240H0V15Z" fill="white"/>
</clipPath>
</defs>
</svg>
