<svg width="343" height="240" viewBox="0 0 343 240" fill="none" xmlns="http://www.w3.org/2000/svg">
<g clip-path="url(#clip0_3965_13743)">
<path d="M0 15C0 6.71573 6.71573 0 15 0H327.439C335.723 0 342.439 6.71573 342.439 15V240H0V15Z" fill="#171717"/>
<g filter="url(#filter0_f_3965_13743)">
<ellipse cx="59.6422" cy="52.9219" rx="71.1545" ry="116.435" transform="rotate(-44.7053 59.6422 52.9219)" fill="#4C1D95"/>
</g>
<g filter="url(#filter1_f_3965_13743)">
<circle cx="271" cy="53" r="114" fill="#4F02BA"/>
</g>
<g filter="url(#filter2_f_3965_13743)">
<circle cx="75" cy="187" r="97" fill="#28006C"/>
</g>
<g filter="url(#filter3_f_3965_13743)">
<circle cx="255" cy="187" r="115" fill="#B2008B"/>
</g>
<path d="M56.6097 111L28.1221 125.863L38.4812 128.563C38.4812 128.563 43.8937 125.901 47.5455 124.625C51.0033 123.416 52.9348 122.357 56.6097 122.147C61.2636 121.882 66.3705 124.639 70.8535 125.863C75.495 127.131 79.9178 128.563 79.9178 128.563V139.488H85.0974V125.863M38.4812 130.817V137.456C38.4812 137.456 49.3694 133.74 56.6097 133.74C63.8501 133.74 74.7382 137.456 74.7382 137.456V130.817C74.7382 130.817 63.8588 124.244 56.6097 124.625C49.1034 125.018 38.4812 130.817 38.4812 130.817Z" fill="white" fill-opacity="0.5"/>
<path fill-rule="evenodd" clip-rule="evenodd" d="M54.1309 139.492C54.2959 139.502 54.4545 139.536 54.5762 139.596C54.6964 139.655 54.7945 139.747 54.8106 139.875L54.8214 139.936C54.8341 139.99 54.853 140.03 54.8731 140.056C54.8992 140.089 54.9312 140.107 54.9649 140.113C55.0374 140.124 55.1348 140.085 55.2159 140.012L55.2598 139.979C55.3673 139.913 55.5044 139.925 55.5792 140.021C55.6679 140.135 55.6294 140.312 55.4542 140.495C55.4113 140.54 55.3677 140.583 55.3272 140.623C55.2866 140.663 55.2478 140.702 55.213 140.738C55.1421 140.813 55.0889 140.878 55.0606 140.94C55.034 140.998 55.0294 141.053 55.0528 141.113C55.0779 141.177 55.1377 141.255 55.254 141.348C55.7435 141.74 55.7075 142.432 55.3067 142.842L55.2218 142.92C54.99 143.11 54.742 143.206 54.585 143.293C54.5035 143.338 54.4479 143.38 54.4161 143.427C54.387 143.47 54.3727 143.526 54.3897 143.613L54.4073 143.674C54.4613 143.813 54.5956 143.918 54.7452 143.972C54.8294 144.002 54.9151 144.015 54.9854 144.01C55.0563 144.005 55.1039 143.983 55.128 143.954C55.1837 143.887 55.2567 143.865 55.3301 143.878C55.3981 143.891 55.4617 143.934 55.5128 143.984C55.5646 144.034 55.611 144.099 55.6436 144.164C55.6757 144.229 55.6982 144.301 55.6983 144.366C55.6985 144.375 55.7027 144.395 55.7188 144.425C55.7348 144.454 55.7595 144.49 55.793 144.529C55.8592 144.604 55.9576 144.69 56.0801 144.77L56.088 144.775C56.3782 144.961 56.8016 145.11 57.2999 145.028C57.7971 144.945 58.1681 145.019 58.4825 145.129C58.6378 145.183 58.7813 145.247 58.9151 145.302C59.0504 145.357 59.179 145.405 59.3096 145.432C59.5846 145.488 59.7894 145.558 59.918 145.669C59.9837 145.726 60.0293 145.794 60.0548 145.873C60.0798 145.952 60.0834 146.04 60.0704 146.135C60.0515 146.279 60.1374 146.451 60.3204 146.592C60.5017 146.731 60.77 146.832 61.087 146.832C61.7594 146.832 62.584 147.063 63.1475 147.576L63.2491 147.659C63.7646 148.045 64.4218 147.971 64.7276 147.57L64.7784 147.491C64.8756 147.31 64.8429 147.12 64.7725 146.915C64.7525 146.857 64.7293 146.798 64.7061 146.738C64.6831 146.679 64.6594 146.619 64.6387 146.559C64.5975 146.439 64.5651 146.313 64.5694 146.188C64.572 146.116 64.6008 146.041 64.6446 145.969C64.6889 145.897 64.7519 145.822 64.8272 145.748C64.9784 145.601 65.1881 145.45 65.4288 145.317C65.9092 145.051 66.5275 144.848 67.0772 144.882L67.1749 144.89C67.3955 144.912 67.5554 144.962 67.6798 145.029C67.8217 145.107 67.9135 145.206 67.9962 145.301C68.0795 145.397 68.1529 145.486 68.2618 145.562C68.3693 145.637 68.5159 145.701 68.7452 145.737C69.2168 145.808 69.5693 145.85 69.8096 145.901C69.9299 145.926 70.0292 145.956 70.1046 145.995C70.1783 146.034 70.2332 146.087 70.2618 146.158L70.2872 146.193C70.3141 146.228 70.3711 146.268 70.4639 146.307C70.5554 146.345 70.6753 146.38 70.8175 146.411C71.1024 146.474 71.4736 146.522 71.8868 146.56C72.7854 146.642 73.426 146.936 73.9073 147.129C74.1417 147.223 74.3862 147.269 74.5938 147.256C74.8021 147.243 74.9644 147.17 75.0528 147.04C75.0875 146.99 75.1457 146.945 75.213 146.906C75.2816 146.867 75.3663 146.829 75.461 146.794C75.6512 146.724 75.8883 146.664 76.1319 146.621C76.3754 146.579 76.6293 146.552 76.8536 146.553C77.0746 146.554 77.278 146.58 77.4132 146.648C77.8983 146.89 78.266 147.054 78.7393 146.932C79.0063 146.864 79.2788 146.917 79.4903 146.965C79.5991 146.99 79.6893 147.012 79.7608 147.022C79.7959 147.026 79.8227 147.027 79.8419 147.025C79.8602 147.022 79.8678 147.017 79.8702 147.015L79.8712 147.014C79.8781 147.007 79.892 146.99 79.9122 146.961C79.9318 146.934 79.9559 146.897 79.9835 146.855L80.0528 146.745L80.1016 146.865L80.8858 148.785L80.8946 148.81L80.8858 148.833L80.7305 149.264L80.6885 149.555L80.6114 149.561C80.6104 149.563 80.6089 149.566 80.6075 149.569C80.5931 149.6 80.5763 149.653 80.5577 149.723C80.5198 149.866 80.4786 150.054 80.4268 150.258C80.3766 150.457 80.3164 150.663 80.2432 150.821C80.2069 150.899 80.1653 150.97 80.1173 151.022C80.0693 151.073 80.0071 151.112 79.9337 151.113C79.8087 151.112 79.6848 151.027 79.5743 150.919C79.4611 150.808 79.3483 150.657 79.2442 150.498C79.0365 150.18 78.8573 149.818 78.7755 149.638C78.7349 149.548 78.6778 149.411 78.6143 149.26C78.5497 149.108 78.4773 148.94 78.4063 148.785C78.3349 148.63 78.2659 148.489 78.2061 148.391C78.179 148.346 78.1531 148.313 78.1339 148.292C78.1265 148.325 78.1226 148.375 78.1231 148.439C78.1237 148.568 78.1436 148.746 78.1837 148.946C78.2633 149.346 78.4231 149.824 78.6651 150.168C78.9145 150.522 79.0967 150.702 79.2276 150.866C79.2916 150.947 79.3429 151.024 79.376 151.113C79.4096 151.201 79.4233 151.299 79.419 151.418C79.4123 151.618 79.518 151.775 79.6456 151.946C79.769 152.11 79.9184 152.292 79.9366 152.524C79.9437 152.613 79.9991 152.748 80.0919 152.92C80.1832 153.089 80.3055 153.285 80.4346 153.491C80.6905 153.902 80.9798 154.362 81.0958 154.735C81.2042 155.085 81.3434 155.251 81.4503 155.399C81.5041 155.473 81.5533 155.548 81.5821 155.64C81.6039 155.709 81.6134 155.787 81.6075 155.878L81.5977 155.975C81.5759 156.117 81.5763 156.255 81.5987 156.386L81.5997 156.39C81.6554 156.704 81.8405 156.979 82.1768 157.162C82.4359 157.305 82.6725 157.525 82.8477 157.744C82.9357 157.854 83.0096 157.964 83.0635 158.066C83.1163 158.166 83.1531 158.263 83.1622 158.343L83.1807 158.459C83.1898 158.504 83.2008 158.556 83.213 158.613C83.237 158.728 83.2667 158.867 83.295 159.023C83.3521 159.335 83.4043 159.724 83.4044 160.156C83.4044 160.577 83.4688 160.952 83.5782 161.241C83.6882 161.532 83.8415 161.727 84.0118 161.805C84.1063 161.848 84.2214 161.935 84.3399 162.045C84.4413 162.139 84.5487 162.254 84.6544 162.378L84.6553 162.377L84.7139 162.449L84.7442 162.487H84.7432C84.8928 162.674 85.0353 162.881 85.1426 163.084C85.2568 163.299 85.336 163.516 85.3409 163.703C85.349 163.994 85.4852 164.376 85.6524 164.691C85.7356 164.847 85.8251 164.984 85.9073 165.083C85.9483 165.132 85.9866 165.171 86.0196 165.197C86.054 165.225 86.0781 165.235 86.0909 165.237C86.1811 165.249 86.2455 165.318 86.293 165.387C86.341 165.457 86.387 165.548 86.4317 165.628C86.4787 165.712 86.5275 165.789 86.5841 165.844C86.639 165.897 86.7008 165.929 86.7755 165.929C86.9887 165.929 87.2812 166.042 87.5909 166.246C87.9039 166.452 88.2444 166.755 88.5548 167.148C89.0653 167.791 89.4482 168.197 89.71 168.444L89.7755 168.505L89.6983 168.55C89.6269 168.591 89.5624 168.63 89.5128 168.664C89.4605 168.7 89.432 168.725 89.4229 168.738L89.4219 168.738C89.3622 168.817 89.2695 168.835 89.1768 168.835C89.0946 168.835 88.9914 168.82 88.8809 168.807C88.8767 168.814 88.8715 168.823 88.8663 168.831C88.8337 168.884 88.7878 168.957 88.7344 169.038C88.6549 169.16 88.5565 169.302 88.461 169.424L88.3682 169.538C88.2664 169.654 88.2397 169.828 88.252 170C88.2644 170.171 88.313 170.323 88.3428 170.382C88.349 170.394 88.365 170.41 88.3985 170.42C88.4326 170.431 88.4796 170.435 88.5333 170.431C88.6421 170.423 88.7672 170.383 88.8585 170.322C88.9031 170.293 88.9492 170.272 88.9981 170.265C89.0483 170.257 89.0974 170.264 89.1466 170.282C89.2244 170.312 89.3061 170.373 89.3995 170.456C89.5212 170.292 89.6746 170.117 89.8155 169.973L89.8516 169.936L89.8966 169.962C90.1022 170.082 90.3195 170.274 90.4825 170.613C90.652 170.967 91.0001 171.083 91.3536 171.066C91.5301 171.057 91.7044 171.015 91.8516 170.955C91.9998 170.895 92.1161 170.818 92.1788 170.744C92.2663 170.642 92.3904 170.598 92.5196 170.581C92.6483 170.564 92.7939 170.571 92.9317 170.579C93.0721 170.587 93.2072 170.596 93.3262 170.584C93.4451 170.573 93.5385 170.541 93.6036 170.48C93.7772 170.316 94.004 170.215 94.295 170.153C94.5862 170.09 94.9471 170.067 95.3917 170.059C95.8314 170.051 96.3952 169.983 96.8702 169.869C97.1072 169.812 97.3205 169.744 97.4835 169.668C97.6505 169.59 97.7508 169.509 97.7852 169.436C97.8857 169.216 98.109 169.115 98.3067 169.182C98.5073 169.25 98.6471 169.476 98.6221 169.839C98.5975 170.193 98.4984 170.579 98.4102 170.919C98.3654 171.09 98.3249 171.25 98.295 171.39C98.2651 171.531 98.2473 171.649 98.251 171.737C98.2551 171.847 98.2135 172.011 98.1495 172.192C98.0843 172.376 97.9923 172.59 97.8878 172.806C97.6788 173.237 97.4175 173.686 97.2198 173.941C97.0258 174.191 96.8017 174.483 96.6163 174.777C96.4299 175.071 96.2865 175.36 96.2491 175.604C96.2057 175.877 96.0235 176.215 95.7891 176.566C95.5529 176.919 95.2565 177.297 94.9776 177.652C94.5314 178.218 93.9795 178.821 93.4757 179.315C93.2241 179.561 92.983 179.782 92.7725 179.956C92.6156 180.086 92.4731 180.194 92.3546 180.268L92.2432 180.33C91.9857 180.46 91.743 180.579 91.4512 180.785C91.1959 180.966 90.9005 181.215 90.5245 181.597L90.3575 181.768C89.9332 182.214 89.4325 182.714 88.9874 183.17C88.5402 183.628 88.1495 184.042 87.9395 184.322L87.9005 184.374C87.8818 184.4 87.8626 184.426 87.8477 184.449C87.7655 184.58 87.695 184.661 87.6309 184.708C87.5633 184.758 87.5036 184.77 87.4503 184.77C87.4275 184.77 87.4017 184.768 87.3868 184.767C87.3689 184.766 87.356 184.766 87.3438 184.769C87.3278 184.772 87.3067 184.78 87.2774 184.808L87.2462 184.842C87.1313 184.984 87.0034 185.039 86.8907 185.099C86.7936 185.151 86.6959 185.211 86.5977 185.341L86.5567 185.402C86.4908 185.504 86.3262 185.836 86.126 186.276C85.9337 186.7 85.7098 187.219 85.5137 187.714H85.5147L85.4952 187.764C85.3468 188.142 85.2152 188.503 85.127 188.794C85.0833 188.94 85.0496 189.068 85.0303 189.17C85.0112 189.275 85.0091 189.345 85.0176 189.382L85.0421 189.458C85.1133 189.624 85.2726 189.729 85.4219 189.84C85.5014 189.899 85.5854 189.965 85.627 190.048C85.6488 190.092 85.6588 190.141 85.6524 190.195C85.6464 190.247 85.6241 190.3 85.588 190.354C85.4625 190.543 85.3771 190.729 85.3428 190.87C85.3259 190.941 85.3243 190.996 85.3311 191.031C85.3374 191.064 85.349 191.072 85.3585 191.075C85.4261 191.096 85.4673 191.153 85.4903 191.214C85.5132 191.275 85.524 191.353 85.5294 191.437C85.5394 191.604 85.5272 191.823 85.5186 192.045C85.5119 192.245 85.5907 192.341 85.6905 192.482C85.7936 192.627 85.9053 192.806 85.9219 193.153C85.9295 193.3 85.9746 193.388 86.0333 193.45C86.0952 193.514 86.1776 193.555 86.2716 193.601C86.3612 193.644 86.465 193.693 86.545 193.774C86.6127 193.841 86.6609 193.93 86.6817 194.049L86.6895 194.046L86.6934 194.145C86.6935 194.148 86.6944 194.152 86.6954 194.159C86.6959 194.166 86.6964 194.178 86.6964 194.189C86.6964 194.525 86.7376 195.041 86.7696 195.545C86.8022 196.044 86.8267 196.535 86.793 196.809C86.7621 197.064 86.8009 197.516 86.8633 197.946C86.9259 198.374 87.0107 198.768 87.0635 198.905L87.0743 198.954C87.0758 198.971 87.0753 198.988 87.0743 199.004C87.071 199.038 87.0626 199.076 87.0508 199.114C87.0268 199.192 86.9864 199.283 86.9337 199.382C86.8278 199.581 86.669 199.822 86.4874 200.065C86.1256 200.547 85.6592 201.053 85.3077 201.262C84.9604 201.469 84.5919 201.568 84.2344 201.68C83.8748 201.792 83.5213 201.918 83.1846 202.177C82.8456 202.437 82.672 202.665 82.5294 202.869C82.3863 203.073 82.2671 203.266 82.0391 203.435C81.8106 203.604 81.6236 203.644 81.4815 203.693C81.4111 203.717 81.3518 203.743 81.2979 203.785C81.2441 203.828 81.1911 203.891 81.1378 203.992C81.0817 204.1 81.0398 204.19 81.003 204.264C80.9673 204.337 80.9351 204.398 80.9005 204.447C80.8647 204.498 80.824 204.538 80.7696 204.566C80.7164 204.593 80.6549 204.604 80.5821 204.609C80.5293 204.612 80.4921 204.632 80.4649 204.66C80.4374 204.691 80.4151 204.738 80.4034 204.803C80.3801 204.935 80.4015 205.125 80.4649 205.346C80.5264 205.562 80.6247 205.697 80.7315 205.894C80.825 206.065 80.9159 206.272 80.9757 206.597L81.0001 206.743L81.045 207.016C81.093 207.263 81.1472 207.44 81.1856 207.59C81.2368 207.791 81.2615 207.95 81.1905 208.146C81.1618 208.225 81.1439 208.342 81.1348 208.48C81.1263 208.617 81.1251 208.772 81.1251 208.927C81.1251 209.081 81.126 209.237 81.1212 209.374C81.1158 209.509 81.1049 209.634 81.0782 209.723C81.023 209.906 80.8955 210.047 80.6719 210.183C80.5059 210.284 80.2815 210.385 79.9864 210.5L79.6661 210.622C79.2108 210.79 78.7597 211.021 78.4385 211.248C78.2783 211.363 78.1527 211.474 78.0753 211.573C77.9954 211.675 77.9782 211.749 77.9942 211.795C78.0161 211.857 78.0458 211.875 78.0714 211.882C78.0872 211.887 78.1064 211.888 78.129 211.889C78.1405 211.889 78.1525 211.888 78.1651 211.888C78.1772 211.887 78.1911 211.888 78.2042 211.888C78.2555 211.888 78.3306 211.893 78.3819 211.957C78.4285 212.016 78.4436 212.109 78.4356 212.239C78.4281 212.357 78.413 212.523 78.3917 212.713L78.3926 212.714L78.3839 212.787C78.3823 212.8 78.3805 212.813 78.379 212.825L78.377 212.846H78.376C78.3376 213.159 78.2804 213.523 78.2003 213.842C78.1575 214.012 78.1084 214.172 78.0518 214.306C77.9952 214.438 77.9282 214.551 77.8487 214.624C77.475 214.965 76.741 215.604 76.296 216.351C75.8398 217.115 74.4972 218.782 73.6856 219.543C73.2794 219.925 72.8201 220.282 72.4092 220.544C72.2039 220.675 72.0087 220.783 71.838 220.859C71.6692 220.933 71.5156 220.979 71.3966 220.979C71.3438 220.979 71.2904 220.978 71.2383 220.978C71.1857 220.977 71.1332 220.976 71.0831 220.976C70.9823 220.975 70.8901 220.979 70.8116 220.993C70.7329 221.007 70.6734 221.031 70.6329 221.067C70.5947 221.1 70.5673 221.149 70.5606 221.226L70.5469 221.3C70.5272 221.368 70.4883 221.417 70.4278 221.442C70.3583 221.469 70.2744 221.457 70.2051 221.444C70.1278 221.428 70.0599 221.409 69.9903 221.401C69.9228 221.393 69.8718 221.398 69.835 221.422V221.423C69.6137 221.563 69.2681 221.708 68.8194 221.586L68.7286 221.558C68.2769 221.402 67.6294 221.415 67.0909 221.572C66.8299 221.649 66.7297 221.744 66.6173 221.825C66.5592 221.868 66.4966 221.907 66.4102 221.936C66.3242 221.964 66.217 221.98 66.0714 221.98C65.7917 221.98 65.519 222 65.296 222.051C65.0979 222.096 64.9504 222.163 64.8673 222.25L64.835 222.289C64.6467 222.564 64.2597 222.587 64.0557 222.384L64.0176 222.34C63.9361 222.234 63.8552 222.127 63.7657 222.043C63.6763 221.959 63.5847 221.905 63.4854 221.899C63.4155 221.894 63.3619 221.876 63.3204 221.846C63.2814 221.817 63.2548 221.78 63.2344 221.753C63.2132 221.725 63.1939 221.701 63.1651 221.68C63.1434 221.664 63.1135 221.648 63.0714 221.635L63.0245 221.623C62.9801 221.614 62.9408 221.599 62.9092 221.576C62.8771 221.552 62.855 221.521 62.8409 221.488C62.8155 221.426 62.8144 221.347 62.8116 221.275C62.8057 221.122 62.7946 220.918 62.627 220.659C62.4499 220.385 62.3503 220.161 62.3477 219.993C62.3465 219.906 62.3726 219.828 62.4298 219.771C62.4857 219.714 62.5654 219.683 62.6583 219.669L62.7022 219.659C62.739 219.646 62.7597 219.624 62.7725 219.598C62.7924 219.557 62.7986 219.494 62.7882 219.405C62.7669 219.229 62.6853 218.994 62.6036 218.739L62.5694 218.646C62.4774 218.418 62.3069 218.134 62.1212 217.806C61.9376 217.482 61.7414 217.118 61.6075 216.74L61.5548 216.578C61.3955 216.055 61.0894 215.407 60.7383 214.853L60.7315 214.841C60.5184 214.506 60.2895 214.207 60.0704 213.993C59.7563 213.688 59.5923 213.173 59.4932 212.666C59.3944 212.16 59.3566 211.633 59.3096 211.311C59.2113 210.646 59.0999 209.996 58.9268 209.619C58.8766 209.509 58.8633 209.371 58.8643 209.225C58.8655 209.077 58.8815 208.911 58.8975 208.744C58.926 208.447 58.953 208.142 58.9024 207.881L58.8751 207.772C58.7898 207.483 58.5775 207.12 58.3497 206.722C58.1245 206.328 57.8854 205.902 57.7618 205.498C57.5361 204.762 57.1277 203.901 56.7764 203.39L56.7071 203.293C56.5266 203.049 56.3619 202.771 56.2462 202.511C56.1502 202.296 56.0852 202.084 56.0782 201.913L56.0762 201.914L56.0792 201.824C56.0793 201.819 56.0792 201.815 56.0792 201.805C56.0792 201.797 56.08 201.785 56.0821 201.773V201.771C56.114 201.613 56.1545 201.322 56.1846 201.032C56.2149 200.742 56.2338 200.461 56.2257 200.321C56.2209 200.23 56.2616 200.122 56.3135 200.015C56.3665 199.905 56.4408 199.778 56.5108 199.647C56.6542 199.379 56.7908 199.08 56.7911 198.784C56.7912 198.459 56.8949 198.038 57.045 197.646C57.1952 197.254 57.3962 196.879 57.5967 196.645C57.9915 196.184 58.4178 195.773 58.3565 195.113C58.3254 194.779 58.1597 194.357 57.9971 193.939C57.9168 193.732 57.8376 193.525 57.7784 193.336C57.7195 193.148 57.678 192.969 57.6778 192.818C57.6778 192.522 57.7633 192.301 57.8253 192.125C57.8885 191.946 57.9202 191.827 57.8614 191.702L57.6827 191.328C57.4403 190.821 57.0521 189.977 56.9024 189.413L56.8907 189.368V189.367C56.8846 189.345 56.8789 189.322 56.8741 189.301C56.7961 188.949 56.6978 188.555 56.5147 188.161L56.4893 188.112C56.2986 187.718 56.0176 187.327 55.5753 186.985L55.4112 186.855L55.4132 186.851C55.0564 186.553 54.9318 186.362 54.8321 186.176C54.7322 185.99 54.6598 185.819 54.376 185.543C54.07 185.245 53.8723 185.045 53.7501 184.892C53.6271 184.738 53.5742 184.623 53.5645 184.499C53.5636 184.488 53.5561 184.466 53.5372 184.432C53.5187 184.399 53.4921 184.359 53.46 184.316C53.395 184.228 53.313 184.13 53.2335 184.029C53.1563 183.93 53.0813 183.828 53.0382 183.739C53.0169 183.696 52.9996 183.649 52.9981 183.604C52.9967 183.555 53.0143 183.506 53.0587 183.473C53.1531 183.403 53.2608 183.31 53.3419 183.201C53.4125 183.106 53.4605 183 53.4669 182.887V182.838C53.4613 182.73 53.5214 182.656 53.5948 182.608C53.6656 182.561 53.7582 182.531 53.838 182.507C53.923 182.482 53.9932 182.463 54.0391 182.439C54.0602 182.428 54.0689 182.419 54.0714 182.415V182.412L54.0694 182.406C54.0551 182.369 54.019 182.326 53.9659 182.278C53.9133 182.229 53.8531 182.184 53.794 182.136C53.7387 182.091 53.6805 182.039 53.6475 181.987C53.6307 181.96 53.6166 181.926 53.6173 181.889C53.6182 181.849 53.6364 181.814 53.6641 181.786C53.7133 181.737 53.7762 181.663 53.8262 181.588L53.8399 181.568C53.8607 181.536 53.8782 181.504 53.8897 181.477C53.9014 181.449 53.9053 181.426 53.9053 181.412C53.9052 181.402 53.9027 181.398 53.9014 181.397C53.8979 181.394 53.8844 181.387 53.8516 181.385C53.7712 181.38 53.7027 181.352 53.6544 181.307C53.6055 181.261 53.5805 181.198 53.5831 181.133C53.5887 181.002 53.6994 180.88 53.8829 180.819C54.1772 180.722 54.2448 180.418 54.1065 180.21C54.0981 180.197 54.0936 180.183 54.0919 180.177C54.0908 180.174 54.0903 180.172 54.0899 180.17L54.044 180.074H54.0606C54.0508 180.02 54.0501 179.962 54.0557 179.905C54.0651 179.812 54.0901 179.713 54.1202 179.618C54.1505 179.524 54.187 179.43 54.2188 179.35C54.2511 179.268 54.2777 179.202 54.2921 179.154V179.154C54.3038 179.116 54.3065 179.041 54.295 178.941C54.2837 178.843 54.26 178.728 54.2296 178.617C54.1991 178.507 54.1618 178.4 54.1221 178.317C54.1022 178.275 54.0815 178.24 54.0626 178.214C54.0435 178.188 54.0284 178.174 54.0186 178.168C53.9924 178.154 53.9486 178.149 53.88 178.153C53.8472 178.154 53.8119 178.158 53.7735 178.162C53.7355 178.166 53.6939 178.17 53.6524 178.172C53.4868 178.18 53.2898 178.16 53.1563 177.97C53.1158 177.912 53.0759 177.849 53.0372 177.789C52.9982 177.729 52.9601 177.669 52.9229 177.614C52.8465 177.502 52.7794 177.419 52.7218 177.383L52.712 177.376C52.693 177.366 52.6783 177.362 52.668 177.363C52.658 177.363 52.6449 177.367 52.627 177.383C52.5934 177.414 52.5464 177.437 52.4971 177.454C52.4469 177.472 52.3879 177.487 52.3243 177.499C52.1966 177.523 52.0431 177.538 51.8897 177.547C51.5829 177.565 51.2652 177.562 51.129 177.562C51.0723 177.562 50.9925 177.582 50.8946 177.614C50.797 177.647 50.6928 177.687 50.5831 177.727C50.476 177.765 50.3657 177.802 50.2657 177.82C50.168 177.837 50.0661 177.838 49.9854 177.795C49.8491 177.723 49.6912 177.545 49.5723 177.36C49.5121 177.265 49.4587 177.165 49.4219 177.07C49.3858 176.976 49.3635 176.88 49.3682 176.798C49.3711 176.748 49.3471 176.664 49.293 176.559C49.2401 176.456 49.1623 176.339 49.0675 176.228C48.8756 176.003 48.625 175.806 48.3878 175.754C48.2612 175.726 48.1083 175.702 47.9464 175.678C47.7854 175.654 47.6145 175.629 47.4542 175.6C47.294 175.57 47.1401 175.536 47.0137 175.491C46.8937 175.449 46.7856 175.394 46.7237 175.316C46.7213 175.314 46.7179 175.311 46.7149 175.309L46.7022 175.297L46.7012 175.294C46.6867 175.279 46.6745 175.271 46.6651 175.268C46.6547 175.264 46.6424 175.263 46.627 175.267C46.591 175.275 46.5466 175.303 46.4854 175.348C46.3734 175.429 46.2136 175.562 46.0137 175.562C45.8306 175.562 45.5588 175.576 45.2999 175.625L45.2969 175.626C45.0625 175.671 44.8484 175.742 44.7178 175.853H44.7169C44.6656 175.896 44.6049 175.934 44.5411 175.971L44.5421 175.974L44.4835 176.004L44.4239 176.036L44.4229 176.034C44.2632 176.113 44.0763 176.185 43.8839 176.259C43.6649 176.343 43.4356 176.431 43.2198 176.539C42.9442 176.677 42.4631 176.904 42.0264 177.09C41.8083 177.183 41.5992 177.265 41.4327 177.322C41.3497 177.351 41.2753 177.374 41.2149 177.388C41.1849 177.395 41.1565 177.4 41.1319 177.403C41.1085 177.405 41.0826 177.404 41.0596 177.399C41.0322 177.392 40.9921 177.377 40.9473 177.359C40.9001 177.339 40.8431 177.316 40.7745 177.288C40.6373 177.233 40.4563 177.166 40.2393 177.103L40.211 177.094C39.7001 176.949 38.989 176.837 38.1514 176.98C37.4628 177.099 36.825 177.277 36.2745 177.425C35.7572 177.564 35.3085 177.676 34.9737 177.682V177.685H34.919C34.9028 177.685 34.8861 177.684 34.8702 177.683L34.838 177.682V177.681C34.7641 177.675 34.6929 177.663 34.63 177.639C34.34 177.532 33.8956 177.277 33.4288 176.98C32.9594 176.68 32.4609 176.333 32.0645 176.033C31.6544 175.724 31.1528 175.406 30.711 175.127L30.6495 175.088C30.647 175.087 30.6441 175.085 30.6417 175.083L30.5977 175.056V175.055C30.2444 174.831 29.9339 174.634 29.7696 174.497C29.5862 174.346 29.4253 174.219 29.2803 174.018C29.1352 173.816 29.0069 173.542 28.877 173.095L28.8438 172.992C28.8128 172.904 28.7758 172.819 28.7374 172.738L28.7218 172.704C28.4581 172.158 28.0398 171.788 27.669 171.505L27.5137 171.389C27.2836 171.22 27.1758 171.046 27.0811 170.882C26.9872 170.72 26.9077 170.571 26.7325 170.43L26.7003 170.405C26.6728 170.384 26.6465 170.362 26.6143 170.342C26.4759 170.255 26.408 170.161 26.3839 170.062C26.361 169.967 26.3813 169.875 26.3936 169.808C26.4071 169.734 26.4095 169.69 26.3897 169.654C26.37 169.618 26.3167 169.57 26.1651 169.528C25.8786 169.447 25.7171 169.36 25.5928 169.244C25.532 169.188 25.4812 169.125 25.4298 169.058C25.3773 168.989 25.3244 168.915 25.2559 168.83L25.1475 168.702C24.9973 168.532 24.9821 168.331 25.0069 168.141L25.0128 168.096L25.0567 168.084C25.2045 168.047 25.3263 168.02 25.3878 168.016C25.547 168.006 25.7987 167.971 26.0372 167.913C26.1563 167.884 26.2714 167.85 26.3692 167.811C26.4679 167.771 26.5445 167.729 26.5919 167.686L26.6202 167.663C26.6874 167.615 26.7636 167.605 26.8389 167.615C26.9216 167.627 27.0079 167.665 27.0889 167.706C27.1298 167.727 27.1722 167.75 27.213 167.772C27.2542 167.794 27.2956 167.816 27.336 167.836C27.4173 167.876 27.4934 167.905 27.5635 167.914L27.6192 167.918C27.7492 167.922 27.8825 167.885 27.9903 167.842C28.0046 167.836 28.0182 167.829 28.0313 167.823C27.9451 167.811 27.8175 167.796 27.6319 167.782C27.3382 167.759 27.1773 167.568 27.0469 167.438C26.9793 167.37 26.922 167.321 26.8594 167.298C26.8015 167.277 26.7294 167.277 26.6251 167.326C26.3882 167.44 26.1833 167.514 25.962 167.551C25.7407 167.588 25.505 167.588 25.2081 167.558L25.1446 167.551L25.1475 167.488C25.1512 167.414 25.1365 167.365 25.1036 167.333C24.9674 167.206 24.7717 166.944 24.6553 166.645C24.5394 166.346 24.4964 165.993 24.6905 165.699L24.7423 165.613C24.852 165.404 24.8962 165.145 24.9268 164.878L24.9298 164.858C24.9494 164.675 24.9623 164.485 24.9874 164.32C25.0124 164.154 25.051 163.999 25.1241 163.881C25.2443 163.688 25.454 163.331 25.5723 162.939C25.6912 162.544 25.7126 162.13 25.4815 161.81C25.2158 161.441 25.2434 161.075 25.2882 160.767C25.3109 160.61 25.3364 160.475 25.337 160.353C25.3374 160.234 25.3131 160.137 25.2432 160.057L25.046 159.856C24.8299 159.64 24.5899 159.361 24.6124 158.847H24.6094L24.6143 158.797C24.6148 158.79 24.6148 158.782 24.6153 158.776L24.6202 158.714H24.6231C24.6557 158.448 24.752 158.126 24.9434 157.725C25.3165 156.946 25.7877 156.272 26.168 155.707C26.3587 155.424 26.5269 155.168 26.6495 154.94C26.7723 154.71 26.8462 154.514 26.8575 154.347L26.8663 154.273C26.8944 154.1 26.9786 153.929 27.0889 153.767C27.2154 153.581 27.3812 153.399 27.5479 153.226C27.7165 153.051 27.8848 152.888 28.0255 152.734C28.1663 152.579 28.2701 152.443 28.3135 152.327L28.4151 152.076C28.5103 151.857 28.637 151.622 28.8175 151.418H28.8038L28.9268 151.303C28.9327 151.297 28.9394 151.292 28.9454 151.286L28.9473 151.284C29.1503 151.101 29.4107 150.956 29.752 150.899C30.1702 150.829 30.4213 150.647 30.6368 150.442C30.6909 150.39 30.7437 150.336 30.796 150.282C30.848 150.229 30.9009 150.173 30.9551 150.12C31.0641 150.014 31.1828 149.911 31.3262 149.826C31.5902 149.671 31.9599 149.319 32.2374 148.96C32.3756 148.781 32.4886 148.603 32.5538 148.451C32.5863 148.376 32.6062 148.308 32.6124 148.252C32.6168 148.211 32.6133 148.177 32.6046 148.152L32.5938 148.128C32.4827 147.94 32.3795 147.594 32.3546 147.256C32.3421 147.086 32.3495 146.914 32.3868 146.762C32.4242 146.61 32.4936 146.473 32.6094 146.38L32.6739 146.323C32.8109 146.189 32.8657 146.036 32.918 145.877C32.9773 145.697 33.0355 145.499 33.2227 145.348L33.2774 145.298C33.3291 145.244 33.3742 145.178 33.4171 145.105C33.4759 145.005 33.5238 144.903 33.5811 144.798C33.6892 144.6 33.828 144.398 34.088 144.398C34.2932 144.398 34.6184 144.321 34.9337 144.184C35.2498 144.047 35.5436 143.855 35.6944 143.636L35.755 143.539C35.8187 143.43 35.8914 143.286 35.9688 143.121C36.0719 142.903 36.1815 142.653 36.2921 142.412C36.4019 142.173 36.5128 141.94 36.6153 141.759C36.6664 141.669 36.7167 141.588 36.7647 141.526C36.8112 141.465 36.862 141.413 36.9151 141.388C37.087 141.307 37.258 141.308 37.4385 141.393C37.6143 141.475 37.7997 141.637 38.0108 141.872C38.1992 142.082 38.4939 142.129 38.8311 142.116C38.9984 142.11 39.1713 142.09 39.3399 142.072C39.5067 142.055 39.6714 142.039 39.8175 142.043C40.0324 142.05 40.2627 142.131 40.4766 142.203C40.6962 142.278 40.9005 142.344 41.0811 142.34L41.1026 142.339C41.2312 142.334 41.3469 142.29 41.4454 142.18C41.6614 141.939 41.972 141.712 42.2901 141.546C42.6069 141.381 42.9417 141.271 43.2071 141.271C43.3114 141.27 43.4139 141.224 43.5255 141.146C43.6383 141.066 43.752 140.96 43.8829 140.847C44.1404 140.624 44.4547 140.384 44.8985 140.366C45.3155 140.35 46.2607 140.222 47.1485 140.131C47.5903 140.086 48.0185 140.05 48.3536 140.042C48.5206 140.038 48.6674 140.043 48.7823 140.056C48.8396 140.063 48.8917 140.072 48.9346 140.085C48.9762 140.098 49.017 140.116 49.046 140.143L49.0899 140.173C49.1406 140.198 49.2108 140.206 49.3018 140.196C49.4215 140.182 49.563 140.139 49.711 140.085C49.7845 140.058 49.8594 140.029 49.9327 140C50.0055 139.971 50.0781 139.942 50.1466 139.916C50.2813 139.866 50.4123 139.823 50.5128 139.819C50.6853 139.811 50.9101 139.768 51.1231 139.734C51.2278 139.717 51.3305 139.702 51.419 139.696C51.5052 139.689 51.5887 139.69 51.6505 139.71C51.7748 139.751 52.205 139.889 52.6055 139.904L52.6573 139.904C52.8816 139.906 53.0773 139.865 53.1993 139.754L53.2423 139.718C53.4673 139.542 53.8245 139.475 54.1309 139.492ZM77.1231 213.168C77.1562 213.155 77.1818 213.141 77.1993 213.12C77.22 213.096 77.2354 213.062 77.2403 213.012L77.2423 212.994C77.2061 213.055 77.1667 213.113 77.1231 213.168ZM77.3575 212.762C77.3775 212.739 77.3983 212.718 77.419 212.699C77.418 212.691 77.4171 212.682 77.4161 212.673C77.4136 212.654 77.411 212.632 77.4083 212.611C77.3937 212.662 77.3769 212.713 77.3575 212.762ZM96.2833 195.641C96.3322 195.648 96.3637 195.688 96.3829 195.722C96.4036 195.759 96.4229 195.812 96.4415 195.88C96.4629 195.959 96.5172 196.063 96.5919 196.192C96.6645 196.316 96.7581 196.466 96.8467 196.622C97.0246 196.938 97.2013 197.313 97.2178 197.7C97.2334 198.06 97.3599 198.438 97.4737 198.8C97.5298 198.979 97.5832 199.155 97.6163 199.319C97.6413 199.441 97.6548 199.561 97.6495 199.672L97.6358 199.78C97.5866 200.043 97.4724 200.214 97.3048 200.237C97.2233 200.247 97.1414 200.219 97.0684 200.166C96.9953 200.113 96.9265 200.032 96.8673 199.931C96.8145 199.84 96.7765 199.836 96.7657 199.837C96.7489 199.84 96.7153 199.863 96.6837 199.935C96.6229 200.075 96.6061 200.324 96.6964 200.55C96.8028 200.817 96.7292 201.033 96.6475 201.225C96.5744 201.397 96.4994 201.546 96.501 201.716L96.5108 201.845C96.5124 201.903 96.5073 201.975 96.4962 202.054C96.4817 202.162 96.457 202.293 96.4239 202.44C96.3571 202.734 96.2569 203.1 96.1378 203.501C95.8989 204.305 95.5842 205.258 95.3096 206.079C95.0361 206.901 94.7385 207.93 94.4591 208.816C94.3196 209.257 94.1851 209.664 94.0606 209.988C93.9987 210.149 93.938 210.292 93.8809 210.408C93.8243 210.524 93.7688 210.619 93.7149 210.682C93.6082 210.807 93.4996 210.877 93.3907 210.914C93.2835 210.952 93.1785 210.956 93.0841 210.957C92.916 210.959 92.7772 210.952 92.6417 211.054L92.5821 211.106C92.4763 211.211 92.3169 211.255 92.1446 211.262C91.9706 211.269 91.7717 211.238 91.5743 211.183C91.18 211.072 90.7721 210.858 90.5508 210.619C90.3276 210.379 90.2186 210.006 90.13 209.629C90.0515 209.293 89.9884 208.949 89.879 208.658L89.8282 208.536C89.5285 207.872 89.4648 206.812 90.2569 205.854C90.6373 205.394 90.7667 205.029 90.7706 204.698C90.7743 204.364 90.6502 204.053 90.505 203.696C90.2143 202.986 90.0401 202.281 90.379 201.671C90.5312 201.397 90.5398 201.037 90.5606 200.732C90.5708 200.585 90.5845 200.444 90.626 200.344C90.6479 200.293 90.6801 200.246 90.7286 200.216C90.7777 200.185 90.8364 200.176 90.9005 200.186C91.0901 200.215 91.2989 200.142 91.5382 200.06C91.7694 199.98 92.0271 199.894 92.2872 199.928L92.3262 199.931C92.417 199.933 92.5167 199.901 92.6251 199.845C92.749 199.781 92.878 199.689 93.0089 199.59C93.1381 199.492 93.2708 199.387 93.3995 199.307C93.5271 199.226 93.6604 199.163 93.7901 199.154C94.0027 199.139 94.2318 199.046 94.3868 198.925C94.464 198.865 94.5192 198.799 94.546 198.738C94.5714 198.68 94.5711 198.626 94.543 198.574L94.5147 198.518C94.4924 198.464 94.485 198.415 94.4913 198.37C94.4992 198.313 94.529 198.269 94.5499 198.239C94.5717 198.207 94.5878 198.182 94.5948 198.149C94.6012 198.116 94.6 198.065 94.5714 197.985L94.5499 197.909C94.536 197.837 94.5426 197.769 94.5665 197.707C94.598 197.627 94.6578 197.565 94.7266 197.52C94.8623 197.429 95.0483 197.394 95.1915 197.411C95.2982 197.424 95.4515 197.377 95.5762 197.29C95.7031 197.202 95.7731 197.093 95.7618 197.003C95.7452 196.866 95.7534 196.697 95.7833 196.546C95.7976 196.471 95.8183 196.398 95.8438 196.334C95.8689 196.272 95.9019 196.213 95.9425 196.172C95.951 196.164 95.9638 196.146 95.9786 196.117C95.9929 196.089 96.0071 196.054 96.0225 196.016C96.0518 195.943 96.0848 195.852 96.1173 195.784C96.1332 195.75 96.1527 195.716 96.1739 195.691C96.1937 195.668 96.2315 195.634 96.2833 195.641Z" fill="white" fill-opacity="0.5"/>
<path d="M35.2438 201.079L42.3657 176.877L47.7072 174.262L43.5162 195.706H58.527L56.6096 203.212H42.3657L38.8048 216.312L47.7072 218.222V221.389H21V218.222L29.9024 216.312L35.2438 201.079Z" fill="white" fill-opacity="0.5"/>
<path d="M259.396 37L258.262 33.598H253.564L252.466 37H250.396L254.68 24.436H257.236L261.52 37H259.396ZM255.958 26.308H255.868L254.05 31.852H257.758L255.958 26.308ZM263.322 37V27.64H265.284V29.188H265.374C265.578 28.684 265.884 28.264 266.292 27.928C266.712 27.592 267.282 27.424 268.002 27.424C268.962 27.424 269.706 27.742 270.234 28.378C270.774 29.002 271.044 29.896 271.044 31.06V37H269.082V31.312C269.082 29.848 268.494 29.116 267.318 29.116C267.066 29.116 266.814 29.152 266.562 29.224C266.322 29.284 266.106 29.38 265.914 29.512C265.722 29.644 265.566 29.812 265.446 30.016C265.338 30.22 265.284 30.46 265.284 30.736V37H263.322ZM280.621 37C280.105 37 279.709 36.856 279.433 36.568C279.157 36.268 278.989 35.89 278.929 35.434H278.839C278.659 36.022 278.329 36.466 277.849 36.766C277.369 37.066 276.787 37.216 276.103 37.216C275.131 37.216 274.381 36.964 273.853 36.46C273.337 35.956 273.079 35.278 273.079 34.426C273.079 33.49 273.415 32.788 274.087 32.32C274.771 31.852 275.767 31.618 277.075 31.618H278.767V30.826C278.767 30.25 278.611 29.806 278.299 29.494C277.987 29.182 277.501 29.026 276.841 29.026C276.289 29.026 275.839 29.146 275.491 29.386C275.143 29.626 274.849 29.932 274.609 30.304L273.439 29.242C273.751 28.714 274.189 28.282 274.753 27.946C275.317 27.598 276.055 27.424 276.967 27.424C278.179 27.424 279.109 27.706 279.757 28.27C280.405 28.834 280.729 29.644 280.729 30.7V35.398H281.719V37H280.621ZM276.661 35.722C277.273 35.722 277.777 35.59 278.173 35.326C278.569 35.05 278.767 34.684 278.767 34.228V32.878H277.111C275.755 32.878 275.077 33.298 275.077 34.138V34.462C275.077 34.882 275.215 35.2 275.491 35.416C275.779 35.62 276.169 35.722 276.661 35.722ZM285.64 37C284.968 37 284.464 36.832 284.128 36.496C283.804 36.148 283.642 35.668 283.642 35.056V23.68H285.604V35.398H286.9V37H285.64ZM294.376 27.64H296.266L292.324 38.854C292.216 39.166 292.09 39.43 291.946 39.646C291.814 39.874 291.652 40.054 291.46 40.186C291.28 40.33 291.058 40.432 290.794 40.492C290.53 40.564 290.218 40.6 289.858 40.6H288.724V38.998H290.308L290.848 37.414L287.446 27.64H289.408L291.28 33.148L291.82 35.182H291.91L292.504 33.148L294.376 27.64ZM300.745 37.216C299.857 37.216 299.113 37.06 298.513 36.748C297.913 36.436 297.391 36.004 296.947 35.452L298.207 34.3C298.555 34.72 298.939 35.05 299.359 35.29C299.791 35.518 300.289 35.632 300.853 35.632C301.429 35.632 301.855 35.524 302.131 35.308C302.419 35.08 302.563 34.768 302.563 34.372C302.563 34.072 302.461 33.82 302.257 33.616C302.065 33.4 301.723 33.262 301.231 33.202L300.367 33.094C299.407 32.974 298.651 32.698 298.099 32.266C297.559 31.822 297.289 31.168 297.289 30.304C297.289 29.848 297.373 29.446 297.541 29.098C297.709 28.738 297.943 28.438 298.243 28.198C298.555 27.946 298.921 27.754 299.341 27.622C299.773 27.49 300.247 27.424 300.763 27.424C301.603 27.424 302.287 27.556 302.815 27.82C303.355 28.084 303.835 28.45 304.255 28.918L303.049 30.07C302.809 29.782 302.491 29.536 302.095 29.332C301.711 29.116 301.267 29.008 300.763 29.008C300.223 29.008 299.821 29.116 299.557 29.332C299.305 29.548 299.179 29.83 299.179 30.178C299.179 30.538 299.293 30.808 299.521 30.988C299.749 31.168 300.115 31.3 300.619 31.384L301.483 31.492C302.515 31.648 303.265 31.954 303.733 32.41C304.213 32.854 304.453 33.454 304.453 34.21C304.453 34.666 304.363 35.08 304.183 35.452C304.015 35.812 303.769 36.124 303.445 36.388C303.121 36.652 302.731 36.856 302.275 37C301.819 37.144 301.309 37.216 300.745 37.216ZM307.66 25.966C307.252 25.966 306.952 25.87 306.76 25.678C306.58 25.486 306.49 25.24 306.49 24.94V24.634C306.49 24.334 306.58 24.088 306.76 23.896C306.952 23.704 307.252 23.608 307.66 23.608C308.068 23.608 308.362 23.704 308.542 23.896C308.722 24.088 308.812 24.334 308.812 24.634V24.94C308.812 25.24 308.722 25.486 308.542 25.678C308.362 25.87 308.068 25.966 307.66 25.966ZM306.67 27.64H308.632V37H306.67V27.64ZM314.403 37.216C313.515 37.216 312.771 37.06 312.171 36.748C311.571 36.436 311.049 36.004 310.605 35.452L311.865 34.3C312.213 34.72 312.597 35.05 313.017 35.29C313.449 35.518 313.947 35.632 314.511 35.632C315.087 35.632 315.513 35.524 315.789 35.308C316.077 35.08 316.221 34.768 316.221 34.372C316.221 34.072 316.119 33.82 315.915 33.616C315.723 33.4 315.381 33.262 314.889 33.202L314.025 33.094C313.065 32.974 312.309 32.698 311.757 32.266C311.217 31.822 310.947 31.168 310.947 30.304C310.947 29.848 311.031 29.446 311.199 29.098C311.367 28.738 311.601 28.438 311.901 28.198C312.213 27.946 312.579 27.754 312.999 27.622C313.431 27.49 313.905 27.424 314.421 27.424C315.261 27.424 315.945 27.556 316.473 27.82C317.013 28.084 317.493 28.45 317.913 28.918L316.707 30.07C316.467 29.782 316.149 29.536 315.753 29.332C315.369 29.116 314.925 29.008 314.421 29.008C313.881 29.008 313.479 29.116 313.215 29.332C312.963 29.548 312.837 29.83 312.837 30.178C312.837 30.538 312.951 30.808 313.179 30.988C313.407 31.168 313.773 31.3 314.277 31.384L315.141 31.492C316.173 31.648 316.923 31.954 317.391 32.41C317.871 32.854 318.111 33.454 318.111 34.21C318.111 34.666 318.021 35.08 317.841 35.452C317.673 35.812 317.427 36.124 317.103 36.388C316.779 36.652 316.389 36.856 315.933 37C315.477 37.144 314.967 37.216 314.403 37.216Z" fill="white"/>
</g>
<defs>
<filter id="filter0_f_3965_13743" x="-336.633" y="-343.807" width="792.55" height="793.458" filterUnits="userSpaceOnUse" color-interpolation-filters="sRGB">
<feFlood flood-opacity="0" result="BackgroundImageFix"/>
<feBlend mode="normal" in="SourceGraphic" in2="BackgroundImageFix" result="shape"/>
<feGaussianBlur stdDeviation="150" result="effect1_foregroundBlur_3965_13743"/>
</filter>
<filter id="filter1_f_3965_13743" x="-143" y="-361" width="828" height="828" filterUnits="userSpaceOnUse" color-interpolation-filters="sRGB">
<feFlood flood-opacity="0" result="BackgroundImageFix"/>
<feBlend mode="normal" in="SourceGraphic" in2="BackgroundImageFix" result="shape"/>
<feGaussianBlur stdDeviation="150" result="effect1_foregroundBlur_3965_13743"/>
</filter>
<filter id="filter2_f_3965_13743" x="-322" y="-210" width="794" height="794" filterUnits="userSpaceOnUse" color-interpolation-filters="sRGB">
<feFlood flood-opacity="0" result="BackgroundImageFix"/>
<feBlend mode="normal" in="SourceGraphic" in2="BackgroundImageFix" result="shape"/>
<feGaussianBlur stdDeviation="150" result="effect1_foregroundBlur_3965_13743"/>
</filter>
<filter id="filter3_f_3965_13743" x="-160" y="-228" width="830" height="830" filterUnits="userSpaceOnUse" color-interpolation-filters="sRGB">
<feFlood flood-opacity="0" result="BackgroundImageFix"/>
<feBlend mode="normal" in="SourceGraphic" in2="BackgroundImageFix" result="shape"/>
<feGaussianBlur stdDeviation="150" result="effect1_foregroundBlur_3965_13743"/>
</filter>
<clipPath id="clip0_3965_13743">
<path d="M0 15C0 6.71573 6.71573 0 15 0H327.439C335.723 0 342.439 6.71573 342.439 15V240H0V15Z" fill="white"/>
</clipPath>
</defs>
</svg>
