<svg width="343" height="240" viewBox="0 0 343 240" fill="none" xmlns="http://www.w3.org/2000/svg">
<g clip-path="url(#clip0_3965_13742)">
<path d="M0 15C0 6.71573 6.71573 0 15 0H327.439C335.723 0 342.439 6.71573 342.439 15V240H0V15Z" fill="#171717"/>
<g filter="url(#filter0_f_3965_13742)">
<ellipse cx="59.6422" cy="52.9219" rx="71.1545" ry="116.435" transform="rotate(-44.7053 59.6422 52.9219)" fill="#481D1E"/>
</g>
<g filter="url(#filter1_f_3965_13742)">
<circle cx="271" cy="53" r="114" fill="#BA0205"/>
</g>
<g filter="url(#filter2_f_3965_13742)">
<circle cx="75" cy="187" r="97" fill="#6C0002"/>
</g>
<g filter="url(#filter3_f_3965_13742)">
<circle cx="255" cy="187" r="115" fill="#FE0004"/>
</g>
<path d="M175.548 37V24.436H183.396V26.236H177.582V29.728H182.748V31.528H177.582V37H175.548ZM186.66 25.966C186.252 25.966 185.952 25.87 185.76 25.678C185.58 25.486 185.49 25.24 185.49 24.94V24.634C185.49 24.334 185.58 24.088 185.76 23.896C185.952 23.704 186.252 23.608 186.66 23.608C187.068 23.608 187.362 23.704 187.542 23.896C187.722 24.088 187.812 24.334 187.812 24.634V24.94C187.812 25.24 187.722 25.486 187.542 25.678C187.362 25.87 187.068 25.966 186.66 25.966ZM185.67 27.64H187.632V37H185.67V27.64ZM190.433 37V27.64H192.395V29.188H192.485C192.689 28.684 192.995 28.264 193.403 27.928C193.823 27.592 194.393 27.424 195.113 27.424C196.073 27.424 196.817 27.742 197.345 28.378C197.885 29.002 198.155 29.896 198.155 31.06V37H196.193V31.312C196.193 29.848 195.605 29.116 194.429 29.116C194.177 29.116 193.925 29.152 193.673 29.224C193.433 29.284 193.217 29.38 193.025 29.512C192.833 29.644 192.677 29.812 192.557 30.016C192.449 30.22 192.395 30.46 192.395 30.736V37H190.433ZM207.733 37C207.217 37 206.821 36.856 206.545 36.568C206.269 36.268 206.101 35.89 206.041 35.434H205.951C205.771 36.022 205.441 36.466 204.961 36.766C204.481 37.066 203.899 37.216 203.215 37.216C202.243 37.216 201.493 36.964 200.965 36.46C200.449 35.956 200.191 35.278 200.191 34.426C200.191 33.49 200.527 32.788 201.199 32.32C201.883 31.852 202.879 31.618 204.187 31.618H205.879V30.826C205.879 30.25 205.723 29.806 205.411 29.494C205.099 29.182 204.613 29.026 203.953 29.026C203.401 29.026 202.951 29.146 202.603 29.386C202.255 29.626 201.961 29.932 201.721 30.304L200.551 29.242C200.863 28.714 201.301 28.282 201.865 27.946C202.429 27.598 203.167 27.424 204.079 27.424C205.291 27.424 206.221 27.706 206.869 28.27C207.517 28.834 207.841 29.644 207.841 30.7V35.398H208.831V37H207.733ZM203.773 35.722C204.385 35.722 204.889 35.59 205.285 35.326C205.681 35.05 205.879 34.684 205.879 34.228V32.878H204.223C202.867 32.878 202.189 33.298 202.189 34.138V34.462C202.189 34.882 202.327 35.2 202.603 35.416C202.891 35.62 203.281 35.722 203.773 35.722ZM212.752 37C212.08 37 211.576 36.832 211.24 36.496C210.916 36.148 210.754 35.668 210.754 35.056V23.68H212.716V35.398H214.012V37H212.752ZM223.254 37V32.05L218.934 24.436H221.256L224.316 30.034H224.37L227.412 24.436H229.644L225.288 32.014V37H223.254ZM233.955 37.216C233.283 37.216 232.683 37.102 232.155 36.874C231.627 36.646 231.177 36.322 230.805 35.902C230.433 35.47 230.145 34.954 229.941 34.354C229.749 33.742 229.653 33.064 229.653 32.32C229.653 31.576 229.749 30.904 229.941 30.304C230.145 29.692 230.433 29.176 230.805 28.756C231.177 28.324 231.627 27.994 232.155 27.766C232.683 27.538 233.283 27.424 233.955 27.424C234.639 27.424 235.239 27.544 235.755 27.784C236.283 28.024 236.721 28.36 237.069 28.792C237.417 29.212 237.675 29.704 237.843 30.268C238.023 30.832 238.113 31.438 238.113 32.086V32.824H231.687V33.13C231.687 33.85 231.897 34.444 232.317 34.912C232.749 35.368 233.361 35.596 234.153 35.596C234.729 35.596 235.215 35.47 235.611 35.218C236.007 34.966 236.343 34.624 236.619 34.192L237.771 35.326C237.423 35.902 236.919 36.364 236.259 36.712C235.599 37.048 234.831 37.216 233.955 37.216ZM233.955 28.954C233.619 28.954 233.307 29.014 233.019 29.134C232.743 29.254 232.503 29.422 232.299 29.638C232.107 29.854 231.957 30.112 231.849 30.412C231.741 30.712 231.687 31.042 231.687 31.402V31.528H236.043V31.348C236.043 30.628 235.857 30.052 235.485 29.62C235.113 29.176 234.603 28.954 233.955 28.954ZM247.143 37C246.627 37 246.231 36.856 245.955 36.568C245.679 36.268 245.511 35.89 245.451 35.434H245.361C245.181 36.022 244.851 36.466 244.371 36.766C243.891 37.066 243.309 37.216 242.625 37.216C241.653 37.216 240.903 36.964 240.375 36.46C239.859 35.956 239.601 35.278 239.601 34.426C239.601 33.49 239.937 32.788 240.609 32.32C241.293 31.852 242.289 31.618 243.597 31.618H245.289V30.826C245.289 30.25 245.133 29.806 244.821 29.494C244.509 29.182 244.023 29.026 243.363 29.026C242.811 29.026 242.361 29.146 242.013 29.386C241.665 29.626 241.371 29.932 241.131 30.304L239.961 29.242C240.273 28.714 240.711 28.282 241.275 27.946C241.839 27.598 242.577 27.424 243.489 27.424C244.701 27.424 245.631 27.706 246.279 28.27C246.927 28.834 247.251 29.644 247.251 30.7V35.398H248.241V37H247.143ZM243.183 35.722C243.795 35.722 244.299 35.59 244.695 35.326C245.091 35.05 245.289 34.684 245.289 34.228V32.878H243.633C242.277 32.878 241.599 33.298 241.599 34.138V34.462C241.599 34.882 241.737 35.2 242.013 35.416C242.301 35.62 242.691 35.722 243.183 35.722ZM250.164 37V27.64H252.126V29.44H252.216C252.348 28.96 252.624 28.54 253.044 28.18C253.464 27.82 254.046 27.64 254.79 27.64H255.312V29.53H254.538C253.758 29.53 253.158 29.656 252.738 29.908C252.33 30.16 252.126 30.532 252.126 31.024V37H250.164ZM261.452 37V24.436H266.852C268.016 24.436 268.916 24.778 269.552 25.462C270.188 26.146 270.506 27.064 270.506 28.216C270.506 29.368 270.188 30.286 269.552 30.97C268.916 31.654 268.016 31.996 266.852 31.996H263.486V37H261.452ZM263.486 30.214H266.726C267.242 30.214 267.644 30.082 267.932 29.818C268.22 29.542 268.364 29.152 268.364 28.648V27.784C268.364 27.28 268.22 26.896 267.932 26.632C267.644 26.356 267.242 26.218 266.726 26.218H263.486V30.214ZM272.418 37V27.64H274.38V29.44H274.47C274.602 28.96 274.878 28.54 275.298 28.18C275.718 27.82 276.3 27.64 277.044 27.64H277.566V29.53H276.792C276.012 29.53 275.412 29.656 274.992 29.908C274.584 30.16 274.38 30.532 274.38 31.024V37H272.418ZM282.892 37.216C282.244 37.216 281.65 37.102 281.11 36.874C280.582 36.646 280.132 36.322 279.76 35.902C279.388 35.47 279.1 34.954 278.896 34.354C278.692 33.742 278.59 33.064 278.59 32.32C278.59 31.576 278.692 30.904 278.896 30.304C279.1 29.692 279.388 29.176 279.76 28.756C280.132 28.324 280.582 27.994 281.11 27.766C281.65 27.538 282.244 27.424 282.892 27.424C283.54 27.424 284.128 27.538 284.656 27.766C285.196 27.994 285.652 28.324 286.024 28.756C286.396 29.176 286.684 29.692 286.888 30.304C287.092 30.904 287.194 31.576 287.194 32.32C287.194 33.064 287.092 33.742 286.888 34.354C286.684 34.954 286.396 35.47 286.024 35.902C285.652 36.322 285.196 36.646 284.656 36.874C284.128 37.102 283.54 37.216 282.892 37.216ZM282.892 35.596C283.564 35.596 284.104 35.392 284.512 34.984C284.92 34.564 285.124 33.94 285.124 33.112V31.528C285.124 30.7 284.92 30.082 284.512 29.674C284.104 29.254 283.564 29.044 282.892 29.044C282.22 29.044 281.68 29.254 281.272 29.674C280.864 30.082 280.66 30.7 280.66 31.528V33.112C280.66 33.94 280.864 34.564 281.272 34.984C281.68 35.392 282.22 35.596 282.892 35.596ZM289.381 27.64H291.343V38.26C291.343 38.98 291.157 39.55 290.785 39.97C290.425 40.39 289.849 40.6 289.057 40.6H287.923V38.998H289.381V27.64ZM290.371 25.966C289.963 25.966 289.663 25.87 289.471 25.678C289.291 25.486 289.201 25.24 289.201 24.94V24.634C289.201 24.334 289.291 24.088 289.471 23.896C289.663 23.704 289.963 23.608 290.371 23.608C290.779 23.608 291.073 23.704 291.253 23.896C291.433 24.088 291.523 24.334 291.523 24.634V24.94C291.523 25.24 291.433 25.486 291.253 25.678C291.073 25.87 290.779 25.966 290.371 25.966ZM297.816 37.216C297.144 37.216 296.544 37.102 296.016 36.874C295.488 36.646 295.038 36.322 294.666 35.902C294.294 35.47 294.006 34.954 293.802 34.354C293.61 33.742 293.514 33.064 293.514 32.32C293.514 31.576 293.61 30.904 293.802 30.304C294.006 29.692 294.294 29.176 294.666 28.756C295.038 28.324 295.488 27.994 296.016 27.766C296.544 27.538 297.144 27.424 297.816 27.424C298.5 27.424 299.1 27.544 299.616 27.784C300.144 28.024 300.582 28.36 300.93 28.792C301.278 29.212 301.536 29.704 301.704 30.268C301.884 30.832 301.974 31.438 301.974 32.086V32.824H295.548V33.13C295.548 33.85 295.758 34.444 296.178 34.912C296.61 35.368 297.222 35.596 298.014 35.596C298.59 35.596 299.076 35.47 299.472 35.218C299.868 34.966 300.204 34.624 300.48 34.192L301.632 35.326C301.284 35.902 300.78 36.364 300.12 36.712C299.46 37.048 298.692 37.216 297.816 37.216ZM297.816 28.954C297.48 28.954 297.168 29.014 296.88 29.134C296.604 29.254 296.364 29.422 296.16 29.638C295.968 29.854 295.818 30.112 295.71 30.412C295.602 30.712 295.548 31.042 295.548 31.402V31.528H299.904V31.348C299.904 30.628 299.718 30.052 299.346 29.62C298.974 29.176 298.464 28.954 297.816 28.954ZM307.764 37.216C307.092 37.216 306.492 37.102 305.964 36.874C305.436 36.646 304.992 36.322 304.632 35.902C304.272 35.47 303.996 34.954 303.804 34.354C303.612 33.742 303.516 33.064 303.516 32.32C303.516 31.576 303.612 30.904 303.804 30.304C303.996 29.692 304.272 29.176 304.632 28.756C304.992 28.324 305.436 27.994 305.964 27.766C306.492 27.538 307.092 27.424 307.764 27.424C308.7 27.424 309.468 27.634 310.068 28.054C310.668 28.474 311.106 29.032 311.382 29.728L309.762 30.484C309.63 30.052 309.396 29.71 309.06 29.458C308.736 29.194 308.304 29.062 307.764 29.062C307.044 29.062 306.498 29.29 306.126 29.746C305.766 30.19 305.586 30.772 305.586 31.492V33.166C305.586 33.886 305.766 34.474 306.126 34.93C306.498 35.374 307.044 35.596 307.764 35.596C308.34 35.596 308.796 35.458 309.132 35.182C309.48 34.894 309.756 34.516 309.96 34.048L311.454 34.84C311.142 35.608 310.674 36.196 310.05 36.604C309.426 37.012 308.664 37.216 307.764 37.216ZM315.914 37C315.23 37 314.714 36.826 314.366 36.478C314.018 36.118 313.844 35.614 313.844 34.966V29.242H312.386V27.64H313.178C313.502 27.64 313.724 27.568 313.844 27.424C313.976 27.28 314.042 27.046 314.042 26.722V25.084H315.806V27.64H317.768V29.242H315.806V35.398H317.624V37H315.914Z" fill="white"/>
<path d="M56.6097 111L28.1221 125.863L38.4812 128.563C38.4812 128.563 43.8937 125.901 47.5455 124.625C51.0033 123.416 52.9348 122.357 56.6097 122.147C61.2636 121.882 66.3705 124.639 70.8535 125.863C75.495 127.131 79.9178 128.563 79.9178 128.563V139.488H85.0974V125.863M38.4812 130.817V137.456C38.4812 137.456 49.3694 133.74 56.6097 133.74C63.8501 133.74 74.7382 137.456 74.7382 137.456V130.817C74.7382 130.817 63.8588 124.244 56.6097 124.625C49.1034 125.018 38.4812 130.817 38.4812 130.817Z" fill="white" fill-opacity="0.5"/>
<path fill-rule="evenodd" clip-rule="evenodd" d="M54.1324 139.492C54.2973 139.501 54.4559 139.536 54.5777 139.595C54.6979 139.655 54.796 139.746 54.8121 139.875L54.8228 139.935C54.8355 139.99 54.8544 140.029 54.8746 140.055C54.9007 140.089 54.9326 140.106 54.9663 140.111C55.0388 140.123 55.1362 140.085 55.2173 140.011L55.2613 139.978C55.3688 139.912 55.5068 139.924 55.5816 140.02C55.6698 140.135 55.6305 140.312 55.4556 140.495C55.4128 140.54 55.3692 140.583 55.3287 140.623C55.2879 140.663 55.2493 140.701 55.2144 140.738C55.1435 140.812 55.0904 140.878 55.0621 140.939C55.0355 140.997 55.031 141.052 55.0542 141.112C55.0792 141.176 55.139 141.253 55.2554 141.346C55.745 141.738 55.7095 142.431 55.3091 142.841L55.2232 142.92C54.9914 143.109 54.7434 143.206 54.5865 143.293C54.505 143.338 54.4493 143.379 54.4175 143.426C54.3885 143.47 54.3742 143.526 54.3912 143.612L54.4097 143.674C54.4638 143.813 54.597 143.917 54.7466 143.971C54.8309 144.002 54.9165 144.015 54.9869 144.009C55.0581 144.004 55.1054 143.981 55.1294 143.953C55.1852 143.886 55.259 143.863 55.3326 143.877C55.4003 143.89 55.4632 143.932 55.5142 143.982C55.566 144.033 55.6124 144.097 55.6451 144.163C55.6773 144.228 55.6996 144.3 55.6997 144.366C55.6999 144.375 55.7041 144.395 55.7203 144.425C55.7362 144.454 55.7618 144.49 55.7955 144.528C55.8616 144.604 55.9593 144.689 56.0816 144.768L56.0894 144.774C56.3798 144.96 56.8038 145.109 57.3023 145.026C57.7992 144.943 58.1696 145.018 58.4839 145.128C58.6392 145.182 58.7828 145.246 58.9165 145.301C59.0519 145.356 59.1803 145.403 59.3111 145.43C59.5862 145.487 59.7908 145.558 59.9195 145.669C59.9851 145.725 60.0308 145.794 60.0562 145.873C60.0811 145.951 60.0848 146.039 60.0718 146.134C60.0527 146.278 60.1386 146.451 60.3218 146.592C60.5032 146.731 60.7714 146.832 61.0884 146.832C61.7607 146.832 62.5854 147.062 63.149 147.575L63.2505 147.659C63.7659 148.045 64.4232 147.97 64.729 147.569L64.7798 147.491C64.8771 147.309 64.8443 147.12 64.774 146.915C64.754 146.857 64.7306 146.797 64.7076 146.738C64.6845 146.679 64.6609 146.617 64.6402 146.557C64.599 146.438 64.5665 146.311 64.5708 146.186C64.5735 146.115 64.6024 146.04 64.646 145.968C64.6903 145.896 64.7533 145.821 64.8287 145.748C64.9798 145.6 65.1896 145.449 65.4302 145.316C65.9107 145.051 66.5289 144.848 67.0787 144.882L67.1763 144.889C67.397 144.912 67.5568 144.961 67.6812 145.029C67.8231 145.107 67.915 145.206 67.9976 145.301C68.081 145.396 68.1543 145.485 68.2632 145.561C68.3708 145.636 68.5174 145.701 68.7466 145.736C69.2183 145.808 69.5707 145.849 69.8111 145.9C69.9314 145.926 70.0306 145.955 70.106 145.995C70.1798 146.034 70.2346 146.086 70.2632 146.158L70.2886 146.192C70.3156 146.227 70.3726 146.267 70.4654 146.305C70.5569 146.344 70.6766 146.379 70.8189 146.411C71.1039 146.474 71.4758 146.522 71.8892 146.559C72.7876 146.642 73.4275 146.935 73.9087 147.129C74.1432 147.222 74.3877 147.268 74.5953 147.255C74.8034 147.241 74.9658 147.169 75.0542 147.04C75.089 146.989 75.1471 146.944 75.2144 146.905C75.2831 146.865 75.3678 146.827 75.4624 146.793C75.6526 146.723 75.8897 146.663 76.1333 146.62C76.377 146.577 76.6316 146.552 76.856 146.552C77.077 146.553 77.2805 146.579 77.4156 146.647C77.9005 146.889 78.2675 147.054 78.7408 146.931C79.0078 146.863 79.2802 146.916 79.4917 146.965C79.6005 146.989 79.6907 147.012 79.7622 147.021C79.7974 147.026 79.8241 147.027 79.8433 147.024C79.8619 147.022 79.8693 147.016 79.8716 147.013L79.8726 147.012C79.8796 147.006 79.8937 146.989 79.9136 146.961C79.9333 146.933 79.9582 146.896 79.9859 146.853L80.0552 146.745L80.1031 146.865L80.8872 148.785L80.897 148.808L80.8872 148.833L80.732 149.263L80.69 149.554L80.6138 149.559C80.6127 149.562 80.6104 149.565 80.6089 149.568C80.5946 149.599 80.5777 149.651 80.5591 149.721C80.5212 149.864 80.48 150.053 80.4283 150.257C80.3781 150.455 80.3178 150.663 80.2447 150.82C80.2085 150.898 80.1666 150.969 80.1187 151.02C80.0707 151.072 80.0087 151.112 79.9351 151.112C79.8102 151.112 79.6863 151.027 79.5757 150.919C79.4625 150.807 79.3498 150.656 79.2456 150.497C79.0381 150.179 78.8588 149.817 78.7769 149.637C78.7364 149.548 78.6792 149.41 78.6158 149.259C78.5512 149.108 78.4788 148.939 78.4078 148.784C78.3363 148.629 78.2673 148.487 78.2076 148.389C78.1805 148.345 78.1545 148.313 78.1353 148.292C78.1279 148.325 78.124 148.374 78.1245 148.438C78.1251 148.567 78.1451 148.746 78.1851 148.945C78.2648 149.345 78.4246 149.824 78.6665 150.168C78.9158 150.521 79.0982 150.701 79.229 150.866C79.293 150.947 79.3444 151.024 79.3775 151.112C79.411 151.201 79.4257 151.299 79.4214 151.418C79.4148 151.617 79.5205 151.774 79.648 151.944C79.7714 152.108 79.9198 152.291 79.938 152.523C79.9453 152.612 80.0007 152.747 80.0933 152.919C80.1847 153.088 80.3069 153.284 80.4361 153.491C80.692 153.901 80.9813 154.361 81.0972 154.734C81.2057 155.084 81.3449 155.25 81.4517 155.398C81.5055 155.472 81.5547 155.548 81.5835 155.639C81.6053 155.709 81.6147 155.786 81.6089 155.877L81.5992 155.973C81.5773 156.116 81.5777 156.255 81.6001 156.385L81.6011 156.388C81.6568 156.703 81.8427 156.977 82.1792 157.161C82.4381 157.303 82.674 157.524 82.8492 157.743C82.9372 157.852 83.0111 157.964 83.065 158.065C83.1177 158.165 83.1545 158.262 83.1636 158.343L83.1822 158.458C83.1912 158.503 83.2022 158.555 83.2144 158.613C83.2384 158.728 83.2682 158.866 83.2964 159.022C83.3536 159.335 83.4068 159.723 83.4068 160.156C83.4068 160.577 83.4711 160.952 83.5806 161.241C83.6906 161.532 83.8429 161.726 84.0132 161.804C84.1078 161.847 84.2228 161.934 84.3413 162.045C84.4427 162.139 84.5501 162.253 84.6558 162.378L84.6568 162.377L84.7154 162.448L84.7456 162.485L84.7447 162.486C84.8941 162.673 85.0368 162.88 85.1441 163.083C85.2583 163.297 85.3375 163.515 85.3423 163.703C85.3505 163.994 85.4876 164.375 85.6548 164.689C85.7381 164.846 85.8275 164.984 85.9097 165.083C85.9506 165.132 85.9881 165.171 86.021 165.197C86.0553 165.224 86.0795 165.233 86.0923 165.235C86.1824 165.247 86.247 165.317 86.2945 165.385C86.3425 165.455 86.3883 165.548 86.4331 165.628C86.48 165.711 86.5291 165.787 86.5855 165.843C86.6405 165.896 86.7022 165.927 86.7769 165.927C86.9901 165.928 87.2826 166.041 87.5923 166.245C87.9053 166.45 88.2459 166.754 88.5562 167.146C89.0668 167.79 89.4496 168.197 89.7115 168.443L89.7769 168.505L89.6997 168.55C89.6284 168.591 89.5638 168.63 89.5142 168.664C89.4623 168.699 89.4346 168.725 89.4253 168.737L89.4234 168.738C89.3636 168.816 89.2709 168.834 89.1783 168.834C89.096 168.834 88.9929 168.82 88.8824 168.806C88.8782 168.814 88.8729 168.822 88.8677 168.831C88.8352 168.883 88.7891 168.956 88.7359 169.037C88.6563 169.158 88.558 169.301 88.4624 169.424L88.3697 169.538C88.2678 169.653 88.2412 169.827 88.2535 169.999C88.2658 170.169 88.3144 170.322 88.3443 170.381C88.3503 170.393 88.3662 170.408 88.3999 170.419C88.4341 170.429 88.4809 170.434 88.5347 170.43C88.6436 170.422 88.7686 170.383 88.8599 170.322C88.9046 170.292 88.9506 170.271 88.9995 170.263C89.0497 170.256 89.0989 170.263 89.148 170.281C89.2259 170.31 89.3075 170.372 89.4009 170.456C89.5227 170.291 89.6759 170.115 89.8169 169.971L89.8531 169.934L89.898 169.961C90.1036 170.081 90.321 170.273 90.4839 170.612C90.6534 170.965 91.0014 171.082 91.355 171.065C91.5317 171.057 91.7057 171.014 91.8531 170.954C92.0014 170.893 92.1177 170.817 92.1802 170.743C92.2679 170.641 92.3927 170.598 92.522 170.581C92.6507 170.564 92.7955 170.571 92.9331 170.579C93.0736 170.587 93.2086 170.595 93.3277 170.584C93.4464 170.572 93.5399 170.541 93.605 170.479C93.7787 170.316 94.0062 170.214 94.2974 170.152C94.5886 170.09 94.9487 170.066 95.3931 170.058C95.8328 170.051 96.3967 169.983 96.8716 169.869C97.1088 169.812 97.3229 169.744 97.4859 169.668C97.6526 169.59 97.7523 169.509 97.7867 169.435C97.8872 169.215 98.1104 169.115 98.3081 169.181C98.5088 169.249 98.6486 169.476 98.6236 169.839C98.5989 170.192 98.5007 170.578 98.4126 170.918C98.3679 171.088 98.3263 171.248 98.2964 171.388C98.2666 171.529 98.2498 171.647 98.2535 171.735C98.2576 171.846 98.2158 172.009 98.1519 172.19C98.0867 172.375 97.9938 172.589 97.8892 172.805C97.6803 173.237 97.4189 173.685 97.2212 173.94C97.0273 174.19 96.803 174.483 96.6177 174.776C96.4314 175.071 96.2879 175.36 96.2505 175.603C96.207 175.876 96.0249 176.215 95.7906 176.565C95.5545 176.918 95.2578 177.295 94.979 177.65C94.5328 178.217 93.9819 178.821 93.4781 179.314C93.2265 179.561 92.9845 179.781 92.774 179.956C92.617 180.086 92.4745 180.193 92.356 180.267L92.2447 180.33C91.9873 180.459 91.7452 180.579 91.4537 180.785C91.1983 180.965 90.902 181.214 90.5259 181.595L90.3589 181.767C89.9347 182.214 89.4349 182.714 88.9898 183.17C88.5426 183.627 88.151 184.041 87.941 184.322L87.9019 184.374C87.8833 184.4 87.8641 184.425 87.8492 184.449C87.7672 184.58 87.6973 184.66 87.6333 184.708C87.5658 184.757 87.5059 184.769 87.4527 184.769C87.4298 184.769 87.4032 184.767 87.3882 184.766C87.3703 184.765 87.3574 184.766 87.3453 184.768C87.3293 184.771 87.3081 184.779 87.2788 184.806L87.2476 184.841C87.1329 184.982 87.0057 185.038 86.8931 185.098C86.7959 185.15 86.6984 185.21 86.6001 185.341L86.5581 185.4C86.4923 185.502 86.3277 185.835 86.1275 186.275C85.9352 186.699 85.7112 187.219 85.5152 187.714H85.5162L85.4966 187.762C85.3481 188.14 85.2166 188.502 85.1285 188.794C85.0847 188.939 85.051 189.067 85.0318 189.17C85.0127 189.274 85.0106 189.345 85.0191 189.382L85.0435 189.457C85.1146 189.623 85.2739 189.728 85.4234 189.839C85.5029 189.898 85.5868 189.965 85.6285 190.048C85.6501 190.091 85.6611 190.14 85.6548 190.193C85.6489 190.245 85.6256 190.299 85.5894 190.353C85.464 190.542 85.3795 190.729 85.3453 190.87C85.3283 190.941 85.3257 190.995 85.3326 191.031C85.339 191.064 85.3513 191.072 85.3609 191.075C85.4282 191.096 85.4688 191.153 85.4917 191.214C85.5146 191.275 85.5255 191.352 85.5308 191.435C85.5409 191.603 85.5286 191.822 85.5201 192.044C85.5133 192.244 85.5921 192.341 85.6919 192.481C85.795 192.626 85.9068 192.805 85.9234 193.152C85.9309 193.299 85.976 193.388 86.0347 193.45C86.0967 193.514 86.1791 193.555 86.273 193.6C86.3627 193.644 86.4664 193.693 86.5464 193.773C86.6141 193.841 86.6633 193.929 86.6841 194.049L86.691 194.045L86.6949 194.144C86.695 194.147 86.6958 194.152 86.6968 194.159C86.6973 194.166 86.6978 194.177 86.6978 194.188C86.6979 194.524 86.739 195.041 86.771 195.545C86.8036 196.043 86.8281 196.535 86.7945 196.808C86.7636 197.064 86.8023 197.516 86.8648 197.945C86.9273 198.374 87.0121 198.767 87.065 198.905L87.0757 198.954C87.0772 198.97 87.0768 198.987 87.0757 199.004C87.0725 199.037 87.0639 199.075 87.0523 199.113C87.0283 199.19 86.9878 199.282 86.9351 199.381C86.8293 199.58 86.6704 199.821 86.4888 200.063C86.1271 200.546 85.6607 201.051 85.3091 201.26C84.9618 201.467 84.5933 201.567 84.2359 201.678C83.8762 201.791 83.5227 201.917 83.1861 202.176C82.847 202.435 82.6734 202.663 82.5308 202.868C82.3878 203.072 82.2684 203.265 82.0406 203.433C81.812 203.603 81.6251 203.644 81.4829 203.692C81.4125 203.716 81.3533 203.742 81.2994 203.785C81.2455 203.827 81.1925 203.89 81.1392 203.992C81.0833 204.1 81.0412 204.188 81.0044 204.262C80.9688 204.335 80.9374 204.398 80.9029 204.447C80.8672 204.498 80.8263 204.538 80.772 204.565C80.7187 204.592 80.6566 204.604 80.5835 204.608C80.5309 204.611 80.4945 204.63 80.4673 204.659C80.4396 204.689 80.4175 204.737 80.4058 204.802C80.3825 204.934 80.4029 205.124 80.4663 205.345C80.5278 205.562 80.6262 205.696 80.7329 205.893C80.8263 206.064 80.9173 206.271 80.9771 206.595L81.0015 206.743L81.0464 207.014C81.0945 207.261 81.1486 207.44 81.187 207.59C81.2382 207.79 81.2628 207.948 81.1919 208.144C81.1632 208.224 81.1453 208.34 81.1363 208.478C81.1278 208.615 81.1275 208.77 81.1275 208.926C81.1275 209.079 81.1274 209.236 81.1226 209.373C81.1173 209.508 81.1062 209.632 81.0796 209.721C81.0245 209.904 80.8969 210.046 80.6734 210.181C80.5073 210.283 80.2831 210.384 79.9878 210.5L79.6675 210.621C79.2122 210.788 78.7612 211.02 78.44 211.248C78.2801 211.362 78.1541 211.473 78.0767 211.572C77.9967 211.674 77.9807 211.748 77.9966 211.795C78.0185 211.856 78.0473 211.873 78.0728 211.881C78.0887 211.885 78.1076 211.887 78.1304 211.887C78.142 211.887 78.1539 211.887 78.1665 211.887C78.1788 211.887 78.1933 211.886 78.2066 211.886C78.2578 211.886 78.3322 211.892 78.3833 211.956C78.4301 212.015 78.445 212.108 78.437 212.239C78.4296 212.357 78.4144 212.522 78.3931 212.713H78.3941L78.3853 212.786L78.3804 212.825L78.3785 212.845H78.3775C78.339 213.158 78.2818 213.522 78.2017 213.842C78.159 214.011 78.1098 214.171 78.0533 214.304C77.9967 214.437 77.9306 214.551 77.8511 214.624C77.4775 214.964 76.7425 215.604 76.2974 216.35C75.8411 217.114 74.4985 218.781 73.687 219.543C73.2809 219.924 72.8215 220.281 72.4107 220.544C72.2054 220.674 72.0101 220.782 71.8394 220.858C71.6708 220.933 71.5179 220.978 71.399 220.978C71.346 220.978 71.2921 220.977 71.2398 220.976C71.1872 220.975 71.1346 220.974 71.0845 220.974C70.9838 220.974 70.8915 220.978 70.813 220.992C70.7343 221.006 70.6749 221.03 70.6343 221.065C70.596 221.098 70.5687 221.148 70.562 221.225C70.5523 221.332 70.5098 221.408 70.4292 221.44C70.3599 221.468 70.2768 221.456 70.2076 221.443C70.13 221.428 70.0615 221.408 69.9917 221.399C69.9245 221.392 69.8742 221.398 69.8374 221.422H69.8365C69.6152 221.562 69.2704 221.706 68.8218 221.585L68.73 221.556C68.2783 221.4 67.6309 221.415 67.0923 221.572C66.8315 221.648 66.731 221.742 66.6187 221.824C66.5606 221.867 66.4982 221.907 66.4117 221.935C66.3256 221.964 66.2184 221.979 66.0728 221.979C65.7932 221.98 65.5204 221.999 65.2974 222.05C65.0992 222.095 64.9518 222.162 64.8687 222.25L64.8374 222.289C64.6492 222.563 64.2622 222.586 64.0581 222.384L64.0201 222.34C63.9383 222.233 63.8569 222.126 63.7671 222.042C63.6777 221.958 63.5861 221.905 63.4869 221.898C63.4171 221.893 63.3643 221.875 63.3228 221.845C63.2836 221.817 63.2563 221.779 63.2359 221.753C63.2146 221.725 63.1953 221.701 63.1665 221.679C63.1449 221.663 63.1149 221.647 63.0728 221.634L63.0259 221.623C62.9815 221.614 62.9423 221.598 62.9107 221.575C62.8787 221.551 62.8564 221.52 62.8423 221.487C62.8169 221.425 62.8158 221.347 62.813 221.274C62.8072 221.121 62.7959 220.917 62.6285 220.659C62.4512 220.384 62.3516 220.16 62.3492 219.992C62.3481 219.905 62.3741 219.828 62.4312 219.77C62.4872 219.714 62.5667 219.682 62.6597 219.669L62.7037 219.658C62.7405 219.645 62.7611 219.623 62.774 219.596C62.7938 219.556 62.8001 219.492 62.7896 219.404C62.7682 219.227 62.6867 218.993 62.605 218.739L62.5708 218.645C62.4788 218.418 62.3084 218.133 62.1226 217.804C61.9391 217.48 61.7428 217.117 61.6089 216.74L61.5562 216.578C61.397 216.054 61.0917 215.406 60.7408 214.852L60.7329 214.841C60.5199 214.505 60.2909 214.207 60.0718 213.993C59.7577 213.687 59.5937 213.172 59.4947 212.666C59.3959 212.159 59.358 211.632 59.3111 211.31C59.2128 210.646 59.1022 209.995 58.9292 209.619C58.879 209.508 58.8647 209.37 58.8658 209.223C58.867 209.076 58.883 208.911 58.899 208.744C58.9275 208.446 58.9543 208.141 58.9038 207.881L58.8765 207.771C58.7912 207.482 58.5789 207.119 58.3511 206.72C58.1261 206.326 57.8878 205.901 57.7642 205.498C57.5385 204.762 57.1301 203.9 56.7788 203.389L56.7085 203.292C56.5282 203.048 56.3633 202.77 56.2476 202.51C56.1517 202.295 56.0866 202.084 56.0796 201.913L56.0777 201.914L56.0806 201.824C56.0808 201.819 56.0806 201.814 56.0806 201.804C56.0806 201.797 56.0815 201.784 56.0835 201.772V201.77C56.1155 201.613 56.1559 201.32 56.1861 201.031C56.2163 200.741 56.2352 200.46 56.2271 200.321C56.2223 200.23 56.263 200.121 56.315 200.013C56.368 199.904 56.4422 199.776 56.5122 199.645C56.6555 199.378 56.7932 199.08 56.7935 198.784C56.7936 198.458 56.8964 198.038 57.0464 197.645C57.1966 197.253 57.3977 196.878 57.5982 196.644C57.9929 196.183 58.4191 195.772 58.3579 195.113C58.3268 194.779 58.1621 194.356 57.9995 193.938C57.9192 193.731 57.839 193.525 57.7798 193.336C57.7209 193.147 57.6804 192.968 57.6802 192.816C57.6803 192.521 57.7647 192.3 57.8267 192.125C57.89 191.945 57.9227 191.826 57.8638 191.701L57.6841 191.328C57.4417 190.82 57.0534 189.975 56.9038 189.412L56.8921 189.367L56.8931 189.366C56.887 189.344 56.8804 189.321 56.8755 189.3C56.7975 188.947 56.6991 188.554 56.5162 188.161L56.4917 188.11C56.3009 187.716 56.0191 187.325 55.5767 186.983L55.4605 186.891L55.4126 186.853L55.4146 186.85C55.0579 186.553 54.9332 186.361 54.8335 186.176C54.7336 185.989 54.6614 185.818 54.3775 185.542C54.0714 185.244 53.8737 185.043 53.7515 184.89C53.6287 184.737 53.5757 184.622 53.566 184.499C53.5651 184.488 53.5577 184.465 53.5386 184.43C53.5202 184.397 53.4933 184.358 53.4615 184.315C53.3964 184.227 53.3145 184.128 53.2349 184.027C53.1579 183.929 53.0827 183.827 53.0396 183.739C53.0183 183.695 53.0011 183.648 52.9996 183.603C52.9981 183.555 53.0157 183.506 53.0601 183.472C53.1545 183.402 53.2622 183.31 53.3433 183.201C53.4141 183.105 53.463 182.999 53.4693 182.885V182.837C53.4638 182.729 53.5237 182.655 53.5972 182.606C53.6679 182.56 53.7598 182.53 53.8394 182.507C53.9245 182.481 53.9946 182.462 54.0406 182.438C54.0622 182.427 54.0705 182.417 54.0728 182.414V182.412L54.0708 182.405C54.0565 182.368 54.021 182.325 53.9683 182.277C53.9156 182.229 53.8546 182.183 53.7955 182.134C53.7402 182.089 53.6819 182.037 53.649 181.985C53.6323 181.958 53.6191 181.925 53.6197 181.888C53.6207 181.849 53.6377 181.813 53.6656 181.785C53.7147 181.736 53.7777 181.662 53.8277 181.588L53.8413 181.566C53.8621 181.534 53.8796 181.503 53.8912 181.475C53.9027 181.448 53.9076 181.426 53.9078 181.412C53.9076 181.401 53.9043 181.397 53.9029 181.396C53.8994 181.393 53.886 181.386 53.8531 181.384C53.7727 181.378 53.7042 181.352 53.6558 181.306C53.607 181.26 53.582 181.198 53.5845 181.133C53.5902 181.002 53.7 180.879 53.8833 180.817H53.8843C54.1786 180.72 54.2464 180.417 54.108 180.209C54.0998 180.196 54.0951 180.182 54.0933 180.176C54.0923 180.173 54.0917 180.171 54.0913 180.17L54.0464 180.074H54.0621C54.0522 180.02 54.0516 179.962 54.0572 179.905C54.0665 179.812 54.0915 179.712 54.1216 179.618C54.1519 179.523 54.1885 179.43 54.2203 179.349C54.2525 179.268 54.2801 179.201 54.2945 179.154V179.152C54.306 179.114 54.3079 179.039 54.2964 178.939C54.2851 178.842 54.2614 178.728 54.231 178.617C54.2005 178.506 54.1634 178.398 54.1236 178.315C54.1037 178.274 54.0829 178.239 54.064 178.213C54.0449 178.186 54.0297 178.172 54.0201 178.167C53.9938 178.152 53.9499 178.148 53.8814 178.152C53.8486 178.154 53.8134 178.158 53.7749 178.162C53.7369 178.166 53.6954 178.17 53.6538 178.172C53.4884 178.18 53.2921 178.159 53.1587 177.969C53.1182 177.911 53.0774 177.849 53.0386 177.789C52.9997 177.728 52.9615 177.669 52.9244 177.614C52.8479 177.501 52.7809 177.419 52.7232 177.383L52.7134 177.376C52.6944 177.366 52.6798 177.362 52.6695 177.362C52.6595 177.362 52.6462 177.366 52.6285 177.383C52.5949 177.413 52.5486 177.436 52.4996 177.454C52.4492 177.472 52.3895 177.487 52.3257 177.499C52.198 177.523 52.0445 177.537 51.8912 177.547C51.5844 177.565 51.2666 177.56 51.1304 177.56C51.0738 177.56 50.9939 177.58 50.896 177.613C50.7984 177.646 50.6942 177.687 50.5845 177.726C50.4775 177.765 50.3671 177.8 50.2671 177.818C50.1694 177.835 50.0676 177.838 49.9869 177.795C49.8505 177.722 49.6927 177.545 49.5738 177.359C49.5136 177.265 49.4611 177.164 49.4244 177.069C49.3882 176.975 49.365 176.88 49.3697 176.798C49.3726 176.747 49.3496 176.663 49.2955 176.557C49.2425 176.454 49.1636 176.339 49.0689 176.227C48.877 176.002 48.6264 175.806 48.3892 175.754C48.2628 175.726 48.1106 175.702 47.9488 175.677C47.7876 175.653 47.6161 175.628 47.4556 175.598C47.2957 175.569 47.1424 175.535 47.0162 175.491C46.8959 175.449 46.7871 175.393 46.7251 175.315C46.7227 175.313 46.7193 175.311 46.7163 175.308L46.7037 175.296L46.7027 175.294C46.6881 175.279 46.676 175.27 46.6665 175.266C46.6561 175.263 46.6438 175.262 46.6285 175.265C46.5924 175.274 46.548 175.302 46.4869 175.346C46.375 175.428 46.216 175.561 46.0162 175.561C45.833 175.561 45.5605 175.575 45.3013 175.625L45.2984 175.626C45.064 175.671 44.8498 175.742 44.7193 175.852H44.7183C44.667 175.895 44.6064 175.934 44.5425 175.97L44.5435 175.973L44.4859 176.004L44.4253 176.036L44.4244 176.034C44.2647 176.112 44.0777 176.184 43.8853 176.258C43.6665 176.341 43.4379 176.43 43.2222 176.538C42.9467 176.676 42.4648 176.903 42.0279 177.089C41.8096 177.181 41.6007 177.265 41.4341 177.322C41.3511 177.35 41.2767 177.374 41.2163 177.387C41.1864 177.394 41.1579 177.399 41.1333 177.401C41.1099 177.403 41.084 177.404 41.0611 177.398C41.0337 177.391 40.9944 177.376 40.9497 177.358C40.9023 177.339 40.8449 177.314 40.7759 177.287C40.6388 177.232 40.4577 177.165 40.2408 177.102L40.2124 177.093C39.7016 176.949 38.9912 176.836 38.1538 176.978C37.465 177.097 36.8265 177.276 36.2759 177.424C35.7586 177.562 35.31 177.676 34.9751 177.681V177.684H34.9205C34.9042 177.684 34.8875 177.682 34.8716 177.681H34.8394V177.68C34.7657 177.675 34.6952 177.663 34.6324 177.638C34.3425 177.531 33.8973 177.277 33.4302 176.979C32.9608 176.68 32.4624 176.332 32.066 176.033C31.6559 175.723 31.1542 175.405 30.7124 175.127L30.6509 175.088C30.6485 175.086 30.6456 175.084 30.6431 175.083L30.5992 175.055V175.054C30.2459 174.83 29.9354 174.634 29.771 174.497C29.5876 174.346 29.4267 174.219 29.2818 174.017C29.1366 173.815 29.0083 173.541 28.8785 173.094L28.8453 172.991C28.8143 172.903 28.7782 172.819 28.7398 172.737L28.7232 172.704C28.4596 172.157 28.0412 171.787 27.6704 171.505L27.5152 171.388C27.285 171.219 27.1773 171.045 27.0826 170.882C26.9886 170.719 26.9091 170.571 26.7339 170.429L26.7027 170.404C26.6751 170.383 26.648 170.362 26.6158 170.342C26.4774 170.255 26.4095 170.161 26.3853 170.061C26.3625 169.967 26.3827 169.874 26.3951 169.807C26.4086 169.734 26.4119 169.689 26.3921 169.652C26.3723 169.616 26.3179 169.57 26.1665 169.527C25.8803 169.447 25.7194 169.359 25.5953 169.244C25.5344 169.187 25.4827 169.125 25.4312 169.057C25.3788 168.989 25.3258 168.915 25.2574 168.83V168.829C25.2245 168.787 25.1896 168.748 25.149 168.702C24.9987 168.532 24.9836 168.33 25.0083 168.14L25.0142 168.095L25.0581 168.084C25.2063 168.047 25.3289 168.018 25.3902 168.014C25.5495 168.005 25.8004 167.969 26.0386 167.912C26.1576 167.883 26.2729 167.849 26.3706 167.81C26.4691 167.771 26.5459 167.728 26.5933 167.685L26.6216 167.662C26.6888 167.614 26.765 167.604 26.8404 167.615C26.923 167.627 27.0093 167.665 27.0904 167.706C27.1313 167.727 27.1736 167.749 27.2144 167.771C27.2556 167.793 27.2971 167.815 27.3374 167.835C27.419 167.874 27.4957 167.905 27.566 167.914L27.6206 167.918C27.7506 167.921 27.884 167.884 27.9917 167.842C28.006 167.836 28.0205 167.829 28.0337 167.823C27.9476 167.811 27.8201 167.795 27.6343 167.781C27.3403 167.758 27.1788 167.568 27.0484 167.437C26.9807 167.37 26.9235 167.32 26.8609 167.298C26.8029 167.277 26.7308 167.275 26.6265 167.325C26.3894 167.438 26.1849 167.513 25.9634 167.551C25.7421 167.588 25.5065 167.587 25.2095 167.557L25.146 167.551L25.1499 167.487C25.1536 167.413 25.1379 167.364 25.105 167.333C24.9688 167.205 24.7741 166.942 24.6578 166.643C24.5419 166.345 24.4979 165.992 24.6919 165.699V165.698C24.8402 165.478 24.8932 165.182 24.9283 164.878L24.9312 164.856C24.9508 164.673 24.9648 164.484 24.9898 164.319C25.0149 164.153 25.0524 163.997 25.1255 163.88C25.2457 163.687 25.4555 163.33 25.5738 162.938C25.6926 162.544 25.7138 162.13 25.4829 161.809C25.2171 161.44 25.2448 161.073 25.2896 160.765C25.3124 160.609 25.3389 160.473 25.3394 160.351C25.3397 160.233 25.3144 160.136 25.2447 160.056V160.055C25.0203 159.799 24.5839 159.531 24.6138 158.846H24.6109L24.6158 158.796C24.6163 158.789 24.6162 158.781 24.6167 158.774L24.6216 158.714H24.6255C24.6582 158.447 24.7534 158.124 24.9449 157.723C25.318 156.944 25.7901 156.271 26.1704 155.706C26.361 155.423 26.5284 155.168 26.6509 154.939C26.7738 154.71 26.8486 154.512 26.8599 154.345L26.8677 154.272C26.8958 154.099 26.98 153.929 27.0904 153.766C27.2169 153.58 27.3826 153.398 27.5494 153.225C27.718 153.051 27.8862 152.887 28.0269 152.733C28.1678 152.579 28.2715 152.442 28.315 152.327L28.4165 152.076C28.5118 151.857 28.6384 151.622 28.8189 151.418H28.8052L28.9292 151.301C28.9349 151.296 28.9411 151.291 28.9468 151.286L28.9488 151.284C29.1517 151.1 29.4122 150.955 29.7535 150.898C30.1717 150.828 30.4227 150.647 30.6382 150.441C30.6924 150.389 30.7452 150.336 30.7974 150.282C30.8494 150.228 30.9023 150.173 30.9566 150.12C31.0657 150.013 31.185 149.91 31.3287 149.826C31.5926 149.671 31.9614 149.318 32.2388 148.959C32.3769 148.78 32.49 148.603 32.5552 148.451C32.5876 148.375 32.6076 148.308 32.6138 148.252C32.6182 148.21 32.6147 148.176 32.606 148.15L32.5953 148.127C32.4842 147.938 32.3808 147.592 32.356 147.255C32.3436 147.085 32.351 146.913 32.3882 146.761C32.4256 146.61 32.4951 146.472 32.6109 146.38L32.6753 146.322C32.8122 146.188 32.8681 146.035 32.9205 145.877C32.9797 145.697 33.037 145.499 33.2242 145.347L33.2788 145.298C33.3306 145.244 33.3766 145.177 33.4195 145.104C33.4782 145.004 33.5253 144.903 33.5826 144.798C33.6907 144.6 33.8294 144.397 34.0894 144.397C34.2947 144.397 34.6206 144.32 34.9361 144.183C35.2522 144.046 35.5451 143.854 35.6958 143.635L35.7564 143.539C35.8202 143.43 35.8928 143.285 35.9703 143.121C36.0733 142.902 36.1829 142.653 36.2935 142.412C36.4034 142.172 36.5143 141.94 36.6167 141.759C36.6679 141.668 36.7191 141.587 36.7671 141.525C36.8135 141.465 36.8636 141.413 36.9165 141.387C37.0884 141.306 37.2595 141.307 37.44 141.391C37.6157 141.474 37.8011 141.635 38.0122 141.871C38.2006 142.081 38.4953 142.128 38.8326 142.116C38.9999 142.11 39.1727 142.09 39.3413 142.072C39.5083 142.054 39.6737 142.038 39.8199 142.042C40.0348 142.049 40.2652 142.129 40.479 142.202C40.6985 142.276 40.902 142.342 41.0826 142.339H41.104C41.2328 142.333 41.3493 142.288 41.4478 142.178C41.6638 141.938 41.9736 141.711 42.2915 141.545C42.6083 141.379 42.9431 141.269 43.2085 141.269C43.3128 141.269 43.4153 141.224 43.5269 141.145C43.6397 141.066 43.7534 140.96 43.8843 140.846C44.1418 140.623 44.456 140.383 44.8999 140.366C45.3168 140.35 46.2621 140.222 47.1499 140.131C47.5918 140.085 48.0199 140.049 48.355 140.042C48.522 140.038 48.6688 140.042 48.7837 140.055C48.841 140.062 48.8932 140.071 48.9361 140.084C48.9777 140.096 49.0184 140.114 49.0474 140.141V140.142C49.0982 140.19 49.1823 140.209 49.3033 140.195C49.4229 140.181 49.5644 140.138 49.7124 140.084C49.7859 140.057 49.8609 140.028 49.9341 139.999C50.0069 139.97 50.0796 139.941 50.148 139.916C50.2828 139.865 50.4137 139.823 50.5142 139.818C50.6868 139.811 50.9115 139.768 51.1246 139.733C51.2294 139.716 51.3319 139.701 51.4205 139.694C51.5067 139.688 51.5902 139.688 51.6519 139.709C51.776 139.749 52.2063 139.889 52.607 139.903L52.6587 139.904C52.883 139.905 53.0787 139.865 53.2007 139.754L53.2437 139.717C53.4687 139.541 53.8261 139.475 54.1324 139.492ZM77.1245 213.168C77.1576 213.154 77.1833 213.139 77.2007 213.119C77.2214 213.095 77.2369 213.06 77.2417 213.01L77.2437 212.994C77.2076 213.054 77.1681 213.113 77.1245 213.168ZM77.3589 212.761C77.379 212.739 77.4006 212.718 77.4214 212.699C77.4204 212.691 77.4186 212.681 77.4175 212.672C77.4151 212.652 77.4123 212.632 77.4097 212.61C77.3952 212.662 77.3783 212.712 77.3589 212.761ZM96.2847 195.64C96.3336 195.647 96.3651 195.687 96.3843 195.721C96.405 195.759 96.4243 195.812 96.4429 195.88C96.4644 195.959 96.5187 196.063 96.5933 196.191C96.6659 196.316 96.7596 196.465 96.8482 196.622C97.0261 196.938 97.2037 197.312 97.2203 197.7C97.2359 198.06 97.3614 198.438 97.4751 198.8C97.5312 198.979 97.5846 199.155 97.6177 199.318C97.6427 199.441 97.6562 199.561 97.6509 199.672L97.6382 199.78C97.589 200.042 97.4738 200.214 97.3062 200.236C97.2246 200.247 97.1429 200.218 97.0699 200.165C96.9968 200.111 96.9279 200.032 96.8687 199.93C96.8165 199.841 96.7794 199.835 96.7681 199.837C96.7515 199.839 96.7171 199.861 96.6851 199.934C96.6244 200.074 96.6086 200.322 96.6988 200.549C96.8054 200.816 96.7307 201.032 96.649 201.224C96.5759 201.396 96.5011 201.545 96.5025 201.715L96.5132 201.844C96.5148 201.903 96.5088 201.974 96.4976 202.053C96.4832 202.162 96.4583 202.292 96.4253 202.438C96.3586 202.732 96.2583 203.099 96.1392 203.5C95.9003 204.303 95.5857 205.257 95.3111 206.079C95.0375 206.901 94.7399 207.929 94.4605 208.815C94.3211 209.256 94.1865 209.663 94.062 209.987C94.0002 210.149 93.9395 210.292 93.8824 210.408C93.8258 210.523 93.7702 210.618 93.7163 210.681C93.6096 210.806 93.501 210.876 93.3921 210.914C93.2849 210.951 93.18 210.955 93.0855 210.956C92.9173 210.958 92.7788 210.952 92.6431 211.053L92.5845 211.105C92.4787 211.21 92.3185 211.254 92.146 211.261C91.972 211.268 91.7732 211.237 91.5757 211.181C91.1815 211.071 90.7736 210.857 90.5523 210.619C90.329 210.378 90.2211 210.006 90.1324 209.629C90.0539 209.292 89.9898 208.949 89.8804 208.658L89.8296 208.536C89.5299 207.872 89.466 206.811 90.2583 205.852C90.6385 205.393 90.7681 205.029 90.772 204.698C90.7757 204.363 90.6516 204.053 90.5064 203.696C90.2157 202.985 90.0423 202.28 90.3814 201.67C90.5333 201.396 90.5412 201.035 90.562 200.73C90.5722 200.584 90.5861 200.443 90.6275 200.343C90.6494 200.292 90.6815 200.244 90.73 200.215C90.7791 200.184 90.838 200.176 90.9019 200.185C91.0915 200.215 91.3003 200.142 91.5396 200.059C91.7708 199.98 92.0285 199.892 92.2886 199.926L92.3277 199.93C92.4184 199.932 92.5182 199.901 92.6265 199.844C92.7504 199.781 92.8795 199.687 93.0103 199.589C93.1393 199.491 93.2724 199.387 93.4009 199.306C93.5285 199.226 93.6618 199.161 93.7915 199.152C94.0041 199.137 94.2333 199.045 94.3882 198.925C94.4655 198.864 94.5206 198.799 94.5474 198.738C94.5729 198.679 94.5734 198.625 94.5454 198.574L94.5171 198.517C94.4948 198.463 94.4864 198.414 94.4927 198.369C94.5008 198.311 94.5315 198.268 94.5523 198.238C94.5739 198.206 94.5902 198.181 94.5972 198.148C94.6036 198.115 94.6014 198.064 94.5728 197.984L94.5523 197.909C94.5384 197.836 94.545 197.768 94.5689 197.707C94.6004 197.627 94.6592 197.564 94.7281 197.518C94.8638 197.428 95.0498 197.393 95.1929 197.411C95.2997 197.424 95.4528 197.376 95.5777 197.289C95.7043 197.2 95.7743 197.093 95.7632 197.003C95.7467 196.866 95.7549 196.696 95.7847 196.546C95.7991 196.47 95.8207 196.396 95.8462 196.333C95.8713 196.271 95.9035 196.213 95.9439 196.172C95.9524 196.164 95.9652 196.146 95.98 196.117C95.9943 196.089 96.0086 196.053 96.024 196.015C96.0533 195.942 96.0862 195.851 96.1187 195.783C96.1347 195.749 96.1541 195.715 96.1753 195.689C96.1952 195.666 96.233 195.633 96.2847 195.64Z" fill="white" fill-opacity="0.5"/>
<path d="M35.2438 201.078L42.3657 176.877L47.7072 174.262L43.5162 195.706H58.527L56.6096 203.211H42.3657L38.8048 216.311L47.7072 218.222V221.389H21V218.222L29.9024 216.311L35.2438 201.078Z" fill="white" fill-opacity="0.5"/>
</g>
<defs>
<filter id="filter0_f_3965_13742" x="-336.633" y="-343.807" width="792.55" height="793.458" filterUnits="userSpaceOnUse" color-interpolation-filters="sRGB">
<feFlood flood-opacity="0" result="BackgroundImageFix"/>
<feBlend mode="normal" in="SourceGraphic" in2="BackgroundImageFix" result="shape"/>
<feGaussianBlur stdDeviation="150" result="effect1_foregroundBlur_3965_13742"/>
</filter>
<filter id="filter1_f_3965_13742" x="-143" y="-361" width="828" height="828" filterUnits="userSpaceOnUse" color-interpolation-filters="sRGB">
<feFlood flood-opacity="0" result="BackgroundImageFix"/>
<feBlend mode="normal" in="SourceGraphic" in2="BackgroundImageFix" result="shape"/>
<feGaussianBlur stdDeviation="150" result="effect1_foregroundBlur_3965_13742"/>
</filter>
<filter id="filter2_f_3965_13742" x="-322" y="-210" width="794" height="794" filterUnits="userSpaceOnUse" color-interpolation-filters="sRGB">
<feFlood flood-opacity="0" result="BackgroundImageFix"/>
<feBlend mode="normal" in="SourceGraphic" in2="BackgroundImageFix" result="shape"/>
<feGaussianBlur stdDeviation="150" result="effect1_foregroundBlur_3965_13742"/>
</filter>
<filter id="filter3_f_3965_13742" x="-160" y="-228" width="830" height="830" filterUnits="userSpaceOnUse" color-interpolation-filters="sRGB">
<feFlood flood-opacity="0" result="BackgroundImageFix"/>
<feBlend mode="normal" in="SourceGraphic" in2="BackgroundImageFix" result="shape"/>
<feGaussianBlur stdDeviation="150" result="effect1_foregroundBlur_3965_13742"/>
</filter>
<clipPath id="clip0_3965_13742">
<path d="M0 15C0 6.71573 6.71573 0 15 0H327.439C335.723 0 342.439 6.71573 342.439 15V240H0V15Z" fill="white"/>
</clipPath>
</defs>
</svg>
