<svg width="473" height="463" viewBox="0 0 473 463" fill="none" xmlns="http://www.w3.org/2000/svg">
<g clip-path="url(#clip0_4877_23046)">
<g clip-path="url(#clip1_4877_23046)">
<path d="M-156 15C-156 6.71573 -149.284 0 -141 0H462C470.284 0 477 6.71573 477 15V444H-156V15Z" fill="#171717"/>
<g filter="url(#filter0_f_4877_23046)">
<ellipse cx="-109.739" cy="39.0231" rx="95.7084" ry="160.595" transform="rotate(-39.1533 -109.739 39.0231)" fill="#37EF1F"/>
</g>
<g filter="url(#filter1_f_4877_23046)">
<circle cx="87" cy="39" r="99" fill="#09BA00"/>
</g>
<g filter="url(#filter2_f_4877_23046)">
<circle cx="-82" cy="197" r="127" fill="#2E8D03"/>
</g>
<g filter="url(#filter3_f_4877_23046)">
<circle cx="112" cy="197" r="97" fill="#115508"/>
</g>
</g>
<g filter="url(#filter4_f_4877_23046)">
<path d="M75.317 268L25.4636 294.01L43.5921 298.736C43.5921 298.736 53.0639 294.077 59.4546 291.843C65.5058 289.728 68.8859 287.875 75.317 287.508C83.4614 287.043 92.3983 291.868 100.244 294.01C108.366 296.229 116.106 298.736 116.106 298.736V317.853H125.17V294.01M43.5921 302.681V314.298C43.5921 314.298 62.6464 307.796 75.317 307.796C87.9876 307.796 107.042 314.298 107.042 314.298V302.681C107.042 302.681 88.0029 291.178 75.317 291.843C62.181 292.532 43.5921 302.681 43.5921 302.681Z" fill="white" fill-opacity="0.5"/>
<path fill-rule="evenodd" clip-rule="evenodd" d="M70.9795 317.86C71.2681 317.876 71.5451 317.936 71.7581 318.041C71.9688 318.144 72.1403 318.305 72.1683 318.53L72.1874 318.636C72.2097 318.732 72.2429 318.8 72.2783 318.846C72.324 318.905 72.3793 318.934 72.4383 318.944C72.5652 318.964 72.7351 318.897 72.8772 318.768L72.9544 318.711C73.1424 318.595 73.3834 318.616 73.5143 318.784C73.6699 318.984 73.6016 319.293 73.2948 319.614C73.2196 319.693 73.1431 319.768 73.072 319.839C73.0005 319.909 72.9329 319.977 72.8717 320.041C72.7476 320.171 72.6553 320.284 72.6058 320.392C72.559 320.494 72.5506 320.591 72.5914 320.696C72.635 320.807 72.74 320.942 72.9441 321.106C73.8016 321.791 73.7387 323.004 73.0371 323.721L72.8881 323.857C72.4822 324.19 72.0479 324.359 71.7731 324.511C71.6305 324.59 71.5334 324.662 71.4778 324.745C71.4269 324.821 71.4024 324.919 71.432 325.069L71.4635 325.177C71.5578 325.421 71.7915 325.604 72.0534 325.699C72.2009 325.752 72.3507 325.775 72.4738 325.766C72.5988 325.757 72.682 325.717 72.724 325.667C72.8215 325.55 72.9496 325.51 73.0781 325.534C73.197 325.556 73.3073 325.631 73.3967 325.718C73.4876 325.807 73.5677 325.92 73.625 326.035C73.6817 326.148 73.7212 326.274 73.7214 326.389C73.7215 326.404 73.7289 326.439 73.7576 326.492C73.7855 326.543 73.8293 326.605 73.8882 326.672C74.0039 326.805 74.1754 326.954 74.3899 327.094L74.4036 327.103C74.9118 327.429 75.6529 327.689 76.5255 327.545C77.3954 327.4 78.0439 327.531 78.594 327.723C78.8659 327.818 79.1172 327.929 79.3515 328.025C79.5883 328.122 79.8125 328.206 80.0412 328.253C80.5225 328.352 80.8804 328.476 81.1056 328.669C81.2206 328.768 81.3016 328.887 81.3462 329.025C81.3902 329.163 81.3963 329.317 81.3735 329.483C81.3399 329.736 81.4899 330.037 81.8104 330.284C82.1276 330.528 82.5968 330.704 83.1516 330.704C84.3282 330.704 85.7719 331.108 86.7582 332.006L86.9353 332.152C87.8377 332.828 88.9882 332.697 89.5233 331.994L89.6108 331.858C89.7814 331.54 89.7246 331.209 89.6013 330.85C89.5662 330.748 89.5256 330.645 89.4851 330.54C89.4447 330.437 89.4037 330.33 89.3675 330.225C89.2953 330.015 89.2381 329.795 89.2458 329.576C89.2503 329.45 89.3017 329.319 89.3784 329.194C89.4559 329.067 89.5651 328.936 89.697 328.807C89.9616 328.549 90.3291 328.285 90.7504 328.052C91.591 327.587 92.6726 327.232 93.6345 327.291L93.8061 327.305C94.1922 327.344 94.4716 327.431 94.6893 327.55C94.9378 327.685 95.0983 327.859 95.243 328.025C95.389 328.192 95.5171 328.348 95.7078 328.481C95.896 328.613 96.1527 328.726 96.5541 328.788C97.3792 328.913 97.9956 328.985 98.4162 329.074C98.6269 329.119 98.8003 329.17 98.9323 329.24C99.0616 329.309 99.1576 329.4 99.2078 329.525L99.2529 329.585C99.2999 329.646 99.3987 329.715 99.5612 329.784C99.7214 329.85 99.9313 329.912 100.181 329.967C100.679 330.078 101.329 330.162 102.052 330.228C103.625 330.372 104.745 330.885 105.587 331.224C105.997 331.388 106.425 331.469 106.789 331.445C107.154 331.422 107.437 331.295 107.592 331.068C107.653 330.98 107.755 330.901 107.872 330.833C107.993 330.763 108.141 330.697 108.307 330.637C108.64 330.515 109.055 330.409 109.481 330.335C109.907 330.26 110.352 330.214 110.744 330.216C111.131 330.217 111.487 330.262 111.724 330.381C112.573 330.804 113.215 331.093 114.043 330.879C114.511 330.759 114.988 330.852 115.358 330.937C115.549 330.98 115.706 331.019 115.831 331.036C115.893 331.044 115.939 331.045 115.973 331.041C116.005 331.036 116.018 331.028 116.022 331.024L116.024 331.022C116.036 331.01 116.061 330.98 116.096 330.93C116.131 330.881 116.173 330.818 116.221 330.743L116.343 330.553L117.8 334.122L117.816 334.164L117.8 334.206L117.528 334.96L117.454 335.468L117.32 335.479C117.318 335.483 117.316 335.488 117.313 335.494C117.288 335.548 117.258 335.639 117.225 335.762C117.159 336.012 117.088 336.342 116.997 336.699C116.909 337.047 116.804 337.408 116.676 337.684C116.612 337.821 116.54 337.945 116.456 338.035C116.371 338.126 116.262 338.195 116.134 338.195C115.915 338.195 115.698 338.046 115.505 337.856C115.307 337.661 115.109 337.397 114.927 337.119C114.563 336.563 114.25 335.928 114.107 335.614C114.036 335.457 113.936 335.217 113.824 334.952C113.711 334.687 113.586 334.393 113.461 334.122C113.336 333.849 113.214 333.603 113.109 333.431C113.062 333.353 113.018 333.296 112.984 333.259C112.971 333.316 112.965 333.403 112.966 333.516C112.967 333.742 113 334.053 113.07 334.403C113.21 335.103 113.49 335.94 113.913 336.542C114.35 337.16 114.669 337.476 114.898 337.764C115.01 337.905 115.1 338.041 115.158 338.195C115.217 338.351 115.241 338.52 115.234 338.729C115.222 339.079 115.407 339.354 115.63 339.652C115.846 339.939 116.106 340.258 116.138 340.664C116.151 340.819 116.248 341.056 116.41 341.357C116.57 341.653 116.784 341.996 117.01 342.358C117.458 343.076 117.964 343.881 118.167 344.534C118.356 345.147 118.6 345.437 118.787 345.696C118.881 345.826 118.969 345.957 119.019 346.117C119.057 346.239 119.073 346.374 119.063 346.534L119.045 346.703C119.007 346.953 119.009 347.194 119.048 347.423L119.05 347.429C119.147 347.98 119.471 348.459 120.06 348.781C120.514 349.03 120.927 349.416 121.234 349.799C121.388 349.991 121.516 350.185 121.611 350.363C121.703 350.539 121.768 350.707 121.784 350.848L121.816 351.051C121.832 351.13 121.851 351.221 121.872 351.322C121.914 351.523 121.966 351.765 122.015 352.038C122.115 352.585 122.208 353.264 122.208 354.022C122.208 354.759 122.321 355.415 122.512 355.921C122.705 356.43 122.973 356.77 123.271 356.906C123.436 356.982 123.636 357.135 123.844 357.328C124.021 357.492 124.21 357.692 124.395 357.91L124.397 357.909L124.552 358.098L124.55 358.099C124.812 358.427 125.062 358.789 125.25 359.144C125.45 359.52 125.588 359.901 125.597 360.229C125.611 360.739 125.85 361.405 126.142 361.956C126.288 362.229 126.445 362.47 126.588 362.643C126.66 362.729 126.727 362.797 126.785 362.843C126.845 362.891 126.887 362.908 126.909 362.911C127.067 362.932 127.179 363.053 127.263 363.174C127.347 363.296 127.427 363.456 127.506 363.597C127.588 363.743 127.673 363.878 127.772 363.974C127.869 364.068 127.976 364.123 128.106 364.123C128.479 364.123 128.991 364.321 129.533 364.678C130.081 365.038 130.677 365.569 131.221 366.256C132.114 367.383 132.784 368.094 133.243 368.525L133.357 368.631L133.222 368.711C133.097 368.783 132.984 368.852 132.897 368.911C132.805 368.973 132.757 369.018 132.741 369.039L132.739 369.04C132.634 369.178 132.471 369.209 132.309 369.208C132.165 369.208 131.985 369.183 131.791 369.16C131.784 369.173 131.775 369.188 131.766 369.203C131.709 369.295 131.628 369.422 131.535 369.564C131.396 369.776 131.224 370.026 131.057 370.24L130.893 370.44C130.715 370.642 130.669 370.946 130.691 371.247C130.712 371.545 130.797 371.812 130.849 371.915C130.86 371.937 130.887 371.964 130.946 371.982C131.006 372.001 131.088 372.008 131.182 372.002C131.373 371.988 131.592 371.919 131.752 371.813C131.83 371.761 131.911 371.724 131.997 371.71C132.085 371.697 132.17 371.709 132.256 371.741C132.393 371.793 132.535 371.9 132.698 372.047C132.912 371.759 133.18 371.451 133.427 371.2L133.491 371.135L133.569 371.181C133.929 371.391 134.309 371.726 134.594 372.32C134.89 372.939 135.499 373.142 136.118 373.112C136.427 373.097 136.733 373.024 136.991 372.919C137.25 372.813 137.453 372.679 137.563 372.55C137.716 372.371 137.934 372.295 138.16 372.265C138.385 372.235 138.639 372.248 138.88 372.262C139.126 372.276 139.362 372.29 139.57 372.27C139.778 372.25 139.943 372.196 140.057 372.088C140.36 371.801 140.757 371.624 141.267 371.515C141.776 371.406 142.407 371.364 143.185 371.35C143.954 371.337 144.942 371.218 145.773 371.019C146.188 370.92 146.562 370.801 146.847 370.667C147.139 370.531 147.315 370.389 147.375 370.26C147.55 369.876 147.941 369.7 148.286 369.816C148.638 369.935 148.883 370.331 148.839 370.967C148.796 371.586 148.623 372.261 148.468 372.855C148.39 373.154 148.318 373.434 148.265 373.68C148.213 373.927 148.184 374.133 148.19 374.286C148.197 374.48 148.124 374.765 148.012 375.083C147.898 375.406 147.736 375.78 147.553 376.159C147.187 376.913 146.731 377.698 146.385 378.144C146.045 378.582 145.652 379.093 145.328 379.607C145.002 380.122 144.752 380.627 144.686 381.054C144.61 381.532 144.29 382.124 143.88 382.737C143.467 383.356 142.948 384.016 142.46 384.637C141.679 385.628 140.715 386.684 139.833 387.548C139.393 387.98 138.97 388.366 138.602 388.672C138.327 388.9 138.077 389.086 137.87 389.216L137.675 389.326C137.224 389.552 136.8 389.761 136.29 390.122C135.843 390.438 135.325 390.873 134.667 391.541L134.375 391.842C133.633 392.624 132.758 393.497 131.979 394.296C131.196 395.097 130.512 395.821 130.145 396.312L130.075 396.403C130.042 396.449 130.009 396.493 129.983 396.534C129.839 396.763 129.717 396.904 129.604 396.987C129.486 397.074 129.382 397.095 129.289 397.095C129.249 397.095 129.203 397.091 129.177 397.089C129.146 397.088 129.123 397.089 129.101 397.093C129.073 397.098 129.036 397.113 128.985 397.161L128.93 397.221C128.729 397.469 128.506 397.566 128.309 397.671C128.139 397.762 127.968 397.867 127.796 398.095L127.724 398.2C127.609 398.378 127.321 398.96 126.971 399.73C126.634 400.471 126.242 401.38 125.899 402.247L125.9 402.248L125.866 402.334C125.606 402.995 125.376 403.628 125.222 404.138C125.145 404.393 125.087 404.616 125.053 404.796C125.02 404.979 125.015 405.101 125.03 405.166L125.073 405.299C125.197 405.59 125.476 405.773 125.738 405.967C125.877 406.071 126.024 406.187 126.097 406.332C126.135 406.408 126.153 406.494 126.142 406.587C126.132 406.679 126.092 406.772 126.029 406.867C125.809 407.197 125.661 407.524 125.601 407.771C125.571 407.896 125.567 407.991 125.579 408.054C125.59 408.11 125.611 408.125 125.627 408.13C125.746 408.167 125.817 408.266 125.858 408.373C125.898 408.48 125.917 408.615 125.926 408.761C125.944 409.055 125.923 409.438 125.908 409.826C125.896 410.177 126.033 410.345 126.208 410.591C126.388 410.845 126.585 411.157 126.614 411.765C126.627 412.023 126.705 412.177 126.808 412.286C126.916 412.398 127.06 412.47 127.224 412.55C127.381 412.625 127.563 412.711 127.703 412.852C127.822 412.971 127.907 413.124 127.943 413.334L127.956 413.328L127.963 413.501C127.963 413.507 127.964 413.514 127.966 413.527C127.967 413.539 127.969 413.558 127.969 413.578C127.969 414.166 128.04 415.07 128.096 415.951C128.153 416.825 128.196 417.684 128.137 418.163C128.083 418.61 128.151 419.401 128.261 420.153C128.37 420.903 128.518 421.591 128.611 421.833L128.63 421.918C128.632 421.946 128.632 421.977 128.63 422.006C128.624 422.065 128.609 422.13 128.589 422.197C128.547 422.333 128.475 422.492 128.383 422.666C128.198 423.015 127.921 423.436 127.603 423.86C126.97 424.705 126.153 425.59 125.538 425.956C124.93 426.317 124.285 426.492 123.66 426.687C123.031 426.883 122.412 427.104 121.823 427.557C121.23 428.011 120.926 428.41 120.676 428.769C120.426 429.126 120.217 429.463 119.817 429.758C119.417 430.055 119.091 430.125 118.842 430.21C118.719 430.252 118.615 430.297 118.521 430.372C118.426 430.445 118.334 430.556 118.24 430.735C118.142 430.923 118.07 431.079 118.005 431.209C117.943 431.337 117.887 431.446 117.826 431.532C117.764 431.62 117.692 431.69 117.597 431.737C117.504 431.785 117.396 431.806 117.268 431.813C117.176 431.819 117.112 431.852 117.064 431.903C117.016 431.956 116.977 432.038 116.957 432.152C116.916 432.383 116.952 432.716 117.063 433.104C117.171 433.482 117.343 433.717 117.53 434.062C117.694 434.361 117.853 434.723 117.957 435.291L117.999 435.548L118.079 436.025C118.163 436.458 118.257 436.769 118.324 437.031C118.414 437.383 118.457 437.659 118.333 438.002C118.282 438.141 118.252 438.344 118.236 438.586C118.221 438.827 118.219 439.097 118.219 439.369C118.219 439.638 118.22 439.912 118.212 440.152C118.202 440.388 118.183 440.606 118.136 440.762C118.039 441.083 117.817 441.33 117.425 441.568C117.134 441.745 116.742 441.922 116.225 442.124L115.665 442.336C114.868 442.629 114.079 443.034 113.517 443.432C113.237 443.632 113.017 443.827 112.882 444.001C112.742 444.179 112.713 444.307 112.74 444.389C112.778 444.497 112.829 444.527 112.874 444.54C112.902 444.549 112.935 444.552 112.975 444.553C112.995 444.553 113.016 444.552 113.038 444.552C113.06 444.551 113.085 444.551 113.108 444.551C113.198 444.551 113.328 444.56 113.418 444.672C113.5 444.775 113.526 444.938 113.512 445.167C113.499 445.373 113.473 445.662 113.435 445.996L113.436 445.997L113.422 446.125C113.419 446.147 113.416 446.17 113.413 446.192L113.409 446.229L113.408 446.228C113.341 446.776 113.241 447.412 113.1 447.971C113.026 448.269 112.939 448.548 112.84 448.782C112.741 449.014 112.625 449.213 112.486 449.341C111.832 449.936 110.547 451.055 109.768 452.361C108.97 453.698 106.62 456.615 105.2 457.948C104.489 458.615 103.685 459.241 102.966 459.7C102.606 459.929 102.265 460.118 101.966 460.251C101.671 460.382 101.403 460.461 101.194 460.461C101.102 460.461 101.008 460.46 100.916 460.459C100.824 460.457 100.733 460.455 100.645 460.455C100.469 460.454 100.307 460.46 100.17 460.485C100.032 460.51 99.9281 460.552 99.8572 460.614C99.7904 460.672 99.7425 460.757 99.7308 460.892V460.893C99.7139 461.081 99.6396 461.213 99.4983 461.27C99.3767 461.318 99.2306 461.297 99.1094 461.274C98.9739 461.247 98.8553 461.213 98.7334 461.198C98.6153 461.185 98.5264 461.195 98.462 461.237L98.4606 461.237C98.0734 461.482 97.4699 461.736 96.6847 461.523L96.5247 461.473C95.734 461.2 94.6009 461.225 93.6584 461.5C93.202 461.634 93.0265 461.798 92.8299 461.941C92.7283 462.016 92.619 462.086 92.4676 462.135C92.317 462.185 92.1296 462.212 91.8749 462.212C91.3855 462.213 90.9075 462.248 90.5173 462.336C90.1705 462.416 89.9128 462.533 89.7674 462.686L89.712 462.754C89.3824 463.234 88.7051 463.275 88.3482 462.92L88.2812 462.843C88.1382 462.657 87.9961 462.469 87.839 462.322C87.6824 462.176 87.5226 462.082 87.3488 462.071C87.2263 462.062 87.1338 462.031 87.061 461.978C86.9924 461.928 86.9464 461.863 86.9106 461.816C86.8731 461.767 86.8392 461.724 86.7883 461.687C86.7503 461.659 86.698 461.632 86.6242 461.61L86.5422 461.588C86.4645 461.572 86.3964 461.546 86.3412 461.506C86.2849 461.464 86.2462 461.41 86.2216 461.351C86.177 461.243 86.1753 461.105 86.1703 460.978C86.16 460.711 86.14 460.354 85.8463 459.901C85.536 459.421 85.363 459.029 85.3589 458.735C85.3569 458.582 85.4011 458.447 85.5011 458.346C85.599 458.247 85.7384 458.192 85.901 458.169L85.9775 458.151C86.0427 458.128 86.0794 458.09 86.102 458.043C86.1368 457.972 86.1478 457.862 86.1293 457.706C86.092 457.397 85.949 456.988 85.806 456.542L85.7458 456.378C85.5847 455.979 85.2862 455.482 84.961 454.907C84.6398 454.34 84.2977 453.704 84.0635 453.044L83.9705 452.76C83.6918 451.843 83.157 450.71 82.5425 449.74L82.5295 449.72C82.1565 449.133 81.7571 448.61 81.3735 448.236C80.8238 447.701 80.5365 446.8 80.3632 445.914C80.1902 445.027 80.1241 444.105 80.0419 443.542C79.8699 442.379 79.6756 441.24 79.3727 440.582C79.2847 440.388 79.26 440.146 79.2619 439.89C79.264 439.632 79.292 439.343 79.32 439.051C79.3699 438.53 79.4168 437.996 79.3282 437.54L79.2811 437.348C79.1317 436.842 78.7598 436.208 78.3609 435.51C77.9668 434.82 77.5497 434.075 77.3335 433.369C76.9384 432.081 76.2242 430.575 75.6095 429.681L75.4878 429.51C75.1718 429.083 74.883 428.596 74.6805 428.142C74.5126 427.765 74.3987 427.396 74.3865 427.097L74.3824 427.099L74.3879 426.941C74.3882 426.932 74.3879 426.925 74.3879 426.906C74.3879 426.893 74.389 426.872 74.3927 426.85V426.846C74.4486 426.57 74.5197 426.061 74.5725 425.554C74.6255 425.046 74.6593 424.553 74.6449 424.31C74.6366 424.15 74.7078 423.961 74.7987 423.774C74.8915 423.582 75.0206 423.359 75.1433 423.129C75.3942 422.66 75.6345 422.139 75.6348 421.621C75.6349 421.051 75.8157 420.315 76.0784 419.628C76.3414 418.942 76.6933 418.286 77.0443 417.876C77.7353 417.069 78.4808 416.35 78.3732 415.197C78.3187 414.611 78.0303 413.873 77.7457 413.141C77.605 412.778 77.4658 412.417 77.3622 412.086C77.259 411.756 77.1867 411.443 77.1865 411.178C77.1866 410.661 77.3358 410.275 77.4442 409.968C77.5552 409.654 77.6113 409.445 77.5078 409.226L77.194 408.572C76.7697 407.683 76.0898 406.206 75.8282 405.22L75.8084 405.142L75.8091 405.139C75.7983 405.1 75.7875 405.061 75.779 405.024C75.6425 404.407 75.4706 403.719 75.1501 403.031L75.107 402.942C74.773 402.253 74.28 401.569 73.5054 400.97L73.3017 400.808L73.2196 400.743L73.2224 400.737C72.5978 400.216 72.3804 399.88 72.2059 399.555C72.0311 399.23 71.9045 398.932 71.4074 398.448C70.8714 397.926 70.5262 397.575 70.3123 397.308C70.0972 397.038 70.0045 396.839 69.9876 396.622C69.986 396.602 69.9734 396.564 69.9397 396.503C69.9074 396.445 69.8612 396.376 69.8051 396.3C69.6911 396.146 69.5479 395.974 69.4086 395.797C69.2734 395.625 69.1409 395.446 69.0654 395.292C69.0282 395.215 68.9989 395.133 68.9964 395.054C68.9939 394.97 69.0247 394.885 69.1023 394.826C69.2677 394.703 69.4553 394.541 69.5973 394.35C69.7213 394.183 69.8065 393.998 69.8174 393.799V393.713C69.8078 393.524 69.913 393.395 70.0416 393.311C70.1653 393.229 70.3266 393.178 70.4661 393.136C70.6149 393.091 70.737 393.058 70.8175 393.016C70.856 392.996 70.8704 392.98 70.8742 392.974V392.969L70.8708 392.958C70.8455 392.893 70.7833 392.819 70.6903 392.734C70.598 392.649 70.4931 392.57 70.3896 392.485C70.2926 392.405 70.1908 392.315 70.1332 392.224C70.1037 392.176 70.0791 392.118 70.0806 392.053C70.0824 391.984 70.1132 391.922 70.1619 391.873C70.248 391.787 70.3581 391.658 70.4456 391.527L70.4695 391.49C70.5059 391.434 70.5362 391.38 70.5564 391.332C70.5769 391.282 70.585 391.245 70.5851 391.22C70.5848 391.2 70.5797 391.195 70.5775 391.193C70.5714 391.188 70.5487 391.174 70.4907 391.171C70.3499 391.162 70.2295 391.115 70.1448 391.036C70.0592 390.955 70.0156 390.845 70.0204 390.73C70.0306 390.502 70.2227 390.287 70.5434 390.18H70.5447C71.0602 390.01 71.1792 389.479 70.9364 389.115C70.9215 389.092 70.9141 389.067 70.9111 389.057C70.9092 389.051 70.9079 389.048 70.907 389.045L70.8277 388.878H70.8558C70.8385 388.783 70.837 388.682 70.8469 388.582C70.8633 388.419 70.9076 388.245 70.9604 388.08C71.0134 387.914 71.0769 387.751 71.1326 387.61C71.1893 387.467 71.2366 387.35 71.2618 387.268V387.266C71.2823 387.2 71.2856 387.069 71.2652 386.893C71.2454 386.722 71.2051 386.522 71.1518 386.328C71.0983 386.133 71.0328 385.946 70.9631 385.801C70.9283 385.728 70.8929 385.668 70.8599 385.622C70.8259 385.576 70.7989 385.551 70.7819 385.542C70.736 385.517 70.6598 385.508 70.5399 385.515C70.4824 385.518 70.4201 385.525 70.3526 385.531C70.2861 385.538 70.214 385.545 70.1414 385.549C69.8516 385.564 69.5073 385.529 69.2739 385.196C69.2028 385.094 69.1327 384.985 69.0647 384.879C68.9966 384.773 68.9302 384.669 68.8651 384.574C68.731 384.376 68.6136 384.23 68.5124 384.168L68.4946 384.157C68.4618 384.139 68.4373 384.132 68.4194 384.132C68.4019 384.132 68.3781 384.139 68.347 384.168C68.2881 384.221 68.2069 384.262 68.1207 384.293C68.0326 384.324 67.9287 384.35 67.8172 384.371C67.5937 384.414 67.3253 384.439 67.057 384.455C66.5199 384.487 65.9636 384.48 65.7254 384.48C65.6263 384.48 65.4863 384.515 65.3152 384.572C65.1445 384.629 64.9623 384.701 64.7704 384.77C64.5828 384.837 64.3892 384.901 64.214 384.932C64.0427 384.962 63.8645 384.965 63.7231 384.889C63.4846 384.763 63.2099 384.453 63.002 384.128C62.8964 383.962 62.8031 383.787 62.7388 383.62C62.6754 383.455 62.6354 383.289 62.6437 383.145C62.6489 383.057 62.6083 382.91 62.5132 382.724C62.4205 382.544 62.2839 382.342 62.1181 382.147C61.7822 381.753 61.3438 381.408 60.9286 381.317C60.7072 381.268 60.4403 381.226 60.1568 381.184C59.8749 381.141 59.5756 381.098 59.2948 381.047C59.0145 380.996 58.7455 380.935 58.5244 380.858C58.314 380.784 58.1247 380.687 58.0165 380.55C58.0123 380.547 58.0067 380.543 58.0015 380.538L57.9782 380.517L57.9769 380.512C57.9512 380.486 57.9298 380.472 57.9133 380.466C57.8952 380.46 57.8737 380.458 57.847 380.464C57.7839 380.478 57.7064 380.528 57.5995 380.606C57.4035 380.749 57.1245 380.981 56.7744 380.981C56.4538 380.981 55.9781 381.006 55.5248 381.093L55.5193 381.094C55.1091 381.173 54.7339 381.296 54.5056 381.49L54.5049 381.491C54.415 381.566 54.3079 381.633 54.1959 381.697L54.1986 381.702L54.0968 381.756L53.9915 381.811L53.9895 381.808C53.71 381.945 53.3835 382.071 53.0468 382.2C52.6636 382.347 52.2631 382.502 51.8854 382.691C51.4031 382.932 50.5602 383.329 49.7956 383.654C49.4138 383.817 49.0486 383.963 48.7572 384.063C48.612 384.113 48.4813 384.153 48.3758 384.177C48.3234 384.189 48.2738 384.198 48.2309 384.202C48.1898 384.206 48.1439 384.206 48.1037 384.196C48.0556 384.184 47.9865 384.158 47.9082 384.126C47.8251 384.092 47.7248 384.05 47.604 384.001C47.364 383.905 47.0483 383.787 46.6688 383.677L46.6189 383.663C45.7249 383.41 44.4812 383.212 43.0157 383.462C41.8105 383.67 40.6938 383.982 39.7304 384.241C38.8252 384.484 38.0399 384.681 37.454 384.691L37.4533 384.697L37.3583 384.696C37.3299 384.696 37.3007 384.693 37.2729 384.692L37.2154 384.691V384.689C37.0863 384.68 36.9633 384.658 36.8531 384.615C36.3457 384.428 35.567 383.984 34.7497 383.463C33.9282 382.939 33.0563 382.329 32.3626 381.806C31.6448 381.263 30.7664 380.708 29.9933 380.22L29.8866 380.153C29.8821 380.15 29.8775 380.146 29.8729 380.143L29.7964 380.096V380.094C29.1773 379.701 28.6331 379.358 28.3458 379.118C28.0248 378.854 27.7436 378.632 27.4899 378.279C27.2359 377.926 27.0125 377.445 26.7852 376.664L26.7264 376.483C26.6721 376.329 26.6084 376.182 26.5411 376.039L26.5124 375.98C26.0509 375.024 25.319 374.377 24.6701 373.882L24.398 373.678C23.9953 373.383 23.8077 373.078 23.642 372.792C23.4775 372.507 23.3379 372.248 23.0309 372.001L22.9762 371.957C22.9279 371.92 22.8816 371.882 22.8251 371.846C22.5826 371.694 22.4632 371.53 22.4211 371.356C22.3813 371.19 22.4166 371.029 22.4382 370.912C22.4619 370.782 22.4678 370.705 22.4327 370.641C22.398 370.578 22.3037 370.495 22.0383 370.42C21.5369 370.279 21.2556 370.128 21.0382 369.926C20.9315 369.826 20.842 369.717 20.7518 369.599C20.66 369.478 20.5674 369.35 20.4476 369.202L20.4469 369.2C20.3893 369.128 20.3295 369.057 20.2582 368.977C19.9949 368.68 19.9678 368.326 20.0114 367.994L20.0224 367.915L20.0989 367.895C20.3576 367.831 20.571 367.781 20.6786 367.774C20.9573 367.757 21.3979 367.697 21.8154 367.596C22.0237 367.545 22.2248 367.485 22.3958 367.417C22.5685 367.348 22.7032 367.273 22.7861 367.198L22.8354 367.158C22.953 367.075 23.0863 367.056 23.2182 367.075C23.3629 367.095 23.5137 367.162 23.6557 367.234C23.7272 367.271 23.801 367.311 23.8724 367.349C23.9445 367.388 24.017 367.426 24.0877 367.46C24.2305 367.53 24.3639 367.581 24.4869 367.597L24.584 367.605C24.8113 367.611 25.0441 367.546 25.2327 367.471C25.2577 367.461 25.2821 367.449 25.3052 367.439C25.1542 367.418 24.9317 367.391 24.6065 367.366C24.0922 367.326 23.8101 366.993 23.5818 366.765C23.4633 366.646 23.3634 366.56 23.2537 366.52C23.1523 366.483 23.026 366.481 22.8436 366.568C22.4288 366.767 22.0703 366.896 21.6828 366.961C21.2956 367.026 20.8838 367.026 20.3642 366.974L20.2534 366.963L20.2589 366.851C20.2653 366.722 20.2389 366.636 20.181 366.581C19.9426 366.357 19.6011 365.899 19.3976 365.376C19.1947 364.853 19.1179 364.235 19.4577 363.722L19.4584 363.721C19.7182 363.335 19.81 362.818 19.8713 362.284L19.8761 362.248C19.9105 361.928 19.9348 361.597 19.9786 361.307C20.0225 361.017 20.0886 360.745 20.2165 360.539C20.4269 360.202 20.7942 359.577 21.0013 358.89C21.2093 358.2 21.2473 357.476 20.8427 356.915C20.3775 356.269 20.4252 355.628 20.5036 355.089C20.5435 354.815 20.5896 354.578 20.5904 354.364C20.5911 354.156 20.5481 353.987 20.4257 353.847L20.425 353.847C20.0323 353.398 19.2684 352.929 19.321 351.73H19.3162L19.3244 351.641C19.3253 351.629 19.3254 351.617 19.3265 351.605L19.3354 351.497H19.3408C19.3979 351.031 19.5655 350.467 19.9007 349.766C20.5537 348.402 21.3788 347.223 22.0444 346.234C22.3782 345.739 22.6715 345.292 22.8859 344.892C23.1011 344.49 23.2314 344.146 23.251 343.854L23.2653 343.725C23.3146 343.422 23.4625 343.124 23.6557 342.84C23.877 342.515 24.1664 342.196 24.4582 341.893C24.7534 341.588 25.048 341.302 25.2942 341.032C25.5411 340.762 25.7227 340.523 25.7987 340.321L25.9758 339.882C26.1425 339.499 26.3638 339.086 26.6799 338.729H26.656L26.8727 338.527C26.8829 338.518 26.8944 338.509 26.9048 338.499L26.9082 338.495C27.2633 338.174 27.7186 337.92 28.3157 337.821C29.0477 337.698 29.4868 337.381 29.8641 337.021C29.959 336.931 30.0507 336.836 30.1423 336.742C30.2334 336.648 30.3262 336.552 30.4212 336.459C30.6122 336.272 30.8199 336.091 31.0713 335.943C31.5333 335.672 32.1799 335.055 32.6654 334.427C32.9072 334.114 33.1044 333.804 33.2185 333.538C33.2754 333.405 33.3103 333.287 33.321 333.189C33.3287 333.115 33.3227 333.058 33.3073 333.013L33.2889 332.971C33.0945 332.641 32.9139 332.037 32.8705 331.445C32.8488 331.149 32.8612 330.847 32.9266 330.581C32.992 330.316 33.1134 330.075 33.3162 329.913L33.429 329.813C33.6688 329.578 33.7652 329.311 33.8569 329.033C33.9606 328.718 34.0618 328.372 34.3895 328.107L34.4845 328.019C34.5751 327.925 34.6555 327.809 34.7306 327.681C34.8335 327.506 34.9166 327.328 35.017 327.144C35.2061 326.798 35.4483 326.445 35.9029 326.444C36.2621 326.444 36.832 326.309 37.3843 326.069C37.9377 325.829 38.4506 325.494 38.7146 325.111L38.8212 324.942C38.9329 324.751 39.0595 324.498 39.1951 324.21C39.3755 323.827 39.5677 323.392 39.7611 322.97C39.9535 322.551 40.1471 322.144 40.3265 321.826C40.416 321.668 40.5048 321.528 40.589 321.418C40.6703 321.313 40.7586 321.221 40.8515 321.177C41.1522 321.035 41.4509 321.037 41.7668 321.185C42.0745 321.329 42.3986 321.611 42.7683 322.023C43.0978 322.392 43.6139 322.472 44.2045 322.451C44.4972 322.441 44.7994 322.406 45.0945 322.375C45.3866 322.344 45.6755 322.315 45.9313 322.322C46.3075 322.334 46.71 322.476 47.0845 322.603C47.4689 322.733 47.8258 322.849 48.142 322.842L48.1796 322.841C48.4051 322.831 48.6073 322.754 48.7798 322.561C49.1578 322.14 49.7011 321.743 50.2577 321.453C50.8119 321.164 51.397 320.971 51.8614 320.971C52.0443 320.971 52.2243 320.891 52.4199 320.753C52.6174 320.614 52.815 320.428 53.044 320.23C53.4946 319.84 54.0449 319.42 54.8214 319.389C55.5507 319.361 57.206 319.137 58.7603 318.977C59.5334 318.898 60.282 318.835 60.8685 318.822C61.1608 318.816 61.4179 318.822 61.619 318.845C61.7193 318.857 61.8099 318.874 61.885 318.897C61.9578 318.919 62.0283 318.95 62.0791 318.997L62.0805 318.998C62.1693 319.082 62.3159 319.114 62.5275 319.09C62.7369 319.066 62.9849 318.991 63.2439 318.897C63.3725 318.85 63.5034 318.798 63.6315 318.748C63.7592 318.697 63.8869 318.646 64.0068 318.601C64.2424 318.513 64.4709 318.439 64.6467 318.43C64.9486 318.417 65.3417 318.342 65.7145 318.281C65.8978 318.251 66.0776 318.225 66.2326 318.214C66.3836 318.203 66.5299 318.204 66.638 318.24C66.8545 318.31 67.6077 318.554 68.3094 318.579L68.3996 318.58C68.7923 318.583 69.1342 318.512 69.3478 318.317L69.423 318.253C69.8168 317.946 70.4431 317.829 70.9795 317.86ZM111.423 446.498C111.361 446.602 111.291 446.701 111.216 446.795C111.274 446.772 111.318 446.743 111.348 446.707C111.385 446.665 111.411 446.605 111.42 446.517L111.423 446.498ZM111.716 445.822C111.691 445.909 111.662 445.994 111.629 446.077C111.663 446.039 111.699 446.003 111.734 445.971C111.732 445.956 111.73 445.941 111.729 445.925C111.724 445.892 111.721 445.858 111.716 445.822Z" fill="white" fill-opacity="0.5"/>
<path d="M144.745 416.119C144.831 416.131 144.885 416.201 144.919 416.261C144.955 416.326 144.99 416.418 145.022 416.538C145.06 416.676 145.155 416.858 145.285 417.083C145.413 417.301 145.577 417.563 145.732 417.837C146.043 418.39 146.353 419.045 146.382 419.723C146.409 420.354 146.629 421.015 146.828 421.648C146.926 421.962 147.02 422.269 147.078 422.555C147.122 422.77 147.145 422.98 147.136 423.174L147.113 423.363C147.027 423.822 146.827 424.123 146.534 424.163C146.391 424.181 146.247 424.132 146.119 424.038C145.991 423.945 145.871 423.804 145.767 423.627C145.675 423.468 145.609 423.46 145.59 423.463C145.561 423.467 145.502 423.507 145.447 423.634C145.34 423.879 145.311 424.313 145.469 424.709C145.656 425.178 145.526 425.555 145.383 425.892C145.255 426.193 145.124 426.453 145.127 426.751L145.145 426.977C145.147 427.079 145.138 427.204 145.118 427.343C145.093 427.532 145.049 427.76 144.991 428.017C144.874 428.531 144.699 429.172 144.49 429.874C144.072 431.281 143.522 432.949 143.041 434.387C142.562 435.825 142.042 437.625 141.553 439.176C141.309 439.948 141.073 440.659 140.855 441.226C140.747 441.509 140.642 441.759 140.542 441.963C140.443 442.164 140.345 442.33 140.251 442.44C140.064 442.659 139.874 442.782 139.683 442.848C139.496 442.913 139.312 442.921 139.146 442.922C138.852 442.926 138.61 442.914 138.372 443.093L138.269 443.182C138.084 443.366 137.805 443.444 137.503 443.456C137.199 443.468 136.85 443.414 136.504 443.317C135.814 443.123 135.1 442.749 134.713 442.332C134.322 441.912 134.133 441.259 133.978 440.599C133.841 440.01 133.729 439.409 133.537 438.899L133.45 438.687C132.925 437.524 132.813 435.669 134.2 433.991C134.865 433.187 135.091 432.549 135.098 431.97C135.104 431.384 134.888 430.841 134.634 430.216C134.125 428.973 133.82 427.74 134.414 426.672C134.68 426.192 134.694 425.561 134.731 425.027C134.749 424.77 134.772 424.524 134.845 424.349C134.883 424.26 134.94 424.177 135.025 424.125C135.111 424.071 135.214 424.057 135.326 424.074C135.657 424.125 136.023 423.997 136.442 423.853C136.847 423.714 137.298 423.561 137.753 423.621L137.821 423.627C137.98 423.63 138.155 423.576 138.344 423.477C138.561 423.366 138.786 423.203 139.015 423.03C139.241 422.859 139.474 422.676 139.699 422.535C139.922 422.394 140.156 422.282 140.383 422.266C140.755 422.239 141.155 422.078 141.427 421.867C141.562 421.762 141.659 421.647 141.705 421.541C141.75 421.438 141.75 421.344 141.701 421.254L141.651 421.153C141.612 421.058 141.598 420.974 141.609 420.896C141.623 420.794 141.677 420.718 141.713 420.666C141.751 420.609 141.779 420.567 141.792 420.508C141.803 420.45 141.8 420.362 141.749 420.221L141.713 420.089C141.689 419.962 141.7 419.843 141.742 419.736C141.797 419.596 141.9 419.486 142.021 419.406C142.258 419.248 142.584 419.187 142.834 419.217C143.021 419.241 143.29 419.157 143.509 419.005C143.731 418.85 143.852 418.661 143.832 418.503C143.803 418.263 143.818 417.967 143.87 417.703C143.896 417.571 143.932 417.443 143.977 417.332C144.021 417.223 144.078 417.122 144.149 417.05C144.164 417.036 144.186 417.005 144.212 416.953C144.237 416.904 144.262 416.843 144.289 416.776C144.341 416.648 144.398 416.488 144.455 416.37C144.483 416.31 144.517 416.25 144.554 416.206C144.589 416.165 144.655 416.107 144.745 416.119Z" fill="white" fill-opacity="0.5"/>
<path d="M37.9267 425.638L50.39 383.286L59.7375 378.709L52.4033 416.236H78.6722L75.3167 429.371H50.39L44.1584 452.296L59.7375 455.64V461.182H13V455.64L28.5792 452.296L37.9267 425.638Z" fill="white" fill-opacity="0.5"/>
</g>
</g>
<defs>
<filter id="filter0_f_4877_23046" x="-435.406" y="-299.431" width="651.335" height="676.908" filterUnits="userSpaceOnUse" color-interpolation-filters="sRGB">
<feFlood flood-opacity="0" result="BackgroundImageFix"/>
<feBlend mode="normal" in="SourceGraphic" in2="BackgroundImageFix" result="shape"/>
<feGaussianBlur stdDeviation="100" result="effect1_foregroundBlur_4877_23046"/>
</filter>
<filter id="filter1_f_4877_23046" x="-212" y="-260" width="598" height="598" filterUnits="userSpaceOnUse" color-interpolation-filters="sRGB">
<feFlood flood-opacity="0" result="BackgroundImageFix"/>
<feBlend mode="normal" in="SourceGraphic" in2="BackgroundImageFix" result="shape"/>
<feGaussianBlur stdDeviation="100" result="effect1_foregroundBlur_4877_23046"/>
</filter>
<filter id="filter2_f_4877_23046" x="-409" y="-130" width="654" height="654" filterUnits="userSpaceOnUse" color-interpolation-filters="sRGB">
<feFlood flood-opacity="0" result="BackgroundImageFix"/>
<feBlend mode="normal" in="SourceGraphic" in2="BackgroundImageFix" result="shape"/>
<feGaussianBlur stdDeviation="100" result="effect1_foregroundBlur_4877_23046"/>
</filter>
<filter id="filter3_f_4877_23046" x="-185" y="-100" width="594" height="594" filterUnits="userSpaceOnUse" color-interpolation-filters="sRGB">
<feFlood flood-opacity="0" result="BackgroundImageFix"/>
<feBlend mode="normal" in="SourceGraphic" in2="BackgroundImageFix" result="shape"/>
<feGaussianBlur stdDeviation="100" result="effect1_foregroundBlur_4877_23046"/>
</filter>
<filter id="filter4_f_4877_23046" x="-8" y="247" width="177.844" height="237.155" filterUnits="userSpaceOnUse" color-interpolation-filters="sRGB">
<feFlood flood-opacity="0" result="BackgroundImageFix"/>
<feBlend mode="normal" in="SourceGraphic" in2="BackgroundImageFix" result="shape"/>
<feGaussianBlur stdDeviation="10.5" result="effect1_foregroundBlur_4877_23046"/>
</filter>
<clipPath id="clip0_4877_23046">
<rect width="473" height="463" fill="white"/>
</clipPath>
<clipPath id="clip1_4877_23046">
<path d="M-156 15C-156 6.71573 -149.284 0 -141 0H462C470.284 0 477 6.71573 477 15V444H-156V15Z" fill="white"/>
</clipPath>
</defs>
</svg>
