<svg width="343" height="240" viewBox="0 0 343 240" fill="none" xmlns="http://www.w3.org/2000/svg">
<g clip-path="url(#clip0_3965_13744)">
<path d="M0 15C0 6.71573 6.71573 0 15 0H327.439C335.723 0 342.439 6.71573 342.439 15V240H0V15Z" fill="#171717"/>
<g filter="url(#filter0_f_3965_13744)">
<ellipse cx="46.2601" cy="39.0231" rx="95.7084" ry="160.595" transform="rotate(-39.1533 46.2601 39.0231)" fill="#37EF1F"/>
</g>
<g filter="url(#filter1_f_3965_13744)">
<circle cx="243" cy="39" r="99" fill="#09BA00"/>
</g>
<g filter="url(#filter2_f_3965_13744)">
<circle cx="74" cy="197" r="127" fill="#2E8D03"/>
</g>
<g filter="url(#filter3_f_3965_13744)">
<circle cx="268" cy="197" r="97" fill="#115508"/>
</g>
<path d="M56.6097 111L28.1221 125.863L38.4812 128.563C38.4812 128.563 43.8937 125.901 47.5455 124.625C51.0033 123.416 52.9348 122.357 56.6097 122.147C61.2636 121.882 66.3705 124.639 70.8535 125.863C75.495 127.131 79.9178 128.563 79.9178 128.563V139.488H85.0974V125.863M38.4812 130.817V137.456C38.4812 137.456 49.3694 133.74 56.6097 133.74C63.8501 133.74 74.7382 137.456 74.7382 137.456V130.817C74.7382 130.817 63.8588 124.244 56.6097 124.625C49.1034 125.018 38.4812 130.817 38.4812 130.817Z" fill="white" fill-opacity="0.5"/>
<path fill-rule="evenodd" clip-rule="evenodd" d="M54.1314 139.491C54.2963 139.5 54.455 139.535 54.5768 139.594C54.697 139.653 54.795 139.746 54.8111 139.875L54.8219 139.935C54.8346 139.99 54.8534 140.029 54.8736 140.055C54.8998 140.089 54.9316 140.106 54.9654 140.111C55.038 140.123 55.1352 140.084 55.2164 140.01L55.2603 139.977C55.3677 139.911 55.5059 139.924 55.5807 140.019C55.6694 140.134 55.6297 140.311 55.4547 140.494C55.4118 140.539 55.3683 140.583 55.3277 140.623C55.287 140.663 55.2484 140.701 55.2135 140.738C55.1427 140.812 55.0895 140.877 55.0611 140.938C55.0344 140.996 55.0301 141.052 55.0533 141.112C55.0783 141.176 55.138 141.253 55.2545 141.346C55.7442 141.738 55.7086 142.431 55.3082 142.841L55.2223 142.919C54.9906 143.108 54.7425 143.205 54.5855 143.292C54.5041 143.337 54.4484 143.378 54.4166 143.425C54.3875 143.469 54.3734 143.525 54.3902 143.611L54.4088 143.673C54.4627 143.812 54.5959 143.917 54.7457 143.971C54.83 144.002 54.9156 144.014 54.9859 144.009C55.0572 144.004 55.1045 143.981 55.1285 143.953C55.1843 143.886 55.2581 143.863 55.3316 143.877C55.3994 143.89 55.4623 143.932 55.5133 143.982C55.5652 144.033 55.6114 144.097 55.6441 144.163C55.6764 144.228 55.6987 144.3 55.6988 144.366C55.699 144.374 55.7034 144.394 55.7193 144.424C55.7353 144.453 55.7609 144.488 55.7945 144.527C55.8607 144.603 55.958 144.689 56.0807 144.768L56.0885 144.773C56.3789 144.96 56.8026 145.109 57.3014 145.026C57.7983 144.943 58.1687 145.018 58.483 145.128C58.6384 145.182 58.7817 145.246 58.9156 145.3C59.051 145.356 59.1793 145.403 59.3102 145.43C59.5852 145.487 59.7899 145.558 59.9186 145.669C59.984 145.725 60.0298 145.793 60.0553 145.872C60.0804 145.95 60.0839 146.038 60.0709 146.133C60.0517 146.278 60.1378 146.451 60.3209 146.591C60.5023 146.731 60.7705 146.831 61.0875 146.831C61.7598 146.831 62.5845 147.062 63.148 147.575L63.2496 147.659C63.7652 148.045 64.4224 147.97 64.7281 147.568L64.7789 147.49C64.8759 147.308 64.8435 147.119 64.773 146.914C64.753 146.856 64.7297 146.796 64.7066 146.737C64.6837 146.678 64.6599 146.617 64.6393 146.557C64.598 146.437 64.5655 146.311 64.5699 146.186C64.5726 146.114 64.6013 146.039 64.6451 145.967C64.6894 145.895 64.7525 145.82 64.8277 145.747C64.9789 145.599 65.1888 145.448 65.4293 145.315C65.9097 145.05 66.5281 144.847 67.0777 144.881L67.1754 144.888C67.396 144.911 67.5559 144.96 67.6803 145.028C67.8221 145.105 67.9141 145.205 67.9967 145.3C68.0802 145.395 68.1533 145.485 68.2623 145.561C68.3699 145.636 68.5163 145.701 68.7457 145.736C69.2174 145.808 69.5698 145.848 69.8102 145.899C69.9306 145.925 70.0296 145.955 70.1051 145.995C70.1786 146.034 70.2336 146.086 70.2623 146.157L70.2877 146.191C70.3146 146.226 70.3714 146.266 70.4645 146.305C70.556 146.344 70.6756 146.378 70.818 146.41C71.103 146.473 71.4748 146.521 71.8883 146.558C72.7867 146.64 73.4265 146.934 73.9078 147.128C74.1423 147.221 74.3866 147.268 74.5943 147.255C74.8027 147.241 74.9649 147.168 75.0533 147.039C75.0881 146.988 75.1464 146.944 75.2135 146.905C75.2821 146.865 75.367 146.827 75.4615 146.793C75.6517 146.723 75.8889 146.663 76.1324 146.62C76.3761 146.577 76.6307 146.551 76.8551 146.551C77.0761 146.552 77.2795 146.578 77.4146 146.646C77.8998 146.888 78.2664 147.053 78.7398 146.93C79.0068 146.862 79.2793 146.915 79.4908 146.964C79.5997 146.988 79.6898 147.011 79.7613 147.02C79.7966 147.025 79.8232 147.026 79.8424 147.023C79.8612 147.021 79.8685 147.016 79.8707 147.013L79.8717 147.012C79.8787 147.006 79.8927 146.988 79.9127 146.96C79.9324 146.932 79.9574 146.896 79.985 146.853L80.0543 146.745L80.1021 146.864L80.8863 148.784L80.8961 148.808L80.8863 148.832L80.7311 149.262L80.6891 149.553L80.6129 149.559C80.6119 149.561 80.6096 149.565 80.608 149.568C80.5937 149.599 80.5768 149.652 80.5582 149.721C80.5203 149.864 80.4791 150.053 80.4273 150.257C80.3772 150.455 80.3169 150.662 80.2437 150.819C80.2075 150.897 80.1657 150.969 80.1178 151.02C80.0697 151.072 80.0077 151.111 79.9342 151.111C79.8092 151.111 79.6854 151.026 79.5748 150.918C79.4617 150.806 79.3488 150.655 79.2447 150.497C79.0369 150.179 78.8577 149.816 78.776 149.636C78.7354 149.547 78.6783 149.409 78.6148 149.258C78.5502 149.107 78.4778 148.939 78.4068 148.784C78.3354 148.628 78.2664 148.487 78.2066 148.389C78.1795 148.345 78.1536 148.312 78.1344 148.291C78.1269 148.323 78.1231 148.373 78.1236 148.437C78.1242 148.566 78.1442 148.745 78.1842 148.944C78.2638 149.344 78.4236 149.823 78.6656 150.167C78.915 150.52 79.0972 150.7 79.2281 150.865C79.292 150.946 79.3434 151.023 79.3766 151.111C79.4102 151.2 79.4247 151.298 79.4205 151.417C79.4136 151.616 79.5194 151.774 79.6471 151.944C79.7704 152.108 79.9188 152.29 79.9371 152.522C79.9441 152.611 79.9995 152.747 80.0924 152.919C80.1837 153.088 80.306 153.283 80.4352 153.49C80.691 153.9 80.9802 154.361 81.0963 154.734C81.2047 155.084 81.344 155.25 81.4508 155.397C81.5046 155.471 81.5537 155.547 81.5826 155.638C81.6045 155.708 81.6138 155.785 81.608 155.877L81.5982 155.973C81.5764 156.116 81.5769 156.254 81.5992 156.384L81.6002 156.388C81.6558 156.703 81.8418 156.977 82.1783 157.161C82.4372 157.303 82.6731 157.524 82.8482 157.743C82.9362 157.852 83.0101 157.963 83.0641 158.064C83.1168 158.164 83.1535 158.261 83.1627 158.341L83.1812 158.458C83.1903 158.503 83.2012 158.555 83.2135 158.613C83.2375 158.728 83.2672 158.866 83.2955 159.022C83.3526 159.335 83.4058 159.722 83.4059 160.155C83.4059 160.576 83.4702 160.952 83.5797 161.241C83.6897 161.532 83.8421 161.725 84.0123 161.803C84.1068 161.846 84.2219 161.934 84.3404 162.045C84.4418 162.139 84.5492 162.253 84.6549 162.378L84.6559 162.377L84.7145 162.448L84.7447 162.485H84.7437C84.8933 162.672 85.0358 162.88 85.1432 163.083C85.2574 163.297 85.3365 163.515 85.3414 163.703C85.3496 163.994 85.4868 164.375 85.6539 164.689C85.7371 164.845 85.8266 164.983 85.9088 165.082C85.9497 165.131 85.9871 165.17 86.0201 165.196C86.0546 165.223 86.0785 165.233 86.0914 165.235C86.1816 165.247 86.246 165.317 86.2936 165.385C86.3415 165.455 86.3875 165.547 86.4322 165.627C86.4792 165.71 86.5281 165.787 86.5846 165.842C86.6396 165.896 86.7012 165.927 86.776 165.927C86.9892 165.928 87.2816 166.041 87.5914 166.245C87.9045 166.45 88.2449 166.754 88.5553 167.146C89.0661 167.79 89.4487 168.197 89.7105 168.443L89.776 168.504L89.6988 168.55C89.6276 168.591 89.5628 168.63 89.5133 168.664C89.4622 168.699 89.4341 168.724 89.4244 168.736L89.4225 168.737C89.3627 168.816 89.2702 168.834 89.1773 168.834C89.095 168.834 88.992 168.819 88.8814 168.805C88.8772 168.813 88.872 168.822 88.8668 168.831C88.8343 168.883 88.7881 168.956 88.735 169.037C88.6554 169.158 88.557 169.3 88.4615 169.423L88.3687 169.537C88.2668 169.652 88.2403 169.827 88.2525 169.999C88.2648 170.169 88.3134 170.322 88.3434 170.381C88.3493 170.393 88.365 170.408 88.399 170.419C88.4332 170.429 88.4799 170.433 88.5338 170.429C88.6426 170.421 88.7677 170.383 88.859 170.322C88.9036 170.292 88.9498 170.271 88.9986 170.263C89.0488 170.256 89.098 170.263 89.1471 170.281C89.225 170.31 89.3066 170.371 89.4 170.455C89.5217 170.291 89.6752 170.115 89.816 169.971L89.8521 169.934L89.8971 169.961C90.1027 170.081 90.32 170.273 90.483 170.612C90.6525 170.966 91.0004 171.081 91.3541 171.064C91.5307 171.056 91.7048 171.014 91.8521 170.954C92.0004 170.893 92.1167 170.816 92.1793 170.743C92.2669 170.641 92.3919 170.597 92.5211 170.58C92.6497 170.563 92.7946 170.571 92.9322 170.579C93.0727 170.587 93.2076 170.594 93.3268 170.583C93.4457 170.571 93.539 170.54 93.6041 170.478C93.7777 170.315 94.0054 170.213 94.2965 170.151C94.5876 170.089 94.9479 170.065 95.3922 170.057C95.8319 170.05 96.3957 169.982 96.8707 169.868C97.1079 169.811 97.322 169.743 97.485 169.667C97.6514 169.589 97.7513 169.508 97.7857 169.435C97.8863 169.216 98.1096 169.114 98.3072 169.18C98.5081 169.248 98.6476 169.476 98.6227 169.839C98.598 170.192 98.4998 170.578 98.4117 170.918C98.3669 171.088 98.3254 171.248 98.2955 171.388C98.2656 171.529 98.2489 171.647 98.2525 171.735C98.2567 171.846 98.215 172.009 98.151 172.19C98.0859 172.375 97.9928 172.589 97.8883 172.804C97.6794 173.236 97.418 173.684 97.2203 173.939C97.0264 174.189 96.8022 174.482 96.6168 174.775C96.4304 175.07 96.2871 175.359 96.2496 175.602C96.2063 175.875 96.024 176.214 95.7896 176.564C95.5535 176.917 95.257 177.295 94.9781 177.65C94.532 178.216 93.9809 178.82 93.4771 179.313C93.2256 179.56 92.9835 179.781 92.773 179.956C92.6163 180.086 92.4735 180.192 92.3551 180.266L92.2437 180.329C91.9864 180.458 91.7442 180.578 91.4527 180.784C91.1973 180.964 90.9011 181.214 90.525 181.595L90.358 181.767C89.9339 182.214 89.4338 182.713 88.9889 183.169C88.5418 183.626 88.1501 184.04 87.94 184.321L87.901 184.374C87.8824 184.4 87.8631 184.425 87.8482 184.448C87.7663 184.579 87.6964 184.659 87.6324 184.707C87.5648 184.756 87.505 184.768 87.4518 184.768C87.4288 184.768 87.4023 184.766 87.3873 184.765C87.3695 184.764 87.3565 184.765 87.3443 184.767C87.3284 184.77 87.3071 184.779 87.2779 184.806L87.2467 184.841C87.1321 184.982 87.0047 185.037 86.8922 185.097C86.7951 185.149 86.6973 185.21 86.5992 185.34L86.5572 185.4C86.4915 185.502 86.3268 185.834 86.1266 186.274C85.9342 186.698 85.7113 187.218 85.5152 187.714L85.4957 187.762C85.3473 188.14 85.2157 188.501 85.1275 188.793C85.0838 188.938 85.0501 189.066 85.0309 189.169C85.0117 189.273 85.0098 189.343 85.0182 189.381L85.0426 189.457C85.1137 189.623 85.273 189.728 85.4225 189.839C85.5019 189.898 85.5858 189.964 85.6275 190.047C85.6494 190.09 85.6602 190.14 85.6539 190.193C85.648 190.245 85.6246 190.298 85.5885 190.352C85.4632 190.541 85.3787 190.728 85.3443 190.869C85.3273 190.94 85.3248 190.995 85.3316 191.031C85.3381 191.064 85.3504 191.072 85.36 191.075C85.4273 191.096 85.4679 191.153 85.4908 191.214C85.5137 191.274 85.5245 191.352 85.5299 191.435C85.54 191.603 85.5277 191.822 85.5191 192.044C85.5123 192.244 85.5912 192.341 85.691 192.481C85.794 192.626 85.9058 192.805 85.9225 193.151C85.9299 193.298 85.9752 193.387 86.0338 193.449C86.0958 193.513 86.1781 193.555 86.2721 193.6C86.3616 193.643 86.4655 193.692 86.5455 193.772C86.6132 193.84 86.6623 193.928 86.6832 194.048L86.69 194.045L86.6939 194.143C86.694 194.146 86.6949 194.151 86.6959 194.158C86.6964 194.165 86.6969 194.176 86.6969 194.187C86.6969 194.523 86.7381 195.04 86.7701 195.544C86.8027 196.042 86.8271 196.534 86.7936 196.807C86.7626 197.063 86.8014 197.515 86.8639 197.944C86.9263 198.373 87.0111 198.766 87.0641 198.904L87.0748 198.953C87.0764 198.969 87.0758 198.987 87.0748 199.004C87.0716 199.037 87.063 199.075 87.0514 199.113C87.0273 199.19 86.9869 199.281 86.9342 199.381C86.8284 199.58 86.6695 199.821 86.4879 200.063C86.1262 200.546 85.6598 201.051 85.3082 201.26C84.9609 201.467 84.5924 201.567 84.235 201.678C83.8754 201.791 83.5217 201.917 83.1852 202.175C82.8462 202.435 82.6725 202.663 82.5299 202.868C82.3868 203.072 82.2675 203.265 82.0396 203.433C81.8111 203.603 81.6241 203.643 81.482 203.691C81.4117 203.715 81.3523 203.741 81.2984 203.784C81.2446 203.826 81.1916 203.889 81.1383 203.991C81.0823 204.099 81.0403 204.188 81.0035 204.262C80.9679 204.335 80.9365 204.398 80.902 204.447C80.8663 204.497 80.8252 204.537 80.7711 204.564C80.7177 204.591 80.6557 204.603 80.5826 204.607C80.53 204.61 80.4936 204.63 80.4664 204.659C80.4387 204.689 80.4167 204.736 80.4049 204.801C80.3814 204.933 80.4019 205.124 80.4654 205.345C80.5269 205.561 80.6253 205.695 80.732 205.892C80.8255 206.063 80.9163 206.271 80.9762 206.595L81.0006 206.742L81.0455 207.014C81.0935 207.261 81.1477 207.44 81.1861 207.59C81.2373 207.79 81.2618 207.948 81.191 208.144C81.1622 208.224 81.1444 208.34 81.1353 208.478C81.1268 208.615 81.1266 208.77 81.1266 208.925C81.1266 209.079 81.1265 209.236 81.1217 209.373C81.1163 209.508 81.1053 209.632 81.0787 209.721C81.0236 209.904 80.896 210.046 80.6725 210.181C80.5063 210.283 80.2822 210.384 79.9869 210.5L79.6666 210.621C79.2114 210.788 78.7602 211.019 78.4391 211.247C78.279 211.361 78.1533 211.473 78.0758 211.572C77.9959 211.674 77.9799 211.747 77.9957 211.794C78.0176 211.856 78.0462 211.873 78.0719 211.881C78.0878 211.885 78.1066 211.887 78.1295 211.887C78.1411 211.887 78.1529 211.886 78.1656 211.886C78.1779 211.886 78.1924 211.886 78.2057 211.886C78.2569 211.886 78.3313 211.892 78.3824 211.956C78.4292 212.014 78.444 212.108 78.4361 212.238C78.4287 212.355 78.4145 212.522 78.3932 212.713L78.3844 212.786C78.3828 212.798 78.3811 212.811 78.3795 212.824L78.3766 212.844C78.3381 213.157 78.2809 213.521 78.2008 213.841C78.1581 214.01 78.1089 214.171 78.0523 214.304C77.9959 214.436 77.9294 214.55 77.8502 214.623C77.4767 214.963 76.7417 215.603 76.2965 216.349C75.8406 217.113 74.4979 218.78 73.6861 219.542C73.28 219.923 72.8206 220.28 72.4098 220.543C72.2045 220.674 72.0092 220.781 71.8385 220.857C71.6698 220.932 71.5171 220.978 71.398 220.978C71.345 220.978 71.2912 220.977 71.2389 220.976C71.1862 220.975 71.1337 220.974 71.0836 220.974C70.9829 220.974 70.8906 220.978 70.8121 220.992C70.7336 221.006 70.6739 221.03 70.6334 221.065C70.5952 221.098 70.5679 221.147 70.5611 221.224L70.5475 221.3C70.5277 221.367 70.4886 221.416 70.4283 221.44C70.3589 221.468 70.2759 221.455 70.2066 221.442C70.1291 221.427 70.0606 221.408 69.9908 221.399C69.9235 221.392 69.8723 221.398 69.8355 221.422C69.6143 221.562 69.2695 221.706 68.8209 221.585L68.7291 221.556C68.2773 221.4 67.63 221.415 67.0914 221.572C66.8306 221.648 66.7301 221.742 66.6178 221.824C66.5598 221.867 66.4972 221.906 66.4107 221.934C66.3247 221.963 66.2176 221.978 66.0719 221.978C65.7922 221.979 65.5195 221.999 65.2965 222.05C65.0984 222.095 64.9509 222.162 64.8678 222.25L64.8365 222.289C64.6482 222.563 64.2611 222.585 64.0572 222.383L64.0191 222.34C63.9375 222.233 63.8559 222.126 63.7662 222.042C63.6767 221.958 63.5852 221.904 63.4859 221.897C63.4159 221.892 63.3635 221.874 63.3219 221.844C63.2827 221.816 63.2554 221.779 63.235 221.753C63.2135 221.724 63.1946 221.7 63.1656 221.678C63.1439 221.662 63.114 221.647 63.0719 221.634L63.025 221.622C62.9804 221.613 62.9414 221.598 62.9098 221.575C62.8777 221.551 62.8555 221.52 62.8414 221.487C62.816 221.425 62.8149 221.346 62.8121 221.273C62.8062 221.12 62.7952 220.916 62.6275 220.658C62.4503 220.383 62.3506 220.16 62.3482 219.992C62.3472 219.904 62.3731 219.827 62.4303 219.769C62.4862 219.713 62.566 219.681 62.6588 219.668L62.7027 219.658C62.7396 219.645 62.7602 219.623 62.773 219.596C62.7928 219.556 62.7992 219.492 62.7887 219.404C62.7673 219.227 62.6858 218.993 62.6041 218.738L62.5699 218.644C62.4779 218.417 62.3074 218.133 62.1217 217.804C61.9381 217.48 61.7418 217.117 61.608 216.74L61.5553 216.577C61.396 216.053 61.0908 215.405 60.7398 214.851L60.732 214.841C60.5189 214.505 60.2901 214.206 60.0709 213.992C59.757 213.686 59.5927 213.171 59.4937 212.665C59.395 212.158 59.3571 211.631 59.3102 211.309C59.2119 210.645 59.1014 209.994 58.9283 209.618C58.8782 209.507 58.8637 209.369 58.8648 209.223C58.866 209.076 58.882 208.91 58.898 208.743C58.9266 208.445 58.9535 208.14 58.9029 207.88L58.8756 207.77C58.7902 207.481 58.5779 207.119 58.3502 206.72C58.125 206.326 57.8868 205.9 57.7633 205.497C57.5376 204.761 57.1291 203.9 56.7779 203.389L56.7076 203.292C56.5272 203.048 56.3624 202.769 56.2467 202.509C56.1508 202.294 56.0856 202.083 56.0787 201.912L56.0768 201.914L56.0797 201.824C56.0798 201.819 56.0797 201.814 56.0797 201.803C56.0797 201.796 56.0806 201.784 56.0826 201.772V201.769C56.1145 201.611 56.1551 201.32 56.1852 201.031C56.2154 200.74 56.2344 200.459 56.2262 200.32C56.2216 200.229 56.2622 200.12 56.3141 200.013C56.3671 199.904 56.4413 199.776 56.5113 199.645C56.6546 199.378 56.7923 199.08 56.7926 198.784C56.7927 198.458 56.8954 198.037 57.0455 197.644C57.1957 197.252 57.3968 196.877 57.5973 196.643C57.992 196.182 58.4185 195.771 58.357 195.112C58.3257 194.778 58.1612 194.355 57.9986 193.937C57.9183 193.73 57.8381 193.524 57.7789 193.335C57.72 193.146 57.6794 192.968 57.6793 192.816C57.6794 192.521 57.7638 192.3 57.8258 192.125C57.889 191.946 57.9218 191.826 57.8629 191.701L57.6832 191.327C57.4408 190.819 57.0525 189.975 56.9029 189.412L56.8912 189.367L56.8922 189.366C56.886 189.344 56.8794 189.321 56.8746 189.3C56.7966 188.947 56.6982 188.554 56.5152 188.161L56.4908 188.11C56.3 187.716 56.0182 187.325 55.5758 186.983L55.4596 186.89L55.4117 186.853L55.4137 186.85C55.0567 186.552 54.9324 186.36 54.8326 186.175C54.7328 185.989 54.6604 185.818 54.3766 185.542C54.0703 185.244 53.8728 185.043 53.7506 184.89C53.6276 184.736 53.5747 184.622 53.565 184.498C53.5639 184.486 53.5565 184.464 53.5377 184.43C53.5192 184.397 53.4925 184.358 53.4605 184.314C53.3955 184.226 53.3135 184.128 53.234 184.027C53.1568 183.929 53.0818 183.826 53.0387 183.738C53.0174 183.694 53 183.647 52.9986 183.602C52.9974 183.554 53.015 183.506 53.0592 183.472C53.1536 183.402 53.2613 183.309 53.3424 183.2C53.413 183.104 53.4621 182.999 53.4684 182.885V182.837C53.4629 182.729 53.5228 182.654 53.5963 182.606C53.667 182.56 53.7589 182.529 53.8385 182.506C53.9236 182.48 53.9937 182.461 54.0396 182.437C54.0612 182.426 54.0697 182.417 54.0719 182.414V182.411L54.0699 182.405C54.0555 182.368 54.0203 182.325 53.9674 182.276C53.9146 182.228 53.8537 182.183 53.7945 182.134C53.7391 182.089 53.6809 182.037 53.648 181.985C53.6313 181.958 53.6179 181.924 53.6187 181.887C53.6199 181.848 53.6369 181.813 53.6646 181.785C53.7139 181.736 53.7768 181.661 53.8268 181.587L53.8404 181.566C53.8611 181.534 53.8787 181.503 53.8902 181.475C53.9018 181.448 53.9067 181.426 53.9068 181.412C53.9066 181.401 53.9032 181.397 53.902 181.396C53.8985 181.393 53.8852 181.385 53.8521 181.383C53.7718 181.378 53.7032 181.352 53.6549 181.306C53.606 181.26 53.5808 181.197 53.5836 181.132C53.5896 181.001 53.6994 180.879 53.8824 180.817H53.8834C54.1778 180.72 54.2457 180.417 54.107 180.209C54.0985 180.196 54.094 180.181 54.0924 180.175C54.0914 180.172 54.0909 180.17 54.0904 180.169L54.0455 180.073H54.0611C54.0514 180.019 54.0506 179.961 54.0562 179.904C54.0656 179.811 54.0906 179.711 54.1207 179.617C54.151 179.522 54.1876 179.429 54.2193 179.348C54.2516 179.267 54.2792 179.2 54.2936 179.153V179.152C54.3051 179.114 54.3071 179.04 54.2955 178.939C54.2842 178.841 54.2605 178.727 54.2301 178.616C54.1996 178.505 54.1624 178.398 54.1227 178.315C54.1027 178.274 54.082 178.239 54.0631 178.213C54.0438 178.186 54.0288 178.172 54.0191 178.167C53.9929 178.152 53.949 178.147 53.8805 178.151C53.8477 178.153 53.8124 178.157 53.774 178.161C53.736 178.165 53.6945 178.169 53.6529 178.171C53.4873 178.179 53.2912 178.159 53.1578 177.968C53.1172 177.91 53.0765 177.848 53.0377 177.788C52.9988 177.727 52.9605 177.668 52.9234 177.613C52.847 177.5 52.78 177.417 52.7223 177.382L52.7125 177.376C52.6935 177.366 52.6788 177.361 52.6686 177.361C52.6586 177.361 52.6452 177.365 52.6275 177.382C52.594 177.412 52.5477 177.435 52.4986 177.453C52.4483 177.471 52.3885 177.486 52.3248 177.498C52.1971 177.522 52.0436 177.536 51.8902 177.546C51.5834 177.564 51.2657 177.56 51.1295 177.56C51.0729 177.56 50.9929 177.58 50.8951 177.613C50.7976 177.646 50.6932 177.686 50.5836 177.725C50.4765 177.764 50.3662 177.8 50.2662 177.818C50.1683 177.835 50.0668 177.837 49.9859 177.794C49.8496 177.721 49.6917 177.545 49.5728 177.359C49.5126 177.265 49.4602 177.163 49.4234 177.068C49.3874 176.974 49.3641 176.879 49.3687 176.798C49.3716 176.747 49.3486 176.663 49.2945 176.557C49.2415 176.454 49.1628 176.338 49.068 176.226C48.8761 176.001 48.6254 175.805 48.3883 175.753C48.2618 175.725 48.1097 175.701 47.9478 175.676C47.7866 175.652 47.6153 175.628 47.4547 175.598C47.2946 175.569 47.1415 175.534 47.0152 175.49C46.8949 175.448 46.7861 175.392 46.7242 175.314C46.7218 175.312 46.7184 175.31 46.7154 175.307L46.7027 175.296L46.7018 175.293C46.6871 175.278 46.675 175.27 46.6656 175.266C46.6552 175.263 46.6429 175.262 46.6275 175.265C46.5915 175.274 46.547 175.302 46.4859 175.346C46.374 175.428 46.215 175.56 46.0152 175.56C45.8321 175.56 45.5595 175.575 45.3004 175.625L45.2975 175.626C45.0632 175.671 44.8489 175.741 44.7184 175.851L44.7174 175.852C44.6662 175.895 44.6052 175.933 44.5416 175.969L44.5426 175.972L44.485 176.004L44.4244 176.035L44.4234 176.033C44.2638 176.111 44.0768 176.184 43.8844 176.258C43.6656 176.341 43.4369 176.43 43.2213 176.538C42.9458 176.676 42.4639 176.903 42.027 177.089C41.8088 177.181 41.5997 177.265 41.4332 177.322C41.3503 177.35 41.2757 177.373 41.2154 177.386C41.1855 177.393 41.157 177.399 41.1324 177.401C41.109 177.403 41.0831 177.404 41.0602 177.398C41.0327 177.391 40.9936 177.376 40.9488 177.358C40.9014 177.339 40.844 177.314 40.775 177.287C40.6378 177.232 40.4569 177.164 40.2398 177.101L40.2115 177.093C39.7007 176.949 38.9903 176.836 38.1529 176.978C37.4641 177.097 36.8256 177.276 36.275 177.424C35.7577 177.562 35.3091 177.675 34.9742 177.68V177.684L34.9195 177.683C34.9033 177.683 34.8866 177.682 34.8707 177.681L34.8385 177.68V177.679C34.7647 177.674 34.6944 177.662 34.6314 177.637C34.3415 177.53 33.8965 177.276 33.4293 176.978C32.9598 176.679 32.4614 176.331 32.065 176.032C31.6549 175.722 31.1533 175.404 30.7115 175.126L30.65 175.088C30.6474 175.086 30.6448 175.083 30.6422 175.082L30.5982 175.054V175.053C30.2448 174.829 29.9342 174.633 29.7701 174.496C29.5867 174.345 29.4258 174.218 29.2809 174.016C29.1358 173.814 29.0074 173.54 28.8775 173.093L28.8443 172.991C28.8133 172.903 28.7773 172.818 28.7389 172.736L28.7223 172.703C28.4586 172.156 28.0402 171.787 27.6695 171.505L27.5143 171.387C27.2842 171.219 27.1763 171.045 27.0816 170.882C26.9878 170.719 26.9082 170.57 26.733 170.429L26.7018 170.404C26.6742 170.383 26.6471 170.361 26.6148 170.341C26.4765 170.254 26.4084 170.16 26.3844 170.06C26.3618 169.966 26.3818 169.874 26.3941 169.807C26.4076 169.734 26.411 169.689 26.3912 169.652C26.3713 169.616 26.3171 169.569 26.1656 169.526C25.879 169.445 25.7186 169.358 25.5943 169.243C25.5334 169.186 25.4818 169.124 25.4303 169.056C25.3779 168.988 25.3248 168.915 25.2564 168.83V168.829C25.2236 168.787 25.1887 168.748 25.148 168.702C24.9977 168.532 24.9825 168.329 25.0074 168.139L25.0133 168.094L25.0572 168.083C25.2053 168.046 25.328 168.018 25.3893 168.014C25.5485 168.005 25.7994 167.969 26.0377 167.912C26.1567 167.883 26.272 167.848 26.3697 167.809C26.4684 167.77 26.545 167.727 26.5924 167.684L26.6207 167.662C26.6878 167.614 26.7642 167.603 26.8395 167.614C26.9221 167.626 27.0084 167.664 27.0895 167.705C27.1304 167.726 27.1727 167.749 27.2135 167.771C27.2547 167.793 27.2961 167.815 27.3365 167.835C27.4182 167.874 27.4947 167.904 27.565 167.913L27.6197 167.917C27.7498 167.92 27.883 167.883 27.9908 167.841C28.0051 167.835 28.0197 167.829 28.0328 167.823C27.9466 167.811 27.8192 167.795 27.6334 167.781C27.3394 167.758 27.1779 167.568 27.0475 167.437C26.9797 167.37 26.9226 167.319 26.86 167.297C26.8021 167.276 26.7297 167.275 26.6256 167.325C26.3886 167.438 26.1839 167.512 25.9625 167.55C25.7411 167.587 25.5057 167.586 25.2086 167.556L25.1451 167.55L25.149 167.486C25.1525 167.412 25.1371 167.363 25.1041 167.332C24.9679 167.204 24.7731 166.942 24.6568 166.643C24.541 166.345 24.4968 165.991 24.691 165.698L24.7428 165.612C24.8527 165.404 24.8967 165.143 24.9273 164.877L24.9303 164.856C24.9499 164.673 24.9638 164.484 24.9889 164.318C25.0139 164.153 25.0515 163.997 25.1246 163.88C25.2449 163.687 25.4546 163.329 25.5728 162.937C25.6916 162.543 25.7132 162.129 25.482 161.808C25.2164 161.439 25.2439 161.073 25.2887 160.765C25.3115 160.609 25.338 160.473 25.3385 160.351C25.3388 160.232 25.3136 160.135 25.2437 160.055L25.0465 159.854C24.8305 159.639 24.5905 159.36 24.6129 158.846H24.61L24.6148 158.796C24.6153 158.789 24.6152 158.781 24.6158 158.774L24.6207 158.713H24.6246C24.6573 158.446 24.7526 158.124 24.9439 157.723C25.3171 156.944 25.7892 156.271 26.1695 155.706C26.3602 155.423 26.5275 155.167 26.65 154.938C26.7728 154.709 26.8478 154.512 26.859 154.345L26.8668 154.271C26.895 154.099 26.9792 153.928 27.0895 153.766C27.216 153.58 27.3817 153.397 27.5484 153.224C27.717 153.05 27.8853 152.886 28.026 152.732C28.1667 152.578 28.2706 152.442 28.3141 152.327L28.4156 152.076C28.5109 151.857 28.6374 151.621 28.818 151.417H28.8043L28.9283 151.301C28.9341 151.296 28.94 151.29 28.9459 151.285L28.9478 151.283C29.1508 151.099 29.4113 150.954 29.7525 150.897C30.1707 150.827 30.4218 150.647 30.6373 150.441C30.6915 150.389 30.7442 150.335 30.7965 150.281C30.8485 150.227 30.9015 150.172 30.9557 150.119C31.0647 150.012 31.1842 149.909 31.3277 149.825C31.5917 149.669 31.9606 149.317 32.2379 148.959C32.376 148.78 32.4891 148.602 32.5543 148.45C32.5867 148.374 32.6068 148.307 32.6129 148.251C32.6173 148.209 32.6139 148.176 32.6051 148.15L32.5943 148.127C32.4833 147.938 32.3799 147.592 32.3551 147.255C32.3427 147.085 32.3499 146.912 32.3873 146.76C32.4247 146.609 32.4942 146.471 32.61 146.379L32.6744 146.322C32.8113 146.188 32.8671 146.035 32.9195 145.876C32.9787 145.696 33.0362 145.498 33.2232 145.346L33.2779 145.297C33.3296 145.243 33.3757 145.176 33.4186 145.103C33.4772 145.003 33.5244 144.902 33.5816 144.797C33.6897 144.599 33.8286 144.397 34.0885 144.397C34.2938 144.397 34.6196 144.319 34.9352 144.182C35.2512 144.045 35.5442 143.853 35.6949 143.634L35.7555 143.538C35.8192 143.429 35.8919 143.284 35.9693 143.12C36.0723 142.901 36.1822 142.653 36.2926 142.412C36.4025 142.172 36.5133 141.939 36.6158 141.758C36.6669 141.667 36.7182 141.587 36.7662 141.525C36.8127 141.465 36.8626 141.412 36.9156 141.386C37.0874 141.305 37.2586 141.307 37.4391 141.391C37.6148 141.474 37.8001 141.635 38.0113 141.871C38.1996 142.081 38.4943 142.127 38.8316 142.115C38.999 142.109 39.1718 142.089 39.3404 142.071C39.5074 142.053 39.6728 142.038 39.8189 142.042C40.0339 142.048 40.2642 142.129 40.4781 142.202C40.6976 142.276 40.9011 142.342 41.0816 142.339L41.1031 142.338C41.232 142.332 41.3483 142.289 41.4469 142.178C41.6629 141.938 41.9727 141.711 42.2906 141.545C42.6074 141.379 42.9422 141.269 43.2076 141.269C43.312 141.269 43.4143 141.223 43.526 141.144C43.6388 141.065 43.7525 140.959 43.8834 140.845C44.1409 140.623 44.4553 140.383 44.899 140.366C45.3159 140.35 46.2611 140.222 47.149 140.131C47.5909 140.085 48.019 140.049 48.3541 140.042C48.5211 140.038 48.6679 140.041 48.7828 140.054C48.8402 140.061 48.8922 140.071 48.9352 140.084C48.9767 140.096 49.0175 140.114 49.0465 140.141L49.0914 140.172C49.142 140.196 49.2115 140.204 49.3023 140.194C49.422 140.18 49.5635 140.138 49.7115 140.084C49.785 140.057 49.86 140.028 49.9332 139.999C50.006 139.97 50.0786 139.94 50.1471 139.915C50.2818 139.864 50.4128 139.822 50.5133 139.817C50.6859 139.81 50.9106 139.767 51.1236 139.732C51.2284 139.715 51.331 139.701 51.4195 139.694C51.5058 139.688 51.5892 139.688 51.651 139.709C51.7748 139.749 52.2051 139.888 52.6061 139.902L52.6578 139.903C52.8822 139.904 53.0778 139.864 53.1998 139.753L53.2428 139.716C53.4678 139.541 53.8251 139.474 54.1314 139.491ZM77.1236 213.167C77.1566 213.154 77.1824 213.139 77.1998 213.119C77.2204 213.095 77.236 213.06 77.2408 213.01L77.2437 212.992C77.2075 213.053 77.1674 213.111 77.1236 213.167ZM77.358 212.76C77.3781 212.738 77.3997 212.717 77.4205 212.698C77.4194 212.69 77.4176 212.681 77.4166 212.672C77.4142 212.652 77.4114 212.631 77.4088 212.609C77.3943 212.661 77.3774 212.711 77.358 212.76ZM96.2838 195.639C96.3327 195.646 96.3642 195.686 96.3834 195.72C96.4042 195.758 96.4233 195.811 96.442 195.879C96.4633 195.958 96.5178 196.062 96.5924 196.19C96.6649 196.314 96.7587 196.464 96.8473 196.621C97.0251 196.936 97.2026 197.311 97.2193 197.699C97.2348 198.059 97.3604 198.438 97.4742 198.8C97.5302 198.979 97.5837 199.154 97.6168 199.317C97.6419 199.44 97.6553 199.56 97.65 199.671L97.6373 199.779C97.5881 200.041 97.473 200.213 97.3053 200.236C97.2237 200.247 97.142 200.218 97.0689 200.165C96.9958 200.111 96.927 200.031 96.8678 199.929C96.8158 199.84 96.7785 199.834 96.7672 199.836C96.7506 199.838 96.7161 199.861 96.6842 199.933C96.6233 200.073 96.6077 200.322 96.6978 200.549C96.8044 200.816 96.7297 201.032 96.648 201.224C96.575 201.396 96.5001 201.545 96.5016 201.715L96.5123 201.843C96.5139 201.901 96.5078 201.973 96.4967 202.052C96.4823 202.161 96.4575 202.291 96.4244 202.438C96.3576 202.732 96.2574 203.099 96.1383 203.5C95.8995 204.303 95.5848 205.256 95.3102 206.078C95.0366 206.9 94.739 207.929 94.4596 208.815C94.3202 209.256 94.1855 209.662 94.0611 209.986C93.9993 210.148 93.9385 210.291 93.8814 210.407C93.8249 210.522 93.7693 210.617 93.7154 210.68C93.6087 210.805 93.5001 210.875 93.3912 210.913C93.2839 210.95 93.1791 210.955 93.0846 210.956C92.9164 210.958 92.7778 210.952 92.6422 211.053L92.5836 211.104C92.4778 211.209 92.3176 211.253 92.1451 211.26C91.971 211.267 91.7724 211.237 91.5748 211.181C91.1806 211.071 90.7727 210.857 90.5514 210.619C90.3282 210.378 90.2201 210.006 90.1314 209.629C90.0529 209.292 89.989 208.948 89.8795 208.657L89.8287 208.535C89.5292 207.871 89.4653 206.811 90.2574 205.852C90.6377 205.393 90.7673 205.028 90.7711 204.697C90.7746 204.362 90.6507 204.052 90.5055 203.695C90.2149 202.984 90.0412 202.28 90.3805 201.67C90.5324 201.396 90.5403 201.035 90.5611 200.73C90.5713 200.583 90.5849 200.442 90.6266 200.342C90.6484 200.291 90.6807 200.244 90.7291 200.215C90.7782 200.184 90.837 200.176 90.901 200.185C91.0907 200.215 91.2993 200.141 91.5387 200.058C91.7699 199.979 92.0276 199.892 92.2877 199.926L92.3268 199.929C92.4175 199.931 92.5172 199.9 92.6256 199.843C92.7495 199.78 92.8786 199.687 93.0094 199.589C93.1385 199.491 93.2714 199.386 93.4 199.305C93.5275 199.225 93.661 199.161 93.7906 199.152C94.0031 199.137 94.2324 199.045 94.3873 198.925C94.4644 198.864 94.5197 198.799 94.5465 198.738C94.5718 198.68 94.5725 198.625 94.5445 198.574L94.5162 198.516C94.4939 198.462 94.4854 198.414 94.4918 198.369C94.4999 198.311 94.5306 198.268 94.5514 198.238C94.5731 198.206 94.5894 198.181 94.5963 198.147C94.6025 198.114 94.6004 198.063 94.5719 197.983L94.5514 197.908C94.5376 197.835 94.544 197.767 94.568 197.706C94.5996 197.626 94.6585 197.564 94.7271 197.518C94.8629 197.428 95.0489 197.392 95.192 197.41C95.2988 197.423 95.4518 197.376 95.5768 197.289C95.7037 197.2 95.774 197.092 95.7623 197.002C95.7458 196.864 95.7539 196.695 95.7838 196.545C95.7982 196.469 95.8197 196.396 95.8453 196.333C95.8703 196.271 95.9026 196.213 95.943 196.172C95.9515 196.163 95.9643 196.145 95.9791 196.116C95.9934 196.088 96.0077 196.053 96.023 196.014C96.0523 195.941 96.0853 195.851 96.1178 195.783C96.1337 195.749 96.1532 195.715 96.1744 195.689C96.1943 195.666 96.2322 195.632 96.2838 195.639Z" fill="white" fill-opacity="0.5"/>
<path d="M35.2438 201.079L42.3657 176.877L47.7072 174.262L43.5162 195.706H58.527L56.6096 203.212H42.3657L38.8048 216.312L47.7072 218.222V221.389H21V218.222L29.9024 216.312L35.2438 201.079Z" fill="white" fill-opacity="0.5"/>
<path d="M245.582 37H243.548V24.436H248.966C250.094 24.436 250.982 24.778 251.63 25.462C252.278 26.134 252.602 27.052 252.602 28.216C252.602 29.116 252.392 29.866 251.972 30.466C251.564 31.054 250.958 31.468 250.154 31.708L252.872 37H250.604L248.084 31.924H245.582V37ZM248.822 30.214C249.338 30.214 249.74 30.082 250.028 29.818C250.316 29.542 250.46 29.152 250.46 28.648V27.784C250.46 27.28 250.316 26.896 250.028 26.632C249.74 26.356 249.338 26.218 248.822 26.218H245.582V30.214H248.822ZM258.607 37.216C257.935 37.216 257.335 37.102 256.807 36.874C256.279 36.646 255.829 36.322 255.457 35.902C255.085 35.47 254.797 34.954 254.593 34.354C254.401 33.742 254.305 33.064 254.305 32.32C254.305 31.576 254.401 30.904 254.593 30.304C254.797 29.692 255.085 29.176 255.457 28.756C255.829 28.324 256.279 27.994 256.807 27.766C257.335 27.538 257.935 27.424 258.607 27.424C259.291 27.424 259.891 27.544 260.407 27.784C260.935 28.024 261.373 28.36 261.721 28.792C262.069 29.212 262.327 29.704 262.495 30.268C262.675 30.832 262.765 31.438 262.765 32.086V32.824H256.339V33.13C256.339 33.85 256.549 34.444 256.969 34.912C257.401 35.368 258.013 35.596 258.805 35.596C259.381 35.596 259.867 35.47 260.263 35.218C260.659 34.966 260.995 34.624 261.271 34.192L262.423 35.326C262.075 35.902 261.571 36.364 260.911 36.712C260.251 37.048 259.483 37.216 258.607 37.216ZM258.607 28.954C258.271 28.954 257.959 29.014 257.671 29.134C257.395 29.254 257.155 29.422 256.951 29.638C256.759 29.854 256.609 30.112 256.501 30.412C256.393 30.712 256.339 31.042 256.339 31.402V31.528H260.695V31.348C260.695 30.628 260.509 30.052 260.137 29.62C259.765 29.176 259.255 28.954 258.607 28.954ZM267.907 37.216C267.019 37.216 266.275 37.06 265.675 36.748C265.075 36.436 264.553 36.004 264.109 35.452L265.369 34.3C265.717 34.72 266.101 35.05 266.521 35.29C266.953 35.518 267.451 35.632 268.015 35.632C268.591 35.632 269.017 35.524 269.293 35.308C269.581 35.08 269.725 34.768 269.725 34.372C269.725 34.072 269.623 33.82 269.419 33.616C269.227 33.4 268.885 33.262 268.393 33.202L267.529 33.094C266.569 32.974 265.813 32.698 265.261 32.266C264.721 31.822 264.451 31.168 264.451 30.304C264.451 29.848 264.535 29.446 264.703 29.098C264.871 28.738 265.105 28.438 265.405 28.198C265.717 27.946 266.083 27.754 266.503 27.622C266.935 27.49 267.409 27.424 267.925 27.424C268.765 27.424 269.449 27.556 269.977 27.82C270.517 28.084 270.997 28.45 271.417 28.918L270.211 30.07C269.971 29.782 269.653 29.536 269.257 29.332C268.873 29.116 268.429 29.008 267.925 29.008C267.385 29.008 266.983 29.116 266.719 29.332C266.467 29.548 266.341 29.83 266.341 30.178C266.341 30.538 266.455 30.808 266.683 30.988C266.911 31.168 267.277 31.3 267.781 31.384L268.645 31.492C269.677 31.648 270.427 31.954 270.895 32.41C271.375 32.854 271.615 33.454 271.615 34.21C271.615 34.666 271.525 35.08 271.345 35.452C271.177 35.812 270.931 36.124 270.607 36.388C270.283 36.652 269.893 36.856 269.437 37C268.981 37.144 268.471 37.216 267.907 37.216ZM277.504 37.216C276.832 37.216 276.232 37.102 275.704 36.874C275.176 36.646 274.726 36.322 274.354 35.902C273.982 35.47 273.694 34.954 273.49 34.354C273.298 33.742 273.202 33.064 273.202 32.32C273.202 31.576 273.298 30.904 273.49 30.304C273.694 29.692 273.982 29.176 274.354 28.756C274.726 28.324 275.176 27.994 275.704 27.766C276.232 27.538 276.832 27.424 277.504 27.424C278.188 27.424 278.788 27.544 279.304 27.784C279.832 28.024 280.27 28.36 280.618 28.792C280.966 29.212 281.224 29.704 281.392 30.268C281.572 30.832 281.662 31.438 281.662 32.086V32.824H275.236V33.13C275.236 33.85 275.446 34.444 275.866 34.912C276.298 35.368 276.91 35.596 277.702 35.596C278.278 35.596 278.764 35.47 279.16 35.218C279.556 34.966 279.892 34.624 280.168 34.192L281.32 35.326C280.972 35.902 280.468 36.364 279.808 36.712C279.148 37.048 278.38 37.216 277.504 37.216ZM277.504 28.954C277.168 28.954 276.856 29.014 276.568 29.134C276.292 29.254 276.052 29.422 275.848 29.638C275.656 29.854 275.506 30.112 275.398 30.412C275.29 30.712 275.236 31.042 275.236 31.402V31.528H279.592V31.348C279.592 30.628 279.406 30.052 279.034 29.62C278.662 29.176 278.152 28.954 277.504 28.954ZM290.692 37C290.176 37 289.78 36.856 289.504 36.568C289.228 36.268 289.06 35.89 289 35.434H288.91C288.73 36.022 288.4 36.466 287.92 36.766C287.44 37.066 286.858 37.216 286.174 37.216C285.202 37.216 284.452 36.964 283.924 36.46C283.408 35.956 283.15 35.278 283.15 34.426C283.15 33.49 283.486 32.788 284.158 32.32C284.842 31.852 285.838 31.618 287.146 31.618H288.838V30.826C288.838 30.25 288.682 29.806 288.37 29.494C288.058 29.182 287.572 29.026 286.912 29.026C286.36 29.026 285.91 29.146 285.562 29.386C285.214 29.626 284.92 29.932 284.68 30.304L283.51 29.242C283.822 28.714 284.26 28.282 284.824 27.946C285.388 27.598 286.126 27.424 287.038 27.424C288.25 27.424 289.18 27.706 289.828 28.27C290.476 28.834 290.8 29.644 290.8 30.7V35.398H291.79V37H290.692ZM286.732 35.722C287.344 35.722 287.848 35.59 288.244 35.326C288.64 35.05 288.838 34.684 288.838 34.228V32.878H287.182C285.826 32.878 285.148 33.298 285.148 34.138V34.462C285.148 34.882 285.286 35.2 285.562 35.416C285.85 35.62 286.24 35.722 286.732 35.722ZM293.713 37V27.64H295.675V29.44H295.765C295.897 28.96 296.173 28.54 296.593 28.18C297.013 27.82 297.595 27.64 298.339 27.64H298.861V29.53H298.087C297.307 29.53 296.707 29.656 296.287 29.908C295.879 30.16 295.675 30.532 295.675 31.024V37H293.713ZM304.133 37.216C303.461 37.216 302.861 37.102 302.333 36.874C301.805 36.646 301.361 36.322 301.001 35.902C300.641 35.47 300.365 34.954 300.173 34.354C299.981 33.742 299.885 33.064 299.885 32.32C299.885 31.576 299.981 30.904 300.173 30.304C300.365 29.692 300.641 29.176 301.001 28.756C301.361 28.324 301.805 27.994 302.333 27.766C302.861 27.538 303.461 27.424 304.133 27.424C305.069 27.424 305.837 27.634 306.437 28.054C307.037 28.474 307.475 29.032 307.751 29.728L306.131 30.484C305.999 30.052 305.765 29.71 305.429 29.458C305.105 29.194 304.673 29.062 304.133 29.062C303.413 29.062 302.867 29.29 302.495 29.746C302.135 30.19 301.955 30.772 301.955 31.492V33.166C301.955 33.886 302.135 34.474 302.495 34.93C302.867 35.374 303.413 35.596 304.133 35.596C304.709 35.596 305.165 35.458 305.501 35.182C305.849 34.894 306.125 34.516 306.329 34.048L307.823 34.84C307.511 35.608 307.043 36.196 306.419 36.604C305.795 37.012 305.033 37.216 304.133 37.216ZM309.691 23.68H311.653V29.188H311.743C311.947 28.684 312.253 28.264 312.661 27.928C313.081 27.592 313.651 27.424 314.371 27.424C315.331 27.424 316.075 27.742 316.603 28.378C317.143 29.002 317.413 29.896 317.413 31.06V37H315.451V31.294C315.451 29.842 314.863 29.116 313.687 29.116C313.435 29.116 313.183 29.152 312.931 29.224C312.691 29.284 312.475 29.38 312.283 29.512C312.091 29.644 311.935 29.812 311.815 30.016C311.707 30.22 311.653 30.454 311.653 30.718V37H309.691V23.68Z" fill="white"/>
</g>
<defs>
<filter id="filter0_f_3965_13744" x="-279.407" y="-299.431" width="651.335" height="676.908" filterUnits="userSpaceOnUse" color-interpolation-filters="sRGB">
<feFlood flood-opacity="0" result="BackgroundImageFix"/>
<feBlend mode="normal" in="SourceGraphic" in2="BackgroundImageFix" result="shape"/>
<feGaussianBlur stdDeviation="100" result="effect1_foregroundBlur_3965_13744"/>
</filter>
<filter id="filter1_f_3965_13744" x="-56" y="-260" width="598" height="598" filterUnits="userSpaceOnUse" color-interpolation-filters="sRGB">
<feFlood flood-opacity="0" result="BackgroundImageFix"/>
<feBlend mode="normal" in="SourceGraphic" in2="BackgroundImageFix" result="shape"/>
<feGaussianBlur stdDeviation="100" result="effect1_foregroundBlur_3965_13744"/>
</filter>
<filter id="filter2_f_3965_13744" x="-253" y="-130" width="654" height="654" filterUnits="userSpaceOnUse" color-interpolation-filters="sRGB">
<feFlood flood-opacity="0" result="BackgroundImageFix"/>
<feBlend mode="normal" in="SourceGraphic" in2="BackgroundImageFix" result="shape"/>
<feGaussianBlur stdDeviation="100" result="effect1_foregroundBlur_3965_13744"/>
</filter>
<filter id="filter3_f_3965_13744" x="-29" y="-100" width="594" height="594" filterUnits="userSpaceOnUse" color-interpolation-filters="sRGB">
<feFlood flood-opacity="0" result="BackgroundImageFix"/>
<feBlend mode="normal" in="SourceGraphic" in2="BackgroundImageFix" result="shape"/>
<feGaussianBlur stdDeviation="100" result="effect1_foregroundBlur_3965_13744"/>
</filter>
<clipPath id="clip0_3965_13744">
<path d="M0 15C0 6.71573 6.71573 0 15 0H327.439C335.723 0 342.439 6.71573 342.439 15V240H0V15Z" fill="white"/>
</clipPath>
</defs>
</svg>
