<svg width="343" height="240" viewBox="0 0 343 240" fill="none" xmlns="http://www.w3.org/2000/svg">
<g clip-path="url(#clip0_4877_21728)">
<path d="M0 15C0 6.71573 6.71573 0 15 0H327.439C335.723 0 342.439 6.71573 342.439 15V240H0V15Z" fill="#171717"/>
<g filter="url(#filter0_f_4877_21728)">
<ellipse cx="46.2611" cy="39.0231" rx="95.7084" ry="160.595" transform="rotate(-39.1533 46.2611 39.0231)" fill="#1F56EF"/>
</g>
<g filter="url(#filter1_f_4877_21728)">
<circle cx="243" cy="39" r="99" fill="#0031BA"/>
</g>
<g filter="url(#filter2_f_4877_21728)">
<circle cx="74" cy="197" r="127" fill="#03278D"/>
</g>
<g filter="url(#filter3_f_4877_21728)">
<circle cx="268" cy="197" r="97" fill="#081C55"/>
</g>
</g>
<defs>
<filter id="filter0_f_4877_21728" x="-279.406" y="-299.431" width="651.335" height="676.908" filterUnits="userSpaceOnUse" color-interpolation-filters="sRGB">
<feFlood flood-opacity="0" result="BackgroundImageFix"/>
<feBlend mode="normal" in="SourceGraphic" in2="BackgroundImageFix" result="shape"/>
<feGaussianBlur stdDeviation="100" result="effect1_foregroundBlur_4877_21728"/>
</filter>
<filter id="filter1_f_4877_21728" x="-56" y="-260" width="598" height="598" filterUnits="userSpaceOnUse" color-interpolation-filters="sRGB">
<feFlood flood-opacity="0" result="BackgroundImageFix"/>
<feBlend mode="normal" in="SourceGraphic" in2="BackgroundImageFix" result="shape"/>
<feGaussianBlur stdDeviation="100" result="effect1_foregroundBlur_4877_21728"/>
</filter>
<filter id="filter2_f_4877_21728" x="-253" y="-130" width="654" height="654" filterUnits="userSpaceOnUse" color-interpolation-filters="sRGB">
<feFlood flood-opacity="0" result="BackgroundImageFix"/>
<feBlend mode="normal" in="SourceGraphic" in2="BackgroundImageFix" result="shape"/>
<feGaussianBlur stdDeviation="100" result="effect1_foregroundBlur_4877_21728"/>
</filter>
<filter id="filter3_f_4877_21728" x="-29" y="-100" width="594" height="594" filterUnits="userSpaceOnUse" color-interpolation-filters="sRGB">
<feFlood flood-opacity="0" result="BackgroundImageFix"/>
<feBlend mode="normal" in="SourceGraphic" in2="BackgroundImageFix" result="shape"/>
<feGaussianBlur stdDeviation="100" result="effect1_foregroundBlur_4877_21728"/>
</filter>
<clipPath id="clip0_4877_21728">
<path d="M0 15C0 6.71573 6.71573 0 15 0H327.439C335.723 0 342.439 6.71573 342.439 15V240H0V15Z" fill="white"/>
</clipPath>
</defs>
</svg>
