<svg width="80" height="80" viewBox="0 0 80 80" fill="none" xmlns="http://www.w3.org/2000/svg">
<path d="M33.3333 26.6741C33.9207 25.0045 35.0799 23.5967 36.6058 22.6999C38.1316 21.8032 39.9257 21.4753 41.6701 21.7746C43.4145 22.0738 44.9967 22.9807 46.1365 24.3347C47.2763 25.6887 47.9001 27.4024 47.8975 29.1723C47.8975 34.1685 40.4031 36.6667 40.4031 36.6667M40.4997 46.6667H40.533M23.3333 60V67.785C23.3333 69.5612 23.3333 70.4493 23.6974 70.9054C24.0141 71.3021 24.4942 71.5328 25.0018 71.5323C25.5854 71.5317 26.2789 70.9769 27.6659 69.8673L35.6174 63.5061C37.2417 62.2066 38.0539 61.5569 38.9583 61.0948C39.7607 60.6849 40.6148 60.3853 41.4974 60.2042C42.4922 60 43.5323 60 45.6125 60H54C59.6005 60 62.4008 60 64.5399 58.9101C66.4215 57.9513 67.9513 56.4215 68.9101 54.5399C70 52.4008 70 49.6005 70 44V26C70 20.3995 70 17.5992 68.9101 15.4601C67.9513 13.5785 66.4215 12.0487 64.5399 11.0899C62.4008 10 59.6005 10 54 10H26C20.3995 10 17.5992 10 15.4601 11.0899C13.5785 12.0487 12.0487 13.5785 11.0899 15.4601C10 17.5992 10 20.3995 10 26V46.6667C10 49.7666 10 51.3165 10.3407 52.5882C11.2654 56.0391 13.9609 58.7346 17.4118 59.6593C18.6835 60 20.2334 60 23.3333 60Z" stroke="#1E3A8A" stroke-width="5" stroke-linecap="round" stroke-linejoin="round"/>
</svg>
