<svg width="20" height="19" viewBox="0 0 20 19" fill="none" xmlns="http://www.w3.org/2000/svg">
<path d="M8.79537 0.590781C9.05126 -0.196791 10.1655 -0.196793 10.4214 0.590779L12.1034 5.76745C12.2178 6.11966 12.546 6.35813 12.9164 6.35813H18.3594C19.1875 6.35813 19.5319 7.4178 18.8619 7.90455L14.4584 11.1039C14.1588 11.3216 14.0334 11.7074 14.1478 12.0596L15.8298 17.2363C16.0857 18.0239 15.1843 18.6788 14.5144 18.1921L10.1108 14.9927C9.81122 14.775 9.40552 14.775 9.10591 14.9927L4.70237 18.1921C4.03242 18.6788 3.13101 18.0239 3.3869 17.2363L5.06891 12.0596C5.18335 11.7074 5.05798 11.3216 4.75837 11.1039L0.354831 7.90455C-0.315118 7.4178 0.0291886 6.35813 0.857291 6.35813H6.30036C6.6707 6.35813 6.99892 6.11966 7.11336 5.76745L8.79537 0.590781Z" fill="#1E3A8A"/>
</svg>
