<svg width="18" height="17" viewBox="0 0 18 17" fill="none" xmlns="http://www.w3.org/2000/svg">
<path d="M0.707 5.354L0.353 5.708L0 5.354L0.353 5L0.707 5.354ZM5.707 16.854C5.57439 16.854 5.44721 16.8013 5.35345 16.7076C5.25968 16.6138 5.207 16.4866 5.207 16.354C5.207 16.2214 5.25968 16.0942 5.35345 16.0004C5.44721 15.9067 5.57439 15.854 5.707 15.854V16.854ZM5.353 10.708L0.353 5.708L1.061 5L6.061 10L5.353 10.708ZM0.353 5L5.353 0L6.061 0.708L1.061 5.708L0.353 5ZM0.707 4.854H11.207V5.854H0.707V4.854ZM11.207 16.854H5.707V15.854H11.207V16.854ZM17.207 10.854C17.207 12.4453 16.5749 13.9714 15.4496 15.0966C14.3244 16.2219 12.7983 16.854 11.207 16.854V15.854C12.5331 15.854 13.8049 15.3272 14.7425 14.3895C15.6802 13.4519 16.207 12.1801 16.207 10.854H17.207ZM11.207 4.854C12.7983 4.854 14.3244 5.48614 15.4496 6.61136C16.5749 7.73658 17.207 9.2627 17.207 10.854H16.207C16.207 9.52792 15.6802 8.25615 14.7425 7.31847C13.8049 6.38078 12.5331 5.854 11.207 5.854V4.854Z" fill="#171717"/>
</svg>
