<svg width="36" height="36" viewBox="0 0 36 36" fill="none" xmlns="http://www.w3.org/2000/svg">
<rect x="0.35" y="0.35" width="35.3" height="35.3" rx="17.65" stroke="#AEAEAE" stroke-width="0.7"/>
<path d="M18 23.9715L16.2084 25.7631C15.4164 26.5548 14.3424 26.9996 13.2225 26.9996C12.1026 26.9996 11.0286 26.5548 10.2366 25.7631C9.4448 24.9711 9 23.8971 9 22.7772C9 21.6573 9.4448 20.5833 10.2366 19.7913L13.8197 16.2082C14.6117 15.4165 15.6857 14.9717 16.8056 14.9717C17.9255 14.9717 18.9995 15.4165 19.7915 16.2082" stroke="black" stroke-width="2" stroke-linecap="round"/>
<path d="M17.9996 12.0281L19.7911 10.2366C20.5831 9.44479 21.6571 9 22.777 9C23.8969 9 24.971 9.44479 25.763 10.2366C26.5547 11.0285 26.9995 12.1026 26.9995 13.2224C26.9995 14.3423 26.5547 15.4163 25.763 16.2083L22.1798 19.7914C21.3879 20.5831 20.3138 21.0279 19.1939 21.0279C18.074 21.0279 17 20.5831 16.208 19.7914" stroke="black" stroke-width="2" stroke-linecap="round"/>
</svg>
