<svg width="36" height="36" viewBox="0 0 36 36" fill="none" xmlns="http://www.w3.org/2000/svg">
<rect x="0.35" y="0.35" width="35.3" height="35.3" rx="17.65" stroke="#AEAEAE" stroke-width="0.7"/>
<g clip-path="url(#clip0_4854_21746)">
<path d="M27 18C27 13.0295 22.9705 9 18 9C13.0295 9 9 13.0295 9 18C9 22.4921 12.2912 26.2155 16.5938 26.8907V20.6016H14.3086V18H16.5938V16.0172C16.5938 13.7616 17.9374 12.5156 19.9932 12.5156C20.9779 12.5156 22.0078 12.6914 22.0078 12.6914V14.9062H20.873C19.7549 14.9062 19.4062 15.6 19.4062 16.3118V18H21.9023L21.5033 20.6016H19.4062V26.8907C23.7088 26.2155 27 22.4922 27 18Z" fill="#1877F2"/>
<path d="M21.5033 20.6016L21.9023 18H19.4062V16.3118C19.4062 15.6 19.7549 14.9062 20.873 14.9062H22.0078V12.6914C22.0078 12.6914 20.9779 12.5156 19.9931 12.5156C17.9374 12.5156 16.5938 13.7616 16.5938 16.0172V18H14.3086V20.6016H16.5938V26.8907C17.059 26.9636 17.5291 27.0001 18 27C18.4709 27.0001 18.941 26.9636 19.4062 26.8907V20.6016H21.5033Z" fill="white"/>
</g>
<defs>
<clipPath id="clip0_4854_21746">
<rect width="18" height="18" fill="white" transform="translate(9 9)"/>
</clipPath>
</defs>
</svg>
