<svg width="36" height="36" viewBox="0 0 36 36" fill="none" xmlns="http://www.w3.org/2000/svg">
<rect x="0.35" y="0.35" width="35.3" height="35.3" rx="17.65" stroke="#AEAEAE" stroke-width="0.7"/>
<g clip-path="url(#clip0_4854_21740)">
<path d="M22.7812 9H13.2188C10.8888 9 9 10.8888 9 13.2188V22.7812C9 25.1112 10.8888 27 13.2188 27H22.7812C25.1112 27 27 25.1112 27 22.7812V13.2188C27 10.8888 25.1112 9 22.7812 9Z" fill="url(#paint0_radial_4854_21740)"/>
<path d="M22.7812 9H13.2188C10.8888 9 9 10.8888 9 13.2188V22.7812C9 25.1112 10.8888 27 13.2188 27H22.7812C25.1112 27 27 25.1112 27 22.7812V13.2188C27 10.8888 25.1112 9 22.7812 9Z" fill="url(#paint1_radial_4854_21740)"/>
<path d="M18.0006 10.9688C16.0911 10.9688 15.8514 10.9771 15.1014 11.0112C14.3529 11.0455 13.8419 11.164 13.3949 11.3379C12.9324 11.5175 12.5401 11.7577 12.1493 12.1487C11.7581 12.5395 11.5179 12.9318 11.3378 13.3941C11.1634 13.8413 11.0448 14.3525 11.0111 15.1007C10.9775 15.8507 10.9688 16.0905 10.9688 18.0001C10.9688 19.9097 10.9772 20.1486 11.0112 20.8986C11.0457 21.6471 11.1641 22.1581 11.3379 22.6051C11.5176 23.0676 11.7579 23.4599 12.1488 23.8507C12.5395 24.2419 12.9318 24.4827 13.394 24.6622C13.8414 24.8361 14.3524 24.9546 15.1008 24.9889C15.8508 25.023 16.0903 25.0314 17.9998 25.0314C19.9095 25.0314 20.1485 25.023 20.8984 24.9889C21.647 24.9546 22.1585 24.8361 22.6059 24.6622C23.0682 24.4827 23.4599 24.2419 23.8506 23.8507C24.2417 23.4599 24.4819 23.0676 24.6621 22.6053C24.8349 22.1581 24.9536 21.647 24.9888 20.8987C25.0225 20.1488 25.0312 19.9097 25.0312 18.0001C25.0312 16.0905 25.0225 15.8508 24.9888 15.1008C24.9536 14.3523 24.8349 13.8414 24.6621 13.3943C24.4819 12.9318 24.2417 12.5395 23.8506 12.1487C23.4595 11.7576 23.0683 11.5173 22.6055 11.338C22.1572 11.164 21.646 11.0455 20.8974 11.0112C20.1474 10.9771 19.9086 10.9688 17.9985 10.9688H18.0006ZM17.3699 12.2359C17.5571 12.2356 17.766 12.2359 18.0006 12.2359C19.878 12.2359 20.1005 12.2426 20.8419 12.2763C21.5274 12.3076 21.8995 12.4222 22.1474 12.5184C22.4755 12.6458 22.7095 12.7982 22.9554 13.0444C23.2015 13.2905 23.3538 13.5248 23.4816 13.853C23.5778 14.1005 23.6925 14.4726 23.7237 15.1581C23.7574 15.8993 23.7647 16.122 23.7647 17.9985C23.7647 19.875 23.7574 20.0976 23.7237 20.8388C23.6924 21.5243 23.5778 21.8964 23.4816 22.144C23.3542 22.4722 23.2015 22.7058 22.9554 22.9518C22.7093 23.1979 22.4757 23.3501 22.1474 23.4776C21.8998 23.5743 21.5274 23.6886 20.8419 23.7199C20.1007 23.7536 19.878 23.7609 18.0006 23.7609C16.1231 23.7609 15.9006 23.7536 15.1594 23.7199C14.4739 23.6883 14.1018 23.5737 13.8537 23.4775C13.5257 23.35 13.2912 23.1977 13.0451 22.9516C12.7991 22.7055 12.6468 22.4717 12.519 22.1434C12.4227 21.8959 12.3081 21.5238 12.2768 20.8382C12.2432 20.097 12.2364 19.8744 12.2364 17.9967C12.2364 16.119 12.2432 15.8976 12.2768 15.1564C12.3082 14.4708 12.4227 14.0987 12.519 13.8509C12.6465 13.5227 12.7991 13.2884 13.0452 13.0423C13.2914 12.7962 13.5257 12.6438 13.8538 12.5161C14.1017 12.4194 14.4739 12.3052 15.1594 12.2737C15.8081 12.2444 16.0594 12.2356 17.3699 12.2341V12.2359ZM21.7539 13.4033C21.2881 13.4033 20.9102 13.7809 20.9102 14.2468C20.9102 14.7126 21.2881 15.0905 21.7539 15.0905C22.2197 15.0905 22.5977 14.7126 22.5977 14.2468C22.5977 13.781 22.2197 13.403 21.7539 13.403V13.4033ZM18.0006 14.3892C16.0066 14.3892 14.3898 16.0059 14.3898 18.0001C14.3898 19.9942 16.0066 21.6102 18.0006 21.6102C19.9948 21.6102 21.611 19.9942 21.611 18.0001C21.611 16.006 19.9946 14.3892 18.0005 14.3892H18.0006ZM18.0006 15.6563C19.295 15.6563 20.3444 16.7055 20.3444 18.0001C20.3444 19.2945 19.295 20.3439 18.0006 20.3439C16.7063 20.3439 15.6569 19.2945 15.6569 18.0001C15.6569 16.7055 16.7062 15.6563 18.0006 15.6563Z" fill="white"/>
</g>
<defs>
<radialGradient id="paint0_radial_4854_21740" cx="0" cy="0" r="1" gradientUnits="userSpaceOnUse" gradientTransform="translate(13.7812 28.3864) rotate(-90) scale(17.8393 16.592)">
<stop stop-color="#FFDD55"/>
<stop offset="0.1" stop-color="#FFDD55"/>
<stop offset="0.5" stop-color="#FF543E"/>
<stop offset="1" stop-color="#C837AB"/>
</radialGradient>
<radialGradient id="paint1_radial_4854_21740" cx="0" cy="0" r="1" gradientUnits="userSpaceOnUse" gradientTransform="translate(5.98494 10.2967) rotate(78.68) scale(7.97428 32.8703)">
<stop stop-color="#3771C8"/>
<stop offset="0.128" stop-color="#3771C8"/>
<stop offset="1" stop-color="#6600FF" stop-opacity="0"/>
</radialGradient>
<clipPath id="clip0_4854_21740">
<rect width="18" height="18" fill="white" transform="translate(9 9)"/>
</clipPath>
</defs>
</svg>
