<svg width="36" height="36" viewBox="0 0 36 36" fill="none" xmlns="http://www.w3.org/2000/svg">
<rect x="0.35" y="0.35" width="35.3" height="35.3" rx="17.65" stroke="#AEAEAE" stroke-width="0.7"/>
<g clip-path="url(#clip0_4854_21736)">
<path d="M25.3125 9.42194H10.6875C10.3557 9.41856 10.0361 9.54696 9.79878 9.77896C9.5615 10.011 9.42595 10.3276 9.42188 10.6594V25.3435C9.42669 25.6748 9.56256 25.9908 9.79976 26.2222C10.037 26.4536 10.3561 26.5816 10.6875 26.5782H25.3125C25.6444 26.5808 25.9638 26.452 26.2009 26.2198C26.4381 25.9877 26.5737 25.6711 26.5781 25.3393V10.6552C26.5722 10.3244 26.4359 10.0092 26.1989 9.77829C25.962 9.54736 25.6434 9.41929 25.3125 9.42194Z" fill="#0076B2"/>
<path d="M11.9613 15.8525H14.508V24.0468H11.9613V15.8525ZM13.2354 11.7744C13.5274 11.7744 13.813 11.861 14.0558 12.0234C14.2987 12.1857 14.4879 12.4164 14.5997 12.6862C14.7114 12.9561 14.7405 13.2531 14.6834 13.5396C14.6264 13.826 14.4856 14.0891 14.2789 14.2956C14.0723 14.502 13.8091 14.6425 13.5226 14.6993C13.236 14.7562 12.9391 14.7267 12.6693 14.6147C12.3995 14.5028 12.169 14.3133 12.007 14.0703C11.8449 13.8273 11.7585 13.5417 11.7588 13.2496C11.7592 12.8582 11.9149 12.483 12.1918 12.2064C12.4686 11.9298 12.844 11.7744 13.2354 11.7744ZM16.1055 15.8525H18.5468V16.9775H18.5805C18.9208 16.3335 19.7505 15.6543 20.9894 15.6543C23.5685 15.6486 24.0466 17.346 24.0466 19.5468V24.0468H21.4999V20.06C21.4999 19.1108 21.483 17.8888 20.1766 17.8888C18.8702 17.8888 18.648 18.9238 18.648 19.9982V24.0468H16.1055V15.8525Z" fill="white"/>
</g>
<defs>
<clipPath id="clip0_4854_21736">
<rect width="18" height="18" fill="white" transform="translate(9 9)"/>
</clipPath>
</defs>
</svg>
