<svg width="24" height="24" viewBox="0 0 24 24" fill="none" xmlns="http://www.w3.org/2000/svg">
<path d="M12 21.8999C11.8833 21.8999 11.775 21.8916 11.675 21.8749C11.575 21.8582 11.475 21.8332 11.375 21.7999C9.125 21.0499 7.33333 19.6626 6 17.6379C4.66667 15.6132 4 13.4339 4 11.0999V6.3749C4 5.95824 4.121 5.58324 4.363 5.2499C4.605 4.91657 4.91733 4.6749 5.3 4.5249L11.3 2.2749C11.5333 2.19157 11.7667 2.1499 12 2.1499C12.2333 2.1499 12.4667 2.19157 12.7 2.2749L18.7 4.5249C19.0833 4.6749 19.396 4.91657 19.638 5.2499C19.88 5.58324 20.0007 5.95824 20 6.3749V11.0999C20 13.4332 19.3333 15.6126 18 17.6379C16.6667 19.6632 14.875 21.0506 12.625 21.7999C12.525 21.8332 12.425 21.8582 12.325 21.8749C12.225 21.8916 12.1167 21.8999 12 21.8999ZM12 19.8999C13.7333 19.3499 15.1667 18.2499 16.3 16.5999C17.4333 14.9499 18 13.1166 18 11.0999V6.3749L12 4.1249L6 6.3749V11.0999C6 13.1166 6.56667 14.9499 7.7 16.5999C8.83333 18.2499 10.2667 19.3499 12 19.8999Z" fill="#1E3A8A"/>
<path d="M13.3664 9.28C13.546 9.10052 13.7895 8.99971 14.0433 8.99976C14.2972 8.9998 14.5407 9.1007 14.7202 9.28025C14.8996 9.4598 15.0004 9.7033 15.0004 9.95718C15.0004 10.2111 14.8995 10.4545 14.7199 10.634L14.3534 11L14.4849 11.131C14.5662 11.2123 14.6306 11.3087 14.6746 11.4149C14.7186 11.521 14.7412 11.6348 14.7412 11.7498C14.7412 11.8647 14.7186 11.9785 14.6746 12.0846C14.6306 12.1908 14.5662 12.2872 14.4849 12.3685L13.9269 12.9265C13.88 12.9734 13.8164 12.9998 13.7501 12.9999C13.6837 12.9999 13.6201 12.9736 13.5732 12.9268C13.5262 12.8799 13.4998 12.8163 13.4998 12.7499C13.4997 12.6836 13.526 12.6199 13.5729 12.573L14.1314 12.015C14.1662 11.9802 14.1939 11.9388 14.2128 11.8933C14.2316 11.8478 14.2413 11.799 14.2413 11.7498C14.2413 11.7005 14.2316 11.6517 14.2128 11.6062C14.1939 11.5607 14.1662 11.5193 14.1314 11.4845L13.9999 11.354L11.0224 14.331C10.9319 14.4214 10.8217 14.4895 10.7004 14.53L9.3289 14.9875C9.28484 15.0022 9.23757 15.0043 9.19239 14.9936C9.1472 14.9829 9.10589 14.9598 9.07308 14.9269C9.04028 14.8941 9.01727 14.8527 9.00664 14.8075C8.99601 14.7623 8.99818 14.715 9.0129 14.671L9.4699 13.3C9.51038 13.1787 9.57851 13.0685 9.6689 12.978L13.3664 9.28Z" fill="#1E3A8A"/>
</svg>
