<svg width="17" height="17" viewBox="0 0 17 17" fill="none" xmlns="http://www.w3.org/2000/svg">
<path d="M15.5042 8.04264C15.5042 12.1638 12.1633 15.5047 8.04215 15.5047C7.04958 15.5047 6.10227 15.3109 5.23599 14.9591C5.07019 14.8918 4.9873 14.8581 4.92029 14.8431C4.85474 14.8284 4.80623 14.823 4.73905 14.823C4.67038 14.823 4.59558 14.8355 4.44597 14.8604L1.49606 15.3521C1.18714 15.4035 1.03269 15.4293 0.920999 15.3814C0.823245 15.3394 0.745346 15.2615 0.703418 15.1638C0.655513 15.0521 0.681256 14.8976 0.732741 14.5887L1.22439 11.6388C1.24933 11.4892 1.26179 11.4144 1.26179 11.3457C1.26178 11.2786 1.2564 11.2301 1.24171 11.1645C1.22669 11.0975 1.19302 11.0146 1.12569 10.8488C0.773873 9.98253 0.580078 9.03522 0.580078 8.04264C0.580078 3.92145 3.92096 0.580566 8.04215 0.580566C12.1633 0.580566 15.5042 3.92145 15.5042 8.04264Z" stroke="#2BFF00" stroke-width="1.16077" stroke-linecap="round" stroke-linejoin="round"/>
</svg>
