<svg width="15" height="17" viewBox="0 0 15 17" fill="none" xmlns="http://www.w3.org/2000/svg">
<path d="M13.846 15.5047C13.846 14.3476 13.846 13.7691 13.7032 13.2983C13.3816 12.2384 12.5522 11.4089 11.4922 11.0874C11.0215 10.9446 10.4429 10.9446 9.28583 10.9446H5.14024C3.98315 10.9446 3.4046 10.9446 2.93383 11.0874C1.87388 11.4089 1.04442 12.2384 0.722885 13.2983C0.580078 13.7691 0.580078 14.3476 0.580078 15.5047M10.9441 4.3116C10.9441 6.3722 9.27363 8.04264 7.21303 8.04264C5.15244 8.04264 3.482 6.3722 3.482 4.3116C3.482 2.25101 5.15244 0.580566 7.21303 0.580566C9.27363 0.580566 10.9441 2.25101 10.9441 4.3116Z" stroke="#FFD700" stroke-width="1.16077" stroke-linecap="round" stroke-linejoin="round"/>
</svg>
