<svg width="18" height="18" viewBox="0 0 18 18" fill="none" xmlns="http://www.w3.org/2000/svg">
<path d="M8.87127 11.3591C10.245 11.3591 11.3586 10.2455 11.3586 8.87176C11.3586 7.49803 10.245 6.3844 8.87127 6.3844C7.49754 6.3844 6.38391 7.49803 6.38391 8.87176C6.38391 10.2455 7.49754 11.3591 8.87127 11.3591Z" stroke="#171717" stroke-width="1.16077" stroke-linecap="round" stroke-linejoin="round"/>
<path d="M14.449 11.133C14.3487 11.3603 14.3187 11.6125 14.3631 11.857C14.4074 12.1015 14.524 12.3272 14.6977 12.5048L14.7429 12.55C14.8831 12.69 14.9943 12.8563 15.0702 13.0393C15.146 13.2223 15.1851 13.4185 15.1851 13.6166C15.1851 13.8147 15.146 14.0109 15.0702 14.1939C14.9943 14.3769 14.8831 14.5431 14.7429 14.6831C14.6029 14.8233 14.4367 14.9345 14.2537 15.0104C14.0707 15.0862 13.8745 15.1253 13.6764 15.1253C13.4783 15.1253 13.2821 15.0862 13.0991 15.0104C12.9161 14.9345 12.7499 14.8233 12.6098 14.6831L12.5646 14.6379C12.387 14.4641 12.1614 14.3476 11.9168 14.3032C11.6723 14.2589 11.4201 14.2888 11.1928 14.3892C10.9699 14.4847 10.7797 14.6434 10.6458 14.8456C10.5119 15.0478 10.44 15.2848 10.4391 15.5273V15.6555C10.4391 16.0553 10.2802 16.4387 9.99753 16.7214C9.71482 17.0041 9.33138 17.163 8.93157 17.163C8.53176 17.163 8.14833 17.0041 7.86562 16.7214C7.58291 16.4387 7.42408 16.0553 7.42408 15.6555V15.5876C7.41825 15.3381 7.33749 15.0962 7.19231 14.8932C7.04714 14.6902 6.84425 14.5356 6.61004 14.4495C6.3827 14.3491 6.13051 14.3192 5.886 14.3635C5.64149 14.4079 5.41586 14.5244 5.23822 14.6982L5.193 14.7434C5.05299 14.8836 4.88673 14.9948 4.70373 15.0707C4.52072 15.1465 4.32456 15.1856 4.12645 15.1856C3.92834 15.1856 3.73218 15.1465 3.54917 15.0707C3.36616 14.9948 3.1999 14.8836 3.0599 14.7434C2.91974 14.6034 2.80855 14.4372 2.73268 14.2542C2.65682 14.0712 2.61777 13.875 2.61777 13.6769C2.61777 13.4788 2.65682 13.2826 2.73268 13.0996C2.80855 12.9166 2.91974 12.7503 3.0599 12.6103L3.10512 12.5651C3.27889 12.3875 3.39546 12.1618 3.43979 11.9173C3.48412 11.6728 3.45419 11.4206 3.35386 11.1933C3.25831 10.9704 3.09966 10.7802 2.89744 10.6463C2.69522 10.5124 2.45825 10.4405 2.2157 10.4396H2.08757C1.68776 10.4396 1.30432 10.2807 1.02161 9.99802C0.738903 9.71531 0.580078 9.33187 0.580078 8.93206C0.580078 8.53225 0.738903 8.14881 1.02161 7.8661C1.30432 7.5834 1.68776 7.42457 2.08757 7.42457H2.15541C2.40489 7.41874 2.64685 7.33798 2.84983 7.1928C3.05281 7.04763 3.20742 6.84474 3.29356 6.61053C3.3939 6.38319 3.42382 6.131 3.37949 5.88649C3.33516 5.64198 3.21859 5.41635 3.04482 5.23871L2.9996 5.19349C2.85944 5.05348 2.74825 4.88722 2.67238 4.70422C2.59652 4.52121 2.55747 4.32504 2.55747 4.12694C2.55747 3.92883 2.59652 3.73266 2.67238 3.54966C2.74825 3.36665 2.85944 3.20039 2.9996 3.06039C3.1396 2.92023 3.30586 2.80904 3.48887 2.73317C3.67188 2.65731 3.86804 2.61826 4.06615 2.61826C4.26426 2.61826 4.46042 2.65731 4.64343 2.73317C4.82643 2.80904 4.99269 2.92023 5.1327 3.06039L5.17792 3.10561C5.35556 3.27938 5.58119 3.39594 5.8257 3.44028C6.07021 3.48461 6.3224 3.45468 6.54974 3.35435H6.61004C6.83297 3.2588 7.0231 3.10015 7.15703 2.89793C7.29095 2.69571 7.36282 2.45874 7.36378 2.21619V2.08806C7.36378 1.68825 7.52261 1.30481 7.80532 1.0221C8.08803 0.739391 8.47146 0.580566 8.87127 0.580566C9.27108 0.580566 9.65452 0.739391 9.93723 1.0221C10.2199 1.30481 10.3788 1.68825 10.3788 2.08806V2.15589C10.3797 2.39844 10.4516 2.63541 10.5855 2.83763C10.7194 3.03985 10.9096 3.1985 11.1325 3.29405C11.3598 3.39438 11.612 3.42431 11.8565 3.37998C12.1011 3.33564 12.3267 3.21908 12.5043 3.04531L12.5495 3.00009C12.6896 2.85993 12.8558 2.74874 13.0388 2.67287C13.2218 2.59701 13.418 2.55796 13.6161 2.55796C13.8142 2.55796 14.0104 2.59701 14.1934 2.67287C14.3764 2.74874 14.5426 2.85993 14.6826 3.00009C14.8228 3.14009 14.934 3.30635 15.0099 3.48936C15.0857 3.67236 15.1248 3.86853 15.1248 4.06664C15.1248 4.26474 15.0857 4.46091 15.0099 4.64392C14.934 4.82692 14.8228 4.99318 14.6826 5.13319L14.6374 5.17841C14.4637 5.35605 14.3471 5.58168 14.3028 5.82619C14.2584 6.0707 14.2884 6.32289 14.3887 6.55023V6.61053C14.4842 6.83346 14.6429 7.02359 14.8451 7.15751C15.0473 7.29144 15.2843 7.3633 15.5268 7.36427H15.655C16.0548 7.36427 16.4382 7.5231 16.7209 7.80581C17.0036 8.08851 17.1625 8.47195 17.1625 8.87176C17.1625 9.27157 17.0036 9.65501 16.7209 9.93772C16.4382 10.2204 16.0548 10.3793 15.655 10.3793H15.5871C15.3446 10.3802 15.1076 10.4521 14.9054 10.586C14.7032 10.7199 14.5445 10.9101 14.449 11.133Z" stroke="#171717" stroke-width="1.16077" stroke-linecap="round" stroke-linejoin="round"/>
</svg>
