<svg width="284" height="69" viewBox="0 0 284 69" fill="none" xmlns="http://www.w3.org/2000/svg">
<path d="M0.680749 55.7809V55.4122H4.09868V55.7809L3.31865 55.866C3.16737 55.8755 3.07755 55.9133 3.04919 55.9795C3.02082 56.0362 3.00664 56.2301 3.00664 56.561V60.7306L6.55221 56.4759C6.78858 56.2017 6.90677 56.0362 6.90677 55.9795C6.91622 55.9133 6.84058 55.8755 6.67985 55.866L5.95655 55.7809V55.4122H8.65119V55.7809L7.92789 55.866C7.83334 55.8755 7.7577 55.8944 7.70097 55.9228C7.64424 55.9417 7.57806 55.9937 7.50242 56.0788C7.43624 56.1544 7.32278 56.2868 7.16205 56.4759L4.94961 59.1421L7.64425 63.9074C7.76716 64.1248 7.85698 64.2809 7.91371 64.3754C7.97989 64.47 8.04608 64.5314 8.11226 64.5598C8.17844 64.5787 8.26827 64.5929 8.38172 64.6023L9.06247 64.6874V65.0562H6.85004L4.12704 60.1349L3.00664 61.468V63.9074C3.00664 64.2383 3.02082 64.4321 3.04919 64.4889C3.07755 64.5456 3.16737 64.5834 3.31865 64.6023L4.09868 64.6874V65.0562H0.680749V64.6874L1.46077 64.6023C1.61205 64.5834 1.70187 64.5456 1.73024 64.4889C1.7586 64.4321 1.77278 64.2383 1.77278 63.9074V56.561C1.77278 56.2301 1.7586 56.0362 1.73024 55.9795C1.70187 55.9133 1.61205 55.8755 1.46077 55.866L0.680749 55.7809ZM17.5513 64.6874V65.0562H14.2043V64.6874L14.9843 64.6023C15.1356 64.5834 15.2254 64.5456 15.2538 64.4889C15.2822 64.4321 15.2964 64.2383 15.2964 63.9074V60.376C15.2964 59.6763 15.1829 59.1847 14.956 58.901C14.7291 58.6079 14.4029 58.4614 13.9774 58.4614C13.6654 58.4614 13.3203 58.5559 12.9421 58.745C12.5639 58.9341 12.2093 59.3029 11.8784 59.8513V63.9074C11.8784 64.2383 11.8926 64.4321 11.921 64.4889C11.9493 64.5456 12.0392 64.5834 12.1904 64.6023L12.9705 64.6874V65.0562H9.62345V64.6874L10.4035 64.6023C10.5547 64.5834 10.6446 64.5456 10.6729 64.4889C10.7013 64.4321 10.7155 64.2383 10.7155 63.9074V59.1847C10.7155 58.8538 10.7013 58.6599 10.6729 58.6032C10.6446 58.5465 10.5547 58.5087 10.4035 58.4898L9.62345 58.4188V58.0359H11.8075V59.1847C12.1479 58.7309 12.5308 58.4047 12.9563 58.2061C13.3912 57.9981 13.8261 57.8941 14.2611 57.8941C14.9607 57.8941 15.4996 58.1116 15.8778 58.5465C16.2655 58.972 16.4593 59.5771 16.4593 60.3618V63.9074C16.4593 64.2383 16.4735 64.4321 16.5018 64.4889C16.5302 64.5456 16.62 64.5834 16.7713 64.6023L17.5513 64.6874ZM24.9004 61.3971V61.6808C24.9004 62.7492 24.6309 63.6048 24.092 64.2478C23.5626 64.8812 22.8062 65.198 21.8229 65.198C20.849 65.198 20.0926 64.8812 19.5537 64.2478C19.0242 63.6048 18.7595 62.7492 18.7595 61.6808V61.3971C18.7595 60.3382 19.0242 59.492 19.5537 58.8585C20.0832 58.2156 20.8396 57.8941 21.8229 57.8941C22.8062 57.8941 23.5626 58.2156 24.092 58.8585C24.6309 59.492 24.9004 60.3382 24.9004 61.3971ZM23.624 61.1135C23.624 60.1302 23.468 59.4258 23.156 59.0003C22.8534 58.5654 22.4091 58.3479 21.8229 58.3479C21.2461 58.3479 20.8017 58.5654 20.4897 59.0003C20.1872 59.4258 20.0359 60.1302 20.0359 61.1135V61.9644C20.0359 62.9572 20.1872 63.671 20.4897 64.1059C20.8017 64.5314 21.2461 64.7441 21.8229 64.7441C22.4091 64.7441 22.8534 64.5314 23.156 64.1059C23.468 63.671 23.624 62.9572 23.624 61.9644V61.1135ZM35.4229 59.0996L33.8345 65.0562H32.9126L31.0547 59.1989L29.1969 65.0562H28.3176L26.7433 59.0996C26.6772 58.8254 26.6204 58.6599 26.5731 58.6032C26.5353 58.5465 26.4408 58.5087 26.2895 58.4898L25.5662 58.4188V58.0359H28.7856V58.4188L28.0481 58.4898C27.8968 58.5087 27.8117 58.5465 27.7928 58.6032C27.7834 58.6599 27.8165 58.8254 27.8921 59.0996L29.1118 63.7797L30.9129 58.0359H31.8348L33.6643 63.8648L34.8981 59.0996C34.9738 58.8254 35.0021 58.6599 34.9832 58.6032C34.9738 58.5465 34.8934 58.5087 34.7421 58.4898L34.0047 58.4188V58.0359H36.6V58.4188L35.8767 58.4898C35.7349 58.5087 35.6403 58.5465 35.5931 58.6032C35.5553 58.6599 35.4985 58.8254 35.4229 59.0996ZM36.8223 54.9442V54.5613H39.0773V63.9074C39.0773 64.2383 39.0914 64.4321 39.1198 64.4889C39.1482 64.5456 39.238 64.5834 39.3893 64.6023L40.1693 64.6874V65.0562H36.8223V64.6874L37.6023 64.6023C37.7536 64.5834 37.8434 64.5456 37.8718 64.4889C37.9001 64.4321 37.9143 64.2383 37.9143 63.9074V55.71C37.9143 55.3791 37.9001 55.1853 37.8718 55.1286C37.8434 55.0718 37.7536 55.034 37.6023 55.0151L36.8223 54.9442ZM47.1182 63.4394C46.948 64.0823 46.6265 64.5361 46.1538 64.8009C45.6905 65.0656 45.1752 65.198 44.6079 65.198C43.5584 65.198 42.7737 64.8812 42.2536 64.2478C41.7336 63.6048 41.4736 62.7492 41.4736 61.6808V61.3971C41.4736 60.3382 41.7242 59.492 42.2253 58.8585C42.7264 58.2156 43.4544 57.8941 44.4093 57.8941C44.9199 57.8941 45.3832 57.9981 45.7992 58.2061C46.2247 58.4141 46.5603 58.7214 46.8062 59.128C47.0614 59.5345 47.1891 60.0404 47.1891 60.6455C47.1891 60.9291 47.1607 61.2269 47.104 61.5389H42.75V61.9644C42.75 62.9572 42.9013 63.671 43.2039 64.1059C43.5159 64.5314 44.017 64.7441 44.7072 64.7441C45.1421 64.7441 45.5014 64.6307 45.785 64.4038C46.0781 64.1769 46.272 63.7845 46.3665 63.2266L47.1182 63.4394ZM44.4093 58.3479C43.8515 58.3479 43.4355 58.5607 43.1613 58.9861C42.8871 59.4116 42.75 60.1113 42.75 61.0851H45.941V61.0426C45.9599 60.9197 45.9741 60.8015 45.9836 60.688C45.993 60.5651 45.9978 60.4564 45.9978 60.3618C45.9978 59.6527 45.8512 59.1421 45.5581 58.8301C45.265 58.5087 44.8821 58.3479 44.4093 58.3479ZM55.86 64.7016V65.0562H53.6759V63.9358C53.3828 64.3707 53.0566 64.6921 52.6973 64.9001C52.3475 65.0987 51.9551 65.198 51.5202 65.198C50.7071 65.198 50.0736 64.8954 49.6198 64.2903C49.1754 63.6757 48.9532 62.8106 48.9532 61.695V61.4113C48.9532 60.3429 49.2132 59.492 49.7332 58.8585C50.2627 58.2156 50.986 57.8941 51.9031 57.8941C52.5744 57.8941 53.1417 58.1021 53.605 58.5181V55.71C53.605 55.3791 53.5908 55.1853 53.5625 55.1286C53.5341 55.0718 53.4443 55.034 53.293 55.0151L52.513 54.9442V54.5613H54.7679V63.9074C54.7679 64.2383 54.7821 64.4321 54.8105 64.4889C54.8389 64.5456 54.9287 64.5834 55.08 64.6023L55.86 64.7016ZM50.2296 62.1204C50.2296 63.0092 50.3573 63.6616 50.6125 64.0776C50.8773 64.4936 51.2413 64.7016 51.7046 64.7016C52.0071 64.7016 52.3191 64.607 52.6406 64.418C52.9621 64.2289 53.2835 63.8459 53.605 63.2692V59.2131C53.189 58.6552 52.6453 58.3763 51.974 58.3763C51.3689 58.3763 50.9246 58.6079 50.6409 59.0712C50.3667 59.5345 50.2296 60.1727 50.2296 60.9858V62.1204ZM63.3635 65.8787C63.3635 66.6351 63.0846 67.2119 62.5268 67.609C61.9784 68.0155 61.2125 68.2188 60.2292 68.2188C59.1514 68.2188 58.3619 68.0297 57.8608 67.6515C57.3597 67.2828 57.0997 66.8148 57.0808 66.2475L58.1303 66.0347C58.0924 66.5547 58.2295 66.9708 58.5415 67.2828C58.863 67.6042 59.4256 67.765 60.2292 67.765C60.9478 67.765 61.5245 67.6326 61.9595 67.3679C62.4038 67.1031 62.626 66.7155 62.626 66.2049C62.626 65.8267 62.4984 65.5431 62.2431 65.354C61.9878 65.1649 61.5671 65.0703 60.9809 65.0703H59.2932C58.6597 65.0703 58.2153 64.938 57.9601 64.6732C57.7048 64.399 57.5771 64.0965 57.5771 63.7656C57.5771 63.4914 57.6433 63.2361 57.7757 62.9997C57.9175 62.7539 58.1397 62.5128 58.4423 62.2764C58.0641 62.0968 57.7568 61.8368 57.5204 61.4964C57.284 61.1466 57.1659 60.7258 57.1659 60.2342C57.1659 59.7142 57.284 59.284 57.5204 58.9436C57.7662 58.5938 58.0877 58.3338 58.4848 58.1636C58.8914 57.9839 59.3405 57.8941 59.8321 57.8941H60.0732C60.5932 57.8941 61.0565 57.9887 61.4631 58.1778L63.5195 57.4686L63.6755 58.5323H62.0162C62.2337 58.7214 62.4038 58.9578 62.5268 59.2414C62.6591 59.5251 62.7253 59.856 62.7253 60.2342C62.7253 60.7353 62.6024 61.1608 62.3566 61.5106C62.1202 61.8604 61.8035 62.1251 61.4064 62.3048C61.0093 62.475 60.5649 62.5601 60.0732 62.5601H59.8321C59.6714 62.5601 59.5154 62.5506 59.3641 62.5317C59.2128 62.5128 59.0663 62.4844 58.9245 62.4466C58.7165 62.5884 58.5652 62.735 58.4706 62.8863C58.3855 63.0375 58.343 63.1935 58.343 63.3543C58.343 63.5434 58.4092 63.6947 58.5415 63.8081C58.6834 63.9216 58.9056 63.9783 59.2081 63.9783H61.0518C61.7987 63.9783 62.3708 64.139 62.7679 64.4605C63.165 64.782 63.3635 65.2547 63.3635 65.8787ZM60.0732 62.1062C60.3285 62.1062 60.5601 62.0495 60.7682 61.9361C60.9856 61.8226 61.1605 61.6335 61.2929 61.3688C61.4253 61.0946 61.4915 60.7164 61.4915 60.2342C61.4915 59.7425 61.4253 59.3643 61.2929 59.0996C61.1605 58.8254 60.9856 58.6316 60.7682 58.5181C60.5601 58.4047 60.3285 58.3479 60.0732 58.3479H59.8321C59.5768 58.3479 59.3405 58.4047 59.123 58.5181C58.9056 58.6316 58.7306 58.8254 58.5983 59.0996C58.4659 59.3643 58.3997 59.7425 58.3997 60.2342C58.3997 60.7164 58.4659 61.0946 58.5983 61.3688C58.7306 61.6335 58.9056 61.8226 59.123 61.9361C59.3405 62.0495 59.5768 62.1062 59.8321 62.1062H60.0732ZM70.4552 63.4394C70.285 64.0823 69.9636 64.5361 69.4908 64.8009C69.0275 65.0656 68.5122 65.198 67.9449 65.198C66.8955 65.198 66.1107 64.8812 65.5907 64.2478C65.0707 63.6048 64.8107 62.7492 64.8107 61.6808V61.3971C64.8107 60.3382 65.0612 59.492 65.5623 58.8585C66.0634 58.2156 66.7914 57.8941 67.7464 57.8941C68.257 57.8941 68.7202 57.9981 69.1363 58.2061C69.5617 58.4141 69.8974 58.7214 70.1432 59.128C70.3985 59.5345 70.5261 60.0404 70.5261 60.6455C70.5261 60.9291 70.4977 61.2269 70.441 61.5389H66.0871V61.9644C66.0871 62.9572 66.2383 63.671 66.5409 64.1059C66.8529 64.5314 67.354 64.7441 68.0442 64.7441C68.4791 64.7441 68.8384 64.6307 69.1221 64.4038C69.4152 64.1769 69.609 63.7845 69.7035 63.2266L70.4552 63.4394ZM67.7464 58.3479C67.1886 58.3479 66.7725 58.5607 66.4983 58.9861C66.2242 59.4116 66.0871 60.1113 66.0871 61.0851H69.2781V61.0426C69.297 60.9197 69.3112 60.8015 69.3206 60.688C69.3301 60.5651 69.3348 60.4564 69.3348 60.3618C69.3348 59.6527 69.1883 59.1421 68.8952 58.8301C68.6021 58.5087 68.2191 58.3479 67.7464 58.3479ZM73.8671 64.5881C73.8671 65.0136 73.7253 65.51 73.4417 66.0773C73.1675 66.6446 72.7846 67.2166 72.2929 67.7933L71.9809 67.5381C72.3686 67.0653 72.6475 66.6304 72.8177 66.2333C72.9878 65.8456 73.0824 65.5005 73.1013 65.198H73.0871C72.8602 65.198 72.6758 65.1271 72.534 64.9852C72.3922 64.8434 72.3213 64.659 72.3213 64.4321C72.3213 64.2052 72.3922 64.0208 72.534 63.879C72.6758 63.7372 72.8602 63.6663 73.0871 63.6663C73.314 63.6663 73.4984 63.7467 73.6402 63.9074C73.7915 64.0587 73.8671 64.2856 73.8671 64.5881ZM82.864 65.198C81.6633 65.198 80.7461 64.7961 80.1127 63.9925C79.4886 63.1888 79.1766 62.111 79.1766 60.7589V59.6953C79.1766 58.8065 79.309 58.0312 79.5737 57.3694C79.8479 56.7075 80.2498 56.1922 80.7792 55.8235C81.3087 55.4548 81.9564 55.2704 82.7222 55.2704C83.4313 55.2704 84.0175 55.4122 84.4808 55.6959C84.9441 55.97 85.2797 56.3341 85.4877 56.7879C85.6957 57.2323 85.7619 57.7192 85.6863 58.2487L84.4666 58.5465C84.5706 57.6388 84.4666 56.9439 84.1546 56.4617C83.8426 55.97 83.3651 55.7242 82.7222 55.7242C82.0036 55.7242 81.4553 55.9795 81.0771 56.4901C80.7083 57.0006 80.5239 57.8326 80.5239 58.9861V61.468C80.5239 62.631 80.7225 63.4677 81.1196 63.9783C81.5167 64.4889 82.1076 64.7441 82.8924 64.7441C83.2044 64.7441 83.5022 64.6921 83.7859 64.5881C84.0695 64.4747 84.3106 64.2856 84.5092 64.0208C84.7077 63.7561 84.8306 63.3874 84.8779 62.9146L85.7572 63.1415C85.5492 63.8979 85.1805 64.4321 84.651 64.7441C84.131 65.0467 83.5353 65.198 82.864 65.198ZM93.4019 61.3971V61.6808C93.4019 62.7492 93.1324 63.6048 92.5935 64.2478C92.064 64.8812 91.3076 65.198 90.3243 65.198C89.3505 65.198 88.5941 64.8812 88.0552 64.2478C87.5257 63.6048 87.261 62.7492 87.261 61.6808V61.3971C87.261 60.3382 87.5257 59.492 88.0552 58.8585C88.5846 58.2156 89.341 57.8941 90.3243 57.8941C91.3076 57.8941 92.064 58.2156 92.5935 58.8585C93.1324 59.492 93.4019 60.3382 93.4019 61.3971ZM92.1255 61.1135C92.1255 60.1302 91.9695 59.4258 91.6575 59.0003C91.3549 58.5654 90.9105 58.3479 90.3243 58.3479C89.7476 58.3479 89.3032 58.5654 88.9912 59.0003C88.6887 59.4258 88.5374 60.1302 88.5374 61.1135V61.9644C88.5374 62.9572 88.6887 63.671 88.9912 64.1059C89.3032 64.5314 89.7476 64.7441 90.3243 64.7441C90.9105 64.7441 91.3549 64.5314 91.6575 64.1059C91.9695 63.671 92.1255 62.9572 92.1255 61.9644V61.1135ZM94.6732 54.9442V54.5613H96.9282V63.9074C96.9282 64.2383 96.9424 64.4321 96.9707 64.4889C96.9991 64.5456 97.0889 64.5834 97.2402 64.6023L98.0202 64.6874V65.0562H94.6732V64.6874L95.4532 64.6023C95.6045 64.5834 95.6943 64.5456 95.7227 64.4889C95.7511 64.4321 95.7652 64.2383 95.7652 63.9074V55.71C95.7652 55.3791 95.7511 55.1853 95.7227 55.1286C95.6943 55.0718 95.6045 55.034 95.4532 55.0151L94.6732 54.9442ZM98.8282 54.9442V54.5613H101.083V63.9074C101.083 64.2383 101.097 64.4321 101.126 64.4889C101.154 64.5456 101.244 64.5834 101.395 64.6023L102.175 64.6874V65.0562H98.8282V64.6874L99.6082 64.6023C99.7595 64.5834 99.8493 64.5456 99.8777 64.4889C99.906 64.4321 99.9202 64.2383 99.9202 63.9074V55.71C99.9202 55.3791 99.906 55.1853 99.8777 55.1286C99.8493 55.0718 99.7595 55.034 99.6082 55.0151L98.8282 54.9442ZM108.925 65.1554C108.188 65.1554 107.753 64.8151 107.621 64.1343C107.29 64.5125 106.926 64.7867 106.529 64.9569C106.132 65.1176 105.739 65.198 105.352 65.198C104.69 65.198 104.203 65.0136 103.891 64.6449C103.579 64.2761 103.423 63.8317 103.423 63.3117C103.423 62.7539 103.612 62.3142 103.99 61.9928C104.378 61.6619 105.044 61.4964 105.99 61.4964H107.592V60.3476C107.592 59.5912 107.46 59.0712 107.195 58.7876C106.94 58.4945 106.59 58.3479 106.146 58.3479C105.862 58.3479 105.607 58.4047 105.38 58.5181C105.153 58.6316 104.988 58.8396 104.884 59.1421C104.789 59.4352 104.78 59.8654 104.855 60.4327L103.735 60.2625C103.688 59.8182 103.744 59.4211 103.905 59.0712C104.075 58.7119 104.349 58.4283 104.728 58.2203C105.115 58.0028 105.597 57.8941 106.174 57.8941C106.864 57.8941 107.394 58.0123 107.763 58.2487C108.131 58.4756 108.387 58.7734 108.528 59.1421C108.68 59.5109 108.755 59.9127 108.755 60.3476V63.5386C108.755 64.0208 108.807 64.3234 108.911 64.4463C109.025 64.5692 109.148 64.6307 109.28 64.6307C109.365 64.6307 109.455 64.6118 109.55 64.574C109.644 64.5267 109.748 64.4558 109.862 64.3612L110.117 64.7158C109.975 64.8387 109.805 64.9427 109.606 65.0278C109.417 65.1129 109.19 65.1554 108.925 65.1554ZM105.749 64.6023C106.013 64.6023 106.297 64.5314 106.6 64.3896C106.912 64.2383 107.243 63.9405 107.592 63.4961V61.9502H106.146C105.616 61.9502 105.229 62.059 104.983 62.2764C104.746 62.4844 104.628 62.8106 104.628 63.255C104.628 63.6805 104.718 64.0114 104.898 64.2478C105.087 64.4841 105.37 64.6023 105.749 64.6023ZM110.543 54.9442V54.5613H112.798V59.0571C113.072 58.6505 113.384 58.3574 113.734 58.1778C114.084 57.9887 114.462 57.8941 114.868 57.8941C115.682 57.8941 116.31 58.2014 116.755 58.816C117.208 59.4305 117.435 60.2909 117.435 61.3971V61.6808C117.435 62.7586 117.175 63.6143 116.655 64.2478C116.145 64.8812 115.426 65.198 114.5 65.198C113.762 65.198 113.157 64.9569 112.684 64.4747C112.552 64.5503 112.429 64.6449 112.316 64.7583C112.202 64.8718 112.089 64.9947 111.975 65.1271H111.635V55.71C111.635 55.3791 111.621 55.1853 111.592 55.1286C111.564 55.0718 111.474 55.034 111.323 55.0151L110.543 54.9442ZM114.684 58.4047C114.391 58.4047 114.084 58.4992 113.762 58.6883C113.45 58.8774 113.129 59.2603 112.798 59.8371V63.8932C113.204 64.451 113.743 64.73 114.415 64.73C115.029 64.73 115.474 64.4983 115.748 64.035C116.022 63.5623 116.159 62.9194 116.159 62.1062V60.9717C116.159 60.0829 116.031 59.4352 115.776 59.0287C115.521 58.6127 115.157 58.4047 114.684 58.4047ZM125.395 61.3971V61.6808C125.395 62.7492 125.126 63.6048 124.587 64.2478C124.057 64.8812 123.301 65.198 122.318 65.198C121.344 65.198 120.587 64.8812 120.048 64.2478C119.519 63.6048 119.254 62.7492 119.254 61.6808V61.3971C119.254 60.3382 119.519 59.492 120.048 58.8585C120.578 58.2156 121.334 57.8941 122.318 57.8941C123.301 57.8941 124.057 58.2156 124.587 58.8585C125.126 59.492 125.395 60.3382 125.395 61.3971ZM124.119 61.1135C124.119 60.1302 123.963 59.4258 123.651 59.0003C123.348 58.5654 122.904 58.3479 122.318 58.3479C121.741 58.3479 121.296 58.5654 120.984 59.0003C120.682 59.4258 120.531 60.1302 120.531 61.1135V61.9644C120.531 62.9572 120.682 63.671 120.984 64.1059C121.296 64.5314 121.741 64.7441 122.318 64.7441C122.904 64.7441 123.348 64.5314 123.651 64.1059C123.963 63.671 124.119 62.9572 124.119 61.9644V61.1135ZM126.766 58.4188V58.0359H128.95V59.1705C129.281 58.7261 129.612 58.4047 129.943 58.2061C130.283 57.9981 130.628 57.8941 130.978 57.8941C131.28 57.8941 131.564 57.9839 131.829 58.1636C132.093 58.3432 132.316 58.6316 132.495 59.0287L131.573 59.5818C131.432 59.2414 131.271 59.005 131.091 58.8727C130.912 58.7403 130.713 58.6741 130.496 58.6741C130.259 58.6741 130.023 58.7498 129.787 58.901C129.56 59.0523 129.304 59.336 129.021 59.752V63.9074C129.021 64.2383 129.035 64.4369 129.063 64.503C129.092 64.5598 129.181 64.5929 129.333 64.6023L130.396 64.6874V65.0562H126.766V64.6874L127.546 64.6023C127.697 64.5834 127.787 64.5456 127.815 64.4889C127.844 64.4321 127.858 64.2383 127.858 63.9074V59.1847C127.858 58.8538 127.844 58.6599 127.815 58.6032C127.787 58.5465 127.697 58.5087 127.546 58.4898L126.766 58.4188ZM138.814 65.1554C138.076 65.1554 137.641 64.8151 137.509 64.1343C137.178 64.5125 136.814 64.7867 136.417 64.9569C136.02 65.1176 135.627 65.198 135.24 65.198C134.578 65.198 134.091 65.0136 133.779 64.6449C133.467 64.2761 133.311 63.8317 133.311 63.3117C133.311 62.7539 133.5 62.3142 133.878 61.9928C134.266 61.6619 134.932 61.4964 135.878 61.4964H137.48V60.3476C137.48 59.5912 137.348 59.0712 137.083 58.7876C136.828 58.4945 136.478 58.3479 136.034 58.3479C135.75 58.3479 135.495 58.4047 135.268 58.5181C135.041 58.6316 134.876 58.8396 134.772 59.1421C134.677 59.4352 134.668 59.8654 134.743 60.4327L133.623 60.2625C133.576 59.8182 133.632 59.4211 133.793 59.0712C133.963 58.7119 134.237 58.4283 134.616 58.2203C135.003 58.0028 135.485 57.8941 136.062 57.8941C136.752 57.8941 137.282 58.0123 137.651 58.2487C138.019 58.4756 138.275 58.7734 138.416 59.1421C138.568 59.5109 138.643 59.9127 138.643 60.3476V63.5386C138.643 64.0208 138.695 64.3234 138.799 64.4463C138.913 64.5692 139.036 64.6307 139.168 64.6307C139.253 64.6307 139.343 64.6118 139.438 64.574C139.532 64.5267 139.636 64.4558 139.75 64.3612L140.005 64.7158C139.863 64.8387 139.693 64.9427 139.494 65.0278C139.305 65.1129 139.078 65.1554 138.814 65.1554ZM135.637 64.6023C135.901 64.6023 136.185 64.5314 136.488 64.3896C136.8 64.2383 137.131 63.9405 137.48 63.4961V61.9502H136.034C135.504 61.9502 135.117 62.059 134.871 62.2764C134.634 62.4844 134.516 62.8106 134.516 63.255C134.516 63.6805 134.606 64.0114 134.786 64.2478C134.975 64.4841 135.259 64.6023 135.637 64.6023ZM145.31 63.6096C145.168 64.1579 144.946 64.5598 144.643 64.8151C144.34 65.0703 143.953 65.198 143.48 65.198C143.026 65.198 142.657 65.0987 142.374 64.9001C142.09 64.6921 141.882 64.4227 141.75 64.0918C141.617 63.7608 141.551 63.4157 141.551 63.0565V59.1847C141.551 58.8538 141.537 58.6599 141.509 58.6032C141.49 58.5465 141.4 58.5087 141.239 58.4898L140.459 58.4188V58.0359H141.551V56.178L142.714 55.937V58.0359H145.026V58.4898H142.714V63.1699C142.714 63.7656 142.795 64.1769 142.955 64.4038C143.126 64.6307 143.348 64.7441 143.622 64.7441C143.896 64.7441 144.104 64.6401 144.246 64.4321C144.397 64.2241 144.506 63.8838 144.572 63.411L145.31 63.6096ZM147.773 56.4475C147.546 56.4475 147.357 56.3766 147.206 56.2348C147.064 56.0835 146.993 55.8897 146.993 55.6533C146.993 55.4264 147.064 55.242 147.206 55.1002C147.357 54.9584 147.546 54.8875 147.773 54.8875C148 54.8875 148.185 54.9584 148.326 55.1002C148.478 55.242 148.553 55.4264 148.553 55.6533C148.553 55.8897 148.478 56.0835 148.326 56.2348C148.185 56.3766 148 56.4475 147.773 56.4475ZM146.114 58.4188V58.0359H148.369V63.9074C148.369 64.2383 148.383 64.4321 148.411 64.4889C148.44 64.5456 148.53 64.5834 148.681 64.6023L149.461 64.6874V65.0562H146.114V64.6874L146.894 64.6023C147.045 64.5834 147.135 64.5456 147.163 64.4889C147.192 64.4321 147.206 64.2383 147.206 63.9074V59.1847C147.206 58.8538 147.192 58.6599 147.163 58.6032C147.135 58.5465 147.045 58.5087 146.894 58.4898L146.114 58.4188ZM156.876 61.3971V61.6808C156.876 62.7492 156.606 63.6048 156.067 64.2478C155.538 64.8812 154.782 65.198 153.798 65.198C152.824 65.198 152.068 64.8812 151.529 64.2478C151 63.6048 150.735 62.7492 150.735 61.6808V61.3971C150.735 60.3382 151 59.492 151.529 58.8585C152.059 58.2156 152.815 57.8941 153.798 57.8941C154.782 57.8941 155.538 58.2156 156.067 58.8585C156.606 59.492 156.876 60.3382 156.876 61.3971ZM155.599 61.1135C155.599 60.1302 155.443 59.4258 155.131 59.0003C154.829 58.5654 154.385 58.3479 153.798 58.3479C153.222 58.3479 152.777 58.5654 152.465 59.0003C152.163 59.4258 152.011 60.1302 152.011 61.1135V61.9644C152.011 62.9572 152.163 63.671 152.465 64.1059C152.777 64.5314 153.222 64.7441 153.798 64.7441C154.385 64.7441 154.829 64.5314 155.131 64.1059C155.443 63.671 155.599 62.9572 155.599 61.9644V61.1135ZM166.174 64.6874V65.0562H162.827V64.6874L163.607 64.6023C163.759 64.5834 163.848 64.5456 163.877 64.4889C163.905 64.4321 163.919 64.2383 163.919 63.9074V60.376C163.919 59.6763 163.806 59.1847 163.579 58.901C163.352 58.6079 163.026 58.4614 162.6 58.4614C162.288 58.4614 161.943 58.5559 161.565 58.745C161.187 58.9341 160.832 59.3029 160.501 59.8513V63.9074C160.501 64.2383 160.516 64.4321 160.544 64.4889C160.572 64.5456 160.662 64.5834 160.813 64.6023L161.593 64.6874V65.0562H158.246V64.6874L159.026 64.6023C159.178 64.5834 159.268 64.5456 159.296 64.4889C159.324 64.4321 159.338 64.2383 159.338 63.9074V59.1847C159.338 58.8538 159.324 58.6599 159.296 58.6032C159.268 58.5465 159.178 58.5087 159.026 58.4898L158.246 58.4188V58.0359H160.431V59.1847C160.771 58.7309 161.154 58.4047 161.579 58.2061C162.014 57.9981 162.449 57.8941 162.884 57.8941C163.584 57.8941 164.123 58.1116 164.501 58.5465C164.888 58.972 165.082 59.5771 165.082 60.3618V63.9074C165.082 64.2383 165.096 64.4321 165.125 64.4889C165.153 64.5456 165.243 64.5834 165.394 64.6023L166.174 64.6874ZM176.056 65.1554C175.318 65.1554 174.883 64.8151 174.751 64.1343C174.42 64.5125 174.056 64.7867 173.659 64.9569C173.262 65.1176 172.87 65.198 172.482 65.198C171.82 65.198 171.333 65.0136 171.021 64.6449C170.709 64.2761 170.553 63.8317 170.553 63.3117C170.553 62.7539 170.742 62.3142 171.12 61.9928C171.508 61.6619 172.175 61.4964 173.12 61.4964H174.723V60.3476C174.723 59.5912 174.59 59.0712 174.326 58.7876C174.07 58.4945 173.72 58.3479 173.276 58.3479C172.992 58.3479 172.737 58.4047 172.51 58.5181C172.283 58.6316 172.118 58.8396 172.014 59.1421C171.919 59.4352 171.91 59.8654 171.986 60.4327L170.865 60.2625C170.818 59.8182 170.875 59.4211 171.035 59.0712C171.206 58.7119 171.48 58.4283 171.858 58.2203C172.246 58.0028 172.728 57.8941 173.304 57.8941C173.995 57.8941 174.524 58.0123 174.893 58.2487C175.262 58.4756 175.517 58.7734 175.659 59.1421C175.81 59.5109 175.886 59.9127 175.886 60.3476V63.5386C175.886 64.0208 175.938 64.3234 176.042 64.4463C176.155 64.5692 176.278 64.6307 176.41 64.6307C176.495 64.6307 176.585 64.6118 176.68 64.574C176.774 64.5267 176.878 64.4558 176.992 64.3612L177.247 64.7158C177.105 64.8387 176.935 64.9427 176.737 65.0278C176.547 65.1129 176.321 65.1554 176.056 65.1554ZM172.879 64.6023C173.144 64.6023 173.427 64.5314 173.73 64.3896C174.042 64.2383 174.373 63.9405 174.723 63.4961V61.9502H173.276C172.747 61.9502 172.359 62.059 172.113 62.2764C171.877 62.4844 171.759 62.8106 171.759 63.255C171.759 63.6805 171.848 64.0114 172.028 64.2478C172.217 64.4841 172.501 64.6023 172.879 64.6023ZM185.8 64.6874V65.0562H182.453V64.6874L183.233 64.6023C183.384 64.5834 183.474 64.5456 183.502 64.4889C183.53 64.4321 183.545 64.2383 183.545 63.9074V60.376C183.545 59.6763 183.431 59.1847 183.204 58.901C182.977 58.6079 182.651 58.4614 182.226 58.4614C181.914 58.4614 181.569 58.5559 181.19 58.745C180.812 58.9341 180.458 59.3029 180.127 59.8513V63.9074C180.127 64.2383 180.141 64.4321 180.169 64.4889C180.198 64.5456 180.287 64.5834 180.439 64.6023L181.219 64.6874V65.0562H177.872V64.6874L178.652 64.6023C178.803 64.5834 178.893 64.5456 178.921 64.4889C178.95 64.4321 178.964 64.2383 178.964 63.9074V59.1847C178.964 58.8538 178.95 58.6599 178.921 58.6032C178.893 58.5465 178.803 58.5087 178.652 58.4898L177.872 58.4188V58.0359H180.056V59.1847C180.396 58.7309 180.779 58.4047 181.205 58.2061C181.639 57.9981 182.074 57.8941 182.509 57.8941C183.209 57.8941 183.748 58.1116 184.126 58.5465C184.514 58.972 184.708 59.5771 184.708 60.3618V63.9074C184.708 64.2383 184.722 64.4321 184.75 64.4889C184.778 64.5456 184.868 64.5834 185.02 64.6023L185.8 64.6874ZM193.957 64.7016V65.0562H191.773V63.9358C191.48 64.3707 191.154 64.6921 190.794 64.9001C190.445 65.0987 190.052 65.198 189.617 65.198C188.804 65.198 188.171 64.8954 187.717 64.2903C187.273 63.6757 187.05 62.8106 187.05 61.695V61.4113C187.05 60.3429 187.31 59.492 187.83 58.8585C188.36 58.2156 189.083 57.8941 190 57.8941C190.672 57.8941 191.239 58.1021 191.702 58.5181V55.71C191.702 55.3791 191.688 55.1853 191.66 55.1286C191.631 55.0718 191.541 55.034 191.39 55.0151L190.61 54.9442V54.5613H192.865V63.9074C192.865 64.2383 192.879 64.4321 192.908 64.4889C192.936 64.5456 193.026 64.5834 193.177 64.6023L193.957 64.7016ZM188.327 62.1204C188.327 63.0092 188.454 63.6616 188.71 64.0776C188.974 64.4936 189.338 64.7016 189.802 64.7016C190.104 64.7016 190.416 64.607 190.738 64.418C191.059 64.2289 191.381 63.8459 191.702 63.2692V59.2131C191.286 58.6552 190.742 58.3763 190.071 58.3763C189.466 58.3763 189.022 58.6079 188.738 59.0712C188.464 59.5345 188.327 60.1727 188.327 60.9858V62.1204ZM202.844 61.0709V60.688H206.461V61.0709L205.681 61.1418C205.529 61.1608 205.44 61.1986 205.411 61.2553C205.383 61.312 205.369 61.5059 205.369 61.8368V65.0562H205.028C204.849 64.782 204.636 64.5645 204.39 64.4038C204.116 64.6496 203.794 64.8434 203.426 64.9852C203.066 65.1271 202.65 65.198 202.178 65.198C201.421 65.198 200.778 65.0136 200.249 64.6449C199.719 64.2667 199.313 63.7419 199.029 63.0706C198.755 62.3993 198.618 61.6193 198.618 60.7306V59.6669C198.618 58.797 198.755 58.0312 199.029 57.3694C199.313 56.7075 199.724 56.1922 200.263 55.8235C200.811 55.4548 201.473 55.2704 202.249 55.2704C202.996 55.2704 203.61 55.4122 204.092 55.6959C204.584 55.97 204.934 56.3341 205.142 56.7879C205.359 57.2417 205.43 57.7286 205.355 58.2487L204.135 58.5465C204.239 57.6388 204.125 56.9439 203.794 56.4617C203.464 55.97 202.948 55.7242 202.249 55.7242C201.492 55.7242 200.92 55.989 200.533 56.5184C200.154 57.0479 199.965 57.8894 199.965 59.0429V61.4113C199.965 62.5648 200.159 63.411 200.547 63.9499C200.944 64.4794 201.525 64.7441 202.291 64.7441C202.679 64.7441 203.038 64.6732 203.369 64.5314C203.709 64.3896 203.993 64.1627 204.22 63.8507V61.8368C204.22 61.5059 204.206 61.312 204.177 61.2553C204.149 61.1891 204.059 61.1513 203.908 61.1418L202.844 61.0709ZM207.275 58.4188V58.0359H209.459V59.1705C209.79 58.7261 210.121 58.4047 210.452 58.2061C210.792 57.9981 211.137 57.8941 211.487 57.8941C211.79 57.8941 212.073 57.9839 212.338 58.1636C212.603 58.3432 212.825 58.6316 213.005 59.0287L212.083 59.5818C211.941 59.2414 211.78 59.005 211.601 58.8727C211.421 58.7403 211.222 58.6741 211.005 58.6741C210.769 58.6741 210.532 58.7498 210.296 58.901C210.069 59.0523 209.814 59.336 209.53 59.752V63.9074C209.53 64.2383 209.544 64.4369 209.573 64.503C209.601 64.5598 209.691 64.5929 209.842 64.6023L210.906 64.6874V65.0562H207.275V64.6874L208.055 64.6023C208.206 64.5834 208.296 64.5456 208.325 64.4889C208.353 64.4321 208.367 64.2383 208.367 63.9074V59.1847C208.367 58.8538 208.353 58.6599 208.325 58.6032C208.296 58.5465 208.206 58.5087 208.055 58.4898L207.275 58.4188ZM219.948 61.3971V61.6808C219.948 62.7492 219.679 63.6048 219.14 64.2478C218.61 64.8812 217.854 65.198 216.871 65.198C215.897 65.198 215.14 64.8812 214.601 64.2478C214.072 63.6048 213.807 62.7492 213.807 61.6808V61.3971C213.807 60.3382 214.072 59.492 214.601 58.8585C215.131 58.2156 215.887 57.8941 216.871 57.8941C217.854 57.8941 218.61 58.2156 219.14 58.8585C219.679 59.492 219.948 60.3382 219.948 61.3971ZM218.672 61.1135C218.672 60.1302 218.516 59.4258 218.204 59.0003C217.901 58.5654 217.457 58.3479 216.871 58.3479C216.294 58.3479 215.85 58.5654 215.538 59.0003C215.235 59.4258 215.084 60.1302 215.084 61.1135V61.9644C215.084 62.9572 215.235 63.671 215.538 64.1059C215.85 64.5314 216.294 64.7441 216.871 64.7441C217.457 64.7441 217.901 64.5314 218.204 64.1059C218.516 63.671 218.672 62.9572 218.672 61.9644V61.1135ZM230.471 59.0996L228.882 65.0562H227.96L226.103 59.1989L224.245 65.0562H223.365L221.791 59.0996C221.725 58.8254 221.668 58.6599 221.621 58.6032C221.583 58.5465 221.489 58.5087 221.337 58.4898L220.614 58.4188V58.0359H223.833V58.4188L223.096 58.4898C222.945 58.5087 222.86 58.5465 222.841 58.6032C222.831 58.6599 222.864 58.8254 222.94 59.0996L224.16 63.7797L225.961 58.0359H226.883L228.712 63.8648L229.946 59.0996C230.022 58.8254 230.05 58.6599 230.031 58.6032C230.022 58.5465 229.941 58.5087 229.79 58.4898L229.052 58.4188V58.0359H231.648V58.4188L230.925 58.4898C230.783 58.5087 230.688 58.5465 230.641 58.6032C230.603 58.6599 230.546 58.8254 230.471 59.0996ZM236.802 63.6096C236.66 64.1579 236.438 64.5598 236.135 64.8151C235.833 65.0703 235.445 65.198 234.972 65.198C234.518 65.198 234.15 65.0987 233.866 64.9001C233.582 64.6921 233.374 64.4227 233.242 64.0918C233.11 63.7608 233.044 63.4157 233.044 63.0565V59.1847C233.044 58.8538 233.029 58.6599 233.001 58.6032C232.982 58.5465 232.892 58.5087 232.732 58.4898L231.951 58.4188V58.0359H233.044V56.178L234.206 55.937V58.0359H236.518V58.4898H234.206V63.1699C234.206 63.7656 234.287 64.1769 234.448 64.4038C234.618 64.6307 234.84 64.7441 235.114 64.7441C235.388 64.7441 235.596 64.6401 235.738 64.4321C235.889 64.2241 235.998 63.8838 236.064 63.411L236.802 63.6096ZM245.435 64.6874V65.0562H242.088V64.6874L242.868 64.6023C243.019 64.5834 243.109 64.5456 243.137 64.4889C243.166 64.4321 243.18 64.2383 243.18 63.9074V60.376C243.18 59.6763 243.066 59.1847 242.84 58.901C242.613 58.6079 242.291 58.4614 241.875 58.4614C241.554 58.4614 241.204 58.5559 240.826 58.745C240.447 58.9341 240.093 59.3076 239.762 59.8654V63.9074C239.762 64.2383 239.776 64.4321 239.804 64.4889C239.833 64.5456 239.923 64.5834 240.074 64.6023L240.854 64.6874V65.0562H237.507V64.6874L238.287 64.6023C238.438 64.5834 238.528 64.5456 238.556 64.4889C238.585 64.4321 238.599 64.2383 238.599 63.9074V55.71C238.599 55.3791 238.585 55.1853 238.556 55.1286C238.528 55.0718 238.438 55.034 238.287 55.0151L237.507 54.9442V54.5613H239.762V59.1138C240.093 58.6883 240.471 58.381 240.897 58.1919C241.322 57.9934 241.743 57.8941 242.159 57.8941C242.858 57.8941 243.397 58.1116 243.776 58.5465C244.154 58.972 244.343 59.5771 244.343 60.3618V63.9074C244.343 64.2383 244.357 64.4321 244.385 64.4889C244.414 64.5456 244.504 64.5834 244.655 64.6023L245.435 64.6874ZM247.581 65.198C247.345 65.198 247.151 65.1223 247 64.9711C246.858 64.8198 246.787 64.626 246.787 64.3896C246.787 64.1532 246.858 63.9641 247 63.8223C247.151 63.671 247.345 63.5954 247.581 63.5954C247.827 63.5954 248.026 63.671 248.177 63.8223C248.328 63.9641 248.404 64.1532 248.404 64.3896C248.404 64.626 248.328 64.8198 248.177 64.9711C248.026 65.1223 247.827 65.198 247.581 65.198Z" fill="#171717"/>
<path d="M15.971 0L3.19336 6.66662L7.83979 7.87772C7.83979 7.87772 10.2675 6.68356 11.9054 6.11107C13.4564 5.56898 14.3227 5.09409 15.971 4.99997C18.0585 4.88076 20.3491 6.11749 22.3599 6.66662C24.4418 7.23515 26.4255 7.87772 26.4255 7.87772V12.7777H28.7487V6.66662M7.83979 8.88883V11.8665C7.83979 11.8665 12.7235 10.1999 15.971 10.1999C19.2186 10.1999 24.1023 11.8665 24.1023 11.8665V8.88883C24.1023 8.88883 19.2225 5.94058 15.971 6.11107C12.6042 6.2876 7.83979 8.88883 7.83979 8.88883Z" fill="#1E3A8A"/>
<path fill-rule="evenodd" clip-rule="evenodd" d="M14.8612 12.7785C14.9349 12.7828 15.0061 12.7987 15.0605 12.8254C15.1142 12.8519 15.1588 12.8928 15.1659 12.9504L15.1708 12.9778C15.1765 13.0021 15.1843 13.0198 15.1933 13.0315C15.2049 13.0462 15.2194 13.0544 15.2343 13.0569C15.2668 13.0618 15.3113 13.0447 15.3476 13.0119L15.3671 12.9973C15.4153 12.9678 15.4772 12.9728 15.5107 13.0159C15.5499 13.0672 15.5322 13.1468 15.454 13.2287C15.4348 13.2488 15.4155 13.2684 15.3974 13.2864C15.3791 13.3044 15.3613 13.3217 15.3456 13.3381C15.314 13.3713 15.2909 13.4004 15.2782 13.428C15.2663 13.454 15.264 13.4783 15.2743 13.5051C15.2856 13.5336 15.3121 13.5689 15.3642 13.6106C15.5833 13.7861 15.5678 14.0967 15.3886 14.2805L15.3505 14.3157C15.2466 14.4008 15.1348 14.4447 15.0644 14.4836C15.0278 14.5039 15.0025 14.5221 14.9882 14.5432C14.9751 14.5627 14.9688 14.5884 14.9765 14.6272L14.9853 14.6545C15.0096 14.7167 15.0697 14.764 15.1366 14.7883C15.1741 14.8017 15.2128 14.8071 15.2441 14.8049C15.2757 14.8025 15.2968 14.7923 15.3075 14.7795C15.3324 14.7497 15.3655 14.7394 15.3983 14.7453C15.4286 14.7512 15.4576 14.7709 15.4804 14.7932C15.5035 14.8159 15.5244 14.845 15.539 14.8742C15.5533 14.9032 15.5634 14.9356 15.5634 14.9651C15.5635 14.969 15.5659 14.9781 15.5732 14.9914C15.5803 15.0045 15.5915 15.0203 15.6064 15.0373C15.636 15.0712 15.6804 15.1102 15.7353 15.1457L15.7382 15.1477C15.8684 15.2311 16.0588 15.2979 16.2821 15.261C16.5049 15.2239 16.6715 15.2577 16.8124 15.3069C16.8819 15.3312 16.9468 15.3595 17.0067 15.384C17.0673 15.4088 17.125 15.4305 17.1835 15.4426C17.3064 15.4678 17.3983 15.4996 17.456 15.5491C17.4852 15.5744 17.5061 15.6054 17.5175 15.6409C17.5286 15.676 17.5311 15.7155 17.5253 15.758C17.5168 15.8226 17.5546 15.8999 17.6366 15.9631C17.7179 16.0255 17.8385 16.0705 17.9804 16.0705C18.2819 16.0707 18.6526 16.1744 18.9052 16.4045L18.9501 16.4416C19.1814 16.6146 19.4771 16.5818 19.6142 16.4016L19.6366 16.3664C19.6801 16.285 19.6652 16.1994 19.6337 16.1076C19.6248 16.0817 19.6147 16.0551 19.6044 16.0285C19.5941 16.0021 19.5834 15.9744 19.5741 15.9475C19.5557 15.8938 19.5409 15.8375 19.5429 15.7815C19.5441 15.7492 19.5574 15.716 19.5771 15.6838C19.5969 15.6514 19.6243 15.6172 19.6581 15.5842C19.7259 15.518 19.8208 15.4505 19.9286 15.3909C20.144 15.2719 20.4216 15.1813 20.6679 15.1965L20.7118 15.1994C20.8102 15.2094 20.8818 15.2317 20.9374 15.2619C21.0009 15.2967 21.043 15.3416 21.08 15.384C21.1173 15.4268 21.1504 15.4671 21.1991 15.5012C21.2473 15.5347 21.3134 15.5637 21.4159 15.5793C21.6271 15.6114 21.7858 15.6297 21.8935 15.6526C21.9471 15.664 21.9916 15.6778 22.0253 15.6955C22.0582 15.7131 22.0828 15.7368 22.0956 15.7688L22.1073 15.7834C22.1195 15.7992 22.145 15.8179 22.1864 15.8352C22.2275 15.8522 22.2819 15.8679 22.3456 15.8821C22.4734 15.9103 22.6401 15.9317 22.8251 15.9485C23.2279 15.9854 23.5156 16.1176 23.7314 16.2043C23.8363 16.2461 23.9461 16.2669 24.039 16.261C24.1322 16.2548 24.2054 16.2223 24.245 16.1643C24.2606 16.1417 24.2862 16.1212 24.3163 16.1037C24.347 16.086 24.3855 16.0694 24.4276 16.0539C24.5129 16.0227 24.6203 15.995 24.7294 15.9758C24.8384 15.9567 24.9523 15.9453 25.0526 15.9455C25.1515 15.9459 25.2431 15.9573 25.3036 15.9875C25.521 16.096 25.6861 16.1704 25.8983 16.1155C26.018 16.085 26.1405 16.1084 26.2353 16.1301C26.2837 16.1412 26.3244 16.1512 26.3564 16.1555C26.3716 16.1575 26.384 16.1585 26.3925 16.1575C26.4003 16.1563 26.4041 16.1537 26.4052 16.1526H26.4062C26.4093 16.1495 26.4159 16.1417 26.4247 16.1291C26.4336 16.1167 26.4445 16.0996 26.4569 16.0803L26.4882 16.0325L26.5097 16.0852L26.8612 16.9465L26.8651 16.9573L26.8612 16.968L26.7919 17.1614L26.7724 17.2922L26.7382 17.2942C26.7377 17.2951 26.7369 17.2968 26.7362 17.2981C26.7298 17.312 26.7221 17.3359 26.7138 17.3674C26.6968 17.4314 26.6784 17.5164 26.6552 17.6076C26.6327 17.6966 26.6059 17.7891 26.5732 17.8596C26.5569 17.8946 26.5379 17.9263 26.5165 17.9494C26.4951 17.9725 26.4671 17.9901 26.4345 17.9905C26.3785 17.9904 26.3229 17.952 26.2733 17.9035C26.2226 17.8536 26.1716 17.7862 26.1249 17.7151C26.0319 17.5727 25.9518 17.4101 25.9149 17.3293C25.8968 17.2891 25.8711 17.2271 25.8427 17.1594C25.8137 17.0915 25.7807 17.016 25.7489 16.9465C25.717 16.877 25.6858 16.8136 25.6591 16.7698C25.647 16.75 25.6354 16.7353 25.6269 16.7258C25.6236 16.7405 25.6218 16.7627 25.622 16.7912C25.6222 16.8491 25.6314 16.9293 25.6493 17.0188C25.6851 17.1983 25.7567 17.4125 25.8651 17.5666C25.9768 17.7249 26.0584 17.8064 26.1171 17.8801C26.1457 17.9162 26.1697 17.951 26.1845 17.9905C26.1995 18.0303 26.2049 18.0748 26.203 18.1282C26.2002 18.2175 26.2484 18.2882 26.3056 18.3645C26.3608 18.4378 26.4272 18.5197 26.4355 18.6233C26.4387 18.6631 26.4633 18.7241 26.5048 18.801C26.5458 18.8769 26.6012 18.9651 26.6591 19.0578C26.7738 19.2417 26.903 19.4483 26.955 19.6155C27.0036 19.7724 27.0663 19.8471 27.1142 19.9133C27.1383 19.9466 27.1609 19.9808 27.1737 20.0217C27.1834 20.0527 27.1871 20.0874 27.1845 20.1282L27.1806 20.1711C27.1708 20.2351 27.1715 20.2971 27.1816 20.3557V20.3576C27.2066 20.4987 27.2895 20.6219 27.4403 20.7043C27.5564 20.7681 27.6626 20.867 27.7411 20.9651C27.7805 21.0141 27.8137 21.0641 27.8378 21.1096C27.8614 21.1544 27.8786 21.1977 27.8827 21.2336L27.8905 21.2854C27.8946 21.3056 27.8997 21.3298 27.9052 21.3557C27.9159 21.4071 27.9287 21.4696 27.9413 21.5393C27.9669 21.6794 27.9911 21.8532 27.9911 22.0471C27.9911 22.236 28.0201 22.4048 28.0692 22.5344C28.1186 22.6646 28.1873 22.7515 28.2636 22.7864C28.3059 22.8057 28.3571 22.8455 28.4101 22.8948C28.4555 22.9369 28.5043 22.9884 28.5517 23.0442V23.0432L28.578 23.0754L28.5917 23.092L28.6884 23.2239C28.7186 23.2687 28.7465 23.3153 28.7704 23.3606C28.8215 23.4566 28.857 23.554 28.8593 23.6379C28.8629 23.7683 28.9241 23.9393 28.9989 24.0803C29.0363 24.1504 29.0773 24.2128 29.1142 24.2571C29.1323 24.2788 29.1493 24.2961 29.164 24.3078C29.1793 24.3199 29.1905 24.3247 29.1962 24.3254C29.2363 24.3311 29.2658 24.3622 29.287 24.3928C29.3084 24.424 29.3286 24.4655 29.3485 24.5012C29.3695 24.5386 29.3917 24.5732 29.4169 24.5979C29.4415 24.6217 29.4695 24.6359 29.5028 24.636C29.5984 24.6362 29.7303 24.6872 29.8691 24.7785C30.0093 24.8707 30.1617 25.0072 30.3007 25.1828C30.5295 25.4714 30.7018 25.6535 30.8192 25.7639L30.8485 25.7922L30.8144 25.8117C30.7824 25.8303 30.7526 25.8483 30.7304 25.8635C30.7075 25.8792 30.6946 25.8902 30.6903 25.8957V25.8967C30.6636 25.932 30.6215 25.9397 30.58 25.9397C30.5432 25.9396 30.4966 25.9329 30.4472 25.927C30.4453 25.9303 30.4427 25.9349 30.4403 25.9387C30.4258 25.9621 30.4054 25.9945 30.3817 26.0305C30.3461 26.0849 30.3016 26.1494 30.2587 26.2043L30.2167 26.2551C30.171 26.3069 30.1595 26.385 30.1649 26.4621C30.1705 26.5386 30.1926 26.6077 30.206 26.634C30.2089 26.6393 30.216 26.6461 30.2304 26.6506C30.2456 26.6552 30.2671 26.6572 30.2909 26.6555C30.3397 26.6519 30.3966 26.6338 30.4374 26.6067C30.4573 26.5935 30.4782 26.5846 30.4999 26.5813C30.5223 26.578 30.5444 26.5809 30.5663 26.5891C30.6011 26.6024 30.6379 26.6298 30.6796 26.6672C30.7341 26.5937 30.803 26.5148 30.8661 26.4504L30.8827 26.4338L30.9032 26.4455C30.9953 26.4994 31.093 26.5857 31.1659 26.7375C31.242 26.8957 31.3981 26.9484 31.5566 26.9407C31.6356 26.9367 31.7143 26.9177 31.7802 26.8909C31.8465 26.8637 31.8987 26.8291 31.9267 26.7961C31.966 26.7505 32.022 26.7306 32.08 26.7229C32.1375 26.7154 32.2031 26.7184 32.2646 26.7219C32.3273 26.7255 32.3881 26.73 32.4413 26.7248C32.4942 26.7196 32.5363 26.7054 32.5653 26.678C32.6432 26.6046 32.7453 26.5584 32.8759 26.5305C33.0063 26.5028 33.1681 26.492 33.3671 26.4885C33.5643 26.4851 33.8182 26.4545 34.0312 26.4035C34.1371 26.3781 34.2327 26.3477 34.3056 26.3137C34.3803 26.2787 34.426 26.2421 34.4413 26.2092C34.4864 26.1109 34.5862 26.0653 34.6747 26.095C34.7645 26.1256 34.8274 26.2276 34.8163 26.3899C34.8053 26.5485 34.7611 26.722 34.7216 26.8742C34.7015 26.9507 34.6832 27.0223 34.6698 27.0852C34.6564 27.1485 34.6486 27.2021 34.6503 27.2414C34.652 27.291 34.633 27.3645 34.6044 27.4455C34.5752 27.5282 34.5341 27.6242 34.4872 27.7209C34.3935 27.9143 34.2761 28.1154 34.1874 28.2297C34.1004 28.3419 34.0001 28.4732 33.9169 28.6047C33.8333 28.7369 33.7687 28.8665 33.7519 28.9758C33.7324 29.0983 33.6509 29.2502 33.5458 29.4075C33.4399 29.5658 33.3066 29.7346 33.1816 29.8938C32.9815 30.1477 32.7346 30.4186 32.5087 30.6399C32.396 30.7504 32.2876 30.8496 32.1933 30.928C32.1229 30.9863 32.058 31.0344 32.0048 31.0676L31.955 31.0959C31.8397 31.1539 31.7311 31.2077 31.6005 31.3C31.486 31.381 31.353 31.4923 31.1845 31.6633L31.1093 31.7405C30.919 31.9407 30.6947 32.1648 30.495 32.3694C30.2945 32.5747 30.1195 32.761 30.0253 32.8869L30.0077 32.9094C29.9994 32.9211 29.991 32.9331 29.9843 32.9436C29.9475 33.0023 29.9153 33.0385 29.8866 33.0598C29.8565 33.0818 29.8293 33.0871 29.8056 33.0871C29.7956 33.0871 29.784 33.0865 29.7773 33.0862C29.7694 33.0858 29.7631 33.0852 29.7577 33.0862C29.7506 33.0876 29.7414 33.0918 29.7284 33.1037L29.7138 33.1194C29.6624 33.1829 29.6051 33.2077 29.5546 33.2346C29.5111 33.2579 29.4677 33.285 29.4237 33.343L29.4052 33.3703C29.3757 33.4159 29.3017 33.5656 29.2118 33.7629C29.1256 33.9529 29.0253 34.1855 28.9374 34.4075L28.9286 34.4299C28.8621 34.5992 28.8031 34.7612 28.7636 34.8918C28.744 34.9571 28.7292 35.0149 28.7206 35.0608C28.7121 35.1075 28.711 35.1388 28.7148 35.1555L28.7255 35.1897C28.7574 35.2641 28.8284 35.3118 28.8954 35.3616C28.931 35.388 28.9696 35.4174 28.9882 35.4543C28.9978 35.4738 29.0017 35.4961 28.9989 35.5198C28.9963 35.5432 28.9868 35.5678 28.9706 35.592C28.9143 35.6767 28.8756 35.7601 28.8603 35.8235C28.8526 35.8553 28.8523 35.8798 28.8554 35.8957C28.8582 35.9098 28.8629 35.9139 28.8671 35.9153C28.8972 35.9248 28.9164 35.9506 28.9267 35.9778C28.9369 36.0051 28.9419 36.0401 28.9442 36.0774C28.9488 36.1525 28.9432 36.2505 28.9394 36.3498C28.9363 36.4396 28.9717 36.4831 29.0165 36.5461C29.0627 36.6112 29.1126 36.6916 29.12 36.8469C29.1234 36.9128 29.1435 36.9529 29.1698 36.9807C29.1975 37.0091 29.2345 37.0279 29.2763 37.0481C29.3163 37.0674 29.3636 37.0894 29.3993 37.1252C29.4296 37.1556 29.4515 37.1958 29.4608 37.2492L29.4648 37.2473L29.4657 37.2922C29.4658 37.2936 29.4663 37.2958 29.4667 37.2991C29.467 37.3022 29.4677 37.307 29.4677 37.3117C29.4677 37.4625 29.4855 37.6942 29.4999 37.9201C29.5145 38.1439 29.5257 38.3648 29.5107 38.4875C29.4969 38.6022 29.5139 38.8049 29.5419 38.9973C29.5699 39.1896 29.608 39.3662 29.6317 39.428L29.6366 39.4494C29.6373 39.4568 29.6371 39.4646 29.6366 39.4719C29.6352 39.4868 29.632 39.5037 29.6269 39.5207C29.6161 39.5553 29.5977 39.5965 29.5741 39.6409C29.5267 39.7302 29.4554 39.8387 29.3739 39.9475C29.2118 40.1638 29.0023 40.3908 28.8446 40.4846C28.689 40.5773 28.5234 40.6221 28.3632 40.6721C28.202 40.7224 28.0434 40.7789 27.8925 40.8948C27.7404 41.0112 27.6625 41.1135 27.5985 41.2053C27.5344 41.2967 27.4809 41.3835 27.3788 41.4592C27.2767 41.5348 27.1925 41.5528 27.1288 41.5744C27.0973 41.5852 27.07 41.5974 27.0458 41.6164C27.0217 41.6353 26.9984 41.6637 26.9745 41.7092C26.9495 41.7573 26.9304 41.7971 26.914 41.8303C26.898 41.863 26.8836 41.8913 26.8681 41.9133C26.8521 41.9359 26.8336 41.9538 26.8095 41.966C26.7856 41.9782 26.7571 41.9836 26.7245 41.9856C26.7011 41.9871 26.6849 41.9962 26.6728 42.009C26.6604 42.0226 26.6507 42.0432 26.6454 42.0725C26.6349 42.1317 26.6443 42.2172 26.6728 42.3166C26.7003 42.4133 26.7441 42.4736 26.7919 42.5617C26.8338 42.6384 26.8745 42.7317 26.9013 42.8772L26.912 42.9426L26.9325 43.0647C26.9541 43.1753 26.9788 43.2553 26.996 43.3225C27.0189 43.4123 27.0296 43.4839 26.998 43.5715C26.985 43.6072 26.9766 43.6599 26.9726 43.7219C26.9688 43.7833 26.9687 43.8526 26.9687 43.9221C26.9687 43.991 26.9689 44.0617 26.9667 44.1233C26.9643 44.1836 26.9591 44.2396 26.9472 44.2795C26.9225 44.3614 26.8654 44.4249 26.7655 44.4856C26.6911 44.531 26.5901 44.5765 26.4579 44.6282L26.3144 44.6828C26.1103 44.7578 25.9076 44.862 25.7636 44.9641C25.6919 45.0153 25.6352 45.0651 25.6005 45.1096C25.5647 45.1553 25.5572 45.1884 25.5644 45.2092C25.5741 45.2363 25.5872 45.2439 25.5985 45.2473C25.6056 45.2494 25.6149 45.251 25.6249 45.2512C25.6298 45.2511 25.6352 45.2502 25.6405 45.2502C25.6458 45.25 25.6525 45.2502 25.6581 45.2502C25.6811 45.2503 25.7154 45.2529 25.7382 45.2815C25.759 45.3079 25.7662 45.3501 25.7626 45.4084C25.7592 45.4611 25.7526 45.5359 25.7431 45.6213L25.7392 45.6535L25.7362 45.6799H25.7353C25.718 45.8203 25.6931 45.9839 25.6571 46.1272C25.638 46.2033 25.6151 46.2753 25.5898 46.3352C25.5644 46.3943 25.5345 46.445 25.4989 46.4778C25.3314 46.6304 25.0023 46.9174 24.8026 47.2522C24.5982 47.5947 23.9959 48.3421 23.6317 48.6838C23.4497 48.8548 23.2437 49.0154 23.0595 49.133C22.9675 49.1917 22.8792 49.2406 22.8026 49.2746C22.7274 49.3079 22.6586 49.3282 22.6054 49.3284C22.5818 49.3284 22.5573 49.3276 22.5341 49.3274C22.5107 49.3269 22.487 49.3264 22.4648 49.3264C22.4198 49.3262 22.3778 49.3278 22.3427 49.3342C22.3075 49.3404 22.2808 49.3517 22.2626 49.3674C22.2454 49.3823 22.2334 49.404 22.2304 49.4387C22.2261 49.4864 22.2065 49.5206 22.1708 49.5354C22.1399 49.5477 22.1021 49.5423 22.0712 49.5364C22.0367 49.5295 22.0056 49.5207 21.9745 49.5168C21.9444 49.5135 21.9207 49.5169 21.9042 49.5276C21.805 49.5902 21.65 49.6541 21.4491 49.5998L21.4081 49.5871C21.2056 49.5173 20.9152 49.5246 20.6737 49.595C20.5568 49.6292 20.5112 49.6706 20.4608 49.7073C20.4349 49.7263 20.4067 49.7444 20.3681 49.7571C20.3296 49.7697 20.2816 49.7765 20.2167 49.7766C20.0914 49.7768 19.968 49.7861 19.8681 49.8088C19.7795 49.8291 19.7139 49.8595 19.6767 49.8987L19.662 49.9162C19.5776 50.0391 19.4039 50.0489 19.3124 49.9582L19.2958 49.9387C19.2592 49.8912 19.2227 49.8425 19.1825 49.8049C19.1426 49.7675 19.1009 49.7435 19.0566 49.7405C19.0253 49.7383 19.0009 49.7302 18.9823 49.717C18.9652 49.7044 18.9533 49.6879 18.9442 49.676C18.9348 49.6636 18.9256 49.6523 18.913 49.6428C18.9034 49.6357 18.8896 49.628 18.871 49.6223L18.8495 49.6174C18.8298 49.6134 18.8118 49.606 18.7978 49.5959C18.7837 49.5854 18.7738 49.5716 18.7675 49.5569C18.7561 49.5292 18.756 49.4936 18.7548 49.4612C18.7522 49.3927 18.7467 49.3005 18.6718 49.1848C18.5923 49.0617 18.5479 48.9612 18.5468 48.886C18.5463 48.8467 18.5572 48.8122 18.5829 48.7864C18.608 48.7611 18.6438 48.7464 18.6855 48.7405L18.705 48.7366C18.7215 48.7305 18.7315 48.7201 18.7372 48.7082C18.7459 48.6901 18.7487 48.6615 18.7441 48.6223C18.7345 48.543 18.6977 48.4377 18.661 48.3235L18.6454 48.2815C18.6042 48.1795 18.5275 48.0517 18.4442 47.9045C18.362 47.7592 18.2748 47.596 18.2148 47.427L18.1903 47.3547C18.1189 47.1199 17.9815 46.8288 17.8241 46.5803L17.8212 46.5754C17.7257 46.4251 17.6235 46.2904 17.5253 46.1946C17.3844 46.0575 17.31 45.8269 17.2655 45.5998C17.2212 45.3727 17.2046 45.1358 17.1835 44.9914C17.1394 44.6935 17.0892 44.4014 17.0116 44.2326C16.9892 44.1832 16.9828 44.1213 16.9833 44.0559C16.9838 43.9898 16.9917 43.915 16.9989 43.8401C17.0117 43.7068 17.0235 43.5701 17.0009 43.4534L16.9882 43.4045C16.95 43.2749 16.855 43.1115 16.7528 42.9328C16.6519 42.7561 16.5446 42.5648 16.4892 42.384C16.3879 42.0542 16.2052 41.6678 16.0478 41.4387L16.0165 41.3957C15.9357 41.2864 15.8614 41.1614 15.8095 41.0451C15.7665 40.9486 15.7374 40.8533 15.7343 40.7766L15.7333 40.7776L15.7343 40.7366C15.7343 40.7344 15.7343 40.7322 15.7343 40.7278C15.7343 40.7243 15.7344 40.7192 15.7353 40.7141V40.7131C15.7496 40.6424 15.7686 40.5109 15.7821 40.3811C15.7957 40.2511 15.8043 40.1252 15.8007 40.0627C15.7985 40.0218 15.8165 39.9731 15.8398 39.925C15.8635 39.876 15.8963 39.8188 15.9276 39.76C15.9919 39.64 16.0535 39.5059 16.0536 39.3733C16.0536 39.2271 16.1005 39.0387 16.1679 38.8625C16.2353 38.6866 16.325 38.5183 16.4149 38.4133C16.5919 38.2066 16.7832 38.0223 16.7558 37.7268C16.7418 37.5768 16.6676 37.387 16.5946 37.1994C16.5587 37.1067 16.5235 37.0136 16.497 36.9289C16.4706 36.8445 16.4521 36.7645 16.4521 36.6965C16.4521 36.5641 16.4897 36.4648 16.5175 36.386C16.5458 36.3059 16.5603 36.2524 16.5341 36.1965L16.454 36.0285C16.3454 35.8009 16.1706 35.4229 16.1034 35.1701L16.0985 35.1496V35.1487C16.0958 35.1388 16.0929 35.1288 16.0907 35.1194C16.0558 34.9614 16.0116 34.7849 15.9296 34.6086L15.9189 34.5862C15.8333 34.4097 15.7069 34.2337 15.5087 34.0803L15.456 34.0393L15.4355 34.0217V34.0207C15.2759 33.8875 15.2204 33.8011 15.1757 33.718C15.1309 33.6346 15.0978 33.5576 14.9706 33.4338C14.8337 33.3006 14.7452 33.2103 14.6903 33.1418C14.6353 33.0728 14.6108 33.0215 14.6064 32.966C14.606 32.9611 14.603 32.9509 14.5946 32.9358C14.5864 32.9209 14.5738 32.9024 14.5595 32.883C14.5304 32.8437 14.4934 32.7993 14.4579 32.7541C14.4235 32.7103 14.3894 32.6647 14.37 32.6252C14.3605 32.6056 14.3531 32.5838 14.3524 32.5637C14.3519 32.542 14.3599 32.52 14.3798 32.5051C14.422 32.4736 14.4705 32.4327 14.5067 32.384C14.5385 32.3412 14.5606 32.2932 14.5634 32.2424V32.2209C14.5609 32.1725 14.5872 32.1391 14.62 32.1174C14.6518 32.0967 14.6937 32.0832 14.7294 32.0725C14.7674 32.0611 14.7987 32.0521 14.8192 32.0412C14.8289 32.0361 14.833 32.032 14.8339 32.0305V32.0295L14.8329 32.0266C14.8264 32.0101 14.8106 31.9906 14.787 31.969C14.7635 31.9475 14.7363 31.9271 14.7099 31.9055C14.6853 31.8853 14.6593 31.8623 14.6444 31.8391C14.6369 31.8271 14.6305 31.8117 14.6308 31.7951C14.6312 31.7774 14.6387 31.7609 14.6513 31.7483C14.6733 31.7262 14.7022 31.6938 14.7245 31.6604L14.7304 31.6506C14.7397 31.6363 14.7477 31.6219 14.7528 31.6096C14.7579 31.5973 14.7596 31.5875 14.7597 31.5813C14.7596 31.577 14.7584 31.5751 14.7577 31.5744C14.7563 31.5732 14.75 31.5696 14.7353 31.5686C14.6994 31.5663 14.6681 31.5546 14.6464 31.5344C14.6246 31.5138 14.6141 31.4854 14.6151 31.4563C14.6177 31.3977 14.6667 31.3423 14.7489 31.3147C14.8804 31.2711 14.9112 31.1354 14.8495 31.0422C14.8458 31.0365 14.8444 31.0293 14.8437 31.0266C14.8433 31.0253 14.8429 31.0243 14.8427 31.0237L14.8222 30.9807H14.829C14.8247 30.9565 14.8246 30.9309 14.8271 30.9055C14.8313 30.8637 14.8428 30.8189 14.8564 30.7766C14.8699 30.7342 14.8861 30.6925 14.9003 30.6565C14.9148 30.6198 14.9271 30.5888 14.9335 30.5676C14.9386 30.5507 14.9396 30.5174 14.9345 30.4729C14.9294 30.4291 14.9188 30.3771 14.9052 30.3274C14.8915 30.2777 14.8742 30.2299 14.8564 30.1926C14.8475 30.1741 14.8384 30.1584 14.83 30.1467C14.8218 30.1354 14.8148 30.1289 14.8105 30.1262C14.7988 30.1198 14.7785 30.1176 14.748 30.1194C14.7334 30.1202 14.7171 30.1216 14.7001 30.1233C14.6833 30.1249 14.6647 30.1272 14.6464 30.1282C14.5722 30.1319 14.4836 30.1224 14.4237 30.0373C14.4056 30.0114 14.3874 29.9833 14.37 29.9563C14.3527 29.9294 14.3358 29.9026 14.3192 29.8782C14.2851 29.8278 14.2543 29.79 14.2284 29.7737L14.2245 29.7707C14.2165 29.7664 14.2096 29.765 14.205 29.7649C14.2006 29.7649 14.1943 29.7666 14.1864 29.7737C14.1714 29.7874 14.1498 29.7979 14.1278 29.8059C14.1055 29.8139 14.0789 29.821 14.0507 29.8264C13.9935 29.8372 13.924 29.8438 13.8554 29.8479C13.7183 29.856 13.5761 29.8538 13.5146 29.8537C13.4892 29.8538 13.4528 29.8626 13.4091 29.8772C13.3654 29.8918 13.3185 29.9103 13.2694 29.928C13.2215 29.9452 13.1717 29.962 13.1269 29.97C13.0831 29.9776 13.0371 29.9783 13.0009 29.9592C12.9399 29.9268 12.8696 29.8471 12.8163 29.7639C12.7893 29.7216 12.7654 29.6757 12.7489 29.633C12.7328 29.5911 12.7225 29.5486 12.7245 29.5119C12.7258 29.4894 12.7156 29.4508 12.6913 29.4035C12.6676 29.3575 12.632 29.3058 12.5898 29.2561C12.5039 29.1553 12.3912 29.0668 12.2851 29.0432C12.2284 29.0308 12.1593 29.0199 12.0868 29.009C12.0148 28.9982 11.9379 28.987 11.8661 28.9739C11.7945 28.9607 11.7254 28.9448 11.6689 28.925C11.6151 28.9061 11.5658 28.8818 11.538 28.8469C11.537 28.8462 11.5353 28.845 11.5341 28.844L11.5282 28.8381V28.8371C11.5219 28.8306 11.5158 28.827 11.5116 28.8254C11.5071 28.8239 11.5016 28.8231 11.495 28.8244C11.4789 28.8281 11.4588 28.8407 11.4316 28.8606C11.3814 28.8971 11.3092 28.9569 11.2196 28.9573C11.1377 28.9573 11.0161 28.9635 10.9003 28.9856L10.8983 28.9866C10.7933 29.0069 10.6971 29.0386 10.6386 29.0881C10.6156 29.1074 10.588 29.1245 10.5595 29.1409V29.1418L10.5341 29.1555L10.5067 29.1701V29.1692C10.4352 29.2042 10.3508 29.2367 10.2646 29.2698C10.1665 29.3074 10.0634 29.3473 9.96671 29.3957C9.84321 29.4575 9.6272 29.5585 9.43155 29.6418C9.33382 29.6834 9.2396 29.7216 9.16495 29.7473C9.12801 29.76 9.09423 29.7704 9.06729 29.7766C9.05412 29.7796 9.04104 29.7814 9.03018 29.7825C9.01994 29.7834 9.00807 29.7838 8.99796 29.7815C8.98572 29.7784 8.96712 29.771 8.94718 29.7629C8.92616 29.7544 8.90042 29.7438 8.87003 29.7317C8.80861 29.7071 8.72692 29.6758 8.62979 29.6477L8.6171 29.6448C8.38803 29.5799 8.06877 29.5291 7.69327 29.593C7.38461 29.6463 7.09826 29.7259 6.85147 29.7922C6.61987 29.8544 6.41858 29.9056 6.26847 29.9084L6.26749 29.9094H6.24307C6.23609 29.9093 6.22847 29.9087 6.22159 29.9084L6.20694 29.9075C6.17409 29.9051 6.14224 29.8997 6.11417 29.8889C5.98421 29.8409 5.78446 29.7265 5.57511 29.593C5.36469 29.4588 5.14055 29.3023 4.9628 29.1682C4.7791 29.0294 4.55423 28.8867 4.35636 28.7619L4.32901 28.7444C4.328 28.7437 4.32623 28.743 4.32511 28.7424L4.30557 28.7297C4.1472 28.6293 4.00727 28.5412 3.9335 28.4797C3.85143 28.4122 3.77963 28.3548 3.71475 28.2649C3.64966 28.1743 3.59136 28.051 3.53311 27.8508L3.51847 27.8039C3.50463 27.7646 3.48776 27.7271 3.47061 27.6907L3.46378 27.675C3.3456 27.4302 3.15729 27.2647 2.99112 27.1379L2.92179 27.0852C2.81875 27.0095 2.77085 26.931 2.72843 26.8576C2.68637 26.7849 2.64958 26.7187 2.5712 26.6555L2.55753 26.6438C2.54528 26.6342 2.53274 26.6246 2.51847 26.6155C2.45672 26.5767 2.42587 26.5348 2.41495 26.4905C2.40471 26.448 2.4143 26.4063 2.41983 26.3762C2.42584 26.3433 2.42663 26.3232 2.41788 26.3069C2.40905 26.2908 2.38482 26.2694 2.31729 26.2502C2.189 26.2141 2.11614 26.1749 2.06046 26.1233C2.03327 26.098 2.01022 26.0694 1.98722 26.0393C1.96383 26.0086 1.93959 25.9756 1.90909 25.9377L1.86026 25.8801C1.7931 25.8039 1.78663 25.7132 1.79776 25.6282L1.80069 25.6086L1.82022 25.6028C1.88633 25.5863 1.94127 25.5742 1.96866 25.5725C2.0401 25.5681 2.15298 25.5524 2.25968 25.5266C2.31298 25.5137 2.36533 25.4981 2.40909 25.4807C2.4531 25.4631 2.48756 25.4432 2.5087 25.4241L2.5214 25.4143C2.55142 25.393 2.58542 25.3881 2.61905 25.3928C2.65601 25.3982 2.69514 25.4154 2.73136 25.4338C2.74958 25.4431 2.76886 25.4533 2.78702 25.4631C2.8054 25.473 2.82468 25.4826 2.84268 25.4914C2.87891 25.509 2.913 25.5225 2.94425 25.5266L2.96964 25.5285C3.02771 25.53 3.0875 25.5135 3.13565 25.4944C3.14189 25.4919 3.14845 25.4891 3.15421 25.4866C3.11565 25.481 3.05842 25.4743 2.9755 25.468C2.84408 25.4577 2.7712 25.3722 2.7128 25.3137C2.68265 25.2836 2.65667 25.2606 2.62882 25.2502C2.60287 25.2409 2.56997 25.2408 2.52335 25.2629C2.41716 25.3137 2.32467 25.3467 2.2255 25.3635C2.12642 25.3801 2.02048 25.3799 1.88761 25.3664L1.85929 25.3645L1.86124 25.3352C1.8628 25.3024 1.85528 25.2799 1.84073 25.2659C1.77972 25.2086 1.69266 25.091 1.64054 24.9573C1.58854 24.8234 1.56815 24.6649 1.65518 24.5334H1.65616C1.72261 24.4346 1.74593 24.3019 1.76163 24.1653L1.76261 24.1555C1.77141 24.0735 1.77775 23.9885 1.78897 23.9143C1.80022 23.8401 1.81772 23.7707 1.8505 23.718C1.90444 23.6315 1.99861 23.471 2.05167 23.2951C2.10491 23.1184 2.11408 22.9321 2.01065 22.7883C1.89153 22.6228 1.90365 22.4586 1.92374 22.3205C1.93395 22.2505 1.94597 22.1898 1.9462 22.135C1.94637 22.0819 1.93435 22.0379 1.90323 22.0022C1.80258 21.8873 1.60676 21.767 1.62003 21.4602H1.61905L1.621 21.4367C1.6212 21.4339 1.62173 21.4308 1.62198 21.428L1.62393 21.4006H1.62589C1.64052 21.281 1.68352 21.1361 1.76944 20.9563C1.93681 20.6069 2.14769 20.3043 2.31827 20.051C2.40375 19.9241 2.47914 19.8097 2.53409 19.7073C2.5891 19.6046 2.62271 19.5163 2.62784 19.4416L2.63175 19.4084C2.64435 19.3311 2.68196 19.2546 2.73136 19.1819C2.78812 19.0984 2.86259 19.0162 2.93741 18.9387C3.01299 18.8604 3.08822 18.7871 3.15128 18.718C3.21447 18.6488 3.26169 18.5871 3.28116 18.5354L3.32608 18.4231C3.36879 18.3249 3.42583 18.2196 3.50675 18.1282H3.50089L3.55557 18.0764C3.55821 18.0739 3.56172 18.071 3.56436 18.0686L3.56534 18.0676C3.65629 17.9854 3.77288 17.9202 3.92569 17.8948C4.11307 17.8633 4.22654 17.7819 4.32315 17.6897C4.34734 17.6666 4.3711 17.6425 4.39444 17.6184C4.4177 17.5944 4.44148 17.5699 4.46573 17.5461C4.51461 17.4983 4.56741 17.4511 4.63175 17.4133C4.75017 17.3436 4.91658 17.1856 5.04093 17.0246C5.10274 16.9446 5.15334 16.8651 5.18253 16.7971C5.19708 16.7632 5.20614 16.7324 5.20889 16.7073C5.21081 16.6888 5.20885 16.6737 5.20499 16.6623L5.20108 16.6516C5.15129 16.5671 5.10485 16.4124 5.09366 16.261C5.08808 16.1849 5.0906 16.1074 5.10733 16.0393C5.12411 15.9713 5.1559 15.91 5.20792 15.8684L5.23624 15.842C5.29746 15.7819 5.32314 15.7139 5.34659 15.6428C5.37312 15.5623 5.39862 15.4733 5.48233 15.4055L5.50675 15.383C5.52992 15.3588 5.551 15.3288 5.57022 15.2961C5.59658 15.2512 5.61775 15.2056 5.64347 15.1584C5.69195 15.0696 5.75441 14.9788 5.871 14.9787C5.96307 14.9785 6.10893 14.9442 6.24991 14.883C6.39164 14.8214 6.52316 14.735 6.59073 14.6369L6.61807 14.594C6.64669 14.5452 6.68002 14.4802 6.71475 14.4065C6.76097 14.3084 6.80972 14.1962 6.85929 14.0881C6.90855 13.9807 6.95885 13.8765 7.00479 13.7951C7.02765 13.7547 7.04972 13.7185 7.0712 13.6907C7.09196 13.6637 7.11489 13.6405 7.13858 13.6291C7.21558 13.5928 7.29306 13.5932 7.37393 13.6311C7.45249 13.6682 7.53547 13.7408 7.62979 13.8459C7.71424 13.9399 7.84688 13.9607 7.99796 13.9553C8.07287 13.9526 8.15098 13.9438 8.22647 13.9358C8.30099 13.9279 8.37506 13.9204 8.44034 13.9221C8.53659 13.9252 8.64046 13.9619 8.73624 13.9944C8.83462 14.0277 8.92678 14.0576 9.00772 14.0559H9.01749C9.07497 14.0532 9.1268 14.0328 9.17081 13.9836C9.26772 13.8755 9.40708 13.7739 9.54972 13.6994C9.6917 13.6254 9.84189 13.5764 9.96085 13.5764C10.0074 13.5762 10.0536 13.5557 10.1034 13.5207C10.154 13.4851 10.205 13.4367 10.2636 13.386C10.3791 13.286 10.5206 13.1789 10.7196 13.1711C10.9069 13.1638 11.3315 13.1065 11.7294 13.0657C11.9273 13.0453 12.1193 13.029 12.2694 13.0256C12.3442 13.024 12.4104 13.0255 12.4618 13.0315C12.4873 13.0345 12.5111 13.0384 12.5302 13.0442C12.5486 13.0498 12.5671 13.0585 12.58 13.0705C12.6028 13.0917 12.6405 13.1 12.6942 13.094C12.7478 13.0878 12.8117 13.0683 12.8778 13.0442C12.9107 13.0322 12.9447 13.019 12.9774 13.0061C13.0101 12.9932 13.0435 12.9804 13.0741 12.969C13.1344 12.9465 13.1933 12.9271 13.2382 12.925C13.3155 12.9215 13.4164 12.9025 13.5116 12.8869C13.5585 12.8793 13.6049 12.8723 13.6444 12.8694C13.6829 12.8666 13.7204 12.8671 13.748 12.8762C13.8042 12.8945 13.9974 12.9567 14.1767 12.9631H14.2001C14.3003 12.9636 14.3877 12.9455 14.4423 12.8957L14.4618 12.8791C14.5628 12.8005 14.7239 12.7707 14.8612 12.7785ZM25.1689 45.8244C25.1856 45.8183 25.1995 45.8129 25.2079 45.803C25.2124 45.7977 25.2166 45.7911 25.2196 45.7834L25.2274 45.7405C25.2101 45.7702 25.1902 45.7977 25.1689 45.8244ZM25.2753 45.6467C25.2853 45.6349 25.296 45.624 25.3066 45.6145C25.3061 45.6108 25.3051 45.6069 25.3046 45.6028C25.3032 45.592 25.3012 45.58 25.2997 45.5676C25.2924 45.5945 25.2855 45.6212 25.2753 45.6467ZM33.7675 37.9631C33.7892 37.9665 33.8039 37.9841 33.8124 37.9992C33.8217 38.016 33.8305 38.0401 33.8388 38.0705C33.8485 38.106 33.8728 38.1527 33.9062 38.2102C33.9387 38.2659 33.9807 38.3335 34.0204 38.4035C34.1001 38.5451 34.179 38.7131 34.1864 38.8869C34.1934 39.0484 34.2506 39.2179 34.3017 39.3801C34.3268 39.4604 34.3503 39.5394 34.3651 39.6125C34.3764 39.6675 34.3822 39.722 34.3798 39.7717L34.3739 39.8196C34.3519 39.9369 34.3004 40.0143 34.2255 40.0246C34.1891 40.0293 34.1526 40.0161 34.12 39.9924C34.0873 39.9685 34.0558 39.9323 34.0292 39.8869C34.0067 39.8484 33.9899 39.8446 33.9843 39.845C33.9769 39.8459 33.9615 39.8564 33.9472 39.8889C33.9199 39.9517 33.9125 40.0637 33.953 40.1653C34.0005 40.285 33.9672 40.3819 33.9306 40.468C33.8978 40.545 33.8645 40.6117 33.8651 40.6877L33.87 40.7463C33.8707 40.7723 33.8682 40.8046 33.8632 40.8401C33.8567 40.8886 33.8448 40.9473 33.83 41.0129C33.8 41.1446 33.7554 41.3088 33.7021 41.4885C33.5949 41.849 33.4542 42.2771 33.331 42.6457C33.2083 43.0142 33.0744 43.4751 32.9491 43.8723C32.8866 44.07 32.8262 44.2525 32.7704 44.3977C32.7426 44.4702 32.716 44.5349 32.6903 44.5871C32.665 44.6388 32.6393 44.6809 32.6151 44.7092C32.5673 44.7651 32.5184 44.7969 32.4696 44.8137C32.422 44.8302 32.375 44.8327 32.3329 44.8332C32.2575 44.8342 32.1945 44.8306 32.1337 44.8762L32.1073 44.8996C32.06 44.9467 31.9882 44.9668 31.911 44.97C31.8331 44.973 31.7436 44.9586 31.6552 44.9338C31.4786 44.8843 31.2955 44.7886 31.1962 44.6819C31.0961 44.5741 31.0475 44.4067 31.0077 44.2375C30.9725 44.0866 30.9435 43.9326 30.8944 43.802L30.872 43.7473C30.7376 43.4494 30.7091 42.9741 31.0644 42.5442C31.2349 42.3382 31.2931 42.1739 31.2948 42.0256C31.2964 41.8755 31.2408 41.7363 31.1757 41.5764C31.0454 41.2578 30.9672 40.9418 31.1191 40.6682C31.1873 40.5453 31.1917 40.3831 31.2011 40.2463C31.2056 40.1805 31.2117 40.1173 31.2304 40.0725C31.2402 40.0496 31.2546 40.0282 31.2763 40.0149C31.2982 40.0013 31.3249 39.9979 31.3534 40.0022C31.4383 40.015 31.5325 39.9823 31.6396 39.9455C31.7432 39.9099 31.859 39.8707 31.9755 39.886L31.9931 39.8869C32.0336 39.8877 32.0786 39.8741 32.1269 39.8489C32.1823 39.8203 32.2402 39.7788 32.2987 39.7346C32.3567 39.6908 32.4168 39.6438 32.4745 39.6076C32.5316 39.5716 32.5913 39.5424 32.6493 39.5383C32.7445 39.5315 32.8475 39.4908 32.9169 39.4367C32.9515 39.4098 32.9762 39.38 32.9882 39.3528C32.9995 39.3267 32.9995 39.3023 32.9872 39.2795L32.9745 39.2532C32.9646 39.229 32.9611 39.2076 32.9638 39.1877C32.9674 39.1616 32.9808 39.1416 32.9901 39.1282C32.9998 39.1138 33.0075 39.103 33.0107 39.0881C33.0135 39.0734 33.0126 39.0505 32.9999 39.0149L32.9901 38.9807C32.9839 38.9481 32.9872 38.9174 32.998 38.8899C33.0121 38.8541 33.0384 38.8262 33.0692 38.8059C33.13 38.7656 33.2132 38.7493 33.2773 38.7571C33.3252 38.7628 33.3942 38.7413 33.4501 38.7024C33.5067 38.6628 33.538 38.6148 33.5331 38.5744C33.5257 38.513 33.5295 38.4368 33.5429 38.3694C33.5493 38.3354 33.5587 38.3021 33.5702 38.2737C33.5815 38.2457 33.597 38.2198 33.6151 38.2014C33.6189 38.1976 33.6244 38.1895 33.6308 38.177C33.6372 38.1643 33.6434 38.1482 33.6503 38.1311C33.6634 38.0984 33.6787 38.0579 33.6933 38.0276C33.7004 38.0123 33.7091 37.997 33.7187 37.9856C33.7276 37.9753 33.7444 37.96 33.7675 37.9631Z" fill="#1E3A8A"/>
<path d="M6.38884 40.4021L9.58327 29.547L11.9791 28.374L10.0993 37.9924H16.8321L15.9721 41.3588H9.58327L7.98605 47.2346L11.9791 48.0917V49.5121H0V48.0917L3.99303 47.2346L6.38884 40.4021Z" fill="#1E3A8A"/>
<path d="M46.2763 30.0022C44.9148 30.0022 43.8937 30.6546 43.2129 31.9594C42.5605 33.2358 42.2343 35.3915 42.2343 38.4265V40.9793C42.2343 43.9859 42.6173 46.1558 43.3831 47.4889C44.1489 48.7937 45.397 49.4461 47.1272 49.4461C48.4036 49.4461 49.4389 49.0915 50.2331 48.3824C51.0557 47.6449 51.5237 46.4111 51.6372 44.6809L54.3602 45.4467C53.8496 47.4322 52.9136 48.8504 51.5521 49.7014C50.219 50.5239 48.6447 50.9352 46.8294 50.9352C43.5675 50.9352 41.1139 49.9567 39.4688 47.9995C37.8236 46.014 37.0011 43.3903 37.0011 40.1283V39.2774C37.0011 36.0155 37.7953 33.4059 39.3837 31.4488C40.9721 29.4916 43.2696 28.5131 46.2763 28.5131C48.2618 28.5131 49.8786 28.9102 51.1266 29.7044C52.403 30.4702 53.2965 31.4913 53.8071 32.7677C54.346 34.0158 54.4878 35.3631 54.2325 36.8097L49.5524 37.4904C49.8644 35.1078 49.7368 33.2641 49.1695 31.9594C48.6022 30.6546 47.6378 30.0022 46.2763 30.0022ZM78.8216 49.4461C78.3678 49.8716 77.8147 50.2261 77.1623 50.5098C76.5383 50.7934 75.7724 50.9352 74.8647 50.9352C73.7018 50.9352 72.7232 50.68 71.929 50.1694C71.1632 49.6588 70.6526 48.9355 70.3973 47.9995C69.4613 49.0206 68.426 49.7723 67.2914 50.2545C66.1852 50.7083 65.0506 50.9352 63.8877 50.9352C61.9305 50.9352 60.4697 50.3963 59.5053 49.3185C58.541 48.2122 58.0588 46.8366 58.0588 45.1914C58.0588 43.5179 58.6686 42.1706 59.8883 41.1495C61.1079 40.1 63.2637 39.5752 66.3554 39.5752H70.2271V36.1289C70.2271 33.7747 69.9151 32.1721 69.2911 31.3212C68.6955 30.4419 67.8587 30.0022 66.7809 30.0022C66.0717 30.0022 65.4194 30.1866 64.8237 30.5553C64.228 30.8957 63.8026 31.5481 63.5473 32.5125C63.3204 33.4485 63.3629 34.81 63.6749 36.597L58.9948 35.9162C58.7679 34.6114 58.9097 33.4059 59.4203 32.2997C59.9592 31.1651 60.8527 30.2575 62.1007 29.5767C63.3487 28.8676 64.9372 28.5131 66.8659 28.5131C69.05 28.5131 70.7377 28.8676 71.929 29.5767C73.1203 30.2858 73.9429 31.2219 74.3967 32.3848C74.8789 33.5478 75.12 34.7958 75.12 36.1289V45.9573C75.12 47.4038 75.2477 48.3115 75.503 48.6803C75.7582 49.049 76.0419 49.2334 76.3539 49.2334C76.8644 49.2334 77.4317 48.9355 78.0558 48.3399L78.8216 49.4461ZM65.7597 48.6803C66.4972 48.6803 67.2205 48.4959 67.9296 48.1271C68.6671 47.73 69.4329 47.0067 70.2271 45.9573V41.0644H67.0361C65.6463 41.0644 64.6393 41.3906 64.0153 42.0429C63.3913 42.6953 63.0793 43.7165 63.0793 45.1063C63.0793 46.2409 63.3062 47.1202 63.76 47.7442C64.2139 48.3682 64.8804 48.6803 65.7597 48.6803ZM103.247 49.3185V50.5098H95.3334V46.9784C94.5392 48.2831 93.6457 49.2759 92.653 49.9567C91.6886 50.609 90.5398 50.9352 89.2067 50.9352C86.8241 50.9352 84.9236 49.9992 83.5054 48.1271C82.1155 46.2267 81.4206 43.5746 81.4206 40.1709V39.32C81.4206 36.0297 82.229 33.4059 83.8458 31.4488C85.4909 29.4916 87.7317 28.5131 90.5682 28.5131C92.2701 28.5131 93.7734 28.9385 95.0781 29.7895V22.5991C95.0781 21.6347 95.0356 21.0674 94.9505 20.8972C94.8654 20.6986 94.5959 20.571 94.1421 20.5143L91.802 20.2164V19.0251H99.971V46.9358C99.971 47.9002 100.014 48.4817 100.099 48.6803C100.184 48.8504 100.453 48.9639 100.907 49.0206L103.247 49.3185ZM86.6539 41.4473C86.6539 44.0852 86.9801 46.014 87.6325 47.2337C88.2848 48.4533 89.1783 49.0632 90.3129 49.0632C91.022 49.0632 91.7595 48.7795 92.5253 48.2122C93.3195 47.6166 94.1705 46.4253 95.0781 44.6383V31.7892C94.0003 30.7113 92.6813 30.1724 91.1213 30.1724C89.5612 30.1724 88.4267 30.8815 87.7175 32.2997C87.0084 33.6896 86.6539 35.6042 86.6539 38.0435V41.4473ZM124.093 45.4467C123.583 47.4322 122.633 48.8504 121.243 49.7014C119.853 50.5239 118.236 50.9352 116.392 50.9352C112.989 50.9352 110.436 49.9567 108.734 47.9995C107.032 46.014 106.181 43.3903 106.181 40.1283V39.2774C106.181 36.0155 106.975 33.4059 108.564 31.4488C110.181 29.4916 112.506 28.5131 115.541 28.5131C117.243 28.5131 118.747 28.8534 120.051 29.5342C121.385 30.1866 122.42 31.1368 123.157 32.3848C123.923 33.6329 124.306 35.1504 124.306 36.9373C124.306 37.3628 124.278 37.8166 124.221 38.2988C124.193 38.781 124.122 39.2632 124.008 39.7454H111.414V40.9793C111.414 43.9859 111.84 46.1558 112.691 47.4889C113.542 48.7937 114.917 49.4461 116.818 49.4461C118.038 49.4461 119.073 49.0915 119.924 48.3824C120.775 47.6449 121.257 46.4111 121.37 44.6809L124.093 45.4467ZM115.541 30.0022C114.152 30.0022 113.116 30.6404 112.436 31.9168C111.755 33.1932 111.414 35.3064 111.414 38.2563H119.115C119.229 37.689 119.3 37.1642 119.328 36.6821C119.385 36.1715 119.413 35.7035 119.413 35.278C119.413 33.4627 119.059 32.1295 118.35 31.2786C117.64 30.4277 116.704 30.0022 115.541 30.0022ZM152.059 49.3185V50.5098H140.614V49.3185L142.954 49.0206C143.408 48.9639 143.678 48.8504 143.763 48.6803C143.848 48.4817 143.89 47.9002 143.89 46.9358V36.214C143.89 34.2569 143.621 32.8387 143.082 31.9594C142.543 31.0517 141.735 30.5979 140.657 30.5979C140.203 30.5979 139.664 30.7255 139.04 30.9808C138.416 31.2077 137.792 31.6332 137.168 32.2572C136.572 32.8812 136.048 33.803 135.594 35.0227V46.9358C135.594 47.9002 135.636 48.4817 135.721 48.6803C135.806 48.8504 136.076 48.9639 136.53 49.0206L138.87 49.3185V50.5098H127.425V49.3185L129.765 49.0206C130.219 48.9639 130.488 48.8504 130.573 48.6803C130.658 48.4817 130.701 47.9002 130.701 46.9358V32.5125C130.701 31.5481 130.658 30.9808 130.573 30.8106C130.488 30.612 130.219 30.4844 129.765 30.4277L127.425 30.1298V28.9385H135.338V32.6826C136.133 31.2361 137.154 30.1866 138.402 29.5342C139.65 28.8534 140.912 28.5131 142.188 28.5131C143.72 28.5131 145.011 28.9102 146.06 29.7044C147.138 30.4702 147.904 31.5764 148.358 33.023C149.124 31.4346 150.159 30.2858 151.464 29.5767C152.768 28.8676 154.073 28.5131 155.378 28.5131C157.392 28.5131 158.994 29.1796 160.186 30.5128C161.377 31.8459 161.973 33.7321 161.973 36.1715V46.9358C161.973 47.9002 162.015 48.4817 162.1 48.6803C162.185 48.8504 162.455 48.9639 162.909 49.0206L165.249 49.3185V50.5098H153.804V49.3185L156.144 49.0206C156.598 48.9639 156.867 48.8504 156.952 48.6803C157.037 48.4817 157.08 47.9002 157.08 46.9358V36.214C157.08 34.2569 156.81 32.8387 156.271 31.9594C155.733 31.0517 154.924 30.5979 153.846 30.5979C153.392 30.5979 152.854 30.7255 152.229 30.9808C151.605 31.2077 150.981 31.6473 150.357 32.2997C149.733 32.9521 149.194 33.9023 148.741 35.1504C148.769 35.2922 148.783 35.4624 148.783 35.6609C148.783 35.8311 148.783 36.0013 148.783 36.1715V46.9358C148.783 47.9002 148.826 48.4817 148.911 48.6803C148.996 48.8504 149.265 48.9639 149.719 49.0206L152.059 49.3185ZM172.39 25.2795C171.511 25.2795 170.802 25.01 170.263 24.4711C169.724 23.9038 169.455 23.1805 169.455 22.3012C169.455 21.4219 169.724 20.7128 170.263 20.1739C170.802 19.635 171.511 19.3655 172.39 19.3655C173.241 19.3655 173.95 19.635 174.518 20.1739C175.085 20.7128 175.369 21.4219 175.369 22.3012C175.369 23.1805 175.085 23.9038 174.518 24.4711C173.95 25.01 173.241 25.2795 172.39 25.2795ZM166.689 30.1298V28.9385H174.858V46.9358C174.858 47.9002 174.901 48.4817 174.986 48.6803C175.071 48.8504 175.34 48.9639 175.794 49.0206L178.134 49.3185V50.5098H166.689V49.3185L169.029 49.0206C169.483 48.9639 169.752 48.8504 169.838 48.6803C169.923 48.4817 169.965 47.9002 169.965 46.9358V32.5125C169.965 31.5481 169.923 30.9808 169.838 30.8106C169.752 30.612 169.483 30.4844 169.029 30.4277L166.689 30.1298ZM201.476 49.4461C201.022 49.8716 200.469 50.2261 199.817 50.5098C199.193 50.7934 198.427 50.9352 197.519 50.9352C196.356 50.9352 195.378 50.68 194.583 50.1694C193.818 49.6588 193.307 48.9355 193.052 47.9995C192.116 49.0206 191.08 49.7723 189.946 50.2545C188.84 50.7083 187.705 50.9352 186.542 50.9352C184.585 50.9352 183.124 50.3963 182.16 49.3185C181.195 48.2122 180.713 46.8366 180.713 45.1914C180.713 43.5179 181.323 42.1706 182.543 41.1495C183.762 40.1 185.918 39.5752 189.01 39.5752H192.882V36.1289C192.882 33.7747 192.57 32.1721 191.946 31.3212C191.35 30.4419 190.513 30.0022 189.435 30.0022C188.726 30.0022 188.074 30.1866 187.478 30.5553C186.883 30.8957 186.457 31.5481 186.202 32.5125C185.975 33.4485 186.017 34.81 186.329 36.597L181.649 35.9162C181.422 34.6114 181.564 33.4059 182.075 32.2997C182.614 31.1651 183.507 30.2575 184.755 29.5767C186.003 28.8676 187.592 28.5131 189.52 28.5131C191.704 28.5131 193.392 28.8676 194.583 29.5767C195.775 30.2858 196.597 31.2219 197.051 32.3848C197.533 33.5478 197.775 34.7958 197.775 36.1289V45.9573C197.775 47.4038 197.902 48.3115 198.157 48.6803C198.413 49.049 198.696 49.2334 199.008 49.2334C199.519 49.2334 200.086 48.9355 200.71 48.3399L201.476 49.4461ZM188.414 48.6803C189.152 48.6803 189.875 48.4959 190.584 48.1271C191.322 47.73 192.087 47.0067 192.882 45.9573V41.0644H189.691C188.301 41.0644 187.294 41.3906 186.67 42.0429C186.046 42.6953 185.734 43.7165 185.734 45.1063C185.734 46.2409 185.961 47.1202 186.415 47.7442C186.868 48.3682 187.535 48.6803 188.414 48.6803ZM231.475 49.3185V50.5098H219.817V49.3185L222.157 49.0206C222.611 48.9639 222.881 48.8504 222.966 48.6803C223.051 48.4817 223.094 47.9002 223.094 46.9358V36.6395H211.904V46.9358C211.904 47.9002 211.946 48.4817 212.031 48.6803C212.116 48.8504 212.386 48.9639 212.84 49.0206L215.18 49.3185V50.5098H203.522V49.3185L205.862 49.0206C206.316 48.9639 206.585 48.8504 206.67 48.6803C206.756 48.4817 206.798 47.9002 206.798 46.9358V25.1519C206.798 24.1875 206.756 23.6202 206.67 23.45C206.585 23.2514 206.316 23.1238 205.862 23.0671L203.522 22.7692V21.5779H215.18V22.7692L212.84 23.0671C212.386 23.1238 212.116 23.2514 212.031 23.45C211.946 23.6202 211.904 24.1875 211.904 25.1519V35.1504H223.094V25.1519C223.094 24.1875 223.051 23.6202 222.966 23.45C222.881 23.2514 222.611 23.1238 222.157 23.0671L219.817 22.7692V21.5779H231.475V22.7692L229.135 23.0671C228.681 23.1238 228.412 23.2514 228.327 23.45C228.242 23.6202 228.199 24.1875 228.199 25.1519V46.9358C228.199 47.9002 228.242 48.4817 228.327 48.6803C228.412 48.8504 228.681 48.9639 229.135 49.0206L231.475 49.3185ZM258.414 49.3185V50.5098H250.501V46.7656C249.706 48.2122 248.685 49.2759 247.437 49.9567C246.189 50.609 244.927 50.9352 243.651 50.9352C241.637 50.9352 240.034 50.2687 238.843 48.9355C237.652 47.574 237.056 45.6878 237.056 43.2768V32.5125C237.056 31.5481 237.013 30.9808 236.928 30.8106C236.843 30.612 236.574 30.4844 236.12 30.4277L233.78 30.1298V28.9385H241.949V43.2343C241.949 45.1914 242.218 46.6238 242.757 47.5315C243.324 48.4108 244.133 48.8504 245.182 48.8504C245.636 48.8504 246.161 48.737 246.757 48.5101C247.381 48.2548 248.005 47.8151 248.629 47.1911C249.253 46.5387 249.792 45.6169 250.245 44.4256V32.5125C250.245 31.5481 250.203 30.9666 250.118 30.768C250.033 30.5695 249.763 30.456 249.309 30.4277L246.118 30.1298V28.9385H255.138V46.9358C255.138 47.9002 255.181 48.4817 255.266 48.6803C255.351 48.8504 255.62 48.9639 256.074 49.0206L258.414 49.3185ZM259.454 20.2164V19.0251H267.623V32.087C268.389 30.8957 269.24 30.0022 270.176 29.4065C271.141 28.8109 272.247 28.5131 273.495 28.5131C275.878 28.5131 277.764 29.4633 279.154 31.3637C280.572 33.2358 281.281 35.8737 281.281 39.2774V40.1283C281.281 43.4186 280.473 46.0423 278.856 47.9995C277.239 49.9567 274.998 50.9352 272.133 50.9352C269.949 50.9352 268.162 50.2828 266.772 48.9781C266.262 49.1766 265.766 49.4319 265.283 49.7439C264.83 50.0276 264.362 50.3538 263.879 50.7225H262.731V22.5991C262.731 21.6347 262.688 21.0674 262.603 20.8972C262.518 20.6986 262.248 20.571 261.795 20.5143L259.454 20.2164ZM272.389 30.3851C271.68 30.3851 270.928 30.6829 270.134 31.2786C269.368 31.8459 268.531 33.023 267.623 34.81V47.6591C268.701 48.737 270.02 49.2759 271.58 49.2759C273.169 49.2759 274.303 48.581 274.984 47.1911C275.693 45.7729 276.048 43.8441 276.048 41.4047V38.001C276.048 35.3631 275.722 33.4343 275.069 32.2146C274.417 30.995 273.523 30.3851 272.389 30.3851Z" fill="#1E3A8A"/>
</svg>
