<svg width="268" height="400" viewBox="0 0 268 400" fill="none" xmlns="http://www.w3.org/2000/svg">
<path d="M106.694 0L-2.66797 57.0584L37.1 67.424C37.1 67.424 57.878 57.2034 71.897 52.3036C85.1714 47.6639 92.5863 43.5994 106.694 42.7938C124.56 41.7736 144.165 52.3585 161.375 57.0584C179.193 61.9244 196.172 67.424 196.172 67.424V109.362H216.056V57.0584M37.1 76.0779V101.563C37.1 101.563 78.8989 87.2987 106.694 87.2987C134.489 87.2987 176.288 101.563 176.288 101.563V76.0779C176.288 76.0779 134.523 50.8444 106.694 52.3036C77.8778 53.8145 37.1 76.0779 37.1 76.0779Z" fill="#1E3A8A" fill-opacity="0.2"/>
<path fill-rule="evenodd" clip-rule="evenodd" d="M93.7763 110.229C94.6405 109.554 96.0135 109.299 97.1904 109.366C97.824 109.402 98.4318 109.533 98.8994 109.762C99.3615 109.989 99.7376 110.341 99.7988 110.836L99.8417 111.069C99.8908 111.28 99.9622 111.428 100.04 111.529C100.14 111.658 100.261 111.723 100.391 111.744C100.669 111.788 101.043 111.641 101.354 111.359L101.522 111.233C101.935 110.978 102.464 111.024 102.751 111.393C103.092 111.832 102.942 112.51 102.269 113.214C102.104 113.387 101.937 113.553 101.781 113.708C101.624 113.863 101.476 114.009 101.342 114.15C101.069 114.436 100.867 114.685 100.759 114.921C100.656 115.146 100.638 115.356 100.727 115.586C100.823 115.831 101.052 116.127 101.5 116.486C103.381 117.989 103.244 120.649 101.705 122.222L101.378 122.523C100.487 123.253 99.5343 123.622 98.9316 123.956C98.6182 124.129 98.4062 124.288 98.2841 124.469C98.172 124.636 98.119 124.85 98.1845 125.182L98.2529 125.418C98.4601 125.953 98.9719 126.354 99.5468 126.563C99.8707 126.68 100.198 126.728 100.469 126.709C100.743 126.688 100.925 126.603 101.018 126.493C101.232 126.235 101.512 126.147 101.795 126.2C102.056 126.249 102.298 126.413 102.494 126.605C102.694 126.8 102.869 127.046 102.995 127.298C103.119 127.548 103.206 127.824 103.206 128.078C103.206 128.11 103.222 128.185 103.285 128.301C103.346 128.414 103.443 128.55 103.572 128.699C103.826 128.99 104.201 129.317 104.672 129.623L104.702 129.642C105.817 130.358 107.442 130.928 109.356 130.612C111.265 130.293 112.687 130.581 113.894 131.002C114.491 131.211 115.042 131.455 115.556 131.666C116.075 131.878 116.566 132.061 117.068 132.165C118.125 132.381 118.911 132.653 119.405 133.079C119.657 133.296 119.834 133.555 119.932 133.86C120.028 134.162 120.042 134.498 119.992 134.864C119.918 135.417 120.246 136.079 120.95 136.621C121.646 137.156 122.676 137.543 123.894 137.543C126.475 137.543 129.64 138.427 131.804 140.398L132.192 140.718C134.172 142.202 136.696 141.914 137.87 140.372L138.062 140.073C138.437 139.374 138.312 138.648 138.041 137.861C137.964 137.637 137.875 137.411 137.786 137.182C137.698 136.955 137.608 136.722 137.528 136.491C137.37 136.03 137.245 135.547 137.262 135.066C137.272 134.79 137.383 134.504 137.552 134.228C137.722 133.95 137.962 133.664 138.251 133.381C138.832 132.814 139.637 132.235 140.561 131.724C142.406 130.705 144.778 129.925 146.889 130.055L147.266 130.085C148.113 130.171 148.726 130.361 149.203 130.622C149.748 130.919 150.1 131.3 150.417 131.664C150.737 132.031 151.019 132.373 151.437 132.666C151.85 132.954 152.412 133.202 153.293 133.336C155.104 133.612 156.455 133.77 157.378 133.966C157.84 134.065 158.22 134.178 158.51 134.331C158.793 134.481 159.005 134.681 159.115 134.956L159.213 135.086C159.316 135.222 159.533 135.374 159.891 135.523C160.242 135.67 160.702 135.804 161.249 135.925C162.343 136.168 163.767 136.353 165.354 136.497C168.805 136.812 171.26 137.939 173.108 138.682C174.009 139.042 174.948 139.219 175.745 139.168C176.545 139.116 177.167 138.838 177.507 138.34C177.64 138.146 177.863 137.975 178.122 137.825C178.386 137.672 178.711 137.528 179.075 137.394C179.806 137.126 180.715 136.895 181.65 136.731C182.586 136.567 183.56 136.468 184.422 136.47C185.271 136.473 186.051 136.573 186.57 136.834C188.433 137.763 189.841 138.396 191.658 137.925C192.684 137.663 193.73 137.865 194.543 138.051C194.961 138.147 195.306 138.234 195.581 138.27C195.716 138.288 195.818 138.29 195.892 138.28C195.964 138.27 195.992 138.251 196 138.242L196.004 138.238C196.031 138.212 196.084 138.148 196.162 138.038C196.238 137.931 196.33 137.792 196.436 137.627L196.704 137.21L196.891 137.668L199.898 145.041L199.936 145.132L199.9 145.224L199.304 146.877L199.142 147.994L198.848 148.015C198.844 148.024 198.837 148.035 198.831 148.047C198.776 148.167 198.71 148.367 198.639 148.637C198.493 149.186 198.337 149.91 198.138 150.693C197.945 151.456 197.715 152.248 197.435 152.852C197.295 153.153 197.135 153.425 196.95 153.624C196.766 153.822 196.527 153.974 196.244 153.974C195.764 153.974 195.29 153.647 194.865 153.231C194.43 152.803 193.998 152.224 193.598 151.614C192.8 150.393 192.112 149.002 191.798 148.312C191.642 147.968 191.423 147.442 191.179 146.862C190.931 146.279 190.656 145.634 190.383 145.039C190.108 144.441 189.841 143.9 189.611 143.524C189.507 143.353 189.41 143.228 189.336 143.147C189.307 143.273 189.293 143.463 189.295 143.71C189.297 144.204 189.371 144.889 189.524 145.655C189.83 147.192 190.444 149.028 191.373 150.348C192.331 151.706 193.032 152.397 193.534 153.029C193.78 153.339 193.977 153.635 194.104 153.974C194.234 154.316 194.287 154.689 194.27 155.147C194.244 155.914 194.65 156.516 195.141 157.17C195.614 157.8 196.184 158.5 196.254 159.39C196.281 159.732 196.495 160.25 196.852 160.911C197.202 161.561 197.671 162.312 198.167 163.107C199.15 164.682 200.259 166.447 200.704 167.879C201.12 169.224 201.654 169.861 202.064 170.428C202.271 170.714 202.462 171.002 202.573 171.354C202.657 171.621 202.692 171.916 202.67 172.267L202.631 172.638C202.547 173.187 202.551 173.715 202.638 174.217L202.642 174.231C202.855 175.439 203.565 176.491 204.857 177.197C205.852 177.743 206.76 178.591 207.433 179.431C207.771 179.852 208.052 180.277 208.259 180.667C208.462 181.052 208.604 181.423 208.639 181.731L208.71 182.175C208.745 182.349 208.787 182.548 208.834 182.771C208.926 183.212 209.039 183.743 209.147 184.341C209.367 185.542 209.57 187.031 209.57 188.694C209.57 190.311 209.817 191.749 210.237 192.859C210.66 193.976 211.246 194.722 211.9 195.021C212.263 195.186 212.703 195.521 213.158 195.945C213.548 196.306 213.961 196.745 214.367 197.223L214.371 197.219L214.597 197.494L214.712 197.636L214.708 197.638C215.282 198.357 215.83 199.151 216.242 199.93C216.681 200.755 216.985 201.59 217.004 202.31C217.035 203.428 217.557 204.889 218.199 206.097C218.519 206.698 218.863 207.226 219.179 207.606C219.336 207.795 219.482 207.943 219.609 208.044C219.742 208.149 219.833 208.186 219.882 208.193C220.228 208.239 220.475 208.506 220.657 208.77C220.842 209.038 221.019 209.39 221.191 209.698C221.372 210.019 221.558 210.313 221.775 210.525C221.987 210.731 222.222 210.852 222.509 210.852C223.327 210.852 224.45 211.287 225.64 212.07C226.842 212.859 228.149 214.024 229.341 215.531C231.302 218.004 232.771 219.562 233.776 220.507L234.026 220.742L233.731 220.917C233.457 221.076 233.208 221.225 233.018 221.355C232.817 221.492 232.71 221.588 232.675 221.635L232.671 221.639C232.441 221.942 232.083 222.009 231.727 222.008C231.411 222.008 231.016 221.952 230.592 221.902C230.575 221.931 230.557 221.963 230.537 221.996C230.412 222.197 230.235 222.476 230.03 222.788C229.725 223.254 229.349 223.8 228.981 224.27L228.622 224.709C228.23 225.152 228.13 225.82 228.177 226.48C228.224 227.135 228.411 227.721 228.526 227.947C228.549 227.994 228.609 228.052 228.739 228.093C228.87 228.134 229.05 228.15 229.257 228.135C229.675 228.105 230.155 227.953 230.506 227.72C230.678 227.605 230.855 227.524 231.044 227.496C231.237 227.467 231.424 227.494 231.612 227.564C231.911 227.677 232.223 227.911 232.582 228.233C233.05 227.602 233.639 226.928 234.181 226.376L234.32 226.234L234.492 226.334C235.282 226.795 236.115 227.531 236.741 228.835C237.392 230.192 238.725 230.638 240.083 230.572C240.762 230.539 241.432 230.378 241.998 230.147C242.568 229.914 243.013 229.62 243.253 229.337C243.589 228.946 244.066 228.778 244.562 228.712C245.057 228.647 245.613 228.676 246.143 228.707C246.682 228.738 247.199 228.769 247.656 228.724C248.114 228.68 248.473 228.562 248.724 228.324C249.39 227.695 250.26 227.306 251.378 227.067C252.496 226.829 253.879 226.736 255.586 226.707C257.274 226.677 259.44 226.416 261.264 225.979C262.174 225.76 262.993 225.5 263.619 225.208C264.261 224.908 264.645 224.598 264.776 224.316C265.162 223.472 266.017 223.085 266.776 223.34C267.548 223.601 268.086 224.471 267.989 225.865C267.895 227.223 267.515 228.704 267.177 230.008C267.004 230.664 266.846 231.276 266.731 231.816C266.617 232.358 266.551 232.809 266.565 233.146C266.582 233.571 266.421 234.197 266.175 234.893C265.924 235.602 265.57 236.424 265.168 237.253C264.366 238.91 263.365 240.632 262.605 241.61C261.861 242.57 260.999 243.692 260.287 244.818C259.571 245.949 259.022 247.058 258.879 247.994C258.712 249.043 258.011 250.34 257.11 251.686C256.203 253.042 255.067 254.491 253.996 255.854C252.283 258.029 250.167 260.344 248.232 262.239C247.266 263.186 246.341 264.033 245.533 264.704C244.93 265.204 244.382 265.614 243.927 265.898L243.5 266.138C242.511 266.635 241.581 267.093 240.461 267.885C239.48 268.579 238.346 269.533 236.901 270.999L236.261 271.659C234.632 273.373 232.712 275.289 231.003 277.041C229.286 278.798 227.786 280.386 226.979 281.464L226.827 281.665C226.755 281.765 226.683 281.86 226.626 281.951C226.31 282.455 226.041 282.763 225.795 282.945C225.535 283.136 225.307 283.181 225.102 283.181C225.013 283.181 224.915 283.172 224.857 283.169C224.788 283.166 224.738 283.168 224.691 283.177C224.63 283.189 224.549 283.22 224.436 283.326L224.315 283.458C223.874 284.002 223.386 284.215 222.953 284.446C222.58 284.646 222.206 284.876 221.829 285.376L221.669 285.606C221.416 285.996 220.786 287.272 220.018 288.961C219.279 290.589 218.419 292.582 217.666 294.484L217.668 294.486L217.595 294.674C217.024 296.126 216.519 297.513 216.181 298.631C216.012 299.191 215.885 299.681 215.811 300.074C215.738 300.476 215.727 300.745 215.76 300.887L215.854 301.178C216.127 301.817 216.739 302.219 217.313 302.645C217.619 302.872 217.942 303.126 218.102 303.444C218.185 303.612 218.224 303.801 218.199 304.005C218.176 304.206 218.09 304.411 217.951 304.619C217.469 305.344 217.143 306.06 217.012 306.602C216.946 306.875 216.938 307.084 216.965 307.221C216.989 307.347 217.034 307.378 217.071 307.389C217.332 307.47 217.488 307.688 217.576 307.922C217.664 308.157 217.705 308.453 217.726 308.774C217.764 309.418 217.717 310.258 217.685 311.11C217.658 311.879 217.96 312.248 218.344 312.788C218.74 313.346 219.17 314.03 219.233 315.363C219.262 315.928 219.435 316.268 219.66 316.505C219.898 316.751 220.212 316.91 220.573 317.085C220.918 317.251 221.316 317.437 221.624 317.747C221.884 318.007 222.071 318.344 222.151 318.803L222.18 318.792L222.194 319.171C222.194 319.183 222.196 319.198 222.2 319.228C222.202 319.255 222.207 319.297 222.207 319.339C222.207 320.63 222.362 322.612 222.485 324.546C222.61 326.463 222.705 328.349 222.576 329.399C222.457 330.38 222.607 332.114 222.847 333.763C223.087 335.41 223.411 336.919 223.614 337.448L223.657 337.634C223.663 337.698 223.661 337.764 223.657 337.828C223.645 337.957 223.612 338.1 223.567 338.248C223.475 338.545 223.318 338.894 223.115 339.276C222.709 340.041 222.102 340.965 221.404 341.896C220.015 343.749 218.224 345.69 216.874 346.492C215.54 347.286 214.126 347.667 212.754 348.096C211.373 348.527 210.017 349.012 208.725 350.004C207.422 351.001 206.757 351.878 206.209 352.664C205.659 353.447 205.202 354.186 204.326 354.835C203.448 355.485 202.731 355.638 202.186 355.825C201.915 355.917 201.688 356.016 201.48 356.18C201.273 356.342 201.071 356.584 200.866 356.976C200.651 357.39 200.491 357.731 200.35 358.016C200.212 358.297 200.091 358.536 199.958 358.724C199.821 358.919 199.664 359.071 199.455 359.175C199.25 359.28 199.013 359.325 198.732 359.341C198.529 359.354 198.39 359.428 198.285 359.539C198.179 359.656 198.095 359.834 198.05 360.086C197.96 360.593 198.039 361.322 198.283 362.173C198.519 363.004 198.897 363.517 199.308 364.274C199.667 364.93 200.015 365.725 200.245 366.972L200.337 367.537L200.512 368.581C200.696 369.53 200.901 370.212 201.049 370.789C201.246 371.56 201.34 372.166 201.067 372.918C200.957 373.224 200.891 373.67 200.856 374.201C200.824 374.728 200.819 375.321 200.819 375.918C200.819 376.508 200.821 377.108 200.803 377.635C200.782 378.154 200.739 378.631 200.637 378.973C200.425 379.676 199.936 380.218 199.077 380.739C198.439 381.129 197.58 381.517 196.445 381.96L195.216 382.425C193.468 383.067 191.739 383.957 190.506 384.831C189.89 385.27 189.408 385.696 189.11 386.078C188.803 386.469 188.739 386.751 188.801 386.929C188.885 387.167 188.995 387.233 189.094 387.261C189.155 387.28 189.227 387.287 189.315 387.289C189.36 387.289 189.406 387.287 189.455 387.287C189.502 387.285 189.555 387.285 189.606 387.285C189.803 387.285 190.089 387.305 190.286 387.551C190.466 387.777 190.524 388.134 190.493 388.636C190.464 389.088 190.407 389.722 190.325 390.455L190.327 390.457L190.296 390.737C190.29 390.786 190.281 390.836 190.275 390.885L190.268 390.965L190.266 390.963C190.118 392.166 189.898 393.561 189.591 394.788C189.427 395.44 189.237 396.053 189.019 396.566C188.802 397.075 188.548 397.511 188.242 397.792C186.808 399.099 183.989 401.553 182.28 404.418C180.53 407.351 175.375 413.75 172.259 416.673C170.699 418.138 168.936 419.509 167.358 420.516C166.57 421.019 165.822 421.433 165.166 421.724C164.518 422.011 163.93 422.186 163.473 422.186C163.269 422.186 163.063 422.182 162.862 422.18C162.66 422.176 162.461 422.171 162.269 422.171C161.881 422.169 161.526 422.184 161.225 422.24C160.922 422.293 160.696 422.386 160.54 422.521C160.393 422.648 160.287 422.835 160.262 423.132V423.134C160.225 423.546 160.062 423.836 159.752 423.961C159.485 424.068 159.164 424.021 158.898 423.969C158.601 423.91 158.341 423.836 158.073 423.803C157.814 423.775 157.62 423.795 157.478 423.887L157.477 423.889C156.627 424.427 155.302 424.983 153.579 424.515L153.228 424.406C151.494 423.807 149.009 423.862 146.941 424.465C145.939 424.759 145.556 425.12 145.124 425.434C144.901 425.598 144.661 425.75 144.328 425.859C143.998 425.968 143.588 426.027 143.028 426.027C141.954 426.029 140.907 426.105 140.051 426.3C139.289 426.475 138.724 426.73 138.405 427.067L138.283 427.217C137.56 428.271 136.075 428.359 135.292 427.581L135.145 427.412C134.832 427.004 134.521 426.591 134.176 426.269C133.832 425.947 133.481 425.742 133.1 425.717C132.831 425.699 132.628 425.629 132.469 425.514C132.318 425.404 132.216 425.261 132.138 425.159C132.055 425.05 131.981 424.958 131.87 424.876C131.787 424.815 131.673 424.755 131.511 424.706L131.331 424.659C131.16 424.624 131.011 424.566 130.89 424.478C130.766 424.386 130.681 424.268 130.627 424.139C130.529 423.901 130.525 423.6 130.515 423.321C130.492 422.734 130.448 421.952 129.804 420.96C129.123 419.905 128.743 419.045 128.734 418.401C128.73 418.065 128.827 417.769 129.047 417.547C129.262 417.33 129.567 417.209 129.924 417.158L130.093 417.119C130.236 417.067 130.316 416.985 130.365 416.882C130.442 416.727 130.465 416.484 130.425 416.144C130.343 415.465 130.03 414.568 129.716 413.589L129.583 413.228C129.23 412.354 128.576 411.265 127.862 410.003C127.157 408.758 126.406 407.364 125.893 405.916L125.688 405.293C125.077 403.282 123.905 400.795 122.557 398.668L122.528 398.625C121.71 397.336 120.834 396.188 119.992 395.368C118.786 394.194 118.157 392.219 117.776 390.274C117.397 388.329 117.251 386.306 117.07 385.071C116.693 382.519 116.267 380.021 115.602 378.577C115.409 378.152 115.355 377.622 115.359 377.06C115.364 376.494 115.427 375.86 115.488 375.218C115.598 374.076 115.7 372.906 115.506 371.905L115.401 371.484C115.074 370.374 114.259 368.983 113.384 367.453C112.519 365.939 111.604 364.304 111.13 362.755C110.263 359.93 108.695 356.625 107.347 354.664L107.08 354.291C106.387 353.353 105.754 352.286 105.31 351.289C104.941 350.462 104.691 349.651 104.664 348.995L104.656 348.999L104.668 348.654C104.669 348.634 104.668 348.619 104.668 348.579C104.668 348.548 104.671 348.503 104.679 348.456V348.447C104.801 347.842 104.958 346.723 105.073 345.612C105.189 344.496 105.263 343.416 105.231 342.882C105.213 342.532 105.37 342.118 105.569 341.706C105.773 341.285 106.056 340.796 106.325 340.292C106.876 339.264 107.403 338.12 107.403 336.984C107.403 335.732 107.8 334.12 108.377 332.612C108.954 331.106 109.725 329.668 110.495 328.769C112.011 326.999 113.646 325.422 113.41 322.891C113.291 321.607 112.658 319.988 112.033 318.381C111.724 317.586 111.42 316.793 111.192 316.067C110.966 315.343 110.808 314.657 110.808 314.075C110.808 312.94 111.134 312.094 111.372 311.419C111.615 310.73 111.739 310.273 111.513 309.793L110.823 308.359C109.892 306.409 108.402 303.169 107.828 301.005L107.784 300.834L107.786 300.83C107.762 300.743 107.738 300.657 107.72 300.575C107.42 299.222 107.042 297.712 106.339 296.203L106.245 296.008C105.512 294.496 104.432 292.997 102.732 291.683L102.286 291.328L102.105 291.184L102.111 291.171C100.741 290.027 100.265 289.292 99.8818 288.579C99.4982 287.864 99.2205 287.21 98.1298 286.149C96.9539 285.005 96.1967 284.235 95.7275 283.648C95.2551 283.056 95.0516 282.619 95.0146 282.143C95.0112 282.1 94.9838 282.015 94.9101 281.882C94.8392 281.755 94.7372 281.605 94.6142 281.438C94.3642 281.1 94.0499 280.722 93.7441 280.334C93.4477 279.956 93.1587 279.565 92.9931 279.226C92.9112 279.058 92.8463 278.878 92.8408 278.706C92.8352 278.519 92.9023 278.333 93.0732 278.205C93.436 277.934 93.8477 277.58 94.1591 277.161C94.4313 276.794 94.6176 276.387 94.6415 275.952V275.764C94.62 275.348 94.8502 275.066 95.1328 274.88C95.4046 274.702 95.7579 274.588 96.0644 274.496C96.3915 274.397 96.6592 274.326 96.8359 274.233C96.9205 274.188 96.9515 274.154 96.9599 274.141V274.13L96.9521 274.107C96.8969 273.965 96.7616 273.801 96.5576 273.614C96.355 273.429 96.1238 273.256 95.8964 273.069C95.6836 272.894 95.4613 272.697 95.3349 272.496C95.2701 272.392 95.2157 272.265 95.2187 272.122C95.2224 271.97 95.29 271.834 95.3974 271.726C95.5864 271.537 95.8283 271.255 96.0205 270.967L96.0722 270.887C96.1522 270.764 96.2183 270.645 96.2626 270.539C96.3078 270.43 96.325 270.347 96.3251 270.293C96.3247 270.249 96.3133 270.238 96.3085 270.234C96.2961 270.223 96.2477 270.194 96.1191 270.186C95.8095 270.167 95.5454 270.065 95.3593 269.889C95.1712 269.712 95.0765 269.472 95.0869 269.22C95.1086 268.718 95.5295 268.248 96.2343 268.011H96.2373C97.3677 267.639 97.6289 266.474 97.0966 265.675C97.0635 265.625 97.0465 265.571 97.04 265.549C97.0356 265.535 97.0339 265.529 97.0322 265.523L96.8583 265.157H96.9199C96.8819 264.948 96.8786 264.727 96.9003 264.507C96.9362 264.149 97.0326 263.768 97.1484 263.406C97.2649 263.042 97.4051 262.684 97.5273 262.376C97.6516 262.061 97.7543 261.806 97.8095 261.625V261.62C97.8546 261.475 97.862 261.189 97.8173 260.802C97.7738 260.427 97.6863 259.988 97.5693 259.562C97.452 259.135 97.3072 258.726 97.1542 258.406C97.0777 258.246 97.0004 258.113 96.9277 258.013C96.8534 257.911 96.7951 257.858 96.7578 257.837C96.657 257.782 96.4903 257.763 96.2265 257.779C96.1001 257.786 95.9646 257.8 95.8164 257.815C95.6702 257.829 95.5129 257.845 95.3535 257.853C94.7174 257.885 93.9627 257.809 93.4501 257.078C93.2941 256.855 93.1402 256.616 92.9912 256.384C92.8413 256.151 92.6946 255.924 92.5517 255.713C92.2575 255.28 92.0002 254.962 91.7783 254.824L91.7412 254.799C91.6678 254.76 91.6137 254.745 91.5742 254.746C91.5356 254.746 91.485 254.761 91.416 254.824C91.2867 254.942 91.1083 255.03 90.9189 255.098C90.7255 255.168 90.4987 255.224 90.2539 255.27C89.7633 255.363 89.1758 255.42 88.5869 255.455C87.4083 255.525 86.189 255.509 85.666 255.509C85.4485 255.51 85.1418 255.586 84.7656 255.711C84.3908 255.837 83.9916 255.993 83.5703 256.144C83.1583 256.292 82.7342 256.431 82.3496 256.499C81.9736 256.565 81.5837 256.573 81.2734 256.407C80.7497 256.129 80.1468 255.45 79.6904 254.736C79.4587 254.373 79.2553 253.988 79.1142 253.622C78.975 253.261 78.8869 252.895 78.9052 252.58C78.9167 252.387 78.8278 252.064 78.6191 251.658C78.4156 251.262 78.1151 250.817 77.7509 250.389C77.0143 249.525 76.0532 248.771 75.1425 248.571C74.6565 248.464 74.0714 248.372 73.4492 248.278C72.8303 248.185 72.174 248.09 71.5576 247.977C70.9427 247.865 70.3541 247.733 69.8691 247.563C69.4071 247.401 68.9925 247.188 68.7548 246.887C68.7453 246.881 68.7326 246.872 68.7206 246.861L68.6708 246.815L68.6669 246.805C68.6105 246.747 68.5645 246.716 68.5283 246.703C68.4881 246.689 68.4411 246.685 68.3818 246.699C68.2433 246.73 68.0738 246.838 67.8388 247.009C67.4089 247.322 66.7984 247.832 66.0302 247.833C65.3269 247.833 64.2841 247.887 63.289 248.078L63.2773 248.082C62.3768 248.256 61.5539 248.524 61.0527 248.949L61.0507 248.951C60.8535 249.116 60.6198 249.263 60.374 249.404L60.3798 249.414L60.1552 249.532L59.9248 249.654L59.9208 249.646C59.3077 249.946 58.5925 250.224 57.8535 250.507C57.0126 250.83 56.1336 251.168 55.3046 251.584C54.2467 252.113 52.3975 252.983 50.7197 253.698C49.8818 254.054 49.0817 254.374 48.4423 254.593C48.1234 254.703 47.8382 254.79 47.6064 254.843C47.491 254.87 47.3826 254.889 47.288 254.898C47.1978 254.907 47.0981 254.908 47.0097 254.886C46.9041 254.86 46.7524 254.802 46.58 254.732C46.3975 254.658 46.1785 254.566 45.913 254.46C45.3864 254.249 44.6944 253.989 43.8613 253.748L43.7509 253.715C41.7895 253.16 39.062 252.727 35.8466 253.275C33.2021 253.731 30.7534 254.416 28.6396 254.984C26.6535 255.517 24.932 255.95 23.6464 255.972L23.6445 255.984L23.4365 255.982C23.3738 255.981 23.3114 255.977 23.2499 255.974L23.124 255.972V255.968C22.8401 255.948 22.5701 255.9 22.3281 255.805C21.2149 255.394 19.5071 254.42 17.7138 253.277C15.9116 252.128 14.0003 250.791 12.4785 249.642C10.9037 248.452 8.97738 247.233 7.2812 246.164L7.04682 246.016C7.03669 246.01 7.02667 246.002 7.01655 245.996L6.84858 245.891V245.887C5.49062 245.026 4.29741 244.272 3.66694 243.746C2.96251 243.166 2.34556 242.68 1.78901 241.906C1.2315 241.13 0.740995 240.077 0.242136 238.362L0.114206 237.967C-0.00493431 237.628 -0.14518 237.305 -0.29302 236.991L-0.354545 236.863C-1.36678 234.764 -2.973 233.346 -4.39654 232.26L-4.99322 231.814C-5.87723 231.165 -6.28872 230.498 -6.6524 229.869C-7.01325 229.244 -7.31875 228.675 -7.99224 228.133L-8.11236 228.037C-8.21847 227.954 -8.31937 227.873 -8.44341 227.794C-8.97613 227.461 -9.23862 227.101 -9.33111 226.718C-9.41877 226.354 -9.34029 226.002 -9.29302 225.745C-9.24095 225.46 -9.22814 225.29 -9.30474 225.15C-9.38056 225.012 -9.5873 224.831 -10.171 224.667C-11.2711 224.357 -11.8874 224.024 -12.3643 223.581C-12.5984 223.363 -12.7932 223.123 -12.9913 222.864C-13.1927 222.6 -13.3962 222.318 -13.6592 221.992L-13.6612 221.99C-13.7875 221.831 -13.9189 221.677 -14.0752 221.502C-14.6532 220.848 -14.7119 220.073 -14.6163 219.343L-14.5928 219.171L-14.4239 219.127C-13.8555 218.984 -13.3879 218.877 -13.1524 218.863C-12.5408 218.825 -11.5754 218.691 -10.6592 218.469C-10.2017 218.359 -9.76041 218.226 -9.38482 218.077C-9.00572 217.926 -8.71117 217.763 -8.52935 217.598L-8.42095 217.51C-8.16265 217.326 -7.87168 217.286 -7.58208 217.328C-7.26429 217.373 -6.93372 217.518 -6.62212 217.676C-6.465 217.756 -6.30417 217.844 -6.14751 217.928C-5.98885 218.014 -5.8294 218.097 -5.67388 218.173C-5.36058 218.326 -5.06879 218.439 -4.79888 218.473L-4.58599 218.49C-4.08664 218.503 -3.57622 218.361 -3.16216 218.197C-3.10701 218.175 -3.05383 218.15 -3.00298 218.127C-3.33409 218.08 -3.82216 218.02 -4.53619 217.966C-5.66539 217.878 -6.28335 217.147 -6.78423 216.646C-7.04443 216.386 -7.26328 216.196 -7.50396 216.109C-7.72651 216.029 -8.00288 216.024 -8.40337 216.215C-9.31386 216.651 -10.0997 216.936 -10.9502 217.08C-11.7999 217.222 -12.7025 217.221 -13.8428 217.105L-14.086 217.081L-14.0733 216.836C-14.0593 216.552 -14.1173 216.364 -14.2442 216.244C-14.7671 215.754 -15.5163 214.748 -15.9629 213.599C-16.4081 212.453 -16.5769 211.098 -15.8311 209.972L-15.8292 209.97C-15.2592 209.124 -15.0574 207.99 -14.9229 206.819L-14.9131 206.738C-14.8377 206.035 -14.7847 205.31 -14.6885 204.674C-14.5922 204.038 -14.4472 203.441 -14.1661 202.99C-13.7045 202.25 -12.8987 200.879 -12.4444 199.373C-11.9882 197.859 -11.9057 196.271 -12.793 195.04C-13.8141 193.622 -13.7083 192.216 -13.5362 191.034C-13.4486 190.432 -13.3485 189.915 -13.3467 189.445C-13.3452 188.988 -13.4386 188.618 -13.7071 188.311L-13.709 188.309C-14.5704 187.325 -16.2463 186.297 -16.1309 183.667H-16.1417L-16.1231 183.472C-16.1211 183.445 -16.1215 183.417 -16.1192 183.39L-16.0997 183.156H-16.087C-15.9618 182.132 -15.5949 180.896 -14.8594 179.357C-13.4268 176.366 -11.6166 173.779 -10.1563 171.611C-9.42409 170.524 -8.78214 169.543 -8.31158 168.666C-7.83937 167.785 -7.55279 167.03 -7.50982 166.389L-7.47759 166.104C-7.36961 165.441 -7.04606 164.788 -6.62212 164.165C-6.13626 163.45 -5.50103 162.751 -4.8604 162.087C-4.21256 161.416 -3.56777 160.79 -3.0274 160.198C-2.48586 159.605 -2.08868 159.083 -1.92193 158.639L-1.53326 157.675C-1.16753 156.834 -0.681723 155.93 0.0116673 155.147H-0.0400906L0.434519 154.704C0.457233 154.682 0.481701 154.662 0.504831 154.641L0.512644 154.633C1.29188 153.928 2.28992 153.371 3.60053 153.153C5.20662 152.884 6.16942 152.19 6.99702 151.4C7.20554 151.201 7.40623 150.994 7.60737 150.787C7.80732 150.58 8.01014 150.37 8.2187 150.166C8.63781 149.756 9.09364 149.36 9.64546 149.036C10.6591 148.44 12.0763 147.088 13.1416 145.71C13.6724 145.022 14.1061 144.341 14.3564 143.757C14.4813 143.466 14.5566 143.208 14.58 142.993C14.5972 142.832 14.5846 142.704 14.5507 142.606L14.5107 142.516C14.084 141.792 13.688 140.465 13.5927 139.168C13.5449 138.516 13.5713 137.855 13.7148 137.272C13.8584 136.689 14.1247 136.162 14.5703 135.805L14.8173 135.587C15.3437 135.071 15.5556 134.486 15.7568 133.876C15.9843 133.185 16.2055 132.425 16.9248 131.844L17.1328 131.652C17.3316 131.444 17.507 131.191 17.6718 130.911C17.8979 130.526 18.0803 130.136 18.3007 129.732C18.7158 128.972 19.2468 128.198 20.2451 128.198C21.0334 128.198 22.2834 127.9 23.4951 127.375C24.7093 126.847 25.8332 126.112 26.4121 125.272L26.6464 124.902C26.8916 124.484 27.1681 123.928 27.4658 123.296C27.8617 122.456 28.2833 121.502 28.708 120.576C29.1301 119.655 29.5545 118.764 29.9482 118.067C30.1449 117.719 30.3386 117.411 30.5234 117.171C30.7023 116.939 30.8962 116.739 31.1005 116.642C31.7605 116.33 32.4152 116.334 33.1083 116.659C33.7834 116.975 34.4937 117.596 35.3046 118.5C36.0279 119.307 37.1599 119.485 38.456 119.438C39.0984 119.415 39.7596 119.338 40.4072 119.269C41.0483 119.201 41.6818 119.14 42.2431 119.155C43.0688 119.181 43.9517 119.491 44.7734 119.77C45.6171 120.056 46.3997 120.31 47.0937 120.295L47.1757 120.293C47.6704 120.272 48.1137 120.103 48.4921 119.68C49.3216 118.755 50.5128 117.885 51.7343 117.248C52.9503 116.613 54.233 116.19 55.2519 116.19C55.6531 116.19 56.0472 116.015 56.4765 115.712C56.9099 115.407 57.3447 115 57.8476 114.565C58.8363 113.709 60.0418 112.788 61.746 112.721C63.3462 112.66 66.9761 112.168 70.3857 111.818C72.0822 111.644 73.7241 111.506 75.0107 111.477C75.6524 111.463 76.2158 111.476 76.6572 111.527C76.8774 111.553 77.0753 111.589 77.2402 111.639C77.4003 111.688 77.5554 111.756 77.6669 111.86L77.6689 111.862C77.864 112.046 78.1861 112.117 78.6513 112.064C79.1108 112.012 79.6532 111.846 80.2216 111.639C80.5039 111.536 80.7898 111.424 81.0712 111.313C81.3515 111.202 81.631 111.091 81.8945 110.993C82.4119 110.799 82.9129 110.636 83.2988 110.618C83.9615 110.589 84.8234 110.424 85.6415 110.291C86.0441 110.225 86.437 110.168 86.7773 110.143C87.1089 110.119 87.4296 110.12 87.6669 110.199C88.1425 110.354 89.7947 110.889 91.3339 110.944L91.5322 110.946C92.3939 110.951 93.1439 110.796 93.6123 110.369L93.7763 110.229ZM185.911 391.554C185.775 391.782 185.624 391.999 185.46 392.207C185.586 392.156 185.68 392.093 185.747 392.015C185.827 391.923 185.885 391.792 185.903 391.599L185.911 391.554ZM186.552 390.066C186.498 390.258 186.435 390.446 186.363 390.63C186.438 390.547 186.516 390.47 186.593 390.401C186.589 390.368 186.584 390.335 186.58 390.298C186.571 390.226 186.562 390.147 186.552 390.066ZM259.009 324.914C259.197 324.94 259.317 325.094 259.391 325.225C259.47 325.369 259.544 325.57 259.616 325.833C259.698 326.136 259.907 326.535 260.194 327.029C260.473 327.507 260.832 328.082 261.173 328.683C261.856 329.895 262.535 331.332 262.599 332.821C262.658 334.204 263.141 335.655 263.578 337.043C263.793 337.733 263.999 338.406 264.126 339.034C264.222 339.505 264.273 339.964 264.253 340.39L264.203 340.806C264.014 341.813 263.576 342.473 262.932 342.559C262.618 342.6 262.303 342.491 262.022 342.286C261.742 342.081 261.479 341.773 261.251 341.383C261.048 341.035 260.904 341.018 260.863 341.024C260.8 341.032 260.671 341.118 260.548 341.399C260.314 341.937 260.25 342.89 260.597 343.759C261.006 344.787 260.722 345.614 260.408 346.352C260.127 347.013 259.839 347.584 259.846 348.236L259.885 348.732C259.891 348.956 259.87 349.229 259.827 349.535C259.772 349.951 259.675 350.45 259.548 351.014C259.291 352.142 258.908 353.548 258.45 355.088C257.533 358.174 256.325 361.833 255.27 364.988C254.22 368.143 253.079 372.091 252.006 375.493C251.47 377.187 250.954 378.748 250.476 379.991C250.238 380.612 250.007 381.16 249.788 381.607C249.571 382.05 249.357 382.414 249.15 382.656C248.74 383.136 248.323 383.405 247.904 383.548C247.492 383.692 247.089 383.708 246.727 383.712C246.08 383.721 245.549 383.694 245.028 384.085L244.803 384.283C244.396 384.687 243.785 384.857 243.122 384.883C242.453 384.91 241.69 384.791 240.931 384.578C239.417 384.153 237.851 383.332 237.002 382.418C236.144 381.494 235.729 380.064 235.389 378.616C235.087 377.324 234.843 376.006 234.423 374.888L234.229 374.419C233.079 371.869 232.833 367.801 235.875 364.121C237.336 362.356 237.83 360.956 237.845 359.686C237.859 358.4 237.385 357.21 236.827 355.839C235.711 353.111 235.042 350.406 236.345 348.063C236.929 347.011 236.961 345.628 237.041 344.457C237.08 343.893 237.131 343.353 237.291 342.969C237.375 342.772 237.498 342.591 237.685 342.476C237.873 342.357 238.099 342.327 238.346 342.364C239.074 342.476 239.874 342.195 240.793 341.879C241.681 341.574 242.671 341.239 243.67 341.371L243.819 341.383C244.168 341.391 244.55 341.272 244.967 341.054C245.443 340.81 245.935 340.453 246.437 340.074C246.934 339.698 247.445 339.299 247.939 338.989C248.43 338.679 248.941 338.433 249.439 338.398C250.256 338.34 251.134 337.988 251.729 337.524C252.027 337.292 252.238 337.041 252.341 336.807C252.439 336.582 252.438 336.374 252.33 336.177L252.222 335.959C252.136 335.75 252.104 335.564 252.129 335.392C252.16 335.169 252.276 335.004 252.356 334.889C252.44 334.764 252.503 334.672 252.529 334.543C252.554 334.415 252.547 334.222 252.436 333.913L252.356 333.624C252.303 333.345 252.329 333.084 252.421 332.848C252.542 332.54 252.768 332.3 253.032 332.126C253.553 331.779 254.267 331.644 254.816 331.711C255.227 331.763 255.816 331.58 256.296 331.246C256.784 330.905 257.05 330.491 257.006 330.144C256.942 329.617 256.975 328.968 257.09 328.389C257.145 328.098 257.226 327.819 257.324 327.575C257.42 327.335 257.545 327.114 257.701 326.956C257.734 326.925 257.781 326.856 257.839 326.744C257.894 326.635 257.95 326.502 258.01 326.354C258.122 326.073 258.247 325.724 258.372 325.463C258.433 325.332 258.508 325.203 258.59 325.105C258.666 325.017 258.81 324.887 259.009 324.914Z" fill="#1E3A8A" fill-opacity="0.2"/>
<path d="M24.681 345.794L52.0215 252.887L72.5268 242.848L56.4379 325.17H114.063L106.702 353.983H52.0215L38.3512 404.272L72.5268 411.608V423.765H-30V411.608L4.17561 404.272L24.681 345.794Z" fill="#1E3A8A" fill-opacity="0.2"/>
</svg>
